M48
; DRILL file KiCad 10.0.0 date 2026-07-09T05:21:42
; FORMAT={-:-/ absolute / metric / decimal}
; #@! TF.CreationDate,2026-07-09T05:21:42+05:30
; #@! TF.GenerationSoftware,Kicad,Pcbnew,10.0.0
; #@! TF.FileFunction,NonPlated,1,2,NPTH
FMAT,2
METRIC
; #@! TA.AperFunction,NonPlated,NPTH,ComponentDrill
T1C0.900
; #@! TA.AperFunction,NonPlated,NPTH,ComponentDrill
T2C3.000
; #@! TA.AperFunction,NonPlated,NPTH,ComponentDrill
T3C3.200
; #@! TA.AperFunction,NonPlated,NPTH,ComponentDrill
T4C5.000
; #@! TA.AperFunction,NonPlated,NPTH,ComponentDrill
T5C5.100
%
G90
G05
T1
X64.428Y-113.572
X64.428Y-116.572
T2
X67.744Y-101.325
X70.125Y-177.525
X72.506Y-120.375
X74.744Y-102.375
X74.888Y-139.425
X77.125Y-178.575
X77.269Y-158.475
X79.506Y-121.425
X81.888Y-140.475
X84.269Y-159.525
X86.794Y-101.325
X93.794Y-102.375
X93.938Y-177.525
X96.319Y-120.375
X100.938Y-178.575
X101.081Y-139.425
X103.319Y-121.425
X105.844Y-101.325
X105.844Y-158.475
X108.081Y-140.475
X112.844Y-102.375
X112.844Y-159.525
X115.369Y-120.375
X117.75Y-177.525
X120.131Y-139.425
X122.369Y-121.425
X124.75Y-178.575
X124.894Y-101.325
X124.894Y-158.475
X127.131Y-140.475
X131.894Y-102.375
X131.894Y-159.525
X134.419Y-120.375
X139.181Y-139.425
X141.419Y-121.425
X143.944Y-101.325
X143.944Y-158.475
X146.181Y-140.475
X150.944Y-102.375
X150.944Y-159.525
X153.469Y-120.375
X158.231Y-139.425
X160.469Y-121.425
X162.994Y-101.325
X162.994Y-158.475
X165.231Y-140.475
X169.994Y-102.375
X169.994Y-159.525
X172.519Y-120.375
X177.281Y-139.425
X179.519Y-121.425
X182.044Y-101.325
X182.044Y-158.475
X184.281Y-140.475
X189.044Y-102.375
X189.044Y-159.525
X189.188Y-177.525
X191.569Y-120.375
X196.188Y-178.575
X196.331Y-139.425
X198.569Y-121.425
X201.094Y-101.325
X201.094Y-158.475
X203.331Y-140.475
X208.094Y-102.375
X208.094Y-159.525
X210.619Y-120.375
X215.381Y-139.425
X217.619Y-121.425
X220.144Y-101.325
X220.144Y-158.475
X222.381Y-140.475
X227.144Y-102.375
X227.144Y-159.525
X229.669Y-120.375
X234.431Y-139.425
X236.669Y-121.425
X239.194Y-101.325
X239.194Y-158.475
X241.431Y-140.475
X246.194Y-102.375
X246.194Y-159.525
X248.719Y-120.375
X253.481Y-139.425
X255.719Y-121.425
X258.244Y-101.325
X258.244Y-158.475
X258.244Y-177.525
X260.481Y-140.475
X265.244Y-102.375
X265.244Y-159.525
X265.244Y-178.575
X267.769Y-120.375
X272.531Y-139.425
X274.769Y-121.425
X277.294Y-101.325
X277.294Y-158.475
X277.294Y-177.525
X279.531Y-140.475
X284.294Y-102.375
X284.294Y-159.525
X284.294Y-178.575
X286.819Y-120.375
X291.581Y-139.425
X293.819Y-121.425
X296.344Y-101.325
X296.344Y-158.475
X296.344Y-177.525
X298.581Y-140.475
X303.344Y-102.375
X303.344Y-159.525
X303.344Y-178.575
X305.869Y-120.375
X312.869Y-121.425
X315.394Y-158.475
X315.394Y-177.525
X322.394Y-159.525
X322.394Y-178.575
X322.537Y-139.425
X324.919Y-101.325
X329.537Y-140.475
X329.681Y-120.375
X331.919Y-102.375
X334.444Y-158.475
X334.444Y-177.525
X336.681Y-121.425
X341.444Y-159.525
X341.444Y-178.575
T3
X153.106Y-129.963
X195.969Y-91.862
X248.356Y-129.963
T4
X86.431Y-172.825
X88.812Y-113.294
X181.681Y-172.825
X322.175Y-113.294
X329.319Y-168.285
T5
X72.144Y-96.625
X74.525Y-172.825
X76.906Y-115.675
X79.287Y-134.725
X81.669Y-153.775
X91.194Y-96.625
X98.337Y-172.825
X100.719Y-115.675
X105.481Y-134.725
X110.244Y-96.625
X110.244Y-153.775
X119.769Y-115.675
X122.15Y-172.825
X124.531Y-134.725
X129.294Y-96.625
X129.294Y-153.775
X138.819Y-115.675
X143.581Y-134.725
X148.344Y-96.625
X148.344Y-153.775
X157.869Y-115.675
X162.631Y-134.725
X167.394Y-96.625
X167.394Y-153.775
X176.919Y-115.675
X181.681Y-134.725
X186.444Y-96.625
X186.444Y-153.775
X193.587Y-172.825
X195.969Y-115.675
X200.731Y-134.725
X205.494Y-96.625
X205.494Y-153.775
X215.019Y-115.675
X219.781Y-134.725
X224.544Y-96.625
X224.544Y-153.775
X234.069Y-115.675
X238.831Y-134.725
X243.594Y-96.625
X243.594Y-153.775
X253.119Y-115.675
X257.881Y-134.725
X262.644Y-96.625
X262.644Y-153.775
X262.644Y-172.825
X272.169Y-115.675
X276.931Y-134.725
X281.694Y-96.625
X281.694Y-153.775
X281.694Y-172.825
X291.219Y-115.675
X295.981Y-134.725
X300.744Y-96.625
X300.744Y-153.775
X300.744Y-172.825
X310.269Y-115.675
X319.794Y-153.775
X319.794Y-172.825
X326.938Y-134.725
X329.319Y-96.625
X334.081Y-115.675
X338.844Y-153.775
X338.844Y-172.825
M30
