%TF.GenerationSoftware,KiCad,Pcbnew,10.0.0*%
%TF.CreationDate,2026-07-09T05:21:45+05:30*%
%TF.ProjectId,Open Deck,4f70656e-2044-4656-936b-2e6b69636164,V1*%
%TF.SameCoordinates,Original*%
%TF.FileFunction,Soldermask,Bot*%
%TF.FilePolarity,Negative*%
%FSLAX46Y46*%
G04 Gerber Fmt 4.6, Leading zero omitted, Abs format (unit mm)*
G04 Created by KiCad (PCBNEW 10.0.0) date 2026-07-09 05:21:45*
%MOMM*%
%LPD*%
G01*
G04 APERTURE LIST*
G04 Aperture macros list*
%AMRoundRect*
0 Rectangle with rounded corners*
0 $1 Rounding radius*
0 $2 $3 $4 $5 $6 $7 $8 $9 X,Y pos of 4 corners*
0 Add a 4 corners polygon primitive as box body*
4,1,4,$2,$3,$4,$5,$6,$7,$8,$9,$2,$3,0*
0 Add four circle primitives for the rounded corners*
1,1,$1+$1,$2,$3*
1,1,$1+$1,$4,$5*
1,1,$1+$1,$6,$7*
1,1,$1+$1,$8,$9*
0 Add four rect primitives between the rounded corners*
20,1,$1+$1,$2,$3,$4,$5,0*
20,1,$1+$1,$4,$5,$6,$7,0*
20,1,$1+$1,$6,$7,$8,$9,0*
20,1,$1+$1,$8,$9,$2,$3,0*%
G04 Aperture macros list end*
%ADD10C,3.000000*%
%ADD11C,5.100000*%
%ADD12R,2.550000X2.550000*%
%ADD13R,2.271000X2.550000*%
%ADD14C,5.000000*%
%ADD15R,1.550000X2.550000*%
%ADD16C,3.200000*%
%ADD17RoundRect,0.225000X-0.375000X0.225000X-0.375000X-0.225000X0.375000X-0.225000X0.375000X0.225000X0*%
%ADD18RoundRect,0.250000X-1.500000X0.250000X-1.500000X-0.250000X1.500000X-0.250000X1.500000X0.250000X0*%
%ADD19RoundRect,0.250001X-1.449999X0.499999X-1.449999X-0.499999X1.449999X-0.499999X1.449999X0.499999X0*%
%ADD20C,0.900000*%
%ADD21RoundRect,0.102000X0.750000X-0.350000X0.750000X0.350000X-0.750000X0.350000X-0.750000X-0.350000X0*%
%ADD22RoundRect,0.102000X0.400000X-0.500000X0.400000X0.500000X-0.400000X0.500000X-0.400000X-0.500000X0*%
%ADD23RoundRect,0.225000X0.225000X0.375000X-0.225000X0.375000X-0.225000X-0.375000X0.225000X-0.375000X0*%
%ADD24R,1.000000X1.900000*%
G04 APERTURE END LIST*
D10*
%TO.C,SW8*%
X201093750Y-101325000D03*
D11*
X205493750Y-96625000D03*
D10*
X208093750Y-102375000D03*
D12*
X197218750Y-101325000D03*
X211968750Y-102375000D03*
%TD*%
D10*
%TO.C,SW53*%
X296343750Y-158475000D03*
D11*
X300743750Y-153775000D03*
D10*
X303343750Y-159525000D03*
D12*
X292468750Y-158475000D03*
X307218750Y-159525000D03*
%TD*%
D10*
%TO.C,SW1*%
X67743750Y-101325000D03*
D11*
X72143750Y-96625000D03*
D10*
X74743750Y-102375000D03*
D13*
X64008250Y-101325000D03*
D12*
X78618750Y-102375000D03*
%TD*%
D10*
%TO.C,SW6*%
X162993750Y-101325000D03*
D11*
X167393750Y-96625000D03*
D10*
X169993750Y-102375000D03*
D12*
X159118750Y-101325000D03*
X173868750Y-102375000D03*
%TD*%
D10*
%TO.C,SW52*%
X277293750Y-158475000D03*
D11*
X281693750Y-153775000D03*
D10*
X284293750Y-159525000D03*
D12*
X273418750Y-158475000D03*
X288168750Y-159525000D03*
%TD*%
D14*
%TO.C,REF\u002A\u002A*%
X88812500Y-113293750D03*
%TD*%
%TO.C,REF\u002A\u002A*%
X86431250Y-172825000D03*
%TD*%
D10*
%TO.C,SW51*%
X258243750Y-158475000D03*
D11*
X262643750Y-153775000D03*
D10*
X265243750Y-159525000D03*
D12*
X254368750Y-158475000D03*
X269118750Y-159525000D03*
%TD*%
D10*
%TO.C,SW3*%
X105843750Y-101325000D03*
D11*
X110243750Y-96625000D03*
D10*
X112843750Y-102375000D03*
D12*
X101968750Y-101325000D03*
X116718750Y-102375000D03*
%TD*%
D10*
%TO.C,SW32*%
X139181250Y-139425000D03*
D11*
X143581250Y-134725000D03*
D10*
X146181250Y-140475000D03*
D12*
X135306250Y-139425000D03*
X150056250Y-140475000D03*
%TD*%
D10*
%TO.C,SW54*%
X315393750Y-158475000D03*
D11*
X319793750Y-153775000D03*
D10*
X322393750Y-159525000D03*
D12*
X311518750Y-158475000D03*
X326268750Y-159525000D03*
%TD*%
D10*
%TO.C,SW63*%
X315393750Y-177525000D03*
D11*
X319793750Y-172825000D03*
D10*
X322393750Y-178575000D03*
D12*
X311518750Y-177525000D03*
X326268750Y-178575000D03*
%TD*%
D10*
%TO.C,SW40*%
X291581250Y-139425000D03*
D11*
X295981250Y-134725000D03*
D10*
X298581250Y-140475000D03*
D12*
X287706250Y-139425000D03*
X302456250Y-140475000D03*
%TD*%
D10*
%TO.C,SW49*%
X220143750Y-158475000D03*
D11*
X224543750Y-153775000D03*
D10*
X227143750Y-159525000D03*
D12*
X216268750Y-158475000D03*
X231018750Y-159525000D03*
%TD*%
D10*
%TO.C,SW55*%
X334443750Y-158475000D03*
D11*
X338843750Y-153775000D03*
D10*
X341443750Y-159525000D03*
D12*
X330568750Y-158475000D03*
X345318750Y-159525000D03*
%TD*%
D14*
%TO.C,REF\u002A\u002A*%
X181681250Y-172825000D03*
%TD*%
D10*
%TO.C,SW16*%
X96318750Y-120375000D03*
D11*
X100718750Y-115675000D03*
D10*
X103318750Y-121425000D03*
D12*
X92443750Y-120375000D03*
X107193750Y-121425000D03*
%TD*%
D10*
%TO.C,SW14*%
X324918750Y-101325000D03*
D11*
X329318750Y-96625000D03*
D10*
X331918750Y-102375000D03*
D15*
X321543750Y-101325000D03*
D12*
X335793750Y-102375000D03*
%TD*%
D10*
%TO.C,SW64*%
X334443750Y-177525000D03*
D11*
X338843750Y-172825000D03*
D10*
X341443750Y-178575000D03*
D12*
X330568750Y-177525000D03*
X345318750Y-178575000D03*
%TD*%
D10*
%TO.C,SW11*%
X258243750Y-101325000D03*
D11*
X262643750Y-96625000D03*
D10*
X265243750Y-102375000D03*
D12*
X254368750Y-101325000D03*
X269118750Y-102375000D03*
%TD*%
D10*
%TO.C,SW15*%
X72506250Y-120375000D03*
D11*
X76906250Y-115675000D03*
D10*
X79506250Y-121425000D03*
D12*
X68631250Y-120375000D03*
X83381250Y-121425000D03*
%TD*%
D10*
%TO.C,SW10*%
X239193750Y-101325000D03*
D11*
X243593750Y-96625000D03*
D10*
X246193750Y-102375000D03*
D12*
X235318750Y-101325000D03*
X250068750Y-102375000D03*
%TD*%
D10*
%TO.C,SW59*%
X189187500Y-177525000D03*
D11*
X193587500Y-172825000D03*
D10*
X196187500Y-178575000D03*
D12*
X185312500Y-177525000D03*
X200062500Y-178575000D03*
%TD*%
D10*
%TO.C,SW27*%
X305868750Y-120375000D03*
D11*
X310268750Y-115675000D03*
D10*
X312868750Y-121425000D03*
D12*
X301993750Y-120375000D03*
X316743750Y-121425000D03*
%TD*%
D10*
%TO.C,SW46*%
X162993750Y-158475000D03*
D11*
X167393750Y-153775000D03*
D10*
X169993750Y-159525000D03*
D12*
X159118750Y-158475000D03*
X173868750Y-159525000D03*
%TD*%
D10*
%TO.C,SW5*%
X143943750Y-101325000D03*
D11*
X148343750Y-96625000D03*
D10*
X150943750Y-102375000D03*
D12*
X140068750Y-101325000D03*
X154818750Y-102375000D03*
%TD*%
D10*
%TO.C,SW34*%
X177281250Y-139425000D03*
D11*
X181681250Y-134725000D03*
D10*
X184281250Y-140475000D03*
D12*
X173406250Y-139425000D03*
X188156250Y-140475000D03*
%TD*%
D14*
%TO.C,REF\u002A\u002A*%
X329318750Y-168284750D03*
%TD*%
D10*
%TO.C,SW31*%
X120131250Y-139425000D03*
D11*
X124531250Y-134725000D03*
D10*
X127131250Y-140475000D03*
D12*
X116256250Y-139425000D03*
X131006250Y-140475000D03*
%TD*%
D10*
%TO.C,SW4*%
X124893750Y-101325000D03*
D11*
X129293750Y-96625000D03*
D10*
X131893750Y-102375000D03*
D12*
X121018750Y-101325000D03*
X135768750Y-102375000D03*
%TD*%
D10*
%TO.C,SW37*%
X234431250Y-139425000D03*
D11*
X238831250Y-134725000D03*
D10*
X241431250Y-140475000D03*
D12*
X230556250Y-139425000D03*
X245306250Y-140475000D03*
%TD*%
D10*
%TO.C,SW9*%
X220143750Y-101325000D03*
D11*
X224543750Y-96625000D03*
D10*
X227143750Y-102375000D03*
D12*
X216268750Y-101325000D03*
X231018750Y-102375000D03*
%TD*%
D10*
%TO.C,SW24*%
X248718750Y-120375000D03*
D11*
X253118750Y-115675000D03*
D10*
X255718750Y-121425000D03*
D12*
X244843750Y-120375000D03*
X259593750Y-121425000D03*
%TD*%
D10*
%TO.C,SW26*%
X286818750Y-120375000D03*
D11*
X291218750Y-115675000D03*
D10*
X293818750Y-121425000D03*
D12*
X282943750Y-120375000D03*
X297693750Y-121425000D03*
%TD*%
D16*
%TO.C,REF\u002A\u002A*%
X153106250Y-129962500D03*
%TD*%
D10*
%TO.C,SW17*%
X115368750Y-120375000D03*
D11*
X119768750Y-115675000D03*
D10*
X122368750Y-121425000D03*
D12*
X111493750Y-120375000D03*
X126243750Y-121425000D03*
%TD*%
D10*
%TO.C,SW36*%
X215381250Y-139425000D03*
D11*
X219781250Y-134725000D03*
D10*
X222381250Y-140475000D03*
D12*
X211506250Y-139425000D03*
X226256250Y-140475000D03*
%TD*%
D10*
%TO.C,SW28*%
X329681250Y-120375000D03*
D11*
X334081250Y-115675000D03*
D10*
X336681250Y-121425000D03*
D12*
X325806250Y-120375000D03*
X340556250Y-121425000D03*
%TD*%
D10*
%TO.C,SW56*%
X70125000Y-177525000D03*
D11*
X74525000Y-172825000D03*
D10*
X77125000Y-178575000D03*
D12*
X66250000Y-177525000D03*
X81000000Y-178575000D03*
%TD*%
D10*
%TO.C,SW50*%
X239193750Y-158475000D03*
D11*
X243593750Y-153775000D03*
D10*
X246193750Y-159525000D03*
D12*
X235318750Y-158475000D03*
X250068750Y-159525000D03*
%TD*%
D10*
%TO.C,SW21*%
X191568750Y-120375000D03*
D11*
X195968750Y-115675000D03*
D10*
X198568750Y-121425000D03*
D12*
X187693750Y-120375000D03*
X202443750Y-121425000D03*
%TD*%
D10*
%TO.C,SW2*%
X86793750Y-101325000D03*
D11*
X91193750Y-96625000D03*
D10*
X93793750Y-102375000D03*
D12*
X82918750Y-101325000D03*
X97668750Y-102375000D03*
%TD*%
D10*
%TO.C,SW30*%
X101081250Y-139425000D03*
D11*
X105481250Y-134725000D03*
D10*
X108081250Y-140475000D03*
D12*
X97206250Y-139425000D03*
X111956250Y-140475000D03*
%TD*%
D10*
%TO.C,SW7*%
X182043750Y-101325000D03*
D11*
X186443750Y-96625000D03*
D10*
X189043750Y-102375000D03*
D12*
X178168750Y-101325000D03*
X192918750Y-102375000D03*
%TD*%
D10*
%TO.C,SW22*%
X210618750Y-120375000D03*
D11*
X215018750Y-115675000D03*
D10*
X217618750Y-121425000D03*
D12*
X206743750Y-120375000D03*
X221493750Y-121425000D03*
%TD*%
D10*
%TO.C,SW39*%
X272531250Y-139425000D03*
D11*
X276931250Y-134725000D03*
D10*
X279531250Y-140475000D03*
D12*
X268656250Y-139425000D03*
X283406250Y-140475000D03*
%TD*%
D10*
%TO.C,SW61*%
X277293750Y-177525000D03*
D11*
X281693750Y-172825000D03*
D10*
X284293750Y-178575000D03*
D12*
X273418750Y-177525000D03*
X288168750Y-178575000D03*
%TD*%
D10*
%TO.C,SW58*%
X117750000Y-177525000D03*
D11*
X122150000Y-172825000D03*
D10*
X124750000Y-178575000D03*
D12*
X113875000Y-177525000D03*
X128625000Y-178575000D03*
%TD*%
D10*
%TO.C,SW23*%
X229668750Y-120375000D03*
D11*
X234068750Y-115675000D03*
D10*
X236668750Y-121425000D03*
D12*
X225793750Y-120375000D03*
X240543750Y-121425000D03*
%TD*%
D10*
%TO.C,SW19*%
X153468750Y-120375000D03*
D11*
X157868750Y-115675000D03*
D10*
X160468750Y-121425000D03*
D12*
X149593750Y-120375000D03*
X164343750Y-121425000D03*
%TD*%
D10*
%TO.C,SW42*%
X77268750Y-158475000D03*
D11*
X81668750Y-153775000D03*
D10*
X84268750Y-159525000D03*
D15*
X73893750Y-158475000D03*
D12*
X88143750Y-159525000D03*
%TD*%
D10*
%TO.C,SW38*%
X253481250Y-139425000D03*
D11*
X257881250Y-134725000D03*
D10*
X260481250Y-140475000D03*
D12*
X249606250Y-139425000D03*
X264356250Y-140475000D03*
%TD*%
D10*
%TO.C,SW43*%
X105843750Y-158475000D03*
D11*
X110243750Y-153775000D03*
D10*
X112843750Y-159525000D03*
D12*
X101968750Y-158475000D03*
X116718750Y-159525000D03*
%TD*%
D10*
%TO.C,SW57*%
X93937500Y-177525000D03*
D11*
X98337500Y-172825000D03*
D10*
X100937500Y-178575000D03*
D12*
X90062500Y-177525000D03*
X104812500Y-178575000D03*
%TD*%
D10*
%TO.C,SW44*%
X124893750Y-158475000D03*
D11*
X129293750Y-153775000D03*
D10*
X131893750Y-159525000D03*
D12*
X121018750Y-158475000D03*
X135768750Y-159525000D03*
%TD*%
D10*
%TO.C,SW20*%
X172518750Y-120375000D03*
D11*
X176918750Y-115675000D03*
D10*
X179518750Y-121425000D03*
D12*
X168643750Y-120375000D03*
X183393750Y-121425000D03*
%TD*%
D10*
%TO.C,SW12*%
X277293750Y-101325000D03*
D11*
X281693750Y-96625000D03*
D10*
X284293750Y-102375000D03*
D12*
X273418750Y-101325000D03*
X288168750Y-102375000D03*
%TD*%
D10*
%TO.C,SW35*%
X196331250Y-139425000D03*
D11*
X200731250Y-134725000D03*
D10*
X203331250Y-140475000D03*
D12*
X192456250Y-139425000D03*
X207206250Y-140475000D03*
%TD*%
D10*
%TO.C,SW45*%
X143943750Y-158475000D03*
D11*
X148343750Y-153775000D03*
D10*
X150943750Y-159525000D03*
D12*
X140068750Y-158475000D03*
X154818750Y-159525000D03*
%TD*%
D10*
%TO.C,SW18*%
X134418750Y-120375000D03*
D11*
X138818750Y-115675000D03*
D10*
X141418750Y-121425000D03*
D12*
X130543750Y-120375000D03*
X145293750Y-121425000D03*
%TD*%
D16*
%TO.C,REF\u002A\u002A*%
X248356250Y-129962500D03*
%TD*%
%TO.C,REF\u002A\u002A*%
X195968750Y-91862500D03*
%TD*%
D10*
%TO.C,SW62*%
X296343750Y-177525000D03*
D11*
X300743750Y-172825000D03*
D10*
X303343750Y-178575000D03*
D12*
X292468750Y-177525000D03*
X307218750Y-178575000D03*
%TD*%
D10*
%TO.C,SW33*%
X158231250Y-139425000D03*
D11*
X162631250Y-134725000D03*
D10*
X165231250Y-140475000D03*
D12*
X154356250Y-139425000D03*
X169106250Y-140475000D03*
%TD*%
D10*
%TO.C,SW29*%
X74887500Y-139425000D03*
D11*
X79287500Y-134725000D03*
D10*
X81887500Y-140475000D03*
D12*
X71012500Y-139425000D03*
X85762500Y-140475000D03*
%TD*%
D10*
%TO.C,SW13*%
X296343750Y-101325000D03*
D11*
X300743750Y-96625000D03*
D10*
X303343750Y-102375000D03*
D12*
X292468750Y-101325000D03*
X307218750Y-102375000D03*
%TD*%
D10*
%TO.C,SW47*%
X182043750Y-158475000D03*
D11*
X186443750Y-153775000D03*
D10*
X189043750Y-159525000D03*
D12*
X178168750Y-158475000D03*
X192918750Y-159525000D03*
%TD*%
D10*
%TO.C,SW60*%
X258243750Y-177525000D03*
D11*
X262643750Y-172825000D03*
D10*
X265243750Y-178575000D03*
D12*
X254368750Y-177525000D03*
X269118750Y-178575000D03*
%TD*%
D14*
%TO.C,REF\u002A\u002A*%
X322175000Y-113293750D03*
%TD*%
D10*
%TO.C,SW41*%
X322537500Y-139425000D03*
D11*
X326937500Y-134725000D03*
D10*
X329537500Y-140475000D03*
D15*
X319162500Y-139425000D03*
D12*
X333412500Y-140475000D03*
%TD*%
D10*
%TO.C,SW25*%
X267768750Y-120375000D03*
D11*
X272168750Y-115675000D03*
D10*
X274768750Y-121425000D03*
D12*
X263893750Y-120375000D03*
X278643750Y-121425000D03*
%TD*%
D10*
%TO.C,SW48*%
X201093750Y-158475000D03*
D11*
X205493750Y-153775000D03*
D10*
X208093750Y-159525000D03*
D12*
X197218750Y-158475000D03*
X211968750Y-159525000D03*
%TD*%
D17*
%TO.C,D46*%
X174537500Y-152125000D03*
X174537500Y-155425000D03*
%TD*%
%TO.C,D17*%
X126768750Y-114025000D03*
X126768750Y-117325000D03*
%TD*%
%TO.C,D43*%
X117387500Y-152125000D03*
X117387500Y-155425000D03*
%TD*%
%TO.C,D49*%
X231687500Y-152125000D03*
X231687500Y-155425000D03*
%TD*%
%TO.C,D62*%
X307887500Y-171175000D03*
X307887500Y-174475000D03*
%TD*%
%TO.C,D22*%
X222162500Y-114025000D03*
X222162500Y-117325000D03*
%TD*%
%TO.C,D57*%
X105481250Y-171175000D03*
X105481250Y-174475000D03*
%TD*%
%TO.C,D11*%
X269787500Y-94975000D03*
X269787500Y-98275000D03*
%TD*%
%TO.C,D5*%
X155487500Y-94975000D03*
X155487500Y-98275000D03*
%TD*%
%TO.C,D38*%
X265025000Y-133075000D03*
X265025000Y-136375000D03*
%TD*%
%TO.C,D45*%
X155487500Y-152125000D03*
X155487500Y-155425000D03*
%TD*%
%TO.C,D16*%
X107862500Y-114025000D03*
X107862500Y-117325000D03*
%TD*%
%TO.C,D6*%
X174537500Y-94975000D03*
X174537500Y-98275000D03*
%TD*%
%TO.C,D36*%
X226925000Y-133075000D03*
X226925000Y-136375000D03*
%TD*%
%TO.C,D44*%
X136437500Y-152125000D03*
X136437500Y-155425000D03*
%TD*%
%TO.C,D61*%
X288837500Y-171175000D03*
X288837500Y-174475000D03*
%TD*%
%TO.C,D53*%
X307887500Y-152125000D03*
X307887500Y-155425000D03*
%TD*%
%TO.C,D42*%
X88812500Y-152125000D03*
X88812500Y-155425000D03*
%TD*%
%TO.C,D34*%
X188825000Y-133075000D03*
X188825000Y-136375000D03*
%TD*%
%TO.C,D30*%
X112625000Y-133075000D03*
X112625000Y-136375000D03*
%TD*%
%TO.C,D25*%
X279312500Y-114025000D03*
X279312500Y-117325000D03*
%TD*%
%TO.C,D37*%
X245975000Y-133075000D03*
X245975000Y-136375000D03*
%TD*%
%TO.C,D33*%
X169775000Y-133075000D03*
X169775000Y-136375000D03*
%TD*%
%TO.C,D9*%
X231687500Y-94975000D03*
X231687500Y-98275000D03*
%TD*%
%TO.C,D52*%
X288837500Y-152125000D03*
X288837500Y-155425000D03*
%TD*%
D18*
%TO.C,J1*%
X117514500Y-107388750D03*
X117514500Y-109388750D03*
D19*
X123264500Y-105038750D03*
X123264500Y-111738750D03*
%TD*%
D17*
%TO.C,D8*%
X212637500Y-94975000D03*
X212637500Y-98275000D03*
%TD*%
%TO.C,D55*%
X345987500Y-152125000D03*
X345987500Y-155425000D03*
%TD*%
%TO.C,D54*%
X326937500Y-152125000D03*
X326937500Y-155425000D03*
%TD*%
%TO.C,D7*%
X193587500Y-94975000D03*
X193587500Y-98275000D03*
%TD*%
%TO.C,D31*%
X131675000Y-133075000D03*
X131675000Y-136375000D03*
%TD*%
D20*
%TO.C,SW0*%
X64428500Y-116571750D03*
X64428500Y-113571750D03*
D21*
X66178500Y-117321750D03*
X66178500Y-114321750D03*
X66178500Y-112821750D03*
D22*
X65528500Y-118721750D03*
X65528500Y-111421750D03*
X63328500Y-118721750D03*
X63328500Y-111421750D03*
%TD*%
D23*
%TO.C,D1*%
X78556250Y-99006250D03*
X75256250Y-99006250D03*
%TD*%
D17*
%TO.C,D18*%
X145818750Y-114025000D03*
X145818750Y-117325000D03*
%TD*%
%TO.C,D20*%
X183918750Y-114025000D03*
X183918750Y-117325000D03*
%TD*%
%TO.C,D40*%
X303125000Y-133075000D03*
X303125000Y-136375000D03*
%TD*%
%TO.C,D29*%
X86431250Y-133075000D03*
X86431250Y-136375000D03*
%TD*%
%TO.C,D58*%
X129293750Y-171175000D03*
X129293750Y-174475000D03*
%TD*%
%TO.C,D48*%
X212637500Y-152125000D03*
X212637500Y-155425000D03*
%TD*%
%TO.C,D50*%
X250737500Y-152125000D03*
X250737500Y-155425000D03*
%TD*%
%TO.C,D10*%
X250737500Y-94975000D03*
X250737500Y-98275000D03*
%TD*%
%TO.C,D3*%
X117387500Y-94975000D03*
X117387500Y-98275000D03*
%TD*%
%TO.C,D4*%
X136437500Y-94975000D03*
X136437500Y-98275000D03*
%TD*%
%TO.C,D15*%
X84050000Y-114025000D03*
X84050000Y-117325000D03*
%TD*%
%TO.C,D39*%
X284075000Y-133075000D03*
X284075000Y-136375000D03*
%TD*%
%TO.C,D24*%
X260262500Y-114025000D03*
X260262500Y-117325000D03*
%TD*%
%TO.C,D12*%
X288837500Y-94975000D03*
X288837500Y-98275000D03*
%TD*%
%TO.C,D35*%
X207875000Y-133075000D03*
X207875000Y-136375000D03*
%TD*%
%TO.C,D64*%
X345987500Y-171175000D03*
X345987500Y-174475000D03*
%TD*%
%TO.C,D41*%
X334081250Y-133075000D03*
X334081250Y-136375000D03*
%TD*%
D24*
%TO.C,U1*%
X68238500Y-93606750D03*
X70778500Y-90306750D03*
X75858500Y-90306750D03*
X78398500Y-93606750D03*
X80938500Y-90306750D03*
X83478500Y-93606750D03*
X86018500Y-90306750D03*
X88558500Y-93606750D03*
X91098500Y-90306750D03*
X93638500Y-93606750D03*
X96178500Y-90306750D03*
X68238500Y-105548750D03*
X70778500Y-108848750D03*
X73318500Y-105548750D03*
X75858500Y-108848750D03*
X78398500Y-105548750D03*
X80938500Y-108848750D03*
X83478500Y-105548750D03*
X86018500Y-108848750D03*
X88558500Y-105548750D03*
X91098500Y-108848750D03*
X93638500Y-105548750D03*
X96178500Y-108848750D03*
X65698500Y-90306750D03*
X65698500Y-108848750D03*
%TD*%
D17*
%TO.C,D63*%
X326937500Y-171460750D03*
X326937500Y-174760750D03*
%TD*%
%TO.C,D21*%
X203112500Y-114025000D03*
X203112500Y-117325000D03*
%TD*%
%TO.C,D13*%
X307887500Y-94975000D03*
X307887500Y-98275000D03*
%TD*%
%TO.C,D56*%
X81668750Y-171175000D03*
X81668750Y-174475000D03*
%TD*%
%TO.C,D59*%
X200731250Y-171175000D03*
X200731250Y-174475000D03*
%TD*%
%TO.C,D14*%
X336462500Y-94975000D03*
X336462500Y-98275000D03*
%TD*%
D23*
%TO.C,D2*%
X97606250Y-99006250D03*
X94306250Y-99006250D03*
%TD*%
D17*
%TO.C,D26*%
X298362500Y-114025000D03*
X298362500Y-117325000D03*
%TD*%
%TO.C,D19*%
X164868750Y-114025000D03*
X164868750Y-117325000D03*
%TD*%
%TO.C,D23*%
X241212500Y-114025000D03*
X241212500Y-117325000D03*
%TD*%
%TO.C,D28*%
X341225000Y-114025000D03*
X341225000Y-117325000D03*
%TD*%
%TO.C,D51*%
X269787500Y-152125000D03*
X269787500Y-155425000D03*
%TD*%
%TO.C,D32*%
X150725000Y-133075000D03*
X150725000Y-136375000D03*
%TD*%
%TO.C,D27*%
X317412500Y-114025000D03*
X317412500Y-117325000D03*
%TD*%
%TO.C,D60*%
X269787500Y-171175000D03*
X269787500Y-174475000D03*
%TD*%
%TO.C,D47*%
X193587500Y-152125000D03*
X193587500Y-155425000D03*
%TD*%
M02*
