%TF.GenerationSoftware,KiCad,Pcbnew,10.0.0*%
%TF.CreationDate,2026-07-09T05:21:42+05:30*%
%TF.ProjectId,Open Deck,4f70656e-2044-4656-936b-2e6b69636164,V1*%
%TF.SameCoordinates,Original*%
%TF.FileFunction,Drillmap*%
%TF.FilePolarity,Positive*%
%FSLAX45Y45*%
G04 Gerber Fmt 4.5, Leading zero omitted, Abs format (unit mm)*
G04 Created by KiCad (PCBNEW 10.0.0) date 2026-07-09 05:21:42*
%MOMM*%
%LPD*%
G01*
G04 APERTURE LIST*
%ADD10C,0.050000*%
%ADD11C,0.120000*%
%ADD12C,0.200000*%
%ADD13C,0.100000*%
%ADD14C,0.300000*%
%ADD15C,0.320000*%
%ADD16C,0.500000*%
%ADD17C,0.510000*%
G04 APERTURE END LIST*
D10*
X6261875Y-8471875D02*
X6261875Y-18235000D01*
X6261875Y-8471875D02*
X34836875Y-8471875D01*
X34836875Y-8471875D02*
X34836875Y-18235000D01*
X34836875Y-18235000D02*
X6261875Y-18235000D01*
D11*
X14033750Y-16302500D02*
X14683750Y-16302500D01*
X14683750Y-17902500D01*
X14033750Y-17902500D01*
X14033750Y-16302500D01*
X24033750Y-16302500D02*
X24683750Y-16302500D01*
X24683750Y-17902500D01*
X24033750Y-17902500D01*
X24033750Y-16302500D01*
X6641875Y-14397500D02*
X7291875Y-14397500D01*
X7291875Y-15997500D01*
X6641875Y-15997500D01*
X6641875Y-14397500D01*
X9041875Y-14397500D02*
X9691875Y-14397500D01*
X9691875Y-15997500D01*
X9041875Y-15997500D01*
X9041875Y-14397500D01*
X31168750Y-12492500D02*
X31818750Y-12492500D01*
X31818750Y-14092500D01*
X31168750Y-14092500D01*
X31168750Y-12492500D01*
X33568750Y-12492500D02*
X34218750Y-12492500D01*
X34218750Y-14092500D01*
X33568750Y-14092500D01*
X33568750Y-12492500D01*
X31406875Y-8682500D02*
X32056875Y-8682500D01*
X32056875Y-10282500D01*
X31406875Y-10282500D01*
X31406875Y-8682500D01*
X33806875Y-8682500D02*
X34456875Y-8682500D01*
X34456875Y-10282500D01*
X33806875Y-10282500D01*
X33806875Y-8682500D01*
D12*
D13*
X6397850Y-11312175D02*
X6487850Y-11402175D01*
X6487850Y-11312175D02*
X6397850Y-11402175D01*
X6397850Y-11612175D02*
X6487850Y-11702175D01*
X6487850Y-11612175D02*
X6397850Y-11702175D01*
D14*
X6924375Y-10132500D02*
G75*
G02*
X6624375Y-10132500I-150000J0D01*
G01*
X6624375Y-10132500D02*
G75*
G02*
X6924375Y-10132500I150000J0D01*
G01*
X7162500Y-17752500D02*
G75*
G02*
X6862500Y-17752500I-150000J0D01*
G01*
X6862500Y-17752500D02*
G75*
G02*
X7162500Y-17752500I150000J0D01*
G01*
X7400625Y-12037500D02*
G75*
G02*
X7100625Y-12037500I-150000J0D01*
G01*
X7100625Y-12037500D02*
G75*
G02*
X7400625Y-12037500I150000J0D01*
G01*
X7624375Y-10237500D02*
G75*
G02*
X7324375Y-10237500I-150000J0D01*
G01*
X7324375Y-10237500D02*
G75*
G02*
X7624375Y-10237500I150000J0D01*
G01*
X7638750Y-13942500D02*
G75*
G02*
X7338750Y-13942500I-150000J0D01*
G01*
X7338750Y-13942500D02*
G75*
G02*
X7638750Y-13942500I150000J0D01*
G01*
X7862500Y-17857500D02*
G75*
G02*
X7562500Y-17857500I-150000J0D01*
G01*
X7562500Y-17857500D02*
G75*
G02*
X7862500Y-17857500I150000J0D01*
G01*
X7876875Y-15847500D02*
G75*
G02*
X7576875Y-15847500I-150000J0D01*
G01*
X7576875Y-15847500D02*
G75*
G02*
X7876875Y-15847500I150000J0D01*
G01*
X8100625Y-12142500D02*
G75*
G02*
X7800625Y-12142500I-150000J0D01*
G01*
X7800625Y-12142500D02*
G75*
G02*
X8100625Y-12142500I150000J0D01*
G01*
X8338750Y-14047500D02*
G75*
G02*
X8038750Y-14047500I-150000J0D01*
G01*
X8038750Y-14047500D02*
G75*
G02*
X8338750Y-14047500I150000J0D01*
G01*
X8576875Y-15952500D02*
G75*
G02*
X8276875Y-15952500I-150000J0D01*
G01*
X8276875Y-15952500D02*
G75*
G02*
X8576875Y-15952500I150000J0D01*
G01*
X8829375Y-10132500D02*
G75*
G02*
X8529375Y-10132500I-150000J0D01*
G01*
X8529375Y-10132500D02*
G75*
G02*
X8829375Y-10132500I150000J0D01*
G01*
X9529375Y-10237500D02*
G75*
G02*
X9229375Y-10237500I-150000J0D01*
G01*
X9229375Y-10237500D02*
G75*
G02*
X9529375Y-10237500I150000J0D01*
G01*
X9543750Y-17752500D02*
G75*
G02*
X9243750Y-17752500I-150000J0D01*
G01*
X9243750Y-17752500D02*
G75*
G02*
X9543750Y-17752500I150000J0D01*
G01*
X9781875Y-12037500D02*
G75*
G02*
X9481875Y-12037500I-150000J0D01*
G01*
X9481875Y-12037500D02*
G75*
G02*
X9781875Y-12037500I150000J0D01*
G01*
X10243750Y-17857500D02*
G75*
G02*
X9943750Y-17857500I-150000J0D01*
G01*
X9943750Y-17857500D02*
G75*
G02*
X10243750Y-17857500I150000J0D01*
G01*
X10258125Y-13942500D02*
G75*
G02*
X9958125Y-13942500I-150000J0D01*
G01*
X9958125Y-13942500D02*
G75*
G02*
X10258125Y-13942500I150000J0D01*
G01*
X10481875Y-12142500D02*
G75*
G02*
X10181875Y-12142500I-150000J0D01*
G01*
X10181875Y-12142500D02*
G75*
G02*
X10481875Y-12142500I150000J0D01*
G01*
X10734375Y-10132500D02*
G75*
G02*
X10434375Y-10132500I-150000J0D01*
G01*
X10434375Y-10132500D02*
G75*
G02*
X10734375Y-10132500I150000J0D01*
G01*
X10734375Y-15847500D02*
G75*
G02*
X10434375Y-15847500I-150000J0D01*
G01*
X10434375Y-15847500D02*
G75*
G02*
X10734375Y-15847500I150000J0D01*
G01*
X10958125Y-14047500D02*
G75*
G02*
X10658125Y-14047500I-150000J0D01*
G01*
X10658125Y-14047500D02*
G75*
G02*
X10958125Y-14047500I150000J0D01*
G01*
X11434375Y-10237500D02*
G75*
G02*
X11134375Y-10237500I-150000J0D01*
G01*
X11134375Y-10237500D02*
G75*
G02*
X11434375Y-10237500I150000J0D01*
G01*
X11434375Y-15952500D02*
G75*
G02*
X11134375Y-15952500I-150000J0D01*
G01*
X11134375Y-15952500D02*
G75*
G02*
X11434375Y-15952500I150000J0D01*
G01*
X11686875Y-12037500D02*
G75*
G02*
X11386875Y-12037500I-150000J0D01*
G01*
X11386875Y-12037500D02*
G75*
G02*
X11686875Y-12037500I150000J0D01*
G01*
X11925000Y-17752500D02*
G75*
G02*
X11625000Y-17752500I-150000J0D01*
G01*
X11625000Y-17752500D02*
G75*
G02*
X11925000Y-17752500I150000J0D01*
G01*
X12163125Y-13942500D02*
G75*
G02*
X11863125Y-13942500I-150000J0D01*
G01*
X11863125Y-13942500D02*
G75*
G02*
X12163125Y-13942500I150000J0D01*
G01*
X12386875Y-12142500D02*
G75*
G02*
X12086875Y-12142500I-150000J0D01*
G01*
X12086875Y-12142500D02*
G75*
G02*
X12386875Y-12142500I150000J0D01*
G01*
X12625000Y-17857500D02*
G75*
G02*
X12325000Y-17857500I-150000J0D01*
G01*
X12325000Y-17857500D02*
G75*
G02*
X12625000Y-17857500I150000J0D01*
G01*
X12639375Y-10132500D02*
G75*
G02*
X12339375Y-10132500I-150000J0D01*
G01*
X12339375Y-10132500D02*
G75*
G02*
X12639375Y-10132500I150000J0D01*
G01*
X12639375Y-15847500D02*
G75*
G02*
X12339375Y-15847500I-150000J0D01*
G01*
X12339375Y-15847500D02*
G75*
G02*
X12639375Y-15847500I150000J0D01*
G01*
X12863125Y-14047500D02*
G75*
G02*
X12563125Y-14047500I-150000J0D01*
G01*
X12563125Y-14047500D02*
G75*
G02*
X12863125Y-14047500I150000J0D01*
G01*
X13339375Y-10237500D02*
G75*
G02*
X13039375Y-10237500I-150000J0D01*
G01*
X13039375Y-10237500D02*
G75*
G02*
X13339375Y-10237500I150000J0D01*
G01*
X13339375Y-15952500D02*
G75*
G02*
X13039375Y-15952500I-150000J0D01*
G01*
X13039375Y-15952500D02*
G75*
G02*
X13339375Y-15952500I150000J0D01*
G01*
X13591875Y-12037500D02*
G75*
G02*
X13291875Y-12037500I-150000J0D01*
G01*
X13291875Y-12037500D02*
G75*
G02*
X13591875Y-12037500I150000J0D01*
G01*
X14068125Y-13942500D02*
G75*
G02*
X13768125Y-13942500I-150000J0D01*
G01*
X13768125Y-13942500D02*
G75*
G02*
X14068125Y-13942500I150000J0D01*
G01*
X14291875Y-12142500D02*
G75*
G02*
X13991875Y-12142500I-150000J0D01*
G01*
X13991875Y-12142500D02*
G75*
G02*
X14291875Y-12142500I150000J0D01*
G01*
X14544375Y-10132500D02*
G75*
G02*
X14244375Y-10132500I-150000J0D01*
G01*
X14244375Y-10132500D02*
G75*
G02*
X14544375Y-10132500I150000J0D01*
G01*
X14544375Y-15847500D02*
G75*
G02*
X14244375Y-15847500I-150000J0D01*
G01*
X14244375Y-15847500D02*
G75*
G02*
X14544375Y-15847500I150000J0D01*
G01*
X14768125Y-14047500D02*
G75*
G02*
X14468125Y-14047500I-150000J0D01*
G01*
X14468125Y-14047500D02*
G75*
G02*
X14768125Y-14047500I150000J0D01*
G01*
X15244375Y-10237500D02*
G75*
G02*
X14944375Y-10237500I-150000J0D01*
G01*
X14944375Y-10237500D02*
G75*
G02*
X15244375Y-10237500I150000J0D01*
G01*
X15244375Y-15952500D02*
G75*
G02*
X14944375Y-15952500I-150000J0D01*
G01*
X14944375Y-15952500D02*
G75*
G02*
X15244375Y-15952500I150000J0D01*
G01*
X15496875Y-12037500D02*
G75*
G02*
X15196875Y-12037500I-150000J0D01*
G01*
X15196875Y-12037500D02*
G75*
G02*
X15496875Y-12037500I150000J0D01*
G01*
X15973125Y-13942500D02*
G75*
G02*
X15673125Y-13942500I-150000J0D01*
G01*
X15673125Y-13942500D02*
G75*
G02*
X15973125Y-13942500I150000J0D01*
G01*
X16196875Y-12142500D02*
G75*
G02*
X15896875Y-12142500I-150000J0D01*
G01*
X15896875Y-12142500D02*
G75*
G02*
X16196875Y-12142500I150000J0D01*
G01*
X16449375Y-10132500D02*
G75*
G02*
X16149375Y-10132500I-150000J0D01*
G01*
X16149375Y-10132500D02*
G75*
G02*
X16449375Y-10132500I150000J0D01*
G01*
X16449375Y-15847500D02*
G75*
G02*
X16149375Y-15847500I-150000J0D01*
G01*
X16149375Y-15847500D02*
G75*
G02*
X16449375Y-15847500I150000J0D01*
G01*
X16673125Y-14047500D02*
G75*
G02*
X16373125Y-14047500I-150000J0D01*
G01*
X16373125Y-14047500D02*
G75*
G02*
X16673125Y-14047500I150000J0D01*
G01*
X17149375Y-10237500D02*
G75*
G02*
X16849375Y-10237500I-150000J0D01*
G01*
X16849375Y-10237500D02*
G75*
G02*
X17149375Y-10237500I150000J0D01*
G01*
X17149375Y-15952500D02*
G75*
G02*
X16849375Y-15952500I-150000J0D01*
G01*
X16849375Y-15952500D02*
G75*
G02*
X17149375Y-15952500I150000J0D01*
G01*
X17401875Y-12037500D02*
G75*
G02*
X17101875Y-12037500I-150000J0D01*
G01*
X17101875Y-12037500D02*
G75*
G02*
X17401875Y-12037500I150000J0D01*
G01*
X17878125Y-13942500D02*
G75*
G02*
X17578125Y-13942500I-150000J0D01*
G01*
X17578125Y-13942500D02*
G75*
G02*
X17878125Y-13942500I150000J0D01*
G01*
X18101875Y-12142500D02*
G75*
G02*
X17801875Y-12142500I-150000J0D01*
G01*
X17801875Y-12142500D02*
G75*
G02*
X18101875Y-12142500I150000J0D01*
G01*
X18354375Y-10132500D02*
G75*
G02*
X18054375Y-10132500I-150000J0D01*
G01*
X18054375Y-10132500D02*
G75*
G02*
X18354375Y-10132500I150000J0D01*
G01*
X18354375Y-15847500D02*
G75*
G02*
X18054375Y-15847500I-150000J0D01*
G01*
X18054375Y-15847500D02*
G75*
G02*
X18354375Y-15847500I150000J0D01*
G01*
X18578125Y-14047500D02*
G75*
G02*
X18278125Y-14047500I-150000J0D01*
G01*
X18278125Y-14047500D02*
G75*
G02*
X18578125Y-14047500I150000J0D01*
G01*
X19054375Y-10237500D02*
G75*
G02*
X18754375Y-10237500I-150000J0D01*
G01*
X18754375Y-10237500D02*
G75*
G02*
X19054375Y-10237500I150000J0D01*
G01*
X19054375Y-15952500D02*
G75*
G02*
X18754375Y-15952500I-150000J0D01*
G01*
X18754375Y-15952500D02*
G75*
G02*
X19054375Y-15952500I150000J0D01*
G01*
X19068750Y-17752500D02*
G75*
G02*
X18768750Y-17752500I-150000J0D01*
G01*
X18768750Y-17752500D02*
G75*
G02*
X19068750Y-17752500I150000J0D01*
G01*
X19306875Y-12037500D02*
G75*
G02*
X19006875Y-12037500I-150000J0D01*
G01*
X19006875Y-12037500D02*
G75*
G02*
X19306875Y-12037500I150000J0D01*
G01*
X19768750Y-17857500D02*
G75*
G02*
X19468750Y-17857500I-150000J0D01*
G01*
X19468750Y-17857500D02*
G75*
G02*
X19768750Y-17857500I150000J0D01*
G01*
X19783125Y-13942500D02*
G75*
G02*
X19483125Y-13942500I-150000J0D01*
G01*
X19483125Y-13942500D02*
G75*
G02*
X19783125Y-13942500I150000J0D01*
G01*
X20006875Y-12142500D02*
G75*
G02*
X19706875Y-12142500I-150000J0D01*
G01*
X19706875Y-12142500D02*
G75*
G02*
X20006875Y-12142500I150000J0D01*
G01*
X20259375Y-10132500D02*
G75*
G02*
X19959375Y-10132500I-150000J0D01*
G01*
X19959375Y-10132500D02*
G75*
G02*
X20259375Y-10132500I150000J0D01*
G01*
X20259375Y-15847500D02*
G75*
G02*
X19959375Y-15847500I-150000J0D01*
G01*
X19959375Y-15847500D02*
G75*
G02*
X20259375Y-15847500I150000J0D01*
G01*
X20483125Y-14047500D02*
G75*
G02*
X20183125Y-14047500I-150000J0D01*
G01*
X20183125Y-14047500D02*
G75*
G02*
X20483125Y-14047500I150000J0D01*
G01*
X20959375Y-10237500D02*
G75*
G02*
X20659375Y-10237500I-150000J0D01*
G01*
X20659375Y-10237500D02*
G75*
G02*
X20959375Y-10237500I150000J0D01*
G01*
X20959375Y-15952500D02*
G75*
G02*
X20659375Y-15952500I-150000J0D01*
G01*
X20659375Y-15952500D02*
G75*
G02*
X20959375Y-15952500I150000J0D01*
G01*
X21211875Y-12037500D02*
G75*
G02*
X20911875Y-12037500I-150000J0D01*
G01*
X20911875Y-12037500D02*
G75*
G02*
X21211875Y-12037500I150000J0D01*
G01*
X21688125Y-13942500D02*
G75*
G02*
X21388125Y-13942500I-150000J0D01*
G01*
X21388125Y-13942500D02*
G75*
G02*
X21688125Y-13942500I150000J0D01*
G01*
X21911875Y-12142500D02*
G75*
G02*
X21611875Y-12142500I-150000J0D01*
G01*
X21611875Y-12142500D02*
G75*
G02*
X21911875Y-12142500I150000J0D01*
G01*
X22164375Y-10132500D02*
G75*
G02*
X21864375Y-10132500I-150000J0D01*
G01*
X21864375Y-10132500D02*
G75*
G02*
X22164375Y-10132500I150000J0D01*
G01*
X22164375Y-15847500D02*
G75*
G02*
X21864375Y-15847500I-150000J0D01*
G01*
X21864375Y-15847500D02*
G75*
G02*
X22164375Y-15847500I150000J0D01*
G01*
X22388125Y-14047500D02*
G75*
G02*
X22088125Y-14047500I-150000J0D01*
G01*
X22088125Y-14047500D02*
G75*
G02*
X22388125Y-14047500I150000J0D01*
G01*
X22864375Y-10237500D02*
G75*
G02*
X22564375Y-10237500I-150000J0D01*
G01*
X22564375Y-10237500D02*
G75*
G02*
X22864375Y-10237500I150000J0D01*
G01*
X22864375Y-15952500D02*
G75*
G02*
X22564375Y-15952500I-150000J0D01*
G01*
X22564375Y-15952500D02*
G75*
G02*
X22864375Y-15952500I150000J0D01*
G01*
X23116875Y-12037500D02*
G75*
G02*
X22816875Y-12037500I-150000J0D01*
G01*
X22816875Y-12037500D02*
G75*
G02*
X23116875Y-12037500I150000J0D01*
G01*
X23593125Y-13942500D02*
G75*
G02*
X23293125Y-13942500I-150000J0D01*
G01*
X23293125Y-13942500D02*
G75*
G02*
X23593125Y-13942500I150000J0D01*
G01*
X23816875Y-12142500D02*
G75*
G02*
X23516875Y-12142500I-150000J0D01*
G01*
X23516875Y-12142500D02*
G75*
G02*
X23816875Y-12142500I150000J0D01*
G01*
X24069375Y-10132500D02*
G75*
G02*
X23769375Y-10132500I-150000J0D01*
G01*
X23769375Y-10132500D02*
G75*
G02*
X24069375Y-10132500I150000J0D01*
G01*
X24069375Y-15847500D02*
G75*
G02*
X23769375Y-15847500I-150000J0D01*
G01*
X23769375Y-15847500D02*
G75*
G02*
X24069375Y-15847500I150000J0D01*
G01*
X24293125Y-14047500D02*
G75*
G02*
X23993125Y-14047500I-150000J0D01*
G01*
X23993125Y-14047500D02*
G75*
G02*
X24293125Y-14047500I150000J0D01*
G01*
X24769375Y-10237500D02*
G75*
G02*
X24469375Y-10237500I-150000J0D01*
G01*
X24469375Y-10237500D02*
G75*
G02*
X24769375Y-10237500I150000J0D01*
G01*
X24769375Y-15952500D02*
G75*
G02*
X24469375Y-15952500I-150000J0D01*
G01*
X24469375Y-15952500D02*
G75*
G02*
X24769375Y-15952500I150000J0D01*
G01*
X25021875Y-12037500D02*
G75*
G02*
X24721875Y-12037500I-150000J0D01*
G01*
X24721875Y-12037500D02*
G75*
G02*
X25021875Y-12037500I150000J0D01*
G01*
X25498125Y-13942500D02*
G75*
G02*
X25198125Y-13942500I-150000J0D01*
G01*
X25198125Y-13942500D02*
G75*
G02*
X25498125Y-13942500I150000J0D01*
G01*
X25721875Y-12142500D02*
G75*
G02*
X25421875Y-12142500I-150000J0D01*
G01*
X25421875Y-12142500D02*
G75*
G02*
X25721875Y-12142500I150000J0D01*
G01*
X25974375Y-10132500D02*
G75*
G02*
X25674375Y-10132500I-150000J0D01*
G01*
X25674375Y-10132500D02*
G75*
G02*
X25974375Y-10132500I150000J0D01*
G01*
X25974375Y-15847500D02*
G75*
G02*
X25674375Y-15847500I-150000J0D01*
G01*
X25674375Y-15847500D02*
G75*
G02*
X25974375Y-15847500I150000J0D01*
G01*
X25974375Y-17752500D02*
G75*
G02*
X25674375Y-17752500I-150000J0D01*
G01*
X25674375Y-17752500D02*
G75*
G02*
X25974375Y-17752500I150000J0D01*
G01*
X26198125Y-14047500D02*
G75*
G02*
X25898125Y-14047500I-150000J0D01*
G01*
X25898125Y-14047500D02*
G75*
G02*
X26198125Y-14047500I150000J0D01*
G01*
X26674375Y-10237500D02*
G75*
G02*
X26374375Y-10237500I-150000J0D01*
G01*
X26374375Y-10237500D02*
G75*
G02*
X26674375Y-10237500I150000J0D01*
G01*
X26674375Y-15952500D02*
G75*
G02*
X26374375Y-15952500I-150000J0D01*
G01*
X26374375Y-15952500D02*
G75*
G02*
X26674375Y-15952500I150000J0D01*
G01*
X26674375Y-17857500D02*
G75*
G02*
X26374375Y-17857500I-150000J0D01*
G01*
X26374375Y-17857500D02*
G75*
G02*
X26674375Y-17857500I150000J0D01*
G01*
X26926875Y-12037500D02*
G75*
G02*
X26626875Y-12037500I-150000J0D01*
G01*
X26626875Y-12037500D02*
G75*
G02*
X26926875Y-12037500I150000J0D01*
G01*
X27403125Y-13942500D02*
G75*
G02*
X27103125Y-13942500I-150000J0D01*
G01*
X27103125Y-13942500D02*
G75*
G02*
X27403125Y-13942500I150000J0D01*
G01*
X27626875Y-12142500D02*
G75*
G02*
X27326875Y-12142500I-150000J0D01*
G01*
X27326875Y-12142500D02*
G75*
G02*
X27626875Y-12142500I150000J0D01*
G01*
X27879375Y-10132500D02*
G75*
G02*
X27579375Y-10132500I-150000J0D01*
G01*
X27579375Y-10132500D02*
G75*
G02*
X27879375Y-10132500I150000J0D01*
G01*
X27879375Y-15847500D02*
G75*
G02*
X27579375Y-15847500I-150000J0D01*
G01*
X27579375Y-15847500D02*
G75*
G02*
X27879375Y-15847500I150000J0D01*
G01*
X27879375Y-17752500D02*
G75*
G02*
X27579375Y-17752500I-150000J0D01*
G01*
X27579375Y-17752500D02*
G75*
G02*
X27879375Y-17752500I150000J0D01*
G01*
X28103125Y-14047500D02*
G75*
G02*
X27803125Y-14047500I-150000J0D01*
G01*
X27803125Y-14047500D02*
G75*
G02*
X28103125Y-14047500I150000J0D01*
G01*
X28579375Y-10237500D02*
G75*
G02*
X28279375Y-10237500I-150000J0D01*
G01*
X28279375Y-10237500D02*
G75*
G02*
X28579375Y-10237500I150000J0D01*
G01*
X28579375Y-15952500D02*
G75*
G02*
X28279375Y-15952500I-150000J0D01*
G01*
X28279375Y-15952500D02*
G75*
G02*
X28579375Y-15952500I150000J0D01*
G01*
X28579375Y-17857500D02*
G75*
G02*
X28279375Y-17857500I-150000J0D01*
G01*
X28279375Y-17857500D02*
G75*
G02*
X28579375Y-17857500I150000J0D01*
G01*
X28831875Y-12037500D02*
G75*
G02*
X28531875Y-12037500I-150000J0D01*
G01*
X28531875Y-12037500D02*
G75*
G02*
X28831875Y-12037500I150000J0D01*
G01*
X29308125Y-13942500D02*
G75*
G02*
X29008125Y-13942500I-150000J0D01*
G01*
X29008125Y-13942500D02*
G75*
G02*
X29308125Y-13942500I150000J0D01*
G01*
X29531875Y-12142500D02*
G75*
G02*
X29231875Y-12142500I-150000J0D01*
G01*
X29231875Y-12142500D02*
G75*
G02*
X29531875Y-12142500I150000J0D01*
G01*
X29784375Y-10132500D02*
G75*
G02*
X29484375Y-10132500I-150000J0D01*
G01*
X29484375Y-10132500D02*
G75*
G02*
X29784375Y-10132500I150000J0D01*
G01*
X29784375Y-15847500D02*
G75*
G02*
X29484375Y-15847500I-150000J0D01*
G01*
X29484375Y-15847500D02*
G75*
G02*
X29784375Y-15847500I150000J0D01*
G01*
X29784375Y-17752500D02*
G75*
G02*
X29484375Y-17752500I-150000J0D01*
G01*
X29484375Y-17752500D02*
G75*
G02*
X29784375Y-17752500I150000J0D01*
G01*
X30008125Y-14047500D02*
G75*
G02*
X29708125Y-14047500I-150000J0D01*
G01*
X29708125Y-14047500D02*
G75*
G02*
X30008125Y-14047500I150000J0D01*
G01*
X30484375Y-10237500D02*
G75*
G02*
X30184375Y-10237500I-150000J0D01*
G01*
X30184375Y-10237500D02*
G75*
G02*
X30484375Y-10237500I150000J0D01*
G01*
X30484375Y-15952500D02*
G75*
G02*
X30184375Y-15952500I-150000J0D01*
G01*
X30184375Y-15952500D02*
G75*
G02*
X30484375Y-15952500I150000J0D01*
G01*
X30484375Y-17857500D02*
G75*
G02*
X30184375Y-17857500I-150000J0D01*
G01*
X30184375Y-17857500D02*
G75*
G02*
X30484375Y-17857500I150000J0D01*
G01*
X30736875Y-12037500D02*
G75*
G02*
X30436875Y-12037500I-150000J0D01*
G01*
X30436875Y-12037500D02*
G75*
G02*
X30736875Y-12037500I150000J0D01*
G01*
X31436875Y-12142500D02*
G75*
G02*
X31136875Y-12142500I-150000J0D01*
G01*
X31136875Y-12142500D02*
G75*
G02*
X31436875Y-12142500I150000J0D01*
G01*
X31689375Y-15847500D02*
G75*
G02*
X31389375Y-15847500I-150000J0D01*
G01*
X31389375Y-15847500D02*
G75*
G02*
X31689375Y-15847500I150000J0D01*
G01*
X31689375Y-17752500D02*
G75*
G02*
X31389375Y-17752500I-150000J0D01*
G01*
X31389375Y-17752500D02*
G75*
G02*
X31689375Y-17752500I150000J0D01*
G01*
X32389375Y-15952500D02*
G75*
G02*
X32089375Y-15952500I-150000J0D01*
G01*
X32089375Y-15952500D02*
G75*
G02*
X32389375Y-15952500I150000J0D01*
G01*
X32389375Y-17857500D02*
G75*
G02*
X32089375Y-17857500I-150000J0D01*
G01*
X32089375Y-17857500D02*
G75*
G02*
X32389375Y-17857500I150000J0D01*
G01*
X32403750Y-13942500D02*
G75*
G02*
X32103750Y-13942500I-150000J0D01*
G01*
X32103750Y-13942500D02*
G75*
G02*
X32403750Y-13942500I150000J0D01*
G01*
X32641875Y-10132500D02*
G75*
G02*
X32341875Y-10132500I-150000J0D01*
G01*
X32341875Y-10132500D02*
G75*
G02*
X32641875Y-10132500I150000J0D01*
G01*
X33103750Y-14047500D02*
G75*
G02*
X32803750Y-14047500I-150000J0D01*
G01*
X32803750Y-14047500D02*
G75*
G02*
X33103750Y-14047500I150000J0D01*
G01*
X33118125Y-12037500D02*
G75*
G02*
X32818125Y-12037500I-150000J0D01*
G01*
X32818125Y-12037500D02*
G75*
G02*
X33118125Y-12037500I150000J0D01*
G01*
X33341875Y-10237500D02*
G75*
G02*
X33041875Y-10237500I-150000J0D01*
G01*
X33041875Y-10237500D02*
G75*
G02*
X33341875Y-10237500I150000J0D01*
G01*
X33594375Y-15847500D02*
G75*
G02*
X33294375Y-15847500I-150000J0D01*
G01*
X33294375Y-15847500D02*
G75*
G02*
X33594375Y-15847500I150000J0D01*
G01*
X33594375Y-17752500D02*
G75*
G02*
X33294375Y-17752500I-150000J0D01*
G01*
X33294375Y-17752500D02*
G75*
G02*
X33594375Y-17752500I150000J0D01*
G01*
X33818125Y-12142500D02*
G75*
G02*
X33518125Y-12142500I-150000J0D01*
G01*
X33518125Y-12142500D02*
G75*
G02*
X33818125Y-12142500I150000J0D01*
G01*
X34294375Y-15952500D02*
G75*
G02*
X33994375Y-15952500I-150000J0D01*
G01*
X33994375Y-15952500D02*
G75*
G02*
X34294375Y-15952500I150000J0D01*
G01*
X34294375Y-17857500D02*
G75*
G02*
X33994375Y-17857500I-150000J0D01*
G01*
X33994375Y-17857500D02*
G75*
G02*
X34294375Y-17857500I150000J0D01*
G01*
D15*
X15310625Y-12836250D02*
X15310625Y-13156250D01*
X15150625Y-12996250D02*
X15470625Y-12996250D01*
X19596875Y-9026250D02*
X19596875Y-9346250D01*
X19436875Y-9186250D02*
X19756875Y-9186250D01*
X24835625Y-12836250D02*
X24835625Y-13156250D01*
X24675625Y-12996250D02*
X24995625Y-12996250D01*
D16*
X8819903Y-17459278D02*
X8819903Y-17105722D01*
X8466347Y-17105722D01*
X8466347Y-17459278D01*
X8819903Y-17459278D01*
X9058028Y-11506153D02*
X9058028Y-11152597D01*
X8704472Y-11152597D01*
X8704472Y-11506153D01*
X9058028Y-11506153D01*
X18344903Y-17459278D02*
X18344903Y-17105722D01*
X17991347Y-17105722D01*
X17991347Y-17459278D01*
X18344903Y-17459278D01*
X32394278Y-11506153D02*
X32394278Y-11152597D01*
X32040722Y-11152597D01*
X32040722Y-11506153D01*
X32394278Y-11506153D01*
X33108653Y-17005253D02*
X33108653Y-16651697D01*
X32755097Y-16651697D01*
X32755097Y-17005253D01*
X33108653Y-17005253D01*
D17*
X7214375Y-9917500D02*
X7469375Y-9662500D01*
X7214375Y-9407500D01*
X6959375Y-9662500D01*
X7214375Y-9917500D01*
X7452500Y-17537500D02*
X7707500Y-17282500D01*
X7452500Y-17027500D01*
X7197500Y-17282500D01*
X7452500Y-17537500D01*
X7690625Y-11822500D02*
X7945625Y-11567500D01*
X7690625Y-11312500D01*
X7435625Y-11567500D01*
X7690625Y-11822500D01*
X7928750Y-13727500D02*
X8183750Y-13472500D01*
X7928750Y-13217500D01*
X7673750Y-13472500D01*
X7928750Y-13727500D01*
X8166875Y-15632500D02*
X8421875Y-15377500D01*
X8166875Y-15122500D01*
X7911875Y-15377500D01*
X8166875Y-15632500D01*
X9119375Y-9917500D02*
X9374375Y-9662500D01*
X9119375Y-9407500D01*
X8864375Y-9662500D01*
X9119375Y-9917500D01*
X9833750Y-17537500D02*
X10088750Y-17282500D01*
X9833750Y-17027500D01*
X9578750Y-17282500D01*
X9833750Y-17537500D01*
X10071875Y-11822500D02*
X10326875Y-11567500D01*
X10071875Y-11312500D01*
X9816875Y-11567500D01*
X10071875Y-11822500D01*
X10548125Y-13727500D02*
X10803125Y-13472500D01*
X10548125Y-13217500D01*
X10293125Y-13472500D01*
X10548125Y-13727500D01*
X11024375Y-9917500D02*
X11279375Y-9662500D01*
X11024375Y-9407500D01*
X10769375Y-9662500D01*
X11024375Y-9917500D01*
X11024375Y-15632500D02*
X11279375Y-15377500D01*
X11024375Y-15122500D01*
X10769375Y-15377500D01*
X11024375Y-15632500D01*
X11976875Y-11822500D02*
X12231875Y-11567500D01*
X11976875Y-11312500D01*
X11721875Y-11567500D01*
X11976875Y-11822500D01*
X12215000Y-17537500D02*
X12470000Y-17282500D01*
X12215000Y-17027500D01*
X11960000Y-17282500D01*
X12215000Y-17537500D01*
X12453125Y-13727500D02*
X12708125Y-13472500D01*
X12453125Y-13217500D01*
X12198125Y-13472500D01*
X12453125Y-13727500D01*
X12929375Y-9917500D02*
X13184375Y-9662500D01*
X12929375Y-9407500D01*
X12674375Y-9662500D01*
X12929375Y-9917500D01*
X12929375Y-15632500D02*
X13184375Y-15377500D01*
X12929375Y-15122500D01*
X12674375Y-15377500D01*
X12929375Y-15632500D01*
X13881875Y-11822500D02*
X14136875Y-11567500D01*
X13881875Y-11312500D01*
X13626875Y-11567500D01*
X13881875Y-11822500D01*
X14358125Y-13727500D02*
X14613125Y-13472500D01*
X14358125Y-13217500D01*
X14103125Y-13472500D01*
X14358125Y-13727500D01*
X14834375Y-9917500D02*
X15089375Y-9662500D01*
X14834375Y-9407500D01*
X14579375Y-9662500D01*
X14834375Y-9917500D01*
X14834375Y-15632500D02*
X15089375Y-15377500D01*
X14834375Y-15122500D01*
X14579375Y-15377500D01*
X14834375Y-15632500D01*
X15786875Y-11822500D02*
X16041875Y-11567500D01*
X15786875Y-11312500D01*
X15531875Y-11567500D01*
X15786875Y-11822500D01*
X16263125Y-13727500D02*
X16518125Y-13472500D01*
X16263125Y-13217500D01*
X16008125Y-13472500D01*
X16263125Y-13727500D01*
X16739375Y-9917500D02*
X16994375Y-9662500D01*
X16739375Y-9407500D01*
X16484375Y-9662500D01*
X16739375Y-9917500D01*
X16739375Y-15632500D02*
X16994375Y-15377500D01*
X16739375Y-15122500D01*
X16484375Y-15377500D01*
X16739375Y-15632500D01*
X17691875Y-11822500D02*
X17946875Y-11567500D01*
X17691875Y-11312500D01*
X17436875Y-11567500D01*
X17691875Y-11822500D01*
X18168125Y-13727500D02*
X18423125Y-13472500D01*
X18168125Y-13217500D01*
X17913125Y-13472500D01*
X18168125Y-13727500D01*
X18644375Y-9917500D02*
X18899375Y-9662500D01*
X18644375Y-9407500D01*
X18389375Y-9662500D01*
X18644375Y-9917500D01*
X18644375Y-15632500D02*
X18899375Y-15377500D01*
X18644375Y-15122500D01*
X18389375Y-15377500D01*
X18644375Y-15632500D01*
X19358750Y-17537500D02*
X19613750Y-17282500D01*
X19358750Y-17027500D01*
X19103750Y-17282500D01*
X19358750Y-17537500D01*
X19596875Y-11822500D02*
X19851875Y-11567500D01*
X19596875Y-11312500D01*
X19341875Y-11567500D01*
X19596875Y-11822500D01*
X20073125Y-13727500D02*
X20328125Y-13472500D01*
X20073125Y-13217500D01*
X19818125Y-13472500D01*
X20073125Y-13727500D01*
X20549375Y-9917500D02*
X20804375Y-9662500D01*
X20549375Y-9407500D01*
X20294375Y-9662500D01*
X20549375Y-9917500D01*
X20549375Y-15632500D02*
X20804375Y-15377500D01*
X20549375Y-15122500D01*
X20294375Y-15377500D01*
X20549375Y-15632500D01*
X21501875Y-11822500D02*
X21756875Y-11567500D01*
X21501875Y-11312500D01*
X21246875Y-11567500D01*
X21501875Y-11822500D01*
X21978125Y-13727500D02*
X22233125Y-13472500D01*
X21978125Y-13217500D01*
X21723125Y-13472500D01*
X21978125Y-13727500D01*
X22454375Y-9917500D02*
X22709375Y-9662500D01*
X22454375Y-9407500D01*
X22199375Y-9662500D01*
X22454375Y-9917500D01*
X22454375Y-15632500D02*
X22709375Y-15377500D01*
X22454375Y-15122500D01*
X22199375Y-15377500D01*
X22454375Y-15632500D01*
X23406875Y-11822500D02*
X23661875Y-11567500D01*
X23406875Y-11312500D01*
X23151875Y-11567500D01*
X23406875Y-11822500D01*
X23883125Y-13727500D02*
X24138125Y-13472500D01*
X23883125Y-13217500D01*
X23628125Y-13472500D01*
X23883125Y-13727500D01*
X24359375Y-9917500D02*
X24614375Y-9662500D01*
X24359375Y-9407500D01*
X24104375Y-9662500D01*
X24359375Y-9917500D01*
X24359375Y-15632500D02*
X24614375Y-15377500D01*
X24359375Y-15122500D01*
X24104375Y-15377500D01*
X24359375Y-15632500D01*
X25311875Y-11822500D02*
X25566875Y-11567500D01*
X25311875Y-11312500D01*
X25056875Y-11567500D01*
X25311875Y-11822500D01*
X25788125Y-13727500D02*
X26043125Y-13472500D01*
X25788125Y-13217500D01*
X25533125Y-13472500D01*
X25788125Y-13727500D01*
X26264375Y-9917500D02*
X26519375Y-9662500D01*
X26264375Y-9407500D01*
X26009375Y-9662500D01*
X26264375Y-9917500D01*
X26264375Y-15632500D02*
X26519375Y-15377500D01*
X26264375Y-15122500D01*
X26009375Y-15377500D01*
X26264375Y-15632500D01*
X26264375Y-17537500D02*
X26519375Y-17282500D01*
X26264375Y-17027500D01*
X26009375Y-17282500D01*
X26264375Y-17537500D01*
X27216875Y-11822500D02*
X27471875Y-11567500D01*
X27216875Y-11312500D01*
X26961875Y-11567500D01*
X27216875Y-11822500D01*
X27693125Y-13727500D02*
X27948125Y-13472500D01*
X27693125Y-13217500D01*
X27438125Y-13472500D01*
X27693125Y-13727500D01*
X28169375Y-9917500D02*
X28424375Y-9662500D01*
X28169375Y-9407500D01*
X27914375Y-9662500D01*
X28169375Y-9917500D01*
X28169375Y-15632500D02*
X28424375Y-15377500D01*
X28169375Y-15122500D01*
X27914375Y-15377500D01*
X28169375Y-15632500D01*
X28169375Y-17537500D02*
X28424375Y-17282500D01*
X28169375Y-17027500D01*
X27914375Y-17282500D01*
X28169375Y-17537500D01*
X29121875Y-11822500D02*
X29376875Y-11567500D01*
X29121875Y-11312500D01*
X28866875Y-11567500D01*
X29121875Y-11822500D01*
X29598125Y-13727500D02*
X29853125Y-13472500D01*
X29598125Y-13217500D01*
X29343125Y-13472500D01*
X29598125Y-13727500D01*
X30074375Y-9917500D02*
X30329375Y-9662500D01*
X30074375Y-9407500D01*
X29819375Y-9662500D01*
X30074375Y-9917500D01*
X30074375Y-15632500D02*
X30329375Y-15377500D01*
X30074375Y-15122500D01*
X29819375Y-15377500D01*
X30074375Y-15632500D01*
X30074375Y-17537500D02*
X30329375Y-17282500D01*
X30074375Y-17027500D01*
X29819375Y-17282500D01*
X30074375Y-17537500D01*
X31026875Y-11822500D02*
X31281875Y-11567500D01*
X31026875Y-11312500D01*
X30771875Y-11567500D01*
X31026875Y-11822500D01*
X31979375Y-15632500D02*
X32234375Y-15377500D01*
X31979375Y-15122500D01*
X31724375Y-15377500D01*
X31979375Y-15632500D01*
X31979375Y-17537500D02*
X32234375Y-17282500D01*
X31979375Y-17027500D01*
X31724375Y-17282500D01*
X31979375Y-17537500D01*
X32693750Y-13727500D02*
X32948750Y-13472500D01*
X32693750Y-13217500D01*
X32438750Y-13472500D01*
X32693750Y-13727500D01*
X32931875Y-9917500D02*
X33186875Y-9662500D01*
X32931875Y-9407500D01*
X32676875Y-9662500D01*
X32931875Y-9917500D01*
X33408125Y-11822500D02*
X33663125Y-11567500D01*
X33408125Y-11312500D01*
X33153125Y-11567500D01*
X33408125Y-11822500D01*
X33884375Y-15632500D02*
X34139375Y-15377500D01*
X33884375Y-15122500D01*
X33629375Y-15377500D01*
X33884375Y-15632500D01*
X33884375Y-17537500D02*
X34139375Y-17282500D01*
X33884375Y-17027500D01*
X33629375Y-17282500D01*
X33884375Y-17537500D01*
D12*
X6520152Y-18548984D02*
X6520152Y-18348984D01*
X6520152Y-18348984D02*
X6567771Y-18348984D01*
X6567771Y-18348984D02*
X6596342Y-18358508D01*
X6596342Y-18358508D02*
X6615390Y-18377555D01*
X6615390Y-18377555D02*
X6624914Y-18396603D01*
X6624914Y-18396603D02*
X6634437Y-18434698D01*
X6634437Y-18434698D02*
X6634437Y-18463270D01*
X6634437Y-18463270D02*
X6624914Y-18501365D01*
X6624914Y-18501365D02*
X6615390Y-18520412D01*
X6615390Y-18520412D02*
X6596342Y-18539460D01*
X6596342Y-18539460D02*
X6567771Y-18548984D01*
X6567771Y-18548984D02*
X6520152Y-18548984D01*
X6720152Y-18548984D02*
X6720152Y-18415650D01*
X6720152Y-18453746D02*
X6729676Y-18434698D01*
X6729676Y-18434698D02*
X6739199Y-18425174D01*
X6739199Y-18425174D02*
X6758247Y-18415650D01*
X6758247Y-18415650D02*
X6777295Y-18415650D01*
X6843961Y-18548984D02*
X6843961Y-18415650D01*
X6843961Y-18348984D02*
X6834437Y-18358508D01*
X6834437Y-18358508D02*
X6843961Y-18368031D01*
X6843961Y-18368031D02*
X6853485Y-18358508D01*
X6853485Y-18358508D02*
X6843961Y-18348984D01*
X6843961Y-18348984D02*
X6843961Y-18368031D01*
X6967771Y-18548984D02*
X6948723Y-18539460D01*
X6948723Y-18539460D02*
X6939199Y-18520412D01*
X6939199Y-18520412D02*
X6939199Y-18348984D01*
X7072533Y-18548984D02*
X7053485Y-18539460D01*
X7053485Y-18539460D02*
X7043961Y-18520412D01*
X7043961Y-18520412D02*
X7043961Y-18348984D01*
X7301104Y-18548984D02*
X7301104Y-18348984D01*
X7301104Y-18348984D02*
X7367771Y-18491841D01*
X7367771Y-18491841D02*
X7434437Y-18348984D01*
X7434437Y-18348984D02*
X7434437Y-18548984D01*
X7615390Y-18548984D02*
X7615390Y-18444222D01*
X7615390Y-18444222D02*
X7605866Y-18425174D01*
X7605866Y-18425174D02*
X7586818Y-18415650D01*
X7586818Y-18415650D02*
X7548723Y-18415650D01*
X7548723Y-18415650D02*
X7529676Y-18425174D01*
X7615390Y-18539460D02*
X7596342Y-18548984D01*
X7596342Y-18548984D02*
X7548723Y-18548984D01*
X7548723Y-18548984D02*
X7529676Y-18539460D01*
X7529676Y-18539460D02*
X7520152Y-18520412D01*
X7520152Y-18520412D02*
X7520152Y-18501365D01*
X7520152Y-18501365D02*
X7529676Y-18482317D01*
X7529676Y-18482317D02*
X7548723Y-18472793D01*
X7548723Y-18472793D02*
X7596342Y-18472793D01*
X7596342Y-18472793D02*
X7615390Y-18463270D01*
X7710628Y-18415650D02*
X7710628Y-18615650D01*
X7710628Y-18425174D02*
X7729676Y-18415650D01*
X7729676Y-18415650D02*
X7767771Y-18415650D01*
X7767771Y-18415650D02*
X7786818Y-18425174D01*
X7786818Y-18425174D02*
X7796342Y-18434698D01*
X7796342Y-18434698D02*
X7805866Y-18453746D01*
X7805866Y-18453746D02*
X7805866Y-18510889D01*
X7805866Y-18510889D02*
X7796342Y-18529936D01*
X7796342Y-18529936D02*
X7786818Y-18539460D01*
X7786818Y-18539460D02*
X7767771Y-18548984D01*
X7767771Y-18548984D02*
X7729676Y-18548984D01*
X7729676Y-18548984D02*
X7710628Y-18539460D01*
X7891580Y-18529936D02*
X7901104Y-18539460D01*
X7901104Y-18539460D02*
X7891580Y-18548984D01*
X7891580Y-18548984D02*
X7882057Y-18539460D01*
X7882057Y-18539460D02*
X7891580Y-18529936D01*
X7891580Y-18529936D02*
X7891580Y-18548984D01*
X7891580Y-18425174D02*
X7901104Y-18434698D01*
X7901104Y-18434698D02*
X7891580Y-18444222D01*
X7891580Y-18444222D02*
X7882057Y-18434698D01*
X7882057Y-18434698D02*
X7891580Y-18425174D01*
X7891580Y-18425174D02*
X7891580Y-18444222D01*
D13*
X6169375Y-18832500D02*
X6259375Y-18922500D01*
X6259375Y-18832500D02*
X6169375Y-18922500D01*
D12*
X6558247Y-18768984D02*
X6577295Y-18768984D01*
X6577295Y-18768984D02*
X6596342Y-18778508D01*
X6596342Y-18778508D02*
X6605866Y-18788031D01*
X6605866Y-18788031D02*
X6615390Y-18807079D01*
X6615390Y-18807079D02*
X6624914Y-18845174D01*
X6624914Y-18845174D02*
X6624914Y-18892793D01*
X6624914Y-18892793D02*
X6615390Y-18930889D01*
X6615390Y-18930889D02*
X6605866Y-18949936D01*
X6605866Y-18949936D02*
X6596342Y-18959460D01*
X6596342Y-18959460D02*
X6577295Y-18968984D01*
X6577295Y-18968984D02*
X6558247Y-18968984D01*
X6558247Y-18968984D02*
X6539199Y-18959460D01*
X6539199Y-18959460D02*
X6529676Y-18949936D01*
X6529676Y-18949936D02*
X6520152Y-18930889D01*
X6520152Y-18930889D02*
X6510628Y-18892793D01*
X6510628Y-18892793D02*
X6510628Y-18845174D01*
X6510628Y-18845174D02*
X6520152Y-18807079D01*
X6520152Y-18807079D02*
X6529676Y-18788031D01*
X6529676Y-18788031D02*
X6539199Y-18778508D01*
X6539199Y-18778508D02*
X6558247Y-18768984D01*
X6710628Y-18949936D02*
X6720152Y-18959460D01*
X6720152Y-18959460D02*
X6710628Y-18968984D01*
X6710628Y-18968984D02*
X6701104Y-18959460D01*
X6701104Y-18959460D02*
X6710628Y-18949936D01*
X6710628Y-18949936D02*
X6710628Y-18968984D01*
X6815390Y-18968984D02*
X6853485Y-18968984D01*
X6853485Y-18968984D02*
X6872533Y-18959460D01*
X6872533Y-18959460D02*
X6882057Y-18949936D01*
X6882057Y-18949936D02*
X6901104Y-18921365D01*
X6901104Y-18921365D02*
X6910628Y-18883270D01*
X6910628Y-18883270D02*
X6910628Y-18807079D01*
X6910628Y-18807079D02*
X6901104Y-18788031D01*
X6901104Y-18788031D02*
X6891580Y-18778508D01*
X6891580Y-18778508D02*
X6872533Y-18768984D01*
X6872533Y-18768984D02*
X6834437Y-18768984D01*
X6834437Y-18768984D02*
X6815390Y-18778508D01*
X6815390Y-18778508D02*
X6805866Y-18788031D01*
X6805866Y-18788031D02*
X6796342Y-18807079D01*
X6796342Y-18807079D02*
X6796342Y-18854698D01*
X6796342Y-18854698D02*
X6805866Y-18873746D01*
X6805866Y-18873746D02*
X6815390Y-18883270D01*
X6815390Y-18883270D02*
X6834437Y-18892793D01*
X6834437Y-18892793D02*
X6872533Y-18892793D01*
X6872533Y-18892793D02*
X6891580Y-18883270D01*
X6891580Y-18883270D02*
X6901104Y-18873746D01*
X6901104Y-18873746D02*
X6910628Y-18854698D01*
X7034437Y-18768984D02*
X7053485Y-18768984D01*
X7053485Y-18768984D02*
X7072533Y-18778508D01*
X7072533Y-18778508D02*
X7082057Y-18788031D01*
X7082057Y-18788031D02*
X7091580Y-18807079D01*
X7091580Y-18807079D02*
X7101104Y-18845174D01*
X7101104Y-18845174D02*
X7101104Y-18892793D01*
X7101104Y-18892793D02*
X7091580Y-18930889D01*
X7091580Y-18930889D02*
X7082057Y-18949936D01*
X7082057Y-18949936D02*
X7072533Y-18959460D01*
X7072533Y-18959460D02*
X7053485Y-18968984D01*
X7053485Y-18968984D02*
X7034437Y-18968984D01*
X7034437Y-18968984D02*
X7015390Y-18959460D01*
X7015390Y-18959460D02*
X7005866Y-18949936D01*
X7005866Y-18949936D02*
X6996342Y-18930889D01*
X6996342Y-18930889D02*
X6986818Y-18892793D01*
X6986818Y-18892793D02*
X6986818Y-18845174D01*
X6986818Y-18845174D02*
X6996342Y-18807079D01*
X6996342Y-18807079D02*
X7005866Y-18788031D01*
X7005866Y-18788031D02*
X7015390Y-18778508D01*
X7015390Y-18778508D02*
X7034437Y-18768984D01*
X7224914Y-18768984D02*
X7243961Y-18768984D01*
X7243961Y-18768984D02*
X7263009Y-18778508D01*
X7263009Y-18778508D02*
X7272533Y-18788031D01*
X7272533Y-18788031D02*
X7282057Y-18807079D01*
X7282057Y-18807079D02*
X7291580Y-18845174D01*
X7291580Y-18845174D02*
X7291580Y-18892793D01*
X7291580Y-18892793D02*
X7282057Y-18930889D01*
X7282057Y-18930889D02*
X7272533Y-18949936D01*
X7272533Y-18949936D02*
X7263009Y-18959460D01*
X7263009Y-18959460D02*
X7243961Y-18968984D01*
X7243961Y-18968984D02*
X7224914Y-18968984D01*
X7224914Y-18968984D02*
X7205866Y-18959460D01*
X7205866Y-18959460D02*
X7196342Y-18949936D01*
X7196342Y-18949936D02*
X7186818Y-18930889D01*
X7186818Y-18930889D02*
X7177295Y-18892793D01*
X7177295Y-18892793D02*
X7177295Y-18845174D01*
X7177295Y-18845174D02*
X7186818Y-18807079D01*
X7186818Y-18807079D02*
X7196342Y-18788031D01*
X7196342Y-18788031D02*
X7205866Y-18778508D01*
X7205866Y-18778508D02*
X7224914Y-18768984D01*
X7377295Y-18968984D02*
X7377295Y-18835650D01*
X7377295Y-18854698D02*
X7386818Y-18845174D01*
X7386818Y-18845174D02*
X7405866Y-18835650D01*
X7405866Y-18835650D02*
X7434438Y-18835650D01*
X7434438Y-18835650D02*
X7453485Y-18845174D01*
X7453485Y-18845174D02*
X7463009Y-18864222D01*
X7463009Y-18864222D02*
X7463009Y-18968984D01*
X7463009Y-18864222D02*
X7472533Y-18845174D01*
X7472533Y-18845174D02*
X7491580Y-18835650D01*
X7491580Y-18835650D02*
X7520152Y-18835650D01*
X7520152Y-18835650D02*
X7539199Y-18845174D01*
X7539199Y-18845174D02*
X7548723Y-18864222D01*
X7548723Y-18864222D02*
X7548723Y-18968984D01*
X7643961Y-18968984D02*
X7643961Y-18835650D01*
X7643961Y-18854698D02*
X7653485Y-18845174D01*
X7653485Y-18845174D02*
X7672533Y-18835650D01*
X7672533Y-18835650D02*
X7701104Y-18835650D01*
X7701104Y-18835650D02*
X7720152Y-18845174D01*
X7720152Y-18845174D02*
X7729676Y-18864222D01*
X7729676Y-18864222D02*
X7729676Y-18968984D01*
X7729676Y-18864222D02*
X7739199Y-18845174D01*
X7739199Y-18845174D02*
X7758247Y-18835650D01*
X7758247Y-18835650D02*
X7786818Y-18835650D01*
X7786818Y-18835650D02*
X7805866Y-18845174D01*
X7805866Y-18845174D02*
X7815390Y-18864222D01*
X7815390Y-18864222D02*
X7815390Y-18968984D01*
X8205866Y-18759460D02*
X8034438Y-19016603D01*
X8463009Y-18768984D02*
X8482057Y-18768984D01*
X8482057Y-18768984D02*
X8501104Y-18778508D01*
X8501104Y-18778508D02*
X8510628Y-18788031D01*
X8510628Y-18788031D02*
X8520152Y-18807079D01*
X8520152Y-18807079D02*
X8529676Y-18845174D01*
X8529676Y-18845174D02*
X8529676Y-18892793D01*
X8529676Y-18892793D02*
X8520152Y-18930889D01*
X8520152Y-18930889D02*
X8510628Y-18949936D01*
X8510628Y-18949936D02*
X8501104Y-18959460D01*
X8501104Y-18959460D02*
X8482057Y-18968984D01*
X8482057Y-18968984D02*
X8463009Y-18968984D01*
X8463009Y-18968984D02*
X8443962Y-18959460D01*
X8443962Y-18959460D02*
X8434438Y-18949936D01*
X8434438Y-18949936D02*
X8424914Y-18930889D01*
X8424914Y-18930889D02*
X8415390Y-18892793D01*
X8415390Y-18892793D02*
X8415390Y-18845174D01*
X8415390Y-18845174D02*
X8424914Y-18807079D01*
X8424914Y-18807079D02*
X8434438Y-18788031D01*
X8434438Y-18788031D02*
X8443962Y-18778508D01*
X8443962Y-18778508D02*
X8463009Y-18768984D01*
X8615390Y-18949936D02*
X8624914Y-18959460D01*
X8624914Y-18959460D02*
X8615390Y-18968984D01*
X8615390Y-18968984D02*
X8605866Y-18959460D01*
X8605866Y-18959460D02*
X8615390Y-18949936D01*
X8615390Y-18949936D02*
X8615390Y-18968984D01*
X8748723Y-18768984D02*
X8767771Y-18768984D01*
X8767771Y-18768984D02*
X8786819Y-18778508D01*
X8786819Y-18778508D02*
X8796343Y-18788031D01*
X8796343Y-18788031D02*
X8805866Y-18807079D01*
X8805866Y-18807079D02*
X8815390Y-18845174D01*
X8815390Y-18845174D02*
X8815390Y-18892793D01*
X8815390Y-18892793D02*
X8805866Y-18930889D01*
X8805866Y-18930889D02*
X8796343Y-18949936D01*
X8796343Y-18949936D02*
X8786819Y-18959460D01*
X8786819Y-18959460D02*
X8767771Y-18968984D01*
X8767771Y-18968984D02*
X8748723Y-18968984D01*
X8748723Y-18968984D02*
X8729676Y-18959460D01*
X8729676Y-18959460D02*
X8720152Y-18949936D01*
X8720152Y-18949936D02*
X8710628Y-18930889D01*
X8710628Y-18930889D02*
X8701104Y-18892793D01*
X8701104Y-18892793D02*
X8701104Y-18845174D01*
X8701104Y-18845174D02*
X8710628Y-18807079D01*
X8710628Y-18807079D02*
X8720152Y-18788031D01*
X8720152Y-18788031D02*
X8729676Y-18778508D01*
X8729676Y-18778508D02*
X8748723Y-18768984D01*
X8882057Y-18768984D02*
X9005866Y-18768984D01*
X9005866Y-18768984D02*
X8939200Y-18845174D01*
X8939200Y-18845174D02*
X8967771Y-18845174D01*
X8967771Y-18845174D02*
X8986819Y-18854698D01*
X8986819Y-18854698D02*
X8996343Y-18864222D01*
X8996343Y-18864222D02*
X9005866Y-18883270D01*
X9005866Y-18883270D02*
X9005866Y-18930889D01*
X9005866Y-18930889D02*
X8996343Y-18949936D01*
X8996343Y-18949936D02*
X8986819Y-18959460D01*
X8986819Y-18959460D02*
X8967771Y-18968984D01*
X8967771Y-18968984D02*
X8910628Y-18968984D01*
X8910628Y-18968984D02*
X8891581Y-18959460D01*
X8891581Y-18959460D02*
X8882057Y-18949936D01*
X9186819Y-18768984D02*
X9091581Y-18768984D01*
X9091581Y-18768984D02*
X9082057Y-18864222D01*
X9082057Y-18864222D02*
X9091581Y-18854698D01*
X9091581Y-18854698D02*
X9110628Y-18845174D01*
X9110628Y-18845174D02*
X9158247Y-18845174D01*
X9158247Y-18845174D02*
X9177295Y-18854698D01*
X9177295Y-18854698D02*
X9186819Y-18864222D01*
X9186819Y-18864222D02*
X9196343Y-18883270D01*
X9196343Y-18883270D02*
X9196343Y-18930889D01*
X9196343Y-18930889D02*
X9186819Y-18949936D01*
X9186819Y-18949936D02*
X9177295Y-18959460D01*
X9177295Y-18959460D02*
X9158247Y-18968984D01*
X9158247Y-18968984D02*
X9110628Y-18968984D01*
X9110628Y-18968984D02*
X9091581Y-18959460D01*
X9091581Y-18959460D02*
X9082057Y-18949936D01*
X9367771Y-18835650D02*
X9367771Y-18968984D01*
X9320152Y-18759460D02*
X9272533Y-18902317D01*
X9272533Y-18902317D02*
X9396343Y-18902317D01*
X9463009Y-18768984D02*
X9463009Y-18807079D01*
X9539200Y-18768984D02*
X9539200Y-18807079D01*
X9834438Y-19045174D02*
X9824914Y-19035650D01*
X9824914Y-19035650D02*
X9805866Y-19007079D01*
X9805866Y-19007079D02*
X9796343Y-18988031D01*
X9796343Y-18988031D02*
X9786819Y-18959460D01*
X9786819Y-18959460D02*
X9777295Y-18911841D01*
X9777295Y-18911841D02*
X9777295Y-18873746D01*
X9777295Y-18873746D02*
X9786819Y-18826127D01*
X9786819Y-18826127D02*
X9796343Y-18797555D01*
X9796343Y-18797555D02*
X9805866Y-18778508D01*
X9805866Y-18778508D02*
X9824914Y-18749936D01*
X9824914Y-18749936D02*
X9834438Y-18740412D01*
X9901105Y-18788031D02*
X9910628Y-18778508D01*
X9910628Y-18778508D02*
X9929676Y-18768984D01*
X9929676Y-18768984D02*
X9977295Y-18768984D01*
X9977295Y-18768984D02*
X9996343Y-18778508D01*
X9996343Y-18778508D02*
X10005866Y-18788031D01*
X10005866Y-18788031D02*
X10015390Y-18807079D01*
X10015390Y-18807079D02*
X10015390Y-18826127D01*
X10015390Y-18826127D02*
X10005866Y-18854698D01*
X10005866Y-18854698D02*
X9891581Y-18968984D01*
X9891581Y-18968984D02*
X10015390Y-18968984D01*
X10253486Y-18968984D02*
X10253486Y-18768984D01*
X10339200Y-18968984D02*
X10339200Y-18864222D01*
X10339200Y-18864222D02*
X10329676Y-18845174D01*
X10329676Y-18845174D02*
X10310628Y-18835650D01*
X10310628Y-18835650D02*
X10282057Y-18835650D01*
X10282057Y-18835650D02*
X10263009Y-18845174D01*
X10263009Y-18845174D02*
X10253486Y-18854698D01*
X10463009Y-18968984D02*
X10443962Y-18959460D01*
X10443962Y-18959460D02*
X10434438Y-18949936D01*
X10434438Y-18949936D02*
X10424914Y-18930889D01*
X10424914Y-18930889D02*
X10424914Y-18873746D01*
X10424914Y-18873746D02*
X10434438Y-18854698D01*
X10434438Y-18854698D02*
X10443962Y-18845174D01*
X10443962Y-18845174D02*
X10463009Y-18835650D01*
X10463009Y-18835650D02*
X10491581Y-18835650D01*
X10491581Y-18835650D02*
X10510628Y-18845174D01*
X10510628Y-18845174D02*
X10520152Y-18854698D01*
X10520152Y-18854698D02*
X10529676Y-18873746D01*
X10529676Y-18873746D02*
X10529676Y-18930889D01*
X10529676Y-18930889D02*
X10520152Y-18949936D01*
X10520152Y-18949936D02*
X10510628Y-18959460D01*
X10510628Y-18959460D02*
X10491581Y-18968984D01*
X10491581Y-18968984D02*
X10463009Y-18968984D01*
X10643962Y-18968984D02*
X10624914Y-18959460D01*
X10624914Y-18959460D02*
X10615390Y-18940412D01*
X10615390Y-18940412D02*
X10615390Y-18768984D01*
X10796343Y-18959460D02*
X10777295Y-18968984D01*
X10777295Y-18968984D02*
X10739200Y-18968984D01*
X10739200Y-18968984D02*
X10720152Y-18959460D01*
X10720152Y-18959460D02*
X10710628Y-18940412D01*
X10710628Y-18940412D02*
X10710628Y-18864222D01*
X10710628Y-18864222D02*
X10720152Y-18845174D01*
X10720152Y-18845174D02*
X10739200Y-18835650D01*
X10739200Y-18835650D02*
X10777295Y-18835650D01*
X10777295Y-18835650D02*
X10796343Y-18845174D01*
X10796343Y-18845174D02*
X10805867Y-18864222D01*
X10805867Y-18864222D02*
X10805867Y-18883270D01*
X10805867Y-18883270D02*
X10710628Y-18902317D01*
X10882057Y-18959460D02*
X10901105Y-18968984D01*
X10901105Y-18968984D02*
X10939200Y-18968984D01*
X10939200Y-18968984D02*
X10958248Y-18959460D01*
X10958248Y-18959460D02*
X10967771Y-18940412D01*
X10967771Y-18940412D02*
X10967771Y-18930889D01*
X10967771Y-18930889D02*
X10958248Y-18911841D01*
X10958248Y-18911841D02*
X10939200Y-18902317D01*
X10939200Y-18902317D02*
X10910628Y-18902317D01*
X10910628Y-18902317D02*
X10891581Y-18892793D01*
X10891581Y-18892793D02*
X10882057Y-18873746D01*
X10882057Y-18873746D02*
X10882057Y-18864222D01*
X10882057Y-18864222D02*
X10891581Y-18845174D01*
X10891581Y-18845174D02*
X10910628Y-18835650D01*
X10910628Y-18835650D02*
X10939200Y-18835650D01*
X10939200Y-18835650D02*
X10958248Y-18845174D01*
X11034438Y-19045174D02*
X11043962Y-19035650D01*
X11043962Y-19035650D02*
X11063009Y-19007079D01*
X11063009Y-19007079D02*
X11072533Y-18988031D01*
X11072533Y-18988031D02*
X11082057Y-18959460D01*
X11082057Y-18959460D02*
X11091581Y-18911841D01*
X11091581Y-18911841D02*
X11091581Y-18873746D01*
X11091581Y-18873746D02*
X11082057Y-18826127D01*
X11082057Y-18826127D02*
X11072533Y-18797555D01*
X11072533Y-18797555D02*
X11063009Y-18778508D01*
X11063009Y-18778508D02*
X11043962Y-18749936D01*
X11043962Y-18749936D02*
X11034438Y-18740412D01*
X11396343Y-19045174D02*
X11386819Y-19035650D01*
X11386819Y-19035650D02*
X11367771Y-19007079D01*
X11367771Y-19007079D02*
X11358247Y-18988031D01*
X11358247Y-18988031D02*
X11348724Y-18959460D01*
X11348724Y-18959460D02*
X11339200Y-18911841D01*
X11339200Y-18911841D02*
X11339200Y-18873746D01*
X11339200Y-18873746D02*
X11348724Y-18826127D01*
X11348724Y-18826127D02*
X11358247Y-18797555D01*
X11358247Y-18797555D02*
X11367771Y-18778508D01*
X11367771Y-18778508D02*
X11386819Y-18749936D01*
X11386819Y-18749936D02*
X11396343Y-18740412D01*
X11472533Y-18835650D02*
X11472533Y-18968984D01*
X11472533Y-18854698D02*
X11482057Y-18845174D01*
X11482057Y-18845174D02*
X11501105Y-18835650D01*
X11501105Y-18835650D02*
X11529676Y-18835650D01*
X11529676Y-18835650D02*
X11548724Y-18845174D01*
X11548724Y-18845174D02*
X11558247Y-18864222D01*
X11558247Y-18864222D02*
X11558247Y-18968984D01*
X11682057Y-18968984D02*
X11663009Y-18959460D01*
X11663009Y-18959460D02*
X11653486Y-18949936D01*
X11653486Y-18949936D02*
X11643962Y-18930889D01*
X11643962Y-18930889D02*
X11643962Y-18873746D01*
X11643962Y-18873746D02*
X11653486Y-18854698D01*
X11653486Y-18854698D02*
X11663009Y-18845174D01*
X11663009Y-18845174D02*
X11682057Y-18835650D01*
X11682057Y-18835650D02*
X11710628Y-18835650D01*
X11710628Y-18835650D02*
X11729676Y-18845174D01*
X11729676Y-18845174D02*
X11739200Y-18854698D01*
X11739200Y-18854698D02*
X11748724Y-18873746D01*
X11748724Y-18873746D02*
X11748724Y-18930889D01*
X11748724Y-18930889D02*
X11739200Y-18949936D01*
X11739200Y-18949936D02*
X11729676Y-18959460D01*
X11729676Y-18959460D02*
X11710628Y-18968984D01*
X11710628Y-18968984D02*
X11682057Y-18968984D01*
X11805867Y-18835650D02*
X11882057Y-18835650D01*
X11834438Y-18768984D02*
X11834438Y-18940412D01*
X11834438Y-18940412D02*
X11843962Y-18959460D01*
X11843962Y-18959460D02*
X11863009Y-18968984D01*
X11863009Y-18968984D02*
X11882057Y-18968984D01*
X12101105Y-18835650D02*
X12101105Y-19035650D01*
X12101105Y-18845174D02*
X12120152Y-18835650D01*
X12120152Y-18835650D02*
X12158248Y-18835650D01*
X12158248Y-18835650D02*
X12177295Y-18845174D01*
X12177295Y-18845174D02*
X12186819Y-18854698D01*
X12186819Y-18854698D02*
X12196343Y-18873746D01*
X12196343Y-18873746D02*
X12196343Y-18930889D01*
X12196343Y-18930889D02*
X12186819Y-18949936D01*
X12186819Y-18949936D02*
X12177295Y-18959460D01*
X12177295Y-18959460D02*
X12158248Y-18968984D01*
X12158248Y-18968984D02*
X12120152Y-18968984D01*
X12120152Y-18968984D02*
X12101105Y-18959460D01*
X12310628Y-18968984D02*
X12291581Y-18959460D01*
X12291581Y-18959460D02*
X12282057Y-18940412D01*
X12282057Y-18940412D02*
X12282057Y-18768984D01*
X12472533Y-18968984D02*
X12472533Y-18864222D01*
X12472533Y-18864222D02*
X12463009Y-18845174D01*
X12463009Y-18845174D02*
X12443962Y-18835650D01*
X12443962Y-18835650D02*
X12405867Y-18835650D01*
X12405867Y-18835650D02*
X12386819Y-18845174D01*
X12472533Y-18959460D02*
X12453486Y-18968984D01*
X12453486Y-18968984D02*
X12405867Y-18968984D01*
X12405867Y-18968984D02*
X12386819Y-18959460D01*
X12386819Y-18959460D02*
X12377295Y-18940412D01*
X12377295Y-18940412D02*
X12377295Y-18921365D01*
X12377295Y-18921365D02*
X12386819Y-18902317D01*
X12386819Y-18902317D02*
X12405867Y-18892793D01*
X12405867Y-18892793D02*
X12453486Y-18892793D01*
X12453486Y-18892793D02*
X12472533Y-18883270D01*
X12539200Y-18835650D02*
X12615390Y-18835650D01*
X12567771Y-18768984D02*
X12567771Y-18940412D01*
X12567771Y-18940412D02*
X12577295Y-18959460D01*
X12577295Y-18959460D02*
X12596343Y-18968984D01*
X12596343Y-18968984D02*
X12615390Y-18968984D01*
X12758248Y-18959460D02*
X12739200Y-18968984D01*
X12739200Y-18968984D02*
X12701105Y-18968984D01*
X12701105Y-18968984D02*
X12682057Y-18959460D01*
X12682057Y-18959460D02*
X12672533Y-18940412D01*
X12672533Y-18940412D02*
X12672533Y-18864222D01*
X12672533Y-18864222D02*
X12682057Y-18845174D01*
X12682057Y-18845174D02*
X12701105Y-18835650D01*
X12701105Y-18835650D02*
X12739200Y-18835650D01*
X12739200Y-18835650D02*
X12758248Y-18845174D01*
X12758248Y-18845174D02*
X12767771Y-18864222D01*
X12767771Y-18864222D02*
X12767771Y-18883270D01*
X12767771Y-18883270D02*
X12672533Y-18902317D01*
X12939200Y-18968984D02*
X12939200Y-18768984D01*
X12939200Y-18959460D02*
X12920152Y-18968984D01*
X12920152Y-18968984D02*
X12882057Y-18968984D01*
X12882057Y-18968984D02*
X12863009Y-18959460D01*
X12863009Y-18959460D02*
X12853486Y-18949936D01*
X12853486Y-18949936D02*
X12843962Y-18930889D01*
X12843962Y-18930889D02*
X12843962Y-18873746D01*
X12843962Y-18873746D02*
X12853486Y-18854698D01*
X12853486Y-18854698D02*
X12863009Y-18845174D01*
X12863009Y-18845174D02*
X12882057Y-18835650D01*
X12882057Y-18835650D02*
X12920152Y-18835650D01*
X12920152Y-18835650D02*
X12939200Y-18845174D01*
X13015390Y-19045174D02*
X13024914Y-19035650D01*
X13024914Y-19035650D02*
X13043962Y-19007079D01*
X13043962Y-19007079D02*
X13053486Y-18988031D01*
X13053486Y-18988031D02*
X13063009Y-18959460D01*
X13063009Y-18959460D02*
X13072533Y-18911841D01*
X13072533Y-18911841D02*
X13072533Y-18873746D01*
X13072533Y-18873746D02*
X13063009Y-18826127D01*
X13063009Y-18826127D02*
X13053486Y-18797555D01*
X13053486Y-18797555D02*
X13043962Y-18778508D01*
X13043962Y-18778508D02*
X13024914Y-18749936D01*
X13024914Y-18749936D02*
X13015390Y-18740412D01*
X6259375Y-19141500D02*
G75*
G02*
X6059375Y-19141500I-100000J0D01*
G01*
X6059375Y-19141500D02*
G75*
G02*
X6259375Y-19141500I100000J0D01*
G01*
X6501104Y-19032984D02*
X6624914Y-19032984D01*
X6624914Y-19032984D02*
X6558247Y-19109174D01*
X6558247Y-19109174D02*
X6586818Y-19109174D01*
X6586818Y-19109174D02*
X6605866Y-19118698D01*
X6605866Y-19118698D02*
X6615390Y-19128222D01*
X6615390Y-19128222D02*
X6624914Y-19147270D01*
X6624914Y-19147270D02*
X6624914Y-19194889D01*
X6624914Y-19194889D02*
X6615390Y-19213936D01*
X6615390Y-19213936D02*
X6605866Y-19223460D01*
X6605866Y-19223460D02*
X6586818Y-19232984D01*
X6586818Y-19232984D02*
X6529676Y-19232984D01*
X6529676Y-19232984D02*
X6510628Y-19223460D01*
X6510628Y-19223460D02*
X6501104Y-19213936D01*
X6710628Y-19213936D02*
X6720152Y-19223460D01*
X6720152Y-19223460D02*
X6710628Y-19232984D01*
X6710628Y-19232984D02*
X6701104Y-19223460D01*
X6701104Y-19223460D02*
X6710628Y-19213936D01*
X6710628Y-19213936D02*
X6710628Y-19232984D01*
X6843961Y-19032984D02*
X6863009Y-19032984D01*
X6863009Y-19032984D02*
X6882057Y-19042508D01*
X6882057Y-19042508D02*
X6891580Y-19052031D01*
X6891580Y-19052031D02*
X6901104Y-19071079D01*
X6901104Y-19071079D02*
X6910628Y-19109174D01*
X6910628Y-19109174D02*
X6910628Y-19156793D01*
X6910628Y-19156793D02*
X6901104Y-19194889D01*
X6901104Y-19194889D02*
X6891580Y-19213936D01*
X6891580Y-19213936D02*
X6882057Y-19223460D01*
X6882057Y-19223460D02*
X6863009Y-19232984D01*
X6863009Y-19232984D02*
X6843961Y-19232984D01*
X6843961Y-19232984D02*
X6824914Y-19223460D01*
X6824914Y-19223460D02*
X6815390Y-19213936D01*
X6815390Y-19213936D02*
X6805866Y-19194889D01*
X6805866Y-19194889D02*
X6796342Y-19156793D01*
X6796342Y-19156793D02*
X6796342Y-19109174D01*
X6796342Y-19109174D02*
X6805866Y-19071079D01*
X6805866Y-19071079D02*
X6815390Y-19052031D01*
X6815390Y-19052031D02*
X6824914Y-19042508D01*
X6824914Y-19042508D02*
X6843961Y-19032984D01*
X7034437Y-19032984D02*
X7053485Y-19032984D01*
X7053485Y-19032984D02*
X7072533Y-19042508D01*
X7072533Y-19042508D02*
X7082057Y-19052031D01*
X7082057Y-19052031D02*
X7091580Y-19071079D01*
X7091580Y-19071079D02*
X7101104Y-19109174D01*
X7101104Y-19109174D02*
X7101104Y-19156793D01*
X7101104Y-19156793D02*
X7091580Y-19194889D01*
X7091580Y-19194889D02*
X7082057Y-19213936D01*
X7082057Y-19213936D02*
X7072533Y-19223460D01*
X7072533Y-19223460D02*
X7053485Y-19232984D01*
X7053485Y-19232984D02*
X7034437Y-19232984D01*
X7034437Y-19232984D02*
X7015390Y-19223460D01*
X7015390Y-19223460D02*
X7005866Y-19213936D01*
X7005866Y-19213936D02*
X6996342Y-19194889D01*
X6996342Y-19194889D02*
X6986818Y-19156793D01*
X6986818Y-19156793D02*
X6986818Y-19109174D01*
X6986818Y-19109174D02*
X6996342Y-19071079D01*
X6996342Y-19071079D02*
X7005866Y-19052031D01*
X7005866Y-19052031D02*
X7015390Y-19042508D01*
X7015390Y-19042508D02*
X7034437Y-19032984D01*
X7224914Y-19032984D02*
X7243961Y-19032984D01*
X7243961Y-19032984D02*
X7263009Y-19042508D01*
X7263009Y-19042508D02*
X7272533Y-19052031D01*
X7272533Y-19052031D02*
X7282057Y-19071079D01*
X7282057Y-19071079D02*
X7291580Y-19109174D01*
X7291580Y-19109174D02*
X7291580Y-19156793D01*
X7291580Y-19156793D02*
X7282057Y-19194889D01*
X7282057Y-19194889D02*
X7272533Y-19213936D01*
X7272533Y-19213936D02*
X7263009Y-19223460D01*
X7263009Y-19223460D02*
X7243961Y-19232984D01*
X7243961Y-19232984D02*
X7224914Y-19232984D01*
X7224914Y-19232984D02*
X7205866Y-19223460D01*
X7205866Y-19223460D02*
X7196342Y-19213936D01*
X7196342Y-19213936D02*
X7186818Y-19194889D01*
X7186818Y-19194889D02*
X7177295Y-19156793D01*
X7177295Y-19156793D02*
X7177295Y-19109174D01*
X7177295Y-19109174D02*
X7186818Y-19071079D01*
X7186818Y-19071079D02*
X7196342Y-19052031D01*
X7196342Y-19052031D02*
X7205866Y-19042508D01*
X7205866Y-19042508D02*
X7224914Y-19032984D01*
X7377295Y-19232984D02*
X7377295Y-19099650D01*
X7377295Y-19118698D02*
X7386818Y-19109174D01*
X7386818Y-19109174D02*
X7405866Y-19099650D01*
X7405866Y-19099650D02*
X7434438Y-19099650D01*
X7434438Y-19099650D02*
X7453485Y-19109174D01*
X7453485Y-19109174D02*
X7463009Y-19128222D01*
X7463009Y-19128222D02*
X7463009Y-19232984D01*
X7463009Y-19128222D02*
X7472533Y-19109174D01*
X7472533Y-19109174D02*
X7491580Y-19099650D01*
X7491580Y-19099650D02*
X7520152Y-19099650D01*
X7520152Y-19099650D02*
X7539199Y-19109174D01*
X7539199Y-19109174D02*
X7548723Y-19128222D01*
X7548723Y-19128222D02*
X7548723Y-19232984D01*
X7643961Y-19232984D02*
X7643961Y-19099650D01*
X7643961Y-19118698D02*
X7653485Y-19109174D01*
X7653485Y-19109174D02*
X7672533Y-19099650D01*
X7672533Y-19099650D02*
X7701104Y-19099650D01*
X7701104Y-19099650D02*
X7720152Y-19109174D01*
X7720152Y-19109174D02*
X7729676Y-19128222D01*
X7729676Y-19128222D02*
X7729676Y-19232984D01*
X7729676Y-19128222D02*
X7739199Y-19109174D01*
X7739199Y-19109174D02*
X7758247Y-19099650D01*
X7758247Y-19099650D02*
X7786818Y-19099650D01*
X7786818Y-19099650D02*
X7805866Y-19109174D01*
X7805866Y-19109174D02*
X7815390Y-19128222D01*
X7815390Y-19128222D02*
X7815390Y-19232984D01*
X8205866Y-19023460D02*
X8034438Y-19280603D01*
X8463009Y-19032984D02*
X8482057Y-19032984D01*
X8482057Y-19032984D02*
X8501104Y-19042508D01*
X8501104Y-19042508D02*
X8510628Y-19052031D01*
X8510628Y-19052031D02*
X8520152Y-19071079D01*
X8520152Y-19071079D02*
X8529676Y-19109174D01*
X8529676Y-19109174D02*
X8529676Y-19156793D01*
X8529676Y-19156793D02*
X8520152Y-19194889D01*
X8520152Y-19194889D02*
X8510628Y-19213936D01*
X8510628Y-19213936D02*
X8501104Y-19223460D01*
X8501104Y-19223460D02*
X8482057Y-19232984D01*
X8482057Y-19232984D02*
X8463009Y-19232984D01*
X8463009Y-19232984D02*
X8443962Y-19223460D01*
X8443962Y-19223460D02*
X8434438Y-19213936D01*
X8434438Y-19213936D02*
X8424914Y-19194889D01*
X8424914Y-19194889D02*
X8415390Y-19156793D01*
X8415390Y-19156793D02*
X8415390Y-19109174D01*
X8415390Y-19109174D02*
X8424914Y-19071079D01*
X8424914Y-19071079D02*
X8434438Y-19052031D01*
X8434438Y-19052031D02*
X8443962Y-19042508D01*
X8443962Y-19042508D02*
X8463009Y-19032984D01*
X8615390Y-19213936D02*
X8624914Y-19223460D01*
X8624914Y-19223460D02*
X8615390Y-19232984D01*
X8615390Y-19232984D02*
X8605866Y-19223460D01*
X8605866Y-19223460D02*
X8615390Y-19213936D01*
X8615390Y-19213936D02*
X8615390Y-19232984D01*
X8815390Y-19232984D02*
X8701104Y-19232984D01*
X8758247Y-19232984D02*
X8758247Y-19032984D01*
X8758247Y-19032984D02*
X8739200Y-19061555D01*
X8739200Y-19061555D02*
X8720152Y-19080603D01*
X8720152Y-19080603D02*
X8701104Y-19090127D01*
X9005866Y-19232984D02*
X8891581Y-19232984D01*
X8948723Y-19232984D02*
X8948723Y-19032984D01*
X8948723Y-19032984D02*
X8929676Y-19061555D01*
X8929676Y-19061555D02*
X8910628Y-19080603D01*
X8910628Y-19080603D02*
X8891581Y-19090127D01*
X9120152Y-19118698D02*
X9101104Y-19109174D01*
X9101104Y-19109174D02*
X9091581Y-19099650D01*
X9091581Y-19099650D02*
X9082057Y-19080603D01*
X9082057Y-19080603D02*
X9082057Y-19071079D01*
X9082057Y-19071079D02*
X9091581Y-19052031D01*
X9091581Y-19052031D02*
X9101104Y-19042508D01*
X9101104Y-19042508D02*
X9120152Y-19032984D01*
X9120152Y-19032984D02*
X9158247Y-19032984D01*
X9158247Y-19032984D02*
X9177295Y-19042508D01*
X9177295Y-19042508D02*
X9186819Y-19052031D01*
X9186819Y-19052031D02*
X9196343Y-19071079D01*
X9196343Y-19071079D02*
X9196343Y-19080603D01*
X9196343Y-19080603D02*
X9186819Y-19099650D01*
X9186819Y-19099650D02*
X9177295Y-19109174D01*
X9177295Y-19109174D02*
X9158247Y-19118698D01*
X9158247Y-19118698D02*
X9120152Y-19118698D01*
X9120152Y-19118698D02*
X9101104Y-19128222D01*
X9101104Y-19128222D02*
X9091581Y-19137746D01*
X9091581Y-19137746D02*
X9082057Y-19156793D01*
X9082057Y-19156793D02*
X9082057Y-19194889D01*
X9082057Y-19194889D02*
X9091581Y-19213936D01*
X9091581Y-19213936D02*
X9101104Y-19223460D01*
X9101104Y-19223460D02*
X9120152Y-19232984D01*
X9120152Y-19232984D02*
X9158247Y-19232984D01*
X9158247Y-19232984D02*
X9177295Y-19223460D01*
X9177295Y-19223460D02*
X9186819Y-19213936D01*
X9186819Y-19213936D02*
X9196343Y-19194889D01*
X9196343Y-19194889D02*
X9196343Y-19156793D01*
X9196343Y-19156793D02*
X9186819Y-19137746D01*
X9186819Y-19137746D02*
X9177295Y-19128222D01*
X9177295Y-19128222D02*
X9158247Y-19118698D01*
X9386819Y-19232984D02*
X9272533Y-19232984D01*
X9329676Y-19232984D02*
X9329676Y-19032984D01*
X9329676Y-19032984D02*
X9310628Y-19061555D01*
X9310628Y-19061555D02*
X9291581Y-19080603D01*
X9291581Y-19080603D02*
X9272533Y-19090127D01*
X9463009Y-19032984D02*
X9463009Y-19071079D01*
X9539200Y-19032984D02*
X9539200Y-19071079D01*
X9834438Y-19309174D02*
X9824914Y-19299650D01*
X9824914Y-19299650D02*
X9805866Y-19271079D01*
X9805866Y-19271079D02*
X9796343Y-19252031D01*
X9796343Y-19252031D02*
X9786819Y-19223460D01*
X9786819Y-19223460D02*
X9777295Y-19175841D01*
X9777295Y-19175841D02*
X9777295Y-19137746D01*
X9777295Y-19137746D02*
X9786819Y-19090127D01*
X9786819Y-19090127D02*
X9796343Y-19061555D01*
X9796343Y-19061555D02*
X9805866Y-19042508D01*
X9805866Y-19042508D02*
X9824914Y-19013936D01*
X9824914Y-19013936D02*
X9834438Y-19004412D01*
X10015390Y-19232984D02*
X9901105Y-19232984D01*
X9958247Y-19232984D02*
X9958247Y-19032984D01*
X9958247Y-19032984D02*
X9939200Y-19061555D01*
X9939200Y-19061555D02*
X9920152Y-19080603D01*
X9920152Y-19080603D02*
X9901105Y-19090127D01*
X10091581Y-19052031D02*
X10101105Y-19042508D01*
X10101105Y-19042508D02*
X10120152Y-19032984D01*
X10120152Y-19032984D02*
X10167771Y-19032984D01*
X10167771Y-19032984D02*
X10186819Y-19042508D01*
X10186819Y-19042508D02*
X10196343Y-19052031D01*
X10196343Y-19052031D02*
X10205866Y-19071079D01*
X10205866Y-19071079D02*
X10205866Y-19090127D01*
X10205866Y-19090127D02*
X10196343Y-19118698D01*
X10196343Y-19118698D02*
X10082057Y-19232984D01*
X10082057Y-19232984D02*
X10205866Y-19232984D01*
X10320152Y-19118698D02*
X10301105Y-19109174D01*
X10301105Y-19109174D02*
X10291581Y-19099650D01*
X10291581Y-19099650D02*
X10282057Y-19080603D01*
X10282057Y-19080603D02*
X10282057Y-19071079D01*
X10282057Y-19071079D02*
X10291581Y-19052031D01*
X10291581Y-19052031D02*
X10301105Y-19042508D01*
X10301105Y-19042508D02*
X10320152Y-19032984D01*
X10320152Y-19032984D02*
X10358247Y-19032984D01*
X10358247Y-19032984D02*
X10377295Y-19042508D01*
X10377295Y-19042508D02*
X10386819Y-19052031D01*
X10386819Y-19052031D02*
X10396343Y-19071079D01*
X10396343Y-19071079D02*
X10396343Y-19080603D01*
X10396343Y-19080603D02*
X10386819Y-19099650D01*
X10386819Y-19099650D02*
X10377295Y-19109174D01*
X10377295Y-19109174D02*
X10358247Y-19118698D01*
X10358247Y-19118698D02*
X10320152Y-19118698D01*
X10320152Y-19118698D02*
X10301105Y-19128222D01*
X10301105Y-19128222D02*
X10291581Y-19137746D01*
X10291581Y-19137746D02*
X10282057Y-19156793D01*
X10282057Y-19156793D02*
X10282057Y-19194889D01*
X10282057Y-19194889D02*
X10291581Y-19213936D01*
X10291581Y-19213936D02*
X10301105Y-19223460D01*
X10301105Y-19223460D02*
X10320152Y-19232984D01*
X10320152Y-19232984D02*
X10358247Y-19232984D01*
X10358247Y-19232984D02*
X10377295Y-19223460D01*
X10377295Y-19223460D02*
X10386819Y-19213936D01*
X10386819Y-19213936D02*
X10396343Y-19194889D01*
X10396343Y-19194889D02*
X10396343Y-19156793D01*
X10396343Y-19156793D02*
X10386819Y-19137746D01*
X10386819Y-19137746D02*
X10377295Y-19128222D01*
X10377295Y-19128222D02*
X10358247Y-19118698D01*
X10634438Y-19232984D02*
X10634438Y-19032984D01*
X10720152Y-19232984D02*
X10720152Y-19128222D01*
X10720152Y-19128222D02*
X10710628Y-19109174D01*
X10710628Y-19109174D02*
X10691581Y-19099650D01*
X10691581Y-19099650D02*
X10663009Y-19099650D01*
X10663009Y-19099650D02*
X10643962Y-19109174D01*
X10643962Y-19109174D02*
X10634438Y-19118698D01*
X10843962Y-19232984D02*
X10824914Y-19223460D01*
X10824914Y-19223460D02*
X10815390Y-19213936D01*
X10815390Y-19213936D02*
X10805867Y-19194889D01*
X10805867Y-19194889D02*
X10805867Y-19137746D01*
X10805867Y-19137746D02*
X10815390Y-19118698D01*
X10815390Y-19118698D02*
X10824914Y-19109174D01*
X10824914Y-19109174D02*
X10843962Y-19099650D01*
X10843962Y-19099650D02*
X10872533Y-19099650D01*
X10872533Y-19099650D02*
X10891581Y-19109174D01*
X10891581Y-19109174D02*
X10901105Y-19118698D01*
X10901105Y-19118698D02*
X10910628Y-19137746D01*
X10910628Y-19137746D02*
X10910628Y-19194889D01*
X10910628Y-19194889D02*
X10901105Y-19213936D01*
X10901105Y-19213936D02*
X10891581Y-19223460D01*
X10891581Y-19223460D02*
X10872533Y-19232984D01*
X10872533Y-19232984D02*
X10843962Y-19232984D01*
X11024914Y-19232984D02*
X11005867Y-19223460D01*
X11005867Y-19223460D02*
X10996343Y-19204412D01*
X10996343Y-19204412D02*
X10996343Y-19032984D01*
X11177295Y-19223460D02*
X11158248Y-19232984D01*
X11158248Y-19232984D02*
X11120152Y-19232984D01*
X11120152Y-19232984D02*
X11101105Y-19223460D01*
X11101105Y-19223460D02*
X11091581Y-19204412D01*
X11091581Y-19204412D02*
X11091581Y-19128222D01*
X11091581Y-19128222D02*
X11101105Y-19109174D01*
X11101105Y-19109174D02*
X11120152Y-19099650D01*
X11120152Y-19099650D02*
X11158248Y-19099650D01*
X11158248Y-19099650D02*
X11177295Y-19109174D01*
X11177295Y-19109174D02*
X11186819Y-19128222D01*
X11186819Y-19128222D02*
X11186819Y-19147270D01*
X11186819Y-19147270D02*
X11091581Y-19166317D01*
X11263009Y-19223460D02*
X11282057Y-19232984D01*
X11282057Y-19232984D02*
X11320152Y-19232984D01*
X11320152Y-19232984D02*
X11339200Y-19223460D01*
X11339200Y-19223460D02*
X11348724Y-19204412D01*
X11348724Y-19204412D02*
X11348724Y-19194889D01*
X11348724Y-19194889D02*
X11339200Y-19175841D01*
X11339200Y-19175841D02*
X11320152Y-19166317D01*
X11320152Y-19166317D02*
X11291581Y-19166317D01*
X11291581Y-19166317D02*
X11272533Y-19156793D01*
X11272533Y-19156793D02*
X11263009Y-19137746D01*
X11263009Y-19137746D02*
X11263009Y-19128222D01*
X11263009Y-19128222D02*
X11272533Y-19109174D01*
X11272533Y-19109174D02*
X11291581Y-19099650D01*
X11291581Y-19099650D02*
X11320152Y-19099650D01*
X11320152Y-19099650D02*
X11339200Y-19109174D01*
X11415390Y-19309174D02*
X11424914Y-19299650D01*
X11424914Y-19299650D02*
X11443962Y-19271079D01*
X11443962Y-19271079D02*
X11453486Y-19252031D01*
X11453486Y-19252031D02*
X11463009Y-19223460D01*
X11463009Y-19223460D02*
X11472533Y-19175841D01*
X11472533Y-19175841D02*
X11472533Y-19137746D01*
X11472533Y-19137746D02*
X11463009Y-19090127D01*
X11463009Y-19090127D02*
X11453486Y-19061555D01*
X11453486Y-19061555D02*
X11443962Y-19042508D01*
X11443962Y-19042508D02*
X11424914Y-19013936D01*
X11424914Y-19013936D02*
X11415390Y-19004412D01*
X11777295Y-19309174D02*
X11767771Y-19299650D01*
X11767771Y-19299650D02*
X11748724Y-19271079D01*
X11748724Y-19271079D02*
X11739200Y-19252031D01*
X11739200Y-19252031D02*
X11729676Y-19223460D01*
X11729676Y-19223460D02*
X11720152Y-19175841D01*
X11720152Y-19175841D02*
X11720152Y-19137746D01*
X11720152Y-19137746D02*
X11729676Y-19090127D01*
X11729676Y-19090127D02*
X11739200Y-19061555D01*
X11739200Y-19061555D02*
X11748724Y-19042508D01*
X11748724Y-19042508D02*
X11767771Y-19013936D01*
X11767771Y-19013936D02*
X11777295Y-19004412D01*
X11853486Y-19099650D02*
X11853486Y-19232984D01*
X11853486Y-19118698D02*
X11863009Y-19109174D01*
X11863009Y-19109174D02*
X11882057Y-19099650D01*
X11882057Y-19099650D02*
X11910628Y-19099650D01*
X11910628Y-19099650D02*
X11929676Y-19109174D01*
X11929676Y-19109174D02*
X11939200Y-19128222D01*
X11939200Y-19128222D02*
X11939200Y-19232984D01*
X12063009Y-19232984D02*
X12043962Y-19223460D01*
X12043962Y-19223460D02*
X12034438Y-19213936D01*
X12034438Y-19213936D02*
X12024914Y-19194889D01*
X12024914Y-19194889D02*
X12024914Y-19137746D01*
X12024914Y-19137746D02*
X12034438Y-19118698D01*
X12034438Y-19118698D02*
X12043962Y-19109174D01*
X12043962Y-19109174D02*
X12063009Y-19099650D01*
X12063009Y-19099650D02*
X12091581Y-19099650D01*
X12091581Y-19099650D02*
X12110628Y-19109174D01*
X12110628Y-19109174D02*
X12120152Y-19118698D01*
X12120152Y-19118698D02*
X12129676Y-19137746D01*
X12129676Y-19137746D02*
X12129676Y-19194889D01*
X12129676Y-19194889D02*
X12120152Y-19213936D01*
X12120152Y-19213936D02*
X12110628Y-19223460D01*
X12110628Y-19223460D02*
X12091581Y-19232984D01*
X12091581Y-19232984D02*
X12063009Y-19232984D01*
X12186819Y-19099650D02*
X12263009Y-19099650D01*
X12215390Y-19032984D02*
X12215390Y-19204412D01*
X12215390Y-19204412D02*
X12224914Y-19223460D01*
X12224914Y-19223460D02*
X12243962Y-19232984D01*
X12243962Y-19232984D02*
X12263009Y-19232984D01*
X12482057Y-19099650D02*
X12482057Y-19299650D01*
X12482057Y-19109174D02*
X12501105Y-19099650D01*
X12501105Y-19099650D02*
X12539200Y-19099650D01*
X12539200Y-19099650D02*
X12558248Y-19109174D01*
X12558248Y-19109174D02*
X12567771Y-19118698D01*
X12567771Y-19118698D02*
X12577295Y-19137746D01*
X12577295Y-19137746D02*
X12577295Y-19194889D01*
X12577295Y-19194889D02*
X12567771Y-19213936D01*
X12567771Y-19213936D02*
X12558248Y-19223460D01*
X12558248Y-19223460D02*
X12539200Y-19232984D01*
X12539200Y-19232984D02*
X12501105Y-19232984D01*
X12501105Y-19232984D02*
X12482057Y-19223460D01*
X12691581Y-19232984D02*
X12672533Y-19223460D01*
X12672533Y-19223460D02*
X12663009Y-19204412D01*
X12663009Y-19204412D02*
X12663009Y-19032984D01*
X12853486Y-19232984D02*
X12853486Y-19128222D01*
X12853486Y-19128222D02*
X12843962Y-19109174D01*
X12843962Y-19109174D02*
X12824914Y-19099650D01*
X12824914Y-19099650D02*
X12786819Y-19099650D01*
X12786819Y-19099650D02*
X12767771Y-19109174D01*
X12853486Y-19223460D02*
X12834438Y-19232984D01*
X12834438Y-19232984D02*
X12786819Y-19232984D01*
X12786819Y-19232984D02*
X12767771Y-19223460D01*
X12767771Y-19223460D02*
X12758248Y-19204412D01*
X12758248Y-19204412D02*
X12758248Y-19185365D01*
X12758248Y-19185365D02*
X12767771Y-19166317D01*
X12767771Y-19166317D02*
X12786819Y-19156793D01*
X12786819Y-19156793D02*
X12834438Y-19156793D01*
X12834438Y-19156793D02*
X12853486Y-19147270D01*
X12920152Y-19099650D02*
X12996343Y-19099650D01*
X12948724Y-19032984D02*
X12948724Y-19204412D01*
X12948724Y-19204412D02*
X12958248Y-19223460D01*
X12958248Y-19223460D02*
X12977295Y-19232984D01*
X12977295Y-19232984D02*
X12996343Y-19232984D01*
X13139200Y-19223460D02*
X13120152Y-19232984D01*
X13120152Y-19232984D02*
X13082057Y-19232984D01*
X13082057Y-19232984D02*
X13063009Y-19223460D01*
X13063009Y-19223460D02*
X13053486Y-19204412D01*
X13053486Y-19204412D02*
X13053486Y-19128222D01*
X13053486Y-19128222D02*
X13063009Y-19109174D01*
X13063009Y-19109174D02*
X13082057Y-19099650D01*
X13082057Y-19099650D02*
X13120152Y-19099650D01*
X13120152Y-19099650D02*
X13139200Y-19109174D01*
X13139200Y-19109174D02*
X13148724Y-19128222D01*
X13148724Y-19128222D02*
X13148724Y-19147270D01*
X13148724Y-19147270D02*
X13053486Y-19166317D01*
X13320152Y-19232984D02*
X13320152Y-19032984D01*
X13320152Y-19223460D02*
X13301105Y-19232984D01*
X13301105Y-19232984D02*
X13263009Y-19232984D01*
X13263009Y-19232984D02*
X13243962Y-19223460D01*
X13243962Y-19223460D02*
X13234438Y-19213936D01*
X13234438Y-19213936D02*
X13224914Y-19194889D01*
X13224914Y-19194889D02*
X13224914Y-19137746D01*
X13224914Y-19137746D02*
X13234438Y-19118698D01*
X13234438Y-19118698D02*
X13243962Y-19109174D01*
X13243962Y-19109174D02*
X13263009Y-19099650D01*
X13263009Y-19099650D02*
X13301105Y-19099650D01*
X13301105Y-19099650D02*
X13320152Y-19109174D01*
X13396343Y-19309174D02*
X13405867Y-19299650D01*
X13405867Y-19299650D02*
X13424914Y-19271079D01*
X13424914Y-19271079D02*
X13434438Y-19252031D01*
X13434438Y-19252031D02*
X13443962Y-19223460D01*
X13443962Y-19223460D02*
X13453486Y-19175841D01*
X13453486Y-19175841D02*
X13453486Y-19137746D01*
X13453486Y-19137746D02*
X13443962Y-19090127D01*
X13443962Y-19090127D02*
X13434438Y-19061555D01*
X13434438Y-19061555D02*
X13424914Y-19042508D01*
X13424914Y-19042508D02*
X13405867Y-19013936D01*
X13405867Y-19013936D02*
X13396343Y-19004412D01*
X6159375Y-19361500D02*
X6159375Y-19561500D01*
X6059375Y-19461500D02*
X6259375Y-19461500D01*
X6501104Y-19352984D02*
X6624914Y-19352984D01*
X6624914Y-19352984D02*
X6558247Y-19429174D01*
X6558247Y-19429174D02*
X6586818Y-19429174D01*
X6586818Y-19429174D02*
X6605866Y-19438698D01*
X6605866Y-19438698D02*
X6615390Y-19448222D01*
X6615390Y-19448222D02*
X6624914Y-19467270D01*
X6624914Y-19467270D02*
X6624914Y-19514889D01*
X6624914Y-19514889D02*
X6615390Y-19533936D01*
X6615390Y-19533936D02*
X6605866Y-19543460D01*
X6605866Y-19543460D02*
X6586818Y-19552984D01*
X6586818Y-19552984D02*
X6529676Y-19552984D01*
X6529676Y-19552984D02*
X6510628Y-19543460D01*
X6510628Y-19543460D02*
X6501104Y-19533936D01*
X6710628Y-19533936D02*
X6720152Y-19543460D01*
X6720152Y-19543460D02*
X6710628Y-19552984D01*
X6710628Y-19552984D02*
X6701104Y-19543460D01*
X6701104Y-19543460D02*
X6710628Y-19533936D01*
X6710628Y-19533936D02*
X6710628Y-19552984D01*
X6796342Y-19372031D02*
X6805866Y-19362508D01*
X6805866Y-19362508D02*
X6824914Y-19352984D01*
X6824914Y-19352984D02*
X6872533Y-19352984D01*
X6872533Y-19352984D02*
X6891580Y-19362508D01*
X6891580Y-19362508D02*
X6901104Y-19372031D01*
X6901104Y-19372031D02*
X6910628Y-19391079D01*
X6910628Y-19391079D02*
X6910628Y-19410127D01*
X6910628Y-19410127D02*
X6901104Y-19438698D01*
X6901104Y-19438698D02*
X6786818Y-19552984D01*
X6786818Y-19552984D02*
X6910628Y-19552984D01*
X7034437Y-19352984D02*
X7053485Y-19352984D01*
X7053485Y-19352984D02*
X7072533Y-19362508D01*
X7072533Y-19362508D02*
X7082057Y-19372031D01*
X7082057Y-19372031D02*
X7091580Y-19391079D01*
X7091580Y-19391079D02*
X7101104Y-19429174D01*
X7101104Y-19429174D02*
X7101104Y-19476793D01*
X7101104Y-19476793D02*
X7091580Y-19514889D01*
X7091580Y-19514889D02*
X7082057Y-19533936D01*
X7082057Y-19533936D02*
X7072533Y-19543460D01*
X7072533Y-19543460D02*
X7053485Y-19552984D01*
X7053485Y-19552984D02*
X7034437Y-19552984D01*
X7034437Y-19552984D02*
X7015390Y-19543460D01*
X7015390Y-19543460D02*
X7005866Y-19533936D01*
X7005866Y-19533936D02*
X6996342Y-19514889D01*
X6996342Y-19514889D02*
X6986818Y-19476793D01*
X6986818Y-19476793D02*
X6986818Y-19429174D01*
X6986818Y-19429174D02*
X6996342Y-19391079D01*
X6996342Y-19391079D02*
X7005866Y-19372031D01*
X7005866Y-19372031D02*
X7015390Y-19362508D01*
X7015390Y-19362508D02*
X7034437Y-19352984D01*
X7224914Y-19352984D02*
X7243961Y-19352984D01*
X7243961Y-19352984D02*
X7263009Y-19362508D01*
X7263009Y-19362508D02*
X7272533Y-19372031D01*
X7272533Y-19372031D02*
X7282057Y-19391079D01*
X7282057Y-19391079D02*
X7291580Y-19429174D01*
X7291580Y-19429174D02*
X7291580Y-19476793D01*
X7291580Y-19476793D02*
X7282057Y-19514889D01*
X7282057Y-19514889D02*
X7272533Y-19533936D01*
X7272533Y-19533936D02*
X7263009Y-19543460D01*
X7263009Y-19543460D02*
X7243961Y-19552984D01*
X7243961Y-19552984D02*
X7224914Y-19552984D01*
X7224914Y-19552984D02*
X7205866Y-19543460D01*
X7205866Y-19543460D02*
X7196342Y-19533936D01*
X7196342Y-19533936D02*
X7186818Y-19514889D01*
X7186818Y-19514889D02*
X7177295Y-19476793D01*
X7177295Y-19476793D02*
X7177295Y-19429174D01*
X7177295Y-19429174D02*
X7186818Y-19391079D01*
X7186818Y-19391079D02*
X7196342Y-19372031D01*
X7196342Y-19372031D02*
X7205866Y-19362508D01*
X7205866Y-19362508D02*
X7224914Y-19352984D01*
X7377295Y-19552984D02*
X7377295Y-19419650D01*
X7377295Y-19438698D02*
X7386818Y-19429174D01*
X7386818Y-19429174D02*
X7405866Y-19419650D01*
X7405866Y-19419650D02*
X7434438Y-19419650D01*
X7434438Y-19419650D02*
X7453485Y-19429174D01*
X7453485Y-19429174D02*
X7463009Y-19448222D01*
X7463009Y-19448222D02*
X7463009Y-19552984D01*
X7463009Y-19448222D02*
X7472533Y-19429174D01*
X7472533Y-19429174D02*
X7491580Y-19419650D01*
X7491580Y-19419650D02*
X7520152Y-19419650D01*
X7520152Y-19419650D02*
X7539199Y-19429174D01*
X7539199Y-19429174D02*
X7548723Y-19448222D01*
X7548723Y-19448222D02*
X7548723Y-19552984D01*
X7643961Y-19552984D02*
X7643961Y-19419650D01*
X7643961Y-19438698D02*
X7653485Y-19429174D01*
X7653485Y-19429174D02*
X7672533Y-19419650D01*
X7672533Y-19419650D02*
X7701104Y-19419650D01*
X7701104Y-19419650D02*
X7720152Y-19429174D01*
X7720152Y-19429174D02*
X7729676Y-19448222D01*
X7729676Y-19448222D02*
X7729676Y-19552984D01*
X7729676Y-19448222D02*
X7739199Y-19429174D01*
X7739199Y-19429174D02*
X7758247Y-19419650D01*
X7758247Y-19419650D02*
X7786818Y-19419650D01*
X7786818Y-19419650D02*
X7805866Y-19429174D01*
X7805866Y-19429174D02*
X7815390Y-19448222D01*
X7815390Y-19448222D02*
X7815390Y-19552984D01*
X8205866Y-19343460D02*
X8034438Y-19600603D01*
X8463009Y-19352984D02*
X8482057Y-19352984D01*
X8482057Y-19352984D02*
X8501104Y-19362508D01*
X8501104Y-19362508D02*
X8510628Y-19372031D01*
X8510628Y-19372031D02*
X8520152Y-19391079D01*
X8520152Y-19391079D02*
X8529676Y-19429174D01*
X8529676Y-19429174D02*
X8529676Y-19476793D01*
X8529676Y-19476793D02*
X8520152Y-19514889D01*
X8520152Y-19514889D02*
X8510628Y-19533936D01*
X8510628Y-19533936D02*
X8501104Y-19543460D01*
X8501104Y-19543460D02*
X8482057Y-19552984D01*
X8482057Y-19552984D02*
X8463009Y-19552984D01*
X8463009Y-19552984D02*
X8443962Y-19543460D01*
X8443962Y-19543460D02*
X8434438Y-19533936D01*
X8434438Y-19533936D02*
X8424914Y-19514889D01*
X8424914Y-19514889D02*
X8415390Y-19476793D01*
X8415390Y-19476793D02*
X8415390Y-19429174D01*
X8415390Y-19429174D02*
X8424914Y-19391079D01*
X8424914Y-19391079D02*
X8434438Y-19372031D01*
X8434438Y-19372031D02*
X8443962Y-19362508D01*
X8443962Y-19362508D02*
X8463009Y-19352984D01*
X8615390Y-19533936D02*
X8624914Y-19543460D01*
X8624914Y-19543460D02*
X8615390Y-19552984D01*
X8615390Y-19552984D02*
X8605866Y-19543460D01*
X8605866Y-19543460D02*
X8615390Y-19533936D01*
X8615390Y-19533936D02*
X8615390Y-19552984D01*
X8815390Y-19552984D02*
X8701104Y-19552984D01*
X8758247Y-19552984D02*
X8758247Y-19352984D01*
X8758247Y-19352984D02*
X8739200Y-19381555D01*
X8739200Y-19381555D02*
X8720152Y-19400603D01*
X8720152Y-19400603D02*
X8701104Y-19410127D01*
X8891581Y-19372031D02*
X8901104Y-19362508D01*
X8901104Y-19362508D02*
X8920152Y-19352984D01*
X8920152Y-19352984D02*
X8967771Y-19352984D01*
X8967771Y-19352984D02*
X8986819Y-19362508D01*
X8986819Y-19362508D02*
X8996343Y-19372031D01*
X8996343Y-19372031D02*
X9005866Y-19391079D01*
X9005866Y-19391079D02*
X9005866Y-19410127D01*
X9005866Y-19410127D02*
X8996343Y-19438698D01*
X8996343Y-19438698D02*
X8882057Y-19552984D01*
X8882057Y-19552984D02*
X9005866Y-19552984D01*
X9177295Y-19352984D02*
X9139200Y-19352984D01*
X9139200Y-19352984D02*
X9120152Y-19362508D01*
X9120152Y-19362508D02*
X9110628Y-19372031D01*
X9110628Y-19372031D02*
X9091581Y-19400603D01*
X9091581Y-19400603D02*
X9082057Y-19438698D01*
X9082057Y-19438698D02*
X9082057Y-19514889D01*
X9082057Y-19514889D02*
X9091581Y-19533936D01*
X9091581Y-19533936D02*
X9101104Y-19543460D01*
X9101104Y-19543460D02*
X9120152Y-19552984D01*
X9120152Y-19552984D02*
X9158247Y-19552984D01*
X9158247Y-19552984D02*
X9177295Y-19543460D01*
X9177295Y-19543460D02*
X9186819Y-19533936D01*
X9186819Y-19533936D02*
X9196343Y-19514889D01*
X9196343Y-19514889D02*
X9196343Y-19467270D01*
X9196343Y-19467270D02*
X9186819Y-19448222D01*
X9186819Y-19448222D02*
X9177295Y-19438698D01*
X9177295Y-19438698D02*
X9158247Y-19429174D01*
X9158247Y-19429174D02*
X9120152Y-19429174D01*
X9120152Y-19429174D02*
X9101104Y-19438698D01*
X9101104Y-19438698D02*
X9091581Y-19448222D01*
X9091581Y-19448222D02*
X9082057Y-19467270D01*
X9320152Y-19352984D02*
X9339200Y-19352984D01*
X9339200Y-19352984D02*
X9358247Y-19362508D01*
X9358247Y-19362508D02*
X9367771Y-19372031D01*
X9367771Y-19372031D02*
X9377295Y-19391079D01*
X9377295Y-19391079D02*
X9386819Y-19429174D01*
X9386819Y-19429174D02*
X9386819Y-19476793D01*
X9386819Y-19476793D02*
X9377295Y-19514889D01*
X9377295Y-19514889D02*
X9367771Y-19533936D01*
X9367771Y-19533936D02*
X9358247Y-19543460D01*
X9358247Y-19543460D02*
X9339200Y-19552984D01*
X9339200Y-19552984D02*
X9320152Y-19552984D01*
X9320152Y-19552984D02*
X9301104Y-19543460D01*
X9301104Y-19543460D02*
X9291581Y-19533936D01*
X9291581Y-19533936D02*
X9282057Y-19514889D01*
X9282057Y-19514889D02*
X9272533Y-19476793D01*
X9272533Y-19476793D02*
X9272533Y-19429174D01*
X9272533Y-19429174D02*
X9282057Y-19391079D01*
X9282057Y-19391079D02*
X9291581Y-19372031D01*
X9291581Y-19372031D02*
X9301104Y-19362508D01*
X9301104Y-19362508D02*
X9320152Y-19352984D01*
X9463009Y-19352984D02*
X9463009Y-19391079D01*
X9539200Y-19352984D02*
X9539200Y-19391079D01*
X9834438Y-19629174D02*
X9824914Y-19619650D01*
X9824914Y-19619650D02*
X9805866Y-19591079D01*
X9805866Y-19591079D02*
X9796343Y-19572031D01*
X9796343Y-19572031D02*
X9786819Y-19543460D01*
X9786819Y-19543460D02*
X9777295Y-19495841D01*
X9777295Y-19495841D02*
X9777295Y-19457746D01*
X9777295Y-19457746D02*
X9786819Y-19410127D01*
X9786819Y-19410127D02*
X9796343Y-19381555D01*
X9796343Y-19381555D02*
X9805866Y-19362508D01*
X9805866Y-19362508D02*
X9824914Y-19333936D01*
X9824914Y-19333936D02*
X9834438Y-19324412D01*
X9891581Y-19352984D02*
X10015390Y-19352984D01*
X10015390Y-19352984D02*
X9948724Y-19429174D01*
X9948724Y-19429174D02*
X9977295Y-19429174D01*
X9977295Y-19429174D02*
X9996343Y-19438698D01*
X9996343Y-19438698D02*
X10005866Y-19448222D01*
X10005866Y-19448222D02*
X10015390Y-19467270D01*
X10015390Y-19467270D02*
X10015390Y-19514889D01*
X10015390Y-19514889D02*
X10005866Y-19533936D01*
X10005866Y-19533936D02*
X9996343Y-19543460D01*
X9996343Y-19543460D02*
X9977295Y-19552984D01*
X9977295Y-19552984D02*
X9920152Y-19552984D01*
X9920152Y-19552984D02*
X9901105Y-19543460D01*
X9901105Y-19543460D02*
X9891581Y-19533936D01*
X10253486Y-19552984D02*
X10253486Y-19352984D01*
X10339200Y-19552984D02*
X10339200Y-19448222D01*
X10339200Y-19448222D02*
X10329676Y-19429174D01*
X10329676Y-19429174D02*
X10310628Y-19419650D01*
X10310628Y-19419650D02*
X10282057Y-19419650D01*
X10282057Y-19419650D02*
X10263009Y-19429174D01*
X10263009Y-19429174D02*
X10253486Y-19438698D01*
X10463009Y-19552984D02*
X10443962Y-19543460D01*
X10443962Y-19543460D02*
X10434438Y-19533936D01*
X10434438Y-19533936D02*
X10424914Y-19514889D01*
X10424914Y-19514889D02*
X10424914Y-19457746D01*
X10424914Y-19457746D02*
X10434438Y-19438698D01*
X10434438Y-19438698D02*
X10443962Y-19429174D01*
X10443962Y-19429174D02*
X10463009Y-19419650D01*
X10463009Y-19419650D02*
X10491581Y-19419650D01*
X10491581Y-19419650D02*
X10510628Y-19429174D01*
X10510628Y-19429174D02*
X10520152Y-19438698D01*
X10520152Y-19438698D02*
X10529676Y-19457746D01*
X10529676Y-19457746D02*
X10529676Y-19514889D01*
X10529676Y-19514889D02*
X10520152Y-19533936D01*
X10520152Y-19533936D02*
X10510628Y-19543460D01*
X10510628Y-19543460D02*
X10491581Y-19552984D01*
X10491581Y-19552984D02*
X10463009Y-19552984D01*
X10643962Y-19552984D02*
X10624914Y-19543460D01*
X10624914Y-19543460D02*
X10615390Y-19524412D01*
X10615390Y-19524412D02*
X10615390Y-19352984D01*
X10796343Y-19543460D02*
X10777295Y-19552984D01*
X10777295Y-19552984D02*
X10739200Y-19552984D01*
X10739200Y-19552984D02*
X10720152Y-19543460D01*
X10720152Y-19543460D02*
X10710628Y-19524412D01*
X10710628Y-19524412D02*
X10710628Y-19448222D01*
X10710628Y-19448222D02*
X10720152Y-19429174D01*
X10720152Y-19429174D02*
X10739200Y-19419650D01*
X10739200Y-19419650D02*
X10777295Y-19419650D01*
X10777295Y-19419650D02*
X10796343Y-19429174D01*
X10796343Y-19429174D02*
X10805867Y-19448222D01*
X10805867Y-19448222D02*
X10805867Y-19467270D01*
X10805867Y-19467270D02*
X10710628Y-19486317D01*
X10882057Y-19543460D02*
X10901105Y-19552984D01*
X10901105Y-19552984D02*
X10939200Y-19552984D01*
X10939200Y-19552984D02*
X10958248Y-19543460D01*
X10958248Y-19543460D02*
X10967771Y-19524412D01*
X10967771Y-19524412D02*
X10967771Y-19514889D01*
X10967771Y-19514889D02*
X10958248Y-19495841D01*
X10958248Y-19495841D02*
X10939200Y-19486317D01*
X10939200Y-19486317D02*
X10910628Y-19486317D01*
X10910628Y-19486317D02*
X10891581Y-19476793D01*
X10891581Y-19476793D02*
X10882057Y-19457746D01*
X10882057Y-19457746D02*
X10882057Y-19448222D01*
X10882057Y-19448222D02*
X10891581Y-19429174D01*
X10891581Y-19429174D02*
X10910628Y-19419650D01*
X10910628Y-19419650D02*
X10939200Y-19419650D01*
X10939200Y-19419650D02*
X10958248Y-19429174D01*
X11034438Y-19629174D02*
X11043962Y-19619650D01*
X11043962Y-19619650D02*
X11063009Y-19591079D01*
X11063009Y-19591079D02*
X11072533Y-19572031D01*
X11072533Y-19572031D02*
X11082057Y-19543460D01*
X11082057Y-19543460D02*
X11091581Y-19495841D01*
X11091581Y-19495841D02*
X11091581Y-19457746D01*
X11091581Y-19457746D02*
X11082057Y-19410127D01*
X11082057Y-19410127D02*
X11072533Y-19381555D01*
X11072533Y-19381555D02*
X11063009Y-19362508D01*
X11063009Y-19362508D02*
X11043962Y-19333936D01*
X11043962Y-19333936D02*
X11034438Y-19324412D01*
X11396343Y-19629174D02*
X11386819Y-19619650D01*
X11386819Y-19619650D02*
X11367771Y-19591079D01*
X11367771Y-19591079D02*
X11358247Y-19572031D01*
X11358247Y-19572031D02*
X11348724Y-19543460D01*
X11348724Y-19543460D02*
X11339200Y-19495841D01*
X11339200Y-19495841D02*
X11339200Y-19457746D01*
X11339200Y-19457746D02*
X11348724Y-19410127D01*
X11348724Y-19410127D02*
X11358247Y-19381555D01*
X11358247Y-19381555D02*
X11367771Y-19362508D01*
X11367771Y-19362508D02*
X11386819Y-19333936D01*
X11386819Y-19333936D02*
X11396343Y-19324412D01*
X11472533Y-19419650D02*
X11472533Y-19552984D01*
X11472533Y-19438698D02*
X11482057Y-19429174D01*
X11482057Y-19429174D02*
X11501105Y-19419650D01*
X11501105Y-19419650D02*
X11529676Y-19419650D01*
X11529676Y-19419650D02*
X11548724Y-19429174D01*
X11548724Y-19429174D02*
X11558247Y-19448222D01*
X11558247Y-19448222D02*
X11558247Y-19552984D01*
X11682057Y-19552984D02*
X11663009Y-19543460D01*
X11663009Y-19543460D02*
X11653486Y-19533936D01*
X11653486Y-19533936D02*
X11643962Y-19514889D01*
X11643962Y-19514889D02*
X11643962Y-19457746D01*
X11643962Y-19457746D02*
X11653486Y-19438698D01*
X11653486Y-19438698D02*
X11663009Y-19429174D01*
X11663009Y-19429174D02*
X11682057Y-19419650D01*
X11682057Y-19419650D02*
X11710628Y-19419650D01*
X11710628Y-19419650D02*
X11729676Y-19429174D01*
X11729676Y-19429174D02*
X11739200Y-19438698D01*
X11739200Y-19438698D02*
X11748724Y-19457746D01*
X11748724Y-19457746D02*
X11748724Y-19514889D01*
X11748724Y-19514889D02*
X11739200Y-19533936D01*
X11739200Y-19533936D02*
X11729676Y-19543460D01*
X11729676Y-19543460D02*
X11710628Y-19552984D01*
X11710628Y-19552984D02*
X11682057Y-19552984D01*
X11805867Y-19419650D02*
X11882057Y-19419650D01*
X11834438Y-19352984D02*
X11834438Y-19524412D01*
X11834438Y-19524412D02*
X11843962Y-19543460D01*
X11843962Y-19543460D02*
X11863009Y-19552984D01*
X11863009Y-19552984D02*
X11882057Y-19552984D01*
X12101105Y-19419650D02*
X12101105Y-19619650D01*
X12101105Y-19429174D02*
X12120152Y-19419650D01*
X12120152Y-19419650D02*
X12158248Y-19419650D01*
X12158248Y-19419650D02*
X12177295Y-19429174D01*
X12177295Y-19429174D02*
X12186819Y-19438698D01*
X12186819Y-19438698D02*
X12196343Y-19457746D01*
X12196343Y-19457746D02*
X12196343Y-19514889D01*
X12196343Y-19514889D02*
X12186819Y-19533936D01*
X12186819Y-19533936D02*
X12177295Y-19543460D01*
X12177295Y-19543460D02*
X12158248Y-19552984D01*
X12158248Y-19552984D02*
X12120152Y-19552984D01*
X12120152Y-19552984D02*
X12101105Y-19543460D01*
X12310628Y-19552984D02*
X12291581Y-19543460D01*
X12291581Y-19543460D02*
X12282057Y-19524412D01*
X12282057Y-19524412D02*
X12282057Y-19352984D01*
X12472533Y-19552984D02*
X12472533Y-19448222D01*
X12472533Y-19448222D02*
X12463009Y-19429174D01*
X12463009Y-19429174D02*
X12443962Y-19419650D01*
X12443962Y-19419650D02*
X12405867Y-19419650D01*
X12405867Y-19419650D02*
X12386819Y-19429174D01*
X12472533Y-19543460D02*
X12453486Y-19552984D01*
X12453486Y-19552984D02*
X12405867Y-19552984D01*
X12405867Y-19552984D02*
X12386819Y-19543460D01*
X12386819Y-19543460D02*
X12377295Y-19524412D01*
X12377295Y-19524412D02*
X12377295Y-19505365D01*
X12377295Y-19505365D02*
X12386819Y-19486317D01*
X12386819Y-19486317D02*
X12405867Y-19476793D01*
X12405867Y-19476793D02*
X12453486Y-19476793D01*
X12453486Y-19476793D02*
X12472533Y-19467270D01*
X12539200Y-19419650D02*
X12615390Y-19419650D01*
X12567771Y-19352984D02*
X12567771Y-19524412D01*
X12567771Y-19524412D02*
X12577295Y-19543460D01*
X12577295Y-19543460D02*
X12596343Y-19552984D01*
X12596343Y-19552984D02*
X12615390Y-19552984D01*
X12758248Y-19543460D02*
X12739200Y-19552984D01*
X12739200Y-19552984D02*
X12701105Y-19552984D01*
X12701105Y-19552984D02*
X12682057Y-19543460D01*
X12682057Y-19543460D02*
X12672533Y-19524412D01*
X12672533Y-19524412D02*
X12672533Y-19448222D01*
X12672533Y-19448222D02*
X12682057Y-19429174D01*
X12682057Y-19429174D02*
X12701105Y-19419650D01*
X12701105Y-19419650D02*
X12739200Y-19419650D01*
X12739200Y-19419650D02*
X12758248Y-19429174D01*
X12758248Y-19429174D02*
X12767771Y-19448222D01*
X12767771Y-19448222D02*
X12767771Y-19467270D01*
X12767771Y-19467270D02*
X12672533Y-19486317D01*
X12939200Y-19552984D02*
X12939200Y-19352984D01*
X12939200Y-19543460D02*
X12920152Y-19552984D01*
X12920152Y-19552984D02*
X12882057Y-19552984D01*
X12882057Y-19552984D02*
X12863009Y-19543460D01*
X12863009Y-19543460D02*
X12853486Y-19533936D01*
X12853486Y-19533936D02*
X12843962Y-19514889D01*
X12843962Y-19514889D02*
X12843962Y-19457746D01*
X12843962Y-19457746D02*
X12853486Y-19438698D01*
X12853486Y-19438698D02*
X12863009Y-19429174D01*
X12863009Y-19429174D02*
X12882057Y-19419650D01*
X12882057Y-19419650D02*
X12920152Y-19419650D01*
X12920152Y-19419650D02*
X12939200Y-19429174D01*
X13015390Y-19629174D02*
X13024914Y-19619650D01*
X13024914Y-19619650D02*
X13043962Y-19591079D01*
X13043962Y-19591079D02*
X13053486Y-19572031D01*
X13053486Y-19572031D02*
X13063009Y-19543460D01*
X13063009Y-19543460D02*
X13072533Y-19495841D01*
X13072533Y-19495841D02*
X13072533Y-19457746D01*
X13072533Y-19457746D02*
X13063009Y-19410127D01*
X13063009Y-19410127D02*
X13053486Y-19381555D01*
X13053486Y-19381555D02*
X13043962Y-19362508D01*
X13043962Y-19362508D02*
X13024914Y-19333936D01*
X13024914Y-19333936D02*
X13015390Y-19324412D01*
X6230086Y-19852211D02*
X6230086Y-19710789D01*
X6088664Y-19710789D01*
X6088664Y-19852211D01*
X6230086Y-19852211D01*
X6615390Y-19672984D02*
X6520152Y-19672984D01*
X6520152Y-19672984D02*
X6510628Y-19768222D01*
X6510628Y-19768222D02*
X6520152Y-19758698D01*
X6520152Y-19758698D02*
X6539199Y-19749174D01*
X6539199Y-19749174D02*
X6586818Y-19749174D01*
X6586818Y-19749174D02*
X6605866Y-19758698D01*
X6605866Y-19758698D02*
X6615390Y-19768222D01*
X6615390Y-19768222D02*
X6624914Y-19787270D01*
X6624914Y-19787270D02*
X6624914Y-19834889D01*
X6624914Y-19834889D02*
X6615390Y-19853936D01*
X6615390Y-19853936D02*
X6605866Y-19863460D01*
X6605866Y-19863460D02*
X6586818Y-19872984D01*
X6586818Y-19872984D02*
X6539199Y-19872984D01*
X6539199Y-19872984D02*
X6520152Y-19863460D01*
X6520152Y-19863460D02*
X6510628Y-19853936D01*
X6710628Y-19853936D02*
X6720152Y-19863460D01*
X6720152Y-19863460D02*
X6710628Y-19872984D01*
X6710628Y-19872984D02*
X6701104Y-19863460D01*
X6701104Y-19863460D02*
X6710628Y-19853936D01*
X6710628Y-19853936D02*
X6710628Y-19872984D01*
X6843961Y-19672984D02*
X6863009Y-19672984D01*
X6863009Y-19672984D02*
X6882057Y-19682508D01*
X6882057Y-19682508D02*
X6891580Y-19692031D01*
X6891580Y-19692031D02*
X6901104Y-19711079D01*
X6901104Y-19711079D02*
X6910628Y-19749174D01*
X6910628Y-19749174D02*
X6910628Y-19796793D01*
X6910628Y-19796793D02*
X6901104Y-19834889D01*
X6901104Y-19834889D02*
X6891580Y-19853936D01*
X6891580Y-19853936D02*
X6882057Y-19863460D01*
X6882057Y-19863460D02*
X6863009Y-19872984D01*
X6863009Y-19872984D02*
X6843961Y-19872984D01*
X6843961Y-19872984D02*
X6824914Y-19863460D01*
X6824914Y-19863460D02*
X6815390Y-19853936D01*
X6815390Y-19853936D02*
X6805866Y-19834889D01*
X6805866Y-19834889D02*
X6796342Y-19796793D01*
X6796342Y-19796793D02*
X6796342Y-19749174D01*
X6796342Y-19749174D02*
X6805866Y-19711079D01*
X6805866Y-19711079D02*
X6815390Y-19692031D01*
X6815390Y-19692031D02*
X6824914Y-19682508D01*
X6824914Y-19682508D02*
X6843961Y-19672984D01*
X7034437Y-19672984D02*
X7053485Y-19672984D01*
X7053485Y-19672984D02*
X7072533Y-19682508D01*
X7072533Y-19682508D02*
X7082057Y-19692031D01*
X7082057Y-19692031D02*
X7091580Y-19711079D01*
X7091580Y-19711079D02*
X7101104Y-19749174D01*
X7101104Y-19749174D02*
X7101104Y-19796793D01*
X7101104Y-19796793D02*
X7091580Y-19834889D01*
X7091580Y-19834889D02*
X7082057Y-19853936D01*
X7082057Y-19853936D02*
X7072533Y-19863460D01*
X7072533Y-19863460D02*
X7053485Y-19872984D01*
X7053485Y-19872984D02*
X7034437Y-19872984D01*
X7034437Y-19872984D02*
X7015390Y-19863460D01*
X7015390Y-19863460D02*
X7005866Y-19853936D01*
X7005866Y-19853936D02*
X6996342Y-19834889D01*
X6996342Y-19834889D02*
X6986818Y-19796793D01*
X6986818Y-19796793D02*
X6986818Y-19749174D01*
X6986818Y-19749174D02*
X6996342Y-19711079D01*
X6996342Y-19711079D02*
X7005866Y-19692031D01*
X7005866Y-19692031D02*
X7015390Y-19682508D01*
X7015390Y-19682508D02*
X7034437Y-19672984D01*
X7224914Y-19672984D02*
X7243961Y-19672984D01*
X7243961Y-19672984D02*
X7263009Y-19682508D01*
X7263009Y-19682508D02*
X7272533Y-19692031D01*
X7272533Y-19692031D02*
X7282057Y-19711079D01*
X7282057Y-19711079D02*
X7291580Y-19749174D01*
X7291580Y-19749174D02*
X7291580Y-19796793D01*
X7291580Y-19796793D02*
X7282057Y-19834889D01*
X7282057Y-19834889D02*
X7272533Y-19853936D01*
X7272533Y-19853936D02*
X7263009Y-19863460D01*
X7263009Y-19863460D02*
X7243961Y-19872984D01*
X7243961Y-19872984D02*
X7224914Y-19872984D01*
X7224914Y-19872984D02*
X7205866Y-19863460D01*
X7205866Y-19863460D02*
X7196342Y-19853936D01*
X7196342Y-19853936D02*
X7186818Y-19834889D01*
X7186818Y-19834889D02*
X7177295Y-19796793D01*
X7177295Y-19796793D02*
X7177295Y-19749174D01*
X7177295Y-19749174D02*
X7186818Y-19711079D01*
X7186818Y-19711079D02*
X7196342Y-19692031D01*
X7196342Y-19692031D02*
X7205866Y-19682508D01*
X7205866Y-19682508D02*
X7224914Y-19672984D01*
X7377295Y-19872984D02*
X7377295Y-19739650D01*
X7377295Y-19758698D02*
X7386818Y-19749174D01*
X7386818Y-19749174D02*
X7405866Y-19739650D01*
X7405866Y-19739650D02*
X7434438Y-19739650D01*
X7434438Y-19739650D02*
X7453485Y-19749174D01*
X7453485Y-19749174D02*
X7463009Y-19768222D01*
X7463009Y-19768222D02*
X7463009Y-19872984D01*
X7463009Y-19768222D02*
X7472533Y-19749174D01*
X7472533Y-19749174D02*
X7491580Y-19739650D01*
X7491580Y-19739650D02*
X7520152Y-19739650D01*
X7520152Y-19739650D02*
X7539199Y-19749174D01*
X7539199Y-19749174D02*
X7548723Y-19768222D01*
X7548723Y-19768222D02*
X7548723Y-19872984D01*
X7643961Y-19872984D02*
X7643961Y-19739650D01*
X7643961Y-19758698D02*
X7653485Y-19749174D01*
X7653485Y-19749174D02*
X7672533Y-19739650D01*
X7672533Y-19739650D02*
X7701104Y-19739650D01*
X7701104Y-19739650D02*
X7720152Y-19749174D01*
X7720152Y-19749174D02*
X7729676Y-19768222D01*
X7729676Y-19768222D02*
X7729676Y-19872984D01*
X7729676Y-19768222D02*
X7739199Y-19749174D01*
X7739199Y-19749174D02*
X7758247Y-19739650D01*
X7758247Y-19739650D02*
X7786818Y-19739650D01*
X7786818Y-19739650D02*
X7805866Y-19749174D01*
X7805866Y-19749174D02*
X7815390Y-19768222D01*
X7815390Y-19768222D02*
X7815390Y-19872984D01*
X8205866Y-19663460D02*
X8034438Y-19920603D01*
X8463009Y-19672984D02*
X8482057Y-19672984D01*
X8482057Y-19672984D02*
X8501104Y-19682508D01*
X8501104Y-19682508D02*
X8510628Y-19692031D01*
X8510628Y-19692031D02*
X8520152Y-19711079D01*
X8520152Y-19711079D02*
X8529676Y-19749174D01*
X8529676Y-19749174D02*
X8529676Y-19796793D01*
X8529676Y-19796793D02*
X8520152Y-19834889D01*
X8520152Y-19834889D02*
X8510628Y-19853936D01*
X8510628Y-19853936D02*
X8501104Y-19863460D01*
X8501104Y-19863460D02*
X8482057Y-19872984D01*
X8482057Y-19872984D02*
X8463009Y-19872984D01*
X8463009Y-19872984D02*
X8443962Y-19863460D01*
X8443962Y-19863460D02*
X8434438Y-19853936D01*
X8434438Y-19853936D02*
X8424914Y-19834889D01*
X8424914Y-19834889D02*
X8415390Y-19796793D01*
X8415390Y-19796793D02*
X8415390Y-19749174D01*
X8415390Y-19749174D02*
X8424914Y-19711079D01*
X8424914Y-19711079D02*
X8434438Y-19692031D01*
X8434438Y-19692031D02*
X8443962Y-19682508D01*
X8443962Y-19682508D02*
X8463009Y-19672984D01*
X8615390Y-19853936D02*
X8624914Y-19863460D01*
X8624914Y-19863460D02*
X8615390Y-19872984D01*
X8615390Y-19872984D02*
X8605866Y-19863460D01*
X8605866Y-19863460D02*
X8615390Y-19853936D01*
X8615390Y-19853936D02*
X8615390Y-19872984D01*
X8815390Y-19872984D02*
X8701104Y-19872984D01*
X8758247Y-19872984D02*
X8758247Y-19672984D01*
X8758247Y-19672984D02*
X8739200Y-19701555D01*
X8739200Y-19701555D02*
X8720152Y-19720603D01*
X8720152Y-19720603D02*
X8701104Y-19730127D01*
X8910628Y-19872984D02*
X8948723Y-19872984D01*
X8948723Y-19872984D02*
X8967771Y-19863460D01*
X8967771Y-19863460D02*
X8977295Y-19853936D01*
X8977295Y-19853936D02*
X8996343Y-19825365D01*
X8996343Y-19825365D02*
X9005866Y-19787270D01*
X9005866Y-19787270D02*
X9005866Y-19711079D01*
X9005866Y-19711079D02*
X8996343Y-19692031D01*
X8996343Y-19692031D02*
X8986819Y-19682508D01*
X8986819Y-19682508D02*
X8967771Y-19672984D01*
X8967771Y-19672984D02*
X8929676Y-19672984D01*
X8929676Y-19672984D02*
X8910628Y-19682508D01*
X8910628Y-19682508D02*
X8901104Y-19692031D01*
X8901104Y-19692031D02*
X8891581Y-19711079D01*
X8891581Y-19711079D02*
X8891581Y-19758698D01*
X8891581Y-19758698D02*
X8901104Y-19777746D01*
X8901104Y-19777746D02*
X8910628Y-19787270D01*
X8910628Y-19787270D02*
X8929676Y-19796793D01*
X8929676Y-19796793D02*
X8967771Y-19796793D01*
X8967771Y-19796793D02*
X8986819Y-19787270D01*
X8986819Y-19787270D02*
X8996343Y-19777746D01*
X8996343Y-19777746D02*
X9005866Y-19758698D01*
X9177295Y-19672984D02*
X9139200Y-19672984D01*
X9139200Y-19672984D02*
X9120152Y-19682508D01*
X9120152Y-19682508D02*
X9110628Y-19692031D01*
X9110628Y-19692031D02*
X9091581Y-19720603D01*
X9091581Y-19720603D02*
X9082057Y-19758698D01*
X9082057Y-19758698D02*
X9082057Y-19834889D01*
X9082057Y-19834889D02*
X9091581Y-19853936D01*
X9091581Y-19853936D02*
X9101104Y-19863460D01*
X9101104Y-19863460D02*
X9120152Y-19872984D01*
X9120152Y-19872984D02*
X9158247Y-19872984D01*
X9158247Y-19872984D02*
X9177295Y-19863460D01*
X9177295Y-19863460D02*
X9186819Y-19853936D01*
X9186819Y-19853936D02*
X9196343Y-19834889D01*
X9196343Y-19834889D02*
X9196343Y-19787270D01*
X9196343Y-19787270D02*
X9186819Y-19768222D01*
X9186819Y-19768222D02*
X9177295Y-19758698D01*
X9177295Y-19758698D02*
X9158247Y-19749174D01*
X9158247Y-19749174D02*
X9120152Y-19749174D01*
X9120152Y-19749174D02*
X9101104Y-19758698D01*
X9101104Y-19758698D02*
X9091581Y-19768222D01*
X9091581Y-19768222D02*
X9082057Y-19787270D01*
X9291581Y-19872984D02*
X9329676Y-19872984D01*
X9329676Y-19872984D02*
X9348724Y-19863460D01*
X9348724Y-19863460D02*
X9358247Y-19853936D01*
X9358247Y-19853936D02*
X9377295Y-19825365D01*
X9377295Y-19825365D02*
X9386819Y-19787270D01*
X9386819Y-19787270D02*
X9386819Y-19711079D01*
X9386819Y-19711079D02*
X9377295Y-19692031D01*
X9377295Y-19692031D02*
X9367771Y-19682508D01*
X9367771Y-19682508D02*
X9348724Y-19672984D01*
X9348724Y-19672984D02*
X9310628Y-19672984D01*
X9310628Y-19672984D02*
X9291581Y-19682508D01*
X9291581Y-19682508D02*
X9282057Y-19692031D01*
X9282057Y-19692031D02*
X9272533Y-19711079D01*
X9272533Y-19711079D02*
X9272533Y-19758698D01*
X9272533Y-19758698D02*
X9282057Y-19777746D01*
X9282057Y-19777746D02*
X9291581Y-19787270D01*
X9291581Y-19787270D02*
X9310628Y-19796793D01*
X9310628Y-19796793D02*
X9348724Y-19796793D01*
X9348724Y-19796793D02*
X9367771Y-19787270D01*
X9367771Y-19787270D02*
X9377295Y-19777746D01*
X9377295Y-19777746D02*
X9386819Y-19758698D01*
X9463009Y-19672984D02*
X9463009Y-19711079D01*
X9539200Y-19672984D02*
X9539200Y-19711079D01*
X9834438Y-19949174D02*
X9824914Y-19939650D01*
X9824914Y-19939650D02*
X9805866Y-19911079D01*
X9805866Y-19911079D02*
X9796343Y-19892031D01*
X9796343Y-19892031D02*
X9786819Y-19863460D01*
X9786819Y-19863460D02*
X9777295Y-19815841D01*
X9777295Y-19815841D02*
X9777295Y-19777746D01*
X9777295Y-19777746D02*
X9786819Y-19730127D01*
X9786819Y-19730127D02*
X9796343Y-19701555D01*
X9796343Y-19701555D02*
X9805866Y-19682508D01*
X9805866Y-19682508D02*
X9824914Y-19653936D01*
X9824914Y-19653936D02*
X9834438Y-19644412D01*
X10005866Y-19672984D02*
X9910628Y-19672984D01*
X9910628Y-19672984D02*
X9901105Y-19768222D01*
X9901105Y-19768222D02*
X9910628Y-19758698D01*
X9910628Y-19758698D02*
X9929676Y-19749174D01*
X9929676Y-19749174D02*
X9977295Y-19749174D01*
X9977295Y-19749174D02*
X9996343Y-19758698D01*
X9996343Y-19758698D02*
X10005866Y-19768222D01*
X10005866Y-19768222D02*
X10015390Y-19787270D01*
X10015390Y-19787270D02*
X10015390Y-19834889D01*
X10015390Y-19834889D02*
X10005866Y-19853936D01*
X10005866Y-19853936D02*
X9996343Y-19863460D01*
X9996343Y-19863460D02*
X9977295Y-19872984D01*
X9977295Y-19872984D02*
X9929676Y-19872984D01*
X9929676Y-19872984D02*
X9910628Y-19863460D01*
X9910628Y-19863460D02*
X9901105Y-19853936D01*
X10253486Y-19872984D02*
X10253486Y-19672984D01*
X10339200Y-19872984D02*
X10339200Y-19768222D01*
X10339200Y-19768222D02*
X10329676Y-19749174D01*
X10329676Y-19749174D02*
X10310628Y-19739650D01*
X10310628Y-19739650D02*
X10282057Y-19739650D01*
X10282057Y-19739650D02*
X10263009Y-19749174D01*
X10263009Y-19749174D02*
X10253486Y-19758698D01*
X10463009Y-19872984D02*
X10443962Y-19863460D01*
X10443962Y-19863460D02*
X10434438Y-19853936D01*
X10434438Y-19853936D02*
X10424914Y-19834889D01*
X10424914Y-19834889D02*
X10424914Y-19777746D01*
X10424914Y-19777746D02*
X10434438Y-19758698D01*
X10434438Y-19758698D02*
X10443962Y-19749174D01*
X10443962Y-19749174D02*
X10463009Y-19739650D01*
X10463009Y-19739650D02*
X10491581Y-19739650D01*
X10491581Y-19739650D02*
X10510628Y-19749174D01*
X10510628Y-19749174D02*
X10520152Y-19758698D01*
X10520152Y-19758698D02*
X10529676Y-19777746D01*
X10529676Y-19777746D02*
X10529676Y-19834889D01*
X10529676Y-19834889D02*
X10520152Y-19853936D01*
X10520152Y-19853936D02*
X10510628Y-19863460D01*
X10510628Y-19863460D02*
X10491581Y-19872984D01*
X10491581Y-19872984D02*
X10463009Y-19872984D01*
X10643962Y-19872984D02*
X10624914Y-19863460D01*
X10624914Y-19863460D02*
X10615390Y-19844412D01*
X10615390Y-19844412D02*
X10615390Y-19672984D01*
X10796343Y-19863460D02*
X10777295Y-19872984D01*
X10777295Y-19872984D02*
X10739200Y-19872984D01*
X10739200Y-19872984D02*
X10720152Y-19863460D01*
X10720152Y-19863460D02*
X10710628Y-19844412D01*
X10710628Y-19844412D02*
X10710628Y-19768222D01*
X10710628Y-19768222D02*
X10720152Y-19749174D01*
X10720152Y-19749174D02*
X10739200Y-19739650D01*
X10739200Y-19739650D02*
X10777295Y-19739650D01*
X10777295Y-19739650D02*
X10796343Y-19749174D01*
X10796343Y-19749174D02*
X10805867Y-19768222D01*
X10805867Y-19768222D02*
X10805867Y-19787270D01*
X10805867Y-19787270D02*
X10710628Y-19806317D01*
X10882057Y-19863460D02*
X10901105Y-19872984D01*
X10901105Y-19872984D02*
X10939200Y-19872984D01*
X10939200Y-19872984D02*
X10958248Y-19863460D01*
X10958248Y-19863460D02*
X10967771Y-19844412D01*
X10967771Y-19844412D02*
X10967771Y-19834889D01*
X10967771Y-19834889D02*
X10958248Y-19815841D01*
X10958248Y-19815841D02*
X10939200Y-19806317D01*
X10939200Y-19806317D02*
X10910628Y-19806317D01*
X10910628Y-19806317D02*
X10891581Y-19796793D01*
X10891581Y-19796793D02*
X10882057Y-19777746D01*
X10882057Y-19777746D02*
X10882057Y-19768222D01*
X10882057Y-19768222D02*
X10891581Y-19749174D01*
X10891581Y-19749174D02*
X10910628Y-19739650D01*
X10910628Y-19739650D02*
X10939200Y-19739650D01*
X10939200Y-19739650D02*
X10958248Y-19749174D01*
X11034438Y-19949174D02*
X11043962Y-19939650D01*
X11043962Y-19939650D02*
X11063009Y-19911079D01*
X11063009Y-19911079D02*
X11072533Y-19892031D01*
X11072533Y-19892031D02*
X11082057Y-19863460D01*
X11082057Y-19863460D02*
X11091581Y-19815841D01*
X11091581Y-19815841D02*
X11091581Y-19777746D01*
X11091581Y-19777746D02*
X11082057Y-19730127D01*
X11082057Y-19730127D02*
X11072533Y-19701555D01*
X11072533Y-19701555D02*
X11063009Y-19682508D01*
X11063009Y-19682508D02*
X11043962Y-19653936D01*
X11043962Y-19653936D02*
X11034438Y-19644412D01*
X11396343Y-19949174D02*
X11386819Y-19939650D01*
X11386819Y-19939650D02*
X11367771Y-19911079D01*
X11367771Y-19911079D02*
X11358247Y-19892031D01*
X11358247Y-19892031D02*
X11348724Y-19863460D01*
X11348724Y-19863460D02*
X11339200Y-19815841D01*
X11339200Y-19815841D02*
X11339200Y-19777746D01*
X11339200Y-19777746D02*
X11348724Y-19730127D01*
X11348724Y-19730127D02*
X11358247Y-19701555D01*
X11358247Y-19701555D02*
X11367771Y-19682508D01*
X11367771Y-19682508D02*
X11386819Y-19653936D01*
X11386819Y-19653936D02*
X11396343Y-19644412D01*
X11472533Y-19739650D02*
X11472533Y-19872984D01*
X11472533Y-19758698D02*
X11482057Y-19749174D01*
X11482057Y-19749174D02*
X11501105Y-19739650D01*
X11501105Y-19739650D02*
X11529676Y-19739650D01*
X11529676Y-19739650D02*
X11548724Y-19749174D01*
X11548724Y-19749174D02*
X11558247Y-19768222D01*
X11558247Y-19768222D02*
X11558247Y-19872984D01*
X11682057Y-19872984D02*
X11663009Y-19863460D01*
X11663009Y-19863460D02*
X11653486Y-19853936D01*
X11653486Y-19853936D02*
X11643962Y-19834889D01*
X11643962Y-19834889D02*
X11643962Y-19777746D01*
X11643962Y-19777746D02*
X11653486Y-19758698D01*
X11653486Y-19758698D02*
X11663009Y-19749174D01*
X11663009Y-19749174D02*
X11682057Y-19739650D01*
X11682057Y-19739650D02*
X11710628Y-19739650D01*
X11710628Y-19739650D02*
X11729676Y-19749174D01*
X11729676Y-19749174D02*
X11739200Y-19758698D01*
X11739200Y-19758698D02*
X11748724Y-19777746D01*
X11748724Y-19777746D02*
X11748724Y-19834889D01*
X11748724Y-19834889D02*
X11739200Y-19853936D01*
X11739200Y-19853936D02*
X11729676Y-19863460D01*
X11729676Y-19863460D02*
X11710628Y-19872984D01*
X11710628Y-19872984D02*
X11682057Y-19872984D01*
X11805867Y-19739650D02*
X11882057Y-19739650D01*
X11834438Y-19672984D02*
X11834438Y-19844412D01*
X11834438Y-19844412D02*
X11843962Y-19863460D01*
X11843962Y-19863460D02*
X11863009Y-19872984D01*
X11863009Y-19872984D02*
X11882057Y-19872984D01*
X12101105Y-19739650D02*
X12101105Y-19939650D01*
X12101105Y-19749174D02*
X12120152Y-19739650D01*
X12120152Y-19739650D02*
X12158248Y-19739650D01*
X12158248Y-19739650D02*
X12177295Y-19749174D01*
X12177295Y-19749174D02*
X12186819Y-19758698D01*
X12186819Y-19758698D02*
X12196343Y-19777746D01*
X12196343Y-19777746D02*
X12196343Y-19834889D01*
X12196343Y-19834889D02*
X12186819Y-19853936D01*
X12186819Y-19853936D02*
X12177295Y-19863460D01*
X12177295Y-19863460D02*
X12158248Y-19872984D01*
X12158248Y-19872984D02*
X12120152Y-19872984D01*
X12120152Y-19872984D02*
X12101105Y-19863460D01*
X12310628Y-19872984D02*
X12291581Y-19863460D01*
X12291581Y-19863460D02*
X12282057Y-19844412D01*
X12282057Y-19844412D02*
X12282057Y-19672984D01*
X12472533Y-19872984D02*
X12472533Y-19768222D01*
X12472533Y-19768222D02*
X12463009Y-19749174D01*
X12463009Y-19749174D02*
X12443962Y-19739650D01*
X12443962Y-19739650D02*
X12405867Y-19739650D01*
X12405867Y-19739650D02*
X12386819Y-19749174D01*
X12472533Y-19863460D02*
X12453486Y-19872984D01*
X12453486Y-19872984D02*
X12405867Y-19872984D01*
X12405867Y-19872984D02*
X12386819Y-19863460D01*
X12386819Y-19863460D02*
X12377295Y-19844412D01*
X12377295Y-19844412D02*
X12377295Y-19825365D01*
X12377295Y-19825365D02*
X12386819Y-19806317D01*
X12386819Y-19806317D02*
X12405867Y-19796793D01*
X12405867Y-19796793D02*
X12453486Y-19796793D01*
X12453486Y-19796793D02*
X12472533Y-19787270D01*
X12539200Y-19739650D02*
X12615390Y-19739650D01*
X12567771Y-19672984D02*
X12567771Y-19844412D01*
X12567771Y-19844412D02*
X12577295Y-19863460D01*
X12577295Y-19863460D02*
X12596343Y-19872984D01*
X12596343Y-19872984D02*
X12615390Y-19872984D01*
X12758248Y-19863460D02*
X12739200Y-19872984D01*
X12739200Y-19872984D02*
X12701105Y-19872984D01*
X12701105Y-19872984D02*
X12682057Y-19863460D01*
X12682057Y-19863460D02*
X12672533Y-19844412D01*
X12672533Y-19844412D02*
X12672533Y-19768222D01*
X12672533Y-19768222D02*
X12682057Y-19749174D01*
X12682057Y-19749174D02*
X12701105Y-19739650D01*
X12701105Y-19739650D02*
X12739200Y-19739650D01*
X12739200Y-19739650D02*
X12758248Y-19749174D01*
X12758248Y-19749174D02*
X12767771Y-19768222D01*
X12767771Y-19768222D02*
X12767771Y-19787270D01*
X12767771Y-19787270D02*
X12672533Y-19806317D01*
X12939200Y-19872984D02*
X12939200Y-19672984D01*
X12939200Y-19863460D02*
X12920152Y-19872984D01*
X12920152Y-19872984D02*
X12882057Y-19872984D01*
X12882057Y-19872984D02*
X12863009Y-19863460D01*
X12863009Y-19863460D02*
X12853486Y-19853936D01*
X12853486Y-19853936D02*
X12843962Y-19834889D01*
X12843962Y-19834889D02*
X12843962Y-19777746D01*
X12843962Y-19777746D02*
X12853486Y-19758698D01*
X12853486Y-19758698D02*
X12863009Y-19749174D01*
X12863009Y-19749174D02*
X12882057Y-19739650D01*
X12882057Y-19739650D02*
X12920152Y-19739650D01*
X12920152Y-19739650D02*
X12939200Y-19749174D01*
X13015390Y-19949174D02*
X13024914Y-19939650D01*
X13024914Y-19939650D02*
X13043962Y-19911079D01*
X13043962Y-19911079D02*
X13053486Y-19892031D01*
X13053486Y-19892031D02*
X13063009Y-19863460D01*
X13063009Y-19863460D02*
X13072533Y-19815841D01*
X13072533Y-19815841D02*
X13072533Y-19777746D01*
X13072533Y-19777746D02*
X13063009Y-19730127D01*
X13063009Y-19730127D02*
X13053486Y-19701555D01*
X13053486Y-19701555D02*
X13043962Y-19682508D01*
X13043962Y-19682508D02*
X13024914Y-19653936D01*
X13024914Y-19653936D02*
X13015390Y-19644412D01*
X6159375Y-20201500D02*
X6259375Y-20101500D01*
X6159375Y-20001500D01*
X6059375Y-20101500D01*
X6159375Y-20201500D01*
X6615390Y-19992984D02*
X6520152Y-19992984D01*
X6520152Y-19992984D02*
X6510628Y-20088222D01*
X6510628Y-20088222D02*
X6520152Y-20078698D01*
X6520152Y-20078698D02*
X6539199Y-20069174D01*
X6539199Y-20069174D02*
X6586818Y-20069174D01*
X6586818Y-20069174D02*
X6605866Y-20078698D01*
X6605866Y-20078698D02*
X6615390Y-20088222D01*
X6615390Y-20088222D02*
X6624914Y-20107270D01*
X6624914Y-20107270D02*
X6624914Y-20154889D01*
X6624914Y-20154889D02*
X6615390Y-20173936D01*
X6615390Y-20173936D02*
X6605866Y-20183460D01*
X6605866Y-20183460D02*
X6586818Y-20192984D01*
X6586818Y-20192984D02*
X6539199Y-20192984D01*
X6539199Y-20192984D02*
X6520152Y-20183460D01*
X6520152Y-20183460D02*
X6510628Y-20173936D01*
X6710628Y-20173936D02*
X6720152Y-20183460D01*
X6720152Y-20183460D02*
X6710628Y-20192984D01*
X6710628Y-20192984D02*
X6701104Y-20183460D01*
X6701104Y-20183460D02*
X6710628Y-20173936D01*
X6710628Y-20173936D02*
X6710628Y-20192984D01*
X6910628Y-20192984D02*
X6796342Y-20192984D01*
X6853485Y-20192984D02*
X6853485Y-19992984D01*
X6853485Y-19992984D02*
X6834437Y-20021555D01*
X6834437Y-20021555D02*
X6815390Y-20040603D01*
X6815390Y-20040603D02*
X6796342Y-20050127D01*
X7034437Y-19992984D02*
X7053485Y-19992984D01*
X7053485Y-19992984D02*
X7072533Y-20002508D01*
X7072533Y-20002508D02*
X7082057Y-20012031D01*
X7082057Y-20012031D02*
X7091580Y-20031079D01*
X7091580Y-20031079D02*
X7101104Y-20069174D01*
X7101104Y-20069174D02*
X7101104Y-20116793D01*
X7101104Y-20116793D02*
X7091580Y-20154889D01*
X7091580Y-20154889D02*
X7082057Y-20173936D01*
X7082057Y-20173936D02*
X7072533Y-20183460D01*
X7072533Y-20183460D02*
X7053485Y-20192984D01*
X7053485Y-20192984D02*
X7034437Y-20192984D01*
X7034437Y-20192984D02*
X7015390Y-20183460D01*
X7015390Y-20183460D02*
X7005866Y-20173936D01*
X7005866Y-20173936D02*
X6996342Y-20154889D01*
X6996342Y-20154889D02*
X6986818Y-20116793D01*
X6986818Y-20116793D02*
X6986818Y-20069174D01*
X6986818Y-20069174D02*
X6996342Y-20031079D01*
X6996342Y-20031079D02*
X7005866Y-20012031D01*
X7005866Y-20012031D02*
X7015390Y-20002508D01*
X7015390Y-20002508D02*
X7034437Y-19992984D01*
X7224914Y-19992984D02*
X7243961Y-19992984D01*
X7243961Y-19992984D02*
X7263009Y-20002508D01*
X7263009Y-20002508D02*
X7272533Y-20012031D01*
X7272533Y-20012031D02*
X7282057Y-20031079D01*
X7282057Y-20031079D02*
X7291580Y-20069174D01*
X7291580Y-20069174D02*
X7291580Y-20116793D01*
X7291580Y-20116793D02*
X7282057Y-20154889D01*
X7282057Y-20154889D02*
X7272533Y-20173936D01*
X7272533Y-20173936D02*
X7263009Y-20183460D01*
X7263009Y-20183460D02*
X7243961Y-20192984D01*
X7243961Y-20192984D02*
X7224914Y-20192984D01*
X7224914Y-20192984D02*
X7205866Y-20183460D01*
X7205866Y-20183460D02*
X7196342Y-20173936D01*
X7196342Y-20173936D02*
X7186818Y-20154889D01*
X7186818Y-20154889D02*
X7177295Y-20116793D01*
X7177295Y-20116793D02*
X7177295Y-20069174D01*
X7177295Y-20069174D02*
X7186818Y-20031079D01*
X7186818Y-20031079D02*
X7196342Y-20012031D01*
X7196342Y-20012031D02*
X7205866Y-20002508D01*
X7205866Y-20002508D02*
X7224914Y-19992984D01*
X7377295Y-20192984D02*
X7377295Y-20059650D01*
X7377295Y-20078698D02*
X7386818Y-20069174D01*
X7386818Y-20069174D02*
X7405866Y-20059650D01*
X7405866Y-20059650D02*
X7434438Y-20059650D01*
X7434438Y-20059650D02*
X7453485Y-20069174D01*
X7453485Y-20069174D02*
X7463009Y-20088222D01*
X7463009Y-20088222D02*
X7463009Y-20192984D01*
X7463009Y-20088222D02*
X7472533Y-20069174D01*
X7472533Y-20069174D02*
X7491580Y-20059650D01*
X7491580Y-20059650D02*
X7520152Y-20059650D01*
X7520152Y-20059650D02*
X7539199Y-20069174D01*
X7539199Y-20069174D02*
X7548723Y-20088222D01*
X7548723Y-20088222D02*
X7548723Y-20192984D01*
X7643961Y-20192984D02*
X7643961Y-20059650D01*
X7643961Y-20078698D02*
X7653485Y-20069174D01*
X7653485Y-20069174D02*
X7672533Y-20059650D01*
X7672533Y-20059650D02*
X7701104Y-20059650D01*
X7701104Y-20059650D02*
X7720152Y-20069174D01*
X7720152Y-20069174D02*
X7729676Y-20088222D01*
X7729676Y-20088222D02*
X7729676Y-20192984D01*
X7729676Y-20088222D02*
X7739199Y-20069174D01*
X7739199Y-20069174D02*
X7758247Y-20059650D01*
X7758247Y-20059650D02*
X7786818Y-20059650D01*
X7786818Y-20059650D02*
X7805866Y-20069174D01*
X7805866Y-20069174D02*
X7815390Y-20088222D01*
X7815390Y-20088222D02*
X7815390Y-20192984D01*
X8205866Y-19983460D02*
X8034438Y-20240603D01*
X8463009Y-19992984D02*
X8482057Y-19992984D01*
X8482057Y-19992984D02*
X8501104Y-20002508D01*
X8501104Y-20002508D02*
X8510628Y-20012031D01*
X8510628Y-20012031D02*
X8520152Y-20031079D01*
X8520152Y-20031079D02*
X8529676Y-20069174D01*
X8529676Y-20069174D02*
X8529676Y-20116793D01*
X8529676Y-20116793D02*
X8520152Y-20154889D01*
X8520152Y-20154889D02*
X8510628Y-20173936D01*
X8510628Y-20173936D02*
X8501104Y-20183460D01*
X8501104Y-20183460D02*
X8482057Y-20192984D01*
X8482057Y-20192984D02*
X8463009Y-20192984D01*
X8463009Y-20192984D02*
X8443962Y-20183460D01*
X8443962Y-20183460D02*
X8434438Y-20173936D01*
X8434438Y-20173936D02*
X8424914Y-20154889D01*
X8424914Y-20154889D02*
X8415390Y-20116793D01*
X8415390Y-20116793D02*
X8415390Y-20069174D01*
X8415390Y-20069174D02*
X8424914Y-20031079D01*
X8424914Y-20031079D02*
X8434438Y-20012031D01*
X8434438Y-20012031D02*
X8443962Y-20002508D01*
X8443962Y-20002508D02*
X8463009Y-19992984D01*
X8615390Y-20173936D02*
X8624914Y-20183460D01*
X8624914Y-20183460D02*
X8615390Y-20192984D01*
X8615390Y-20192984D02*
X8605866Y-20183460D01*
X8605866Y-20183460D02*
X8615390Y-20173936D01*
X8615390Y-20173936D02*
X8615390Y-20192984D01*
X8701104Y-20012031D02*
X8710628Y-20002508D01*
X8710628Y-20002508D02*
X8729676Y-19992984D01*
X8729676Y-19992984D02*
X8777295Y-19992984D01*
X8777295Y-19992984D02*
X8796343Y-20002508D01*
X8796343Y-20002508D02*
X8805866Y-20012031D01*
X8805866Y-20012031D02*
X8815390Y-20031079D01*
X8815390Y-20031079D02*
X8815390Y-20050127D01*
X8815390Y-20050127D02*
X8805866Y-20078698D01*
X8805866Y-20078698D02*
X8691581Y-20192984D01*
X8691581Y-20192984D02*
X8815390Y-20192984D01*
X8939200Y-19992984D02*
X8958247Y-19992984D01*
X8958247Y-19992984D02*
X8977295Y-20002508D01*
X8977295Y-20002508D02*
X8986819Y-20012031D01*
X8986819Y-20012031D02*
X8996343Y-20031079D01*
X8996343Y-20031079D02*
X9005866Y-20069174D01*
X9005866Y-20069174D02*
X9005866Y-20116793D01*
X9005866Y-20116793D02*
X8996343Y-20154889D01*
X8996343Y-20154889D02*
X8986819Y-20173936D01*
X8986819Y-20173936D02*
X8977295Y-20183460D01*
X8977295Y-20183460D02*
X8958247Y-20192984D01*
X8958247Y-20192984D02*
X8939200Y-20192984D01*
X8939200Y-20192984D02*
X8920152Y-20183460D01*
X8920152Y-20183460D02*
X8910628Y-20173936D01*
X8910628Y-20173936D02*
X8901104Y-20154889D01*
X8901104Y-20154889D02*
X8891581Y-20116793D01*
X8891581Y-20116793D02*
X8891581Y-20069174D01*
X8891581Y-20069174D02*
X8901104Y-20031079D01*
X8901104Y-20031079D02*
X8910628Y-20012031D01*
X8910628Y-20012031D02*
X8920152Y-20002508D01*
X8920152Y-20002508D02*
X8939200Y-19992984D01*
X9129676Y-19992984D02*
X9148724Y-19992984D01*
X9148724Y-19992984D02*
X9167771Y-20002508D01*
X9167771Y-20002508D02*
X9177295Y-20012031D01*
X9177295Y-20012031D02*
X9186819Y-20031079D01*
X9186819Y-20031079D02*
X9196343Y-20069174D01*
X9196343Y-20069174D02*
X9196343Y-20116793D01*
X9196343Y-20116793D02*
X9186819Y-20154889D01*
X9186819Y-20154889D02*
X9177295Y-20173936D01*
X9177295Y-20173936D02*
X9167771Y-20183460D01*
X9167771Y-20183460D02*
X9148724Y-20192984D01*
X9148724Y-20192984D02*
X9129676Y-20192984D01*
X9129676Y-20192984D02*
X9110628Y-20183460D01*
X9110628Y-20183460D02*
X9101104Y-20173936D01*
X9101104Y-20173936D02*
X9091581Y-20154889D01*
X9091581Y-20154889D02*
X9082057Y-20116793D01*
X9082057Y-20116793D02*
X9082057Y-20069174D01*
X9082057Y-20069174D02*
X9091581Y-20031079D01*
X9091581Y-20031079D02*
X9101104Y-20012031D01*
X9101104Y-20012031D02*
X9110628Y-20002508D01*
X9110628Y-20002508D02*
X9129676Y-19992984D01*
X9310628Y-20078698D02*
X9291581Y-20069174D01*
X9291581Y-20069174D02*
X9282057Y-20059650D01*
X9282057Y-20059650D02*
X9272533Y-20040603D01*
X9272533Y-20040603D02*
X9272533Y-20031079D01*
X9272533Y-20031079D02*
X9282057Y-20012031D01*
X9282057Y-20012031D02*
X9291581Y-20002508D01*
X9291581Y-20002508D02*
X9310628Y-19992984D01*
X9310628Y-19992984D02*
X9348724Y-19992984D01*
X9348724Y-19992984D02*
X9367771Y-20002508D01*
X9367771Y-20002508D02*
X9377295Y-20012031D01*
X9377295Y-20012031D02*
X9386819Y-20031079D01*
X9386819Y-20031079D02*
X9386819Y-20040603D01*
X9386819Y-20040603D02*
X9377295Y-20059650D01*
X9377295Y-20059650D02*
X9367771Y-20069174D01*
X9367771Y-20069174D02*
X9348724Y-20078698D01*
X9348724Y-20078698D02*
X9310628Y-20078698D01*
X9310628Y-20078698D02*
X9291581Y-20088222D01*
X9291581Y-20088222D02*
X9282057Y-20097746D01*
X9282057Y-20097746D02*
X9272533Y-20116793D01*
X9272533Y-20116793D02*
X9272533Y-20154889D01*
X9272533Y-20154889D02*
X9282057Y-20173936D01*
X9282057Y-20173936D02*
X9291581Y-20183460D01*
X9291581Y-20183460D02*
X9310628Y-20192984D01*
X9310628Y-20192984D02*
X9348724Y-20192984D01*
X9348724Y-20192984D02*
X9367771Y-20183460D01*
X9367771Y-20183460D02*
X9377295Y-20173936D01*
X9377295Y-20173936D02*
X9386819Y-20154889D01*
X9386819Y-20154889D02*
X9386819Y-20116793D01*
X9386819Y-20116793D02*
X9377295Y-20097746D01*
X9377295Y-20097746D02*
X9367771Y-20088222D01*
X9367771Y-20088222D02*
X9348724Y-20078698D01*
X9463009Y-19992984D02*
X9463009Y-20031079D01*
X9539200Y-19992984D02*
X9539200Y-20031079D01*
X9834438Y-20269174D02*
X9824914Y-20259650D01*
X9824914Y-20259650D02*
X9805866Y-20231079D01*
X9805866Y-20231079D02*
X9796343Y-20212031D01*
X9796343Y-20212031D02*
X9786819Y-20183460D01*
X9786819Y-20183460D02*
X9777295Y-20135841D01*
X9777295Y-20135841D02*
X9777295Y-20097746D01*
X9777295Y-20097746D02*
X9786819Y-20050127D01*
X9786819Y-20050127D02*
X9796343Y-20021555D01*
X9796343Y-20021555D02*
X9805866Y-20002508D01*
X9805866Y-20002508D02*
X9824914Y-19973936D01*
X9824914Y-19973936D02*
X9834438Y-19964412D01*
X9996343Y-19992984D02*
X9958247Y-19992984D01*
X9958247Y-19992984D02*
X9939200Y-20002508D01*
X9939200Y-20002508D02*
X9929676Y-20012031D01*
X9929676Y-20012031D02*
X9910628Y-20040603D01*
X9910628Y-20040603D02*
X9901105Y-20078698D01*
X9901105Y-20078698D02*
X9901105Y-20154889D01*
X9901105Y-20154889D02*
X9910628Y-20173936D01*
X9910628Y-20173936D02*
X9920152Y-20183460D01*
X9920152Y-20183460D02*
X9939200Y-20192984D01*
X9939200Y-20192984D02*
X9977295Y-20192984D01*
X9977295Y-20192984D02*
X9996343Y-20183460D01*
X9996343Y-20183460D02*
X10005866Y-20173936D01*
X10005866Y-20173936D02*
X10015390Y-20154889D01*
X10015390Y-20154889D02*
X10015390Y-20107270D01*
X10015390Y-20107270D02*
X10005866Y-20088222D01*
X10005866Y-20088222D02*
X9996343Y-20078698D01*
X9996343Y-20078698D02*
X9977295Y-20069174D01*
X9977295Y-20069174D02*
X9939200Y-20069174D01*
X9939200Y-20069174D02*
X9920152Y-20078698D01*
X9920152Y-20078698D02*
X9910628Y-20088222D01*
X9910628Y-20088222D02*
X9901105Y-20107270D01*
X10186819Y-20059650D02*
X10186819Y-20192984D01*
X10139200Y-19983460D02*
X10091581Y-20126317D01*
X10091581Y-20126317D02*
X10215390Y-20126317D01*
X10443962Y-20192984D02*
X10443962Y-19992984D01*
X10529676Y-20192984D02*
X10529676Y-20088222D01*
X10529676Y-20088222D02*
X10520152Y-20069174D01*
X10520152Y-20069174D02*
X10501105Y-20059650D01*
X10501105Y-20059650D02*
X10472533Y-20059650D01*
X10472533Y-20059650D02*
X10453486Y-20069174D01*
X10453486Y-20069174D02*
X10443962Y-20078698D01*
X10653486Y-20192984D02*
X10634438Y-20183460D01*
X10634438Y-20183460D02*
X10624914Y-20173936D01*
X10624914Y-20173936D02*
X10615390Y-20154889D01*
X10615390Y-20154889D02*
X10615390Y-20097746D01*
X10615390Y-20097746D02*
X10624914Y-20078698D01*
X10624914Y-20078698D02*
X10634438Y-20069174D01*
X10634438Y-20069174D02*
X10653486Y-20059650D01*
X10653486Y-20059650D02*
X10682057Y-20059650D01*
X10682057Y-20059650D02*
X10701105Y-20069174D01*
X10701105Y-20069174D02*
X10710628Y-20078698D01*
X10710628Y-20078698D02*
X10720152Y-20097746D01*
X10720152Y-20097746D02*
X10720152Y-20154889D01*
X10720152Y-20154889D02*
X10710628Y-20173936D01*
X10710628Y-20173936D02*
X10701105Y-20183460D01*
X10701105Y-20183460D02*
X10682057Y-20192984D01*
X10682057Y-20192984D02*
X10653486Y-20192984D01*
X10834438Y-20192984D02*
X10815390Y-20183460D01*
X10815390Y-20183460D02*
X10805867Y-20164412D01*
X10805867Y-20164412D02*
X10805867Y-19992984D01*
X10986819Y-20183460D02*
X10967771Y-20192984D01*
X10967771Y-20192984D02*
X10929676Y-20192984D01*
X10929676Y-20192984D02*
X10910628Y-20183460D01*
X10910628Y-20183460D02*
X10901105Y-20164412D01*
X10901105Y-20164412D02*
X10901105Y-20088222D01*
X10901105Y-20088222D02*
X10910628Y-20069174D01*
X10910628Y-20069174D02*
X10929676Y-20059650D01*
X10929676Y-20059650D02*
X10967771Y-20059650D01*
X10967771Y-20059650D02*
X10986819Y-20069174D01*
X10986819Y-20069174D02*
X10996343Y-20088222D01*
X10996343Y-20088222D02*
X10996343Y-20107270D01*
X10996343Y-20107270D02*
X10901105Y-20126317D01*
X11072533Y-20183460D02*
X11091581Y-20192984D01*
X11091581Y-20192984D02*
X11129676Y-20192984D01*
X11129676Y-20192984D02*
X11148724Y-20183460D01*
X11148724Y-20183460D02*
X11158248Y-20164412D01*
X11158248Y-20164412D02*
X11158248Y-20154889D01*
X11158248Y-20154889D02*
X11148724Y-20135841D01*
X11148724Y-20135841D02*
X11129676Y-20126317D01*
X11129676Y-20126317D02*
X11101105Y-20126317D01*
X11101105Y-20126317D02*
X11082057Y-20116793D01*
X11082057Y-20116793D02*
X11072533Y-20097746D01*
X11072533Y-20097746D02*
X11072533Y-20088222D01*
X11072533Y-20088222D02*
X11082057Y-20069174D01*
X11082057Y-20069174D02*
X11101105Y-20059650D01*
X11101105Y-20059650D02*
X11129676Y-20059650D01*
X11129676Y-20059650D02*
X11148724Y-20069174D01*
X11224914Y-20269174D02*
X11234438Y-20259650D01*
X11234438Y-20259650D02*
X11253486Y-20231079D01*
X11253486Y-20231079D02*
X11263009Y-20212031D01*
X11263009Y-20212031D02*
X11272533Y-20183460D01*
X11272533Y-20183460D02*
X11282057Y-20135841D01*
X11282057Y-20135841D02*
X11282057Y-20097746D01*
X11282057Y-20097746D02*
X11272533Y-20050127D01*
X11272533Y-20050127D02*
X11263009Y-20021555D01*
X11263009Y-20021555D02*
X11253486Y-20002508D01*
X11253486Y-20002508D02*
X11234438Y-19973936D01*
X11234438Y-19973936D02*
X11224914Y-19964412D01*
X11586819Y-20269174D02*
X11577295Y-20259650D01*
X11577295Y-20259650D02*
X11558247Y-20231079D01*
X11558247Y-20231079D02*
X11548724Y-20212031D01*
X11548724Y-20212031D02*
X11539200Y-20183460D01*
X11539200Y-20183460D02*
X11529676Y-20135841D01*
X11529676Y-20135841D02*
X11529676Y-20097746D01*
X11529676Y-20097746D02*
X11539200Y-20050127D01*
X11539200Y-20050127D02*
X11548724Y-20021555D01*
X11548724Y-20021555D02*
X11558247Y-20002508D01*
X11558247Y-20002508D02*
X11577295Y-19973936D01*
X11577295Y-19973936D02*
X11586819Y-19964412D01*
X11663009Y-20059650D02*
X11663009Y-20192984D01*
X11663009Y-20078698D02*
X11672533Y-20069174D01*
X11672533Y-20069174D02*
X11691581Y-20059650D01*
X11691581Y-20059650D02*
X11720152Y-20059650D01*
X11720152Y-20059650D02*
X11739200Y-20069174D01*
X11739200Y-20069174D02*
X11748724Y-20088222D01*
X11748724Y-20088222D02*
X11748724Y-20192984D01*
X11872533Y-20192984D02*
X11853486Y-20183460D01*
X11853486Y-20183460D02*
X11843962Y-20173936D01*
X11843962Y-20173936D02*
X11834438Y-20154889D01*
X11834438Y-20154889D02*
X11834438Y-20097746D01*
X11834438Y-20097746D02*
X11843962Y-20078698D01*
X11843962Y-20078698D02*
X11853486Y-20069174D01*
X11853486Y-20069174D02*
X11872533Y-20059650D01*
X11872533Y-20059650D02*
X11901105Y-20059650D01*
X11901105Y-20059650D02*
X11920152Y-20069174D01*
X11920152Y-20069174D02*
X11929676Y-20078698D01*
X11929676Y-20078698D02*
X11939200Y-20097746D01*
X11939200Y-20097746D02*
X11939200Y-20154889D01*
X11939200Y-20154889D02*
X11929676Y-20173936D01*
X11929676Y-20173936D02*
X11920152Y-20183460D01*
X11920152Y-20183460D02*
X11901105Y-20192984D01*
X11901105Y-20192984D02*
X11872533Y-20192984D01*
X11996343Y-20059650D02*
X12072533Y-20059650D01*
X12024914Y-19992984D02*
X12024914Y-20164412D01*
X12024914Y-20164412D02*
X12034438Y-20183460D01*
X12034438Y-20183460D02*
X12053486Y-20192984D01*
X12053486Y-20192984D02*
X12072533Y-20192984D01*
X12291581Y-20059650D02*
X12291581Y-20259650D01*
X12291581Y-20069174D02*
X12310628Y-20059650D01*
X12310628Y-20059650D02*
X12348724Y-20059650D01*
X12348724Y-20059650D02*
X12367771Y-20069174D01*
X12367771Y-20069174D02*
X12377295Y-20078698D01*
X12377295Y-20078698D02*
X12386819Y-20097746D01*
X12386819Y-20097746D02*
X12386819Y-20154889D01*
X12386819Y-20154889D02*
X12377295Y-20173936D01*
X12377295Y-20173936D02*
X12367771Y-20183460D01*
X12367771Y-20183460D02*
X12348724Y-20192984D01*
X12348724Y-20192984D02*
X12310628Y-20192984D01*
X12310628Y-20192984D02*
X12291581Y-20183460D01*
X12501105Y-20192984D02*
X12482057Y-20183460D01*
X12482057Y-20183460D02*
X12472533Y-20164412D01*
X12472533Y-20164412D02*
X12472533Y-19992984D01*
X12663009Y-20192984D02*
X12663009Y-20088222D01*
X12663009Y-20088222D02*
X12653486Y-20069174D01*
X12653486Y-20069174D02*
X12634438Y-20059650D01*
X12634438Y-20059650D02*
X12596343Y-20059650D01*
X12596343Y-20059650D02*
X12577295Y-20069174D01*
X12663009Y-20183460D02*
X12643962Y-20192984D01*
X12643962Y-20192984D02*
X12596343Y-20192984D01*
X12596343Y-20192984D02*
X12577295Y-20183460D01*
X12577295Y-20183460D02*
X12567771Y-20164412D01*
X12567771Y-20164412D02*
X12567771Y-20145365D01*
X12567771Y-20145365D02*
X12577295Y-20126317D01*
X12577295Y-20126317D02*
X12596343Y-20116793D01*
X12596343Y-20116793D02*
X12643962Y-20116793D01*
X12643962Y-20116793D02*
X12663009Y-20107270D01*
X12729676Y-20059650D02*
X12805867Y-20059650D01*
X12758248Y-19992984D02*
X12758248Y-20164412D01*
X12758248Y-20164412D02*
X12767771Y-20183460D01*
X12767771Y-20183460D02*
X12786819Y-20192984D01*
X12786819Y-20192984D02*
X12805867Y-20192984D01*
X12948724Y-20183460D02*
X12929676Y-20192984D01*
X12929676Y-20192984D02*
X12891581Y-20192984D01*
X12891581Y-20192984D02*
X12872533Y-20183460D01*
X12872533Y-20183460D02*
X12863009Y-20164412D01*
X12863009Y-20164412D02*
X12863009Y-20088222D01*
X12863009Y-20088222D02*
X12872533Y-20069174D01*
X12872533Y-20069174D02*
X12891581Y-20059650D01*
X12891581Y-20059650D02*
X12929676Y-20059650D01*
X12929676Y-20059650D02*
X12948724Y-20069174D01*
X12948724Y-20069174D02*
X12958248Y-20088222D01*
X12958248Y-20088222D02*
X12958248Y-20107270D01*
X12958248Y-20107270D02*
X12863009Y-20126317D01*
X13129676Y-20192984D02*
X13129676Y-19992984D01*
X13129676Y-20183460D02*
X13110629Y-20192984D01*
X13110629Y-20192984D02*
X13072533Y-20192984D01*
X13072533Y-20192984D02*
X13053486Y-20183460D01*
X13053486Y-20183460D02*
X13043962Y-20173936D01*
X13043962Y-20173936D02*
X13034438Y-20154889D01*
X13034438Y-20154889D02*
X13034438Y-20097746D01*
X13034438Y-20097746D02*
X13043962Y-20078698D01*
X13043962Y-20078698D02*
X13053486Y-20069174D01*
X13053486Y-20069174D02*
X13072533Y-20059650D01*
X13072533Y-20059650D02*
X13110629Y-20059650D01*
X13110629Y-20059650D02*
X13129676Y-20069174D01*
X13205867Y-20269174D02*
X13215390Y-20259650D01*
X13215390Y-20259650D02*
X13234438Y-20231079D01*
X13234438Y-20231079D02*
X13243962Y-20212031D01*
X13243962Y-20212031D02*
X13253486Y-20183460D01*
X13253486Y-20183460D02*
X13263009Y-20135841D01*
X13263009Y-20135841D02*
X13263009Y-20097746D01*
X13263009Y-20097746D02*
X13253486Y-20050127D01*
X13253486Y-20050127D02*
X13243962Y-20021555D01*
X13243962Y-20021555D02*
X13234438Y-20002508D01*
X13234438Y-20002508D02*
X13215390Y-19973936D01*
X13215390Y-19973936D02*
X13205867Y-19964412D01*
M02*
