%TF.GenerationSoftware,KiCad,Pcbnew,10.0.0*%
%TF.CreationDate,2026-07-09T05:21:45+05:30*%
%TF.ProjectId,Open Deck,4f70656e-2044-4656-936b-2e6b69636164,V1*%
%TF.SameCoordinates,Original*%
%TF.FileFunction,Paste,Bot*%
%TF.FilePolarity,Positive*%
%FSLAX46Y46*%
G04 Gerber Fmt 4.6, Leading zero omitted, Abs format (unit mm)*
G04 Created by KiCad (PCBNEW 10.0.0) date 2026-07-09 05:21:45*
%MOMM*%
%LPD*%
G01*
G04 APERTURE LIST*
G04 Aperture macros list*
%AMRoundRect*
0 Rectangle with rounded corners*
0 $1 Rounding radius*
0 $2 $3 $4 $5 $6 $7 $8 $9 X,Y pos of 4 corners*
0 Add a 4 corners polygon primitive as box body*
4,1,4,$2,$3,$4,$5,$6,$7,$8,$9,$2,$3,0*
0 Add four circle primitives for the rounded corners*
1,1,$1+$1,$2,$3*
1,1,$1+$1,$4,$5*
1,1,$1+$1,$6,$7*
1,1,$1+$1,$8,$9*
0 Add four rect primitives between the rounded corners*
20,1,$1+$1,$2,$3,$4,$5,0*
20,1,$1+$1,$4,$5,$6,$7,0*
20,1,$1+$1,$6,$7,$8,$9,0*
20,1,$1+$1,$8,$9,$2,$3,0*%
G04 Aperture macros list end*
%ADD10R,2.550000X2.550000*%
%ADD11R,2.271000X2.550000*%
%ADD12R,1.550000X2.550000*%
%ADD13RoundRect,0.225000X-0.375000X0.225000X-0.375000X-0.225000X0.375000X-0.225000X0.375000X0.225000X0*%
%ADD14RoundRect,0.250000X-1.500000X0.250000X-1.500000X-0.250000X1.500000X-0.250000X1.500000X0.250000X0*%
%ADD15RoundRect,0.250001X-1.449999X0.499999X-1.449999X-0.499999X1.449999X-0.499999X1.449999X0.499999X0*%
%ADD16R,1.500000X0.700000*%
%ADD17R,0.800000X1.000000*%
%ADD18RoundRect,0.225000X0.225000X0.375000X-0.225000X0.375000X-0.225000X-0.375000X0.225000X-0.375000X0*%
%ADD19R,1.000000X1.900000*%
G04 APERTURE END LIST*
D10*
%TO.C,SW8*%
X197218750Y-101325000D03*
X211968750Y-102375000D03*
%TD*%
%TO.C,SW53*%
X292468750Y-158475000D03*
X307218750Y-159525000D03*
%TD*%
D11*
%TO.C,SW1*%
X64008250Y-101325000D03*
D10*
X78618750Y-102375000D03*
%TD*%
%TO.C,SW6*%
X159118750Y-101325000D03*
X173868750Y-102375000D03*
%TD*%
%TO.C,SW52*%
X273418750Y-158475000D03*
X288168750Y-159525000D03*
%TD*%
%TO.C,SW51*%
X254368750Y-158475000D03*
X269118750Y-159525000D03*
%TD*%
%TO.C,SW3*%
X101968750Y-101325000D03*
X116718750Y-102375000D03*
%TD*%
%TO.C,SW32*%
X135306250Y-139425000D03*
X150056250Y-140475000D03*
%TD*%
%TO.C,SW54*%
X311518750Y-158475000D03*
X326268750Y-159525000D03*
%TD*%
%TO.C,SW63*%
X311518750Y-177525000D03*
X326268750Y-178575000D03*
%TD*%
%TO.C,SW40*%
X287706250Y-139425000D03*
X302456250Y-140475000D03*
%TD*%
%TO.C,SW49*%
X216268750Y-158475000D03*
X231018750Y-159525000D03*
%TD*%
%TO.C,SW55*%
X330568750Y-158475000D03*
X345318750Y-159525000D03*
%TD*%
%TO.C,SW16*%
X92443750Y-120375000D03*
X107193750Y-121425000D03*
%TD*%
D12*
%TO.C,SW14*%
X321543750Y-101325000D03*
D10*
X335793750Y-102375000D03*
%TD*%
%TO.C,SW64*%
X330568750Y-177525000D03*
X345318750Y-178575000D03*
%TD*%
%TO.C,SW11*%
X254368750Y-101325000D03*
X269118750Y-102375000D03*
%TD*%
%TO.C,SW15*%
X68631250Y-120375000D03*
X83381250Y-121425000D03*
%TD*%
%TO.C,SW10*%
X235318750Y-101325000D03*
X250068750Y-102375000D03*
%TD*%
%TO.C,SW59*%
X185312500Y-177525000D03*
X200062500Y-178575000D03*
%TD*%
%TO.C,SW27*%
X301993750Y-120375000D03*
X316743750Y-121425000D03*
%TD*%
%TO.C,SW46*%
X159118750Y-158475000D03*
X173868750Y-159525000D03*
%TD*%
%TO.C,SW5*%
X140068750Y-101325000D03*
X154818750Y-102375000D03*
%TD*%
%TO.C,SW34*%
X173406250Y-139425000D03*
X188156250Y-140475000D03*
%TD*%
%TO.C,SW31*%
X116256250Y-139425000D03*
X131006250Y-140475000D03*
%TD*%
%TO.C,SW4*%
X121018750Y-101325000D03*
X135768750Y-102375000D03*
%TD*%
%TO.C,SW37*%
X230556250Y-139425000D03*
X245306250Y-140475000D03*
%TD*%
%TO.C,SW9*%
X216268750Y-101325000D03*
X231018750Y-102375000D03*
%TD*%
%TO.C,SW24*%
X244843750Y-120375000D03*
X259593750Y-121425000D03*
%TD*%
%TO.C,SW26*%
X282943750Y-120375000D03*
X297693750Y-121425000D03*
%TD*%
%TO.C,SW17*%
X111493750Y-120375000D03*
X126243750Y-121425000D03*
%TD*%
%TO.C,SW36*%
X211506250Y-139425000D03*
X226256250Y-140475000D03*
%TD*%
%TO.C,SW28*%
X325806250Y-120375000D03*
X340556250Y-121425000D03*
%TD*%
%TO.C,SW56*%
X66250000Y-177525000D03*
X81000000Y-178575000D03*
%TD*%
%TO.C,SW50*%
X235318750Y-158475000D03*
X250068750Y-159525000D03*
%TD*%
%TO.C,SW21*%
X187693750Y-120375000D03*
X202443750Y-121425000D03*
%TD*%
%TO.C,SW2*%
X82918750Y-101325000D03*
X97668750Y-102375000D03*
%TD*%
%TO.C,SW30*%
X97206250Y-139425000D03*
X111956250Y-140475000D03*
%TD*%
%TO.C,SW7*%
X178168750Y-101325000D03*
X192918750Y-102375000D03*
%TD*%
%TO.C,SW22*%
X206743750Y-120375000D03*
X221493750Y-121425000D03*
%TD*%
%TO.C,SW39*%
X268656250Y-139425000D03*
X283406250Y-140475000D03*
%TD*%
%TO.C,SW61*%
X273418750Y-177525000D03*
X288168750Y-178575000D03*
%TD*%
%TO.C,SW58*%
X113875000Y-177525000D03*
X128625000Y-178575000D03*
%TD*%
%TO.C,SW23*%
X225793750Y-120375000D03*
X240543750Y-121425000D03*
%TD*%
%TO.C,SW19*%
X149593750Y-120375000D03*
X164343750Y-121425000D03*
%TD*%
D12*
%TO.C,SW42*%
X73893750Y-158475000D03*
D10*
X88143750Y-159525000D03*
%TD*%
%TO.C,SW38*%
X249606250Y-139425000D03*
X264356250Y-140475000D03*
%TD*%
%TO.C,SW43*%
X101968750Y-158475000D03*
X116718750Y-159525000D03*
%TD*%
%TO.C,SW57*%
X90062500Y-177525000D03*
X104812500Y-178575000D03*
%TD*%
%TO.C,SW44*%
X121018750Y-158475000D03*
X135768750Y-159525000D03*
%TD*%
%TO.C,SW20*%
X168643750Y-120375000D03*
X183393750Y-121425000D03*
%TD*%
%TO.C,SW12*%
X273418750Y-101325000D03*
X288168750Y-102375000D03*
%TD*%
%TO.C,SW35*%
X192456250Y-139425000D03*
X207206250Y-140475000D03*
%TD*%
%TO.C,SW45*%
X140068750Y-158475000D03*
X154818750Y-159525000D03*
%TD*%
%TO.C,SW18*%
X130543750Y-120375000D03*
X145293750Y-121425000D03*
%TD*%
%TO.C,SW62*%
X292468750Y-177525000D03*
X307218750Y-178575000D03*
%TD*%
%TO.C,SW33*%
X154356250Y-139425000D03*
X169106250Y-140475000D03*
%TD*%
%TO.C,SW29*%
X71012500Y-139425000D03*
X85762500Y-140475000D03*
%TD*%
%TO.C,SW13*%
X292468750Y-101325000D03*
X307218750Y-102375000D03*
%TD*%
%TO.C,SW47*%
X178168750Y-158475000D03*
X192918750Y-159525000D03*
%TD*%
%TO.C,SW60*%
X254368750Y-177525000D03*
X269118750Y-178575000D03*
%TD*%
D12*
%TO.C,SW41*%
X319162500Y-139425000D03*
D10*
X333412500Y-140475000D03*
%TD*%
%TO.C,SW25*%
X263893750Y-120375000D03*
X278643750Y-121425000D03*
%TD*%
%TO.C,SW48*%
X197218750Y-158475000D03*
X211968750Y-159525000D03*
%TD*%
D13*
%TO.C,D46*%
X174537500Y-152125000D03*
X174537500Y-155425000D03*
%TD*%
%TO.C,D17*%
X126768750Y-114025000D03*
X126768750Y-117325000D03*
%TD*%
%TO.C,D43*%
X117387500Y-152125000D03*
X117387500Y-155425000D03*
%TD*%
%TO.C,D49*%
X231687500Y-152125000D03*
X231687500Y-155425000D03*
%TD*%
%TO.C,D62*%
X307887500Y-171175000D03*
X307887500Y-174475000D03*
%TD*%
%TO.C,D22*%
X222162500Y-114025000D03*
X222162500Y-117325000D03*
%TD*%
%TO.C,D57*%
X105481250Y-171175000D03*
X105481250Y-174475000D03*
%TD*%
%TO.C,D11*%
X269787500Y-94975000D03*
X269787500Y-98275000D03*
%TD*%
%TO.C,D5*%
X155487500Y-94975000D03*
X155487500Y-98275000D03*
%TD*%
%TO.C,D38*%
X265025000Y-133075000D03*
X265025000Y-136375000D03*
%TD*%
%TO.C,D45*%
X155487500Y-152125000D03*
X155487500Y-155425000D03*
%TD*%
%TO.C,D16*%
X107862500Y-114025000D03*
X107862500Y-117325000D03*
%TD*%
%TO.C,D6*%
X174537500Y-94975000D03*
X174537500Y-98275000D03*
%TD*%
%TO.C,D36*%
X226925000Y-133075000D03*
X226925000Y-136375000D03*
%TD*%
%TO.C,D44*%
X136437500Y-152125000D03*
X136437500Y-155425000D03*
%TD*%
%TO.C,D61*%
X288837500Y-171175000D03*
X288837500Y-174475000D03*
%TD*%
%TO.C,D53*%
X307887500Y-152125000D03*
X307887500Y-155425000D03*
%TD*%
%TO.C,D42*%
X88812500Y-152125000D03*
X88812500Y-155425000D03*
%TD*%
%TO.C,D34*%
X188825000Y-133075000D03*
X188825000Y-136375000D03*
%TD*%
%TO.C,D30*%
X112625000Y-133075000D03*
X112625000Y-136375000D03*
%TD*%
%TO.C,D25*%
X279312500Y-114025000D03*
X279312500Y-117325000D03*
%TD*%
%TO.C,D37*%
X245975000Y-133075000D03*
X245975000Y-136375000D03*
%TD*%
%TO.C,D33*%
X169775000Y-133075000D03*
X169775000Y-136375000D03*
%TD*%
%TO.C,D9*%
X231687500Y-94975000D03*
X231687500Y-98275000D03*
%TD*%
%TO.C,D52*%
X288837500Y-152125000D03*
X288837500Y-155425000D03*
%TD*%
D14*
%TO.C,J1*%
X117514500Y-107388750D03*
X117514500Y-109388750D03*
D15*
X123264500Y-105038750D03*
X123264500Y-111738750D03*
%TD*%
D13*
%TO.C,D8*%
X212637500Y-94975000D03*
X212637500Y-98275000D03*
%TD*%
%TO.C,D55*%
X345987500Y-152125000D03*
X345987500Y-155425000D03*
%TD*%
%TO.C,D54*%
X326937500Y-152125000D03*
X326937500Y-155425000D03*
%TD*%
%TO.C,D7*%
X193587500Y-94975000D03*
X193587500Y-98275000D03*
%TD*%
%TO.C,D31*%
X131675000Y-133075000D03*
X131675000Y-136375000D03*
%TD*%
D16*
%TO.C,SW0*%
X66178500Y-117321750D03*
X66178500Y-114321750D03*
X66178500Y-112821750D03*
D17*
X65528500Y-118721750D03*
X65528500Y-111421750D03*
X63328500Y-118721750D03*
X63328500Y-111421750D03*
%TD*%
D18*
%TO.C,D1*%
X78556250Y-99006250D03*
X75256250Y-99006250D03*
%TD*%
D13*
%TO.C,D18*%
X145818750Y-114025000D03*
X145818750Y-117325000D03*
%TD*%
%TO.C,D20*%
X183918750Y-114025000D03*
X183918750Y-117325000D03*
%TD*%
%TO.C,D40*%
X303125000Y-133075000D03*
X303125000Y-136375000D03*
%TD*%
%TO.C,D29*%
X86431250Y-133075000D03*
X86431250Y-136375000D03*
%TD*%
%TO.C,D58*%
X129293750Y-171175000D03*
X129293750Y-174475000D03*
%TD*%
%TO.C,D48*%
X212637500Y-152125000D03*
X212637500Y-155425000D03*
%TD*%
%TO.C,D50*%
X250737500Y-152125000D03*
X250737500Y-155425000D03*
%TD*%
%TO.C,D10*%
X250737500Y-94975000D03*
X250737500Y-98275000D03*
%TD*%
%TO.C,D3*%
X117387500Y-94975000D03*
X117387500Y-98275000D03*
%TD*%
%TO.C,D4*%
X136437500Y-94975000D03*
X136437500Y-98275000D03*
%TD*%
%TO.C,D15*%
X84050000Y-114025000D03*
X84050000Y-117325000D03*
%TD*%
%TO.C,D39*%
X284075000Y-133075000D03*
X284075000Y-136375000D03*
%TD*%
%TO.C,D24*%
X260262500Y-114025000D03*
X260262500Y-117325000D03*
%TD*%
%TO.C,D12*%
X288837500Y-94975000D03*
X288837500Y-98275000D03*
%TD*%
%TO.C,D35*%
X207875000Y-133075000D03*
X207875000Y-136375000D03*
%TD*%
%TO.C,D64*%
X345987500Y-171175000D03*
X345987500Y-174475000D03*
%TD*%
%TO.C,D41*%
X334081250Y-133075000D03*
X334081250Y-136375000D03*
%TD*%
D19*
%TO.C,U1*%
X68238500Y-93606750D03*
X70778500Y-90306750D03*
X75858500Y-90306750D03*
X78398500Y-93606750D03*
X80938500Y-90306750D03*
X83478500Y-93606750D03*
X86018500Y-90306750D03*
X88558500Y-93606750D03*
X91098500Y-90306750D03*
X93638500Y-93606750D03*
X96178500Y-90306750D03*
X68238500Y-105548750D03*
X70778500Y-108848750D03*
X73318500Y-105548750D03*
X75858500Y-108848750D03*
X78398500Y-105548750D03*
X80938500Y-108848750D03*
X83478500Y-105548750D03*
X86018500Y-108848750D03*
X88558500Y-105548750D03*
X91098500Y-108848750D03*
X93638500Y-105548750D03*
X96178500Y-108848750D03*
X65698500Y-90306750D03*
X65698500Y-108848750D03*
%TD*%
D13*
%TO.C,D63*%
X326937500Y-171460750D03*
X326937500Y-174760750D03*
%TD*%
%TO.C,D21*%
X203112500Y-114025000D03*
X203112500Y-117325000D03*
%TD*%
%TO.C,D13*%
X307887500Y-94975000D03*
X307887500Y-98275000D03*
%TD*%
%TO.C,D56*%
X81668750Y-171175000D03*
X81668750Y-174475000D03*
%TD*%
%TO.C,D59*%
X200731250Y-171175000D03*
X200731250Y-174475000D03*
%TD*%
%TO.C,D14*%
X336462500Y-94975000D03*
X336462500Y-98275000D03*
%TD*%
D18*
%TO.C,D2*%
X97606250Y-99006250D03*
X94306250Y-99006250D03*
%TD*%
D13*
%TO.C,D26*%
X298362500Y-114025000D03*
X298362500Y-117325000D03*
%TD*%
%TO.C,D19*%
X164868750Y-114025000D03*
X164868750Y-117325000D03*
%TD*%
%TO.C,D23*%
X241212500Y-114025000D03*
X241212500Y-117325000D03*
%TD*%
%TO.C,D28*%
X341225000Y-114025000D03*
X341225000Y-117325000D03*
%TD*%
%TO.C,D51*%
X269787500Y-152125000D03*
X269787500Y-155425000D03*
%TD*%
%TO.C,D32*%
X150725000Y-133075000D03*
X150725000Y-136375000D03*
%TD*%
%TO.C,D27*%
X317412500Y-114025000D03*
X317412500Y-117325000D03*
%TD*%
%TO.C,D60*%
X269787500Y-171175000D03*
X269787500Y-174475000D03*
%TD*%
%TO.C,D47*%
X193587500Y-152125000D03*
X193587500Y-155425000D03*
%TD*%
M02*
