%TF.GenerationSoftware,KiCad,Pcbnew,10.0.0*%
%TF.CreationDate,2026-07-09T05:21:45+05:30*%
%TF.ProjectId,Open Deck,4f70656e-2044-4656-936b-2e6b69636164,V1*%
%TF.SameCoordinates,Original*%
%TF.FileFunction,Profile,NP*%
%FSLAX46Y46*%
G04 Gerber Fmt 4.6, Leading zero omitted, Abs format (unit mm)*
G04 Created by KiCad (PCBNEW 10.0.0) date 2026-07-09 05:21:45*
%MOMM*%
%LPD*%
G01*
G04 APERTURE LIST*
%TA.AperFunction,Profile*%
%ADD10C,0.050000*%
%TD*%
%TA.AperFunction,Profile*%
%ADD11C,0.120000*%
%TD*%
G04 APERTURE END LIST*
D10*
X62618750Y-84718750D02*
X62618750Y-182350000D01*
X62618750Y-84718750D02*
X348368750Y-84718750D01*
X348368750Y-84718750D02*
X348368750Y-182350000D01*
X348368750Y-182350000D02*
X62618750Y-182350000D01*
%TO.C,REF\u002A\u002A*%
D11*
X140337500Y-163025000D02*
X146837500Y-163025000D01*
X146837500Y-179025000D01*
X140337500Y-179025000D01*
X140337500Y-163025000D01*
X240337500Y-163025000D02*
X246837500Y-163025000D01*
X246837500Y-179025000D01*
X240337500Y-179025000D01*
X240337500Y-163025000D01*
X66418750Y-143975000D02*
X72918750Y-143975000D01*
X72918750Y-159975000D01*
X66418750Y-159975000D01*
X66418750Y-143975000D01*
X90418750Y-143975000D02*
X96918750Y-143975000D01*
X96918750Y-159975000D01*
X90418750Y-159975000D01*
X90418750Y-143975000D01*
X311687500Y-124925000D02*
X318187500Y-124925000D01*
X318187500Y-140925000D01*
X311687500Y-140925000D01*
X311687500Y-124925000D01*
X335687500Y-124925000D02*
X342187500Y-124925000D01*
X342187500Y-140925000D01*
X335687500Y-140925000D01*
X335687500Y-124925000D01*
X314068750Y-86825000D02*
X320568750Y-86825000D01*
X320568750Y-102825000D01*
X314068750Y-102825000D01*
X314068750Y-86825000D01*
X338068750Y-86825000D02*
X344568750Y-86825000D01*
X344568750Y-102825000D01*
X338068750Y-102825000D01*
X338068750Y-86825000D01*
%TD*%
M02*
