%TF.GenerationSoftware,KiCad,Pcbnew,10.0.0*%
%TF.CreationDate,2026-07-09T05:21:45+05:30*%
%TF.ProjectId,Open Deck,4f70656e-2044-4656-936b-2e6b69636164,V1*%
%TF.SameCoordinates,Original*%
%TF.FileFunction,Legend,Top*%
%TF.FilePolarity,Positive*%
%FSLAX46Y46*%
G04 Gerber Fmt 4.6, Leading zero omitted, Abs format (unit mm)*
G04 Created by KiCad (PCBNEW 10.0.0) date 2026-07-09 05:21:45*
%MOMM*%
%LPD*%
G01*
G04 APERTURE LIST*
%ADD10C,0.300000*%
%ADD11C,0.150000*%
G04 APERTURE END LIST*
D10*
G36*
X154328681Y-88480429D02*
G01*
X155428750Y-88647247D01*
X155336865Y-88798004D01*
X155220438Y-88925267D01*
X155081193Y-89032173D01*
X154910415Y-89126238D01*
X154715841Y-89202933D01*
X154495010Y-89263349D01*
X154256474Y-89304597D01*
X153963373Y-89331507D01*
X153604989Y-89341263D01*
X153170340Y-89329314D01*
X152818066Y-89296485D01*
X152534228Y-89246374D01*
X152340279Y-89192153D01*
X152156691Y-89119852D01*
X151982259Y-89027487D01*
X151816643Y-88912372D01*
X151690130Y-88791030D01*
X151595858Y-88650814D01*
X151536113Y-88488638D01*
X151515003Y-88300910D01*
X151539330Y-88098812D01*
X151608089Y-87925251D01*
X151716592Y-87776022D01*
X151862508Y-87647573D01*
X152045987Y-87537163D01*
X152266222Y-87444431D01*
X152520643Y-87370978D01*
X152814349Y-87316570D01*
X153154014Y-87282208D01*
X153547592Y-87270083D01*
X153932491Y-87281162D01*
X154253437Y-87312034D01*
X154520487Y-87359952D01*
X154742184Y-87423346D01*
X154938422Y-87506625D01*
X155112023Y-87611328D01*
X155263452Y-87740444D01*
X155391381Y-87897909D01*
X154282763Y-88021130D01*
X154217844Y-87934339D01*
X154161618Y-87884965D01*
X154046835Y-87822490D01*
X153910293Y-87776887D01*
X153754744Y-87748722D01*
X153577634Y-87739030D01*
X153377197Y-87749973D01*
X153208099Y-87781258D01*
X153063482Y-87832564D01*
X152939427Y-87906214D01*
X152853528Y-87993698D01*
X152794023Y-88119962D01*
X152771144Y-88297491D01*
X152787872Y-88471427D01*
X152831644Y-88598307D01*
X152894498Y-88688413D01*
X152971179Y-88750439D01*
X153079671Y-88803081D01*
X153206847Y-88840717D01*
X153356433Y-88864081D01*
X153533914Y-88872316D01*
X153759988Y-88860072D01*
X153932961Y-88826454D01*
X154065387Y-88773276D01*
X154168111Y-88702408D01*
X154256855Y-88606771D01*
X154328681Y-88480429D01*
G37*
G36*
X155613154Y-87848450D02*
G01*
X156805792Y-87848450D01*
X157398080Y-88806493D01*
X157947138Y-87848450D01*
X159059909Y-87848450D01*
X157905617Y-89409406D01*
X157755916Y-89586061D01*
X157621676Y-89701283D01*
X157501884Y-89771130D01*
X157350169Y-89825607D01*
X157158040Y-89867049D01*
X156916406Y-89894123D01*
X156614061Y-89903998D01*
X156339885Y-89897302D01*
X155863747Y-89871514D01*
X155774354Y-89478771D01*
X156032450Y-89510189D01*
X156319016Y-89521025D01*
X156499294Y-89508585D01*
X156632623Y-89474253D01*
X156736149Y-89414883D01*
X156835345Y-89307557D01*
X155613154Y-87848450D01*
G37*
G36*
X160503140Y-87985715D02*
G01*
X160671510Y-87914453D01*
X160870725Y-87861151D01*
X161091948Y-87828488D01*
X161342358Y-87817187D01*
X161601532Y-87829572D01*
X161831337Y-87865497D01*
X162037807Y-87924704D01*
X162225052Y-88009040D01*
X162370701Y-88109009D01*
X162479460Y-88230772D01*
X162549237Y-88378802D01*
X162574319Y-88558709D01*
X162555436Y-88716217D01*
X162501362Y-88855573D01*
X162414829Y-88979295D01*
X162290743Y-89093536D01*
X162143804Y-89183023D01*
X161973482Y-89251259D01*
X161779023Y-89301194D01*
X161571724Y-89331111D01*
X161347732Y-89341263D01*
X161154626Y-89334080D01*
X160975715Y-89313010D01*
X160808443Y-89278248D01*
X160630664Y-89214644D01*
X160421074Y-89102271D01*
X160421074Y-89310000D01*
X159364235Y-89310000D01*
X159364235Y-88574951D01*
X160494836Y-88574951D01*
X160513508Y-88697733D01*
X160562175Y-88784393D01*
X160633321Y-88844106D01*
X160735115Y-88890557D01*
X160850471Y-88917740D01*
X160984298Y-88927027D01*
X161107302Y-88918057D01*
X161215508Y-88891496D01*
X161313293Y-88845450D01*
X161380868Y-88786735D01*
X161428039Y-88698319D01*
X161446406Y-88569455D01*
X161429021Y-88456663D01*
X161383354Y-88375705D01*
X161315980Y-88318740D01*
X161220389Y-88273657D01*
X161116619Y-88247874D01*
X161000662Y-88239239D01*
X160859642Y-88248668D01*
X160739956Y-88276028D01*
X160636252Y-88322281D01*
X160562383Y-88381791D01*
X160513272Y-88463688D01*
X160494836Y-88574951D01*
X159364235Y-88574951D01*
X159364235Y-87301346D01*
X160503140Y-87301346D01*
X160503140Y-87985715D01*
G37*
G36*
X165013785Y-87829339D02*
G01*
X165337066Y-87862175D01*
X165586322Y-87911465D01*
X165809869Y-87984049D01*
X165992664Y-88074494D01*
X166138555Y-88184528D01*
X166238925Y-88307505D01*
X166304319Y-88460359D01*
X166328087Y-88649567D01*
X166328087Y-88716001D01*
X164099371Y-88716001D01*
X164130900Y-88800910D01*
X164179211Y-88864449D01*
X164241277Y-88911151D01*
X164358101Y-88963408D01*
X164494309Y-88994445D01*
X164656245Y-89005184D01*
X164813583Y-88995123D01*
X164963991Y-88964640D01*
X165050564Y-88931691D01*
X165158408Y-88872194D01*
X166270202Y-88919699D01*
X166077935Y-89062793D01*
X165873053Y-89169169D01*
X165654710Y-89244542D01*
X165408145Y-89294548D01*
X165074857Y-89328496D01*
X164631821Y-89341263D01*
X164247051Y-89330661D01*
X163949025Y-89302124D01*
X163721039Y-89259563D01*
X163515409Y-89195701D01*
X163332309Y-89110125D01*
X163170027Y-89000055D01*
X163050728Y-88877238D01*
X162977223Y-88738959D01*
X162951674Y-88581912D01*
X162975945Y-88442449D01*
X164102058Y-88442449D01*
X165180635Y-88442449D01*
X165143583Y-88342466D01*
X165085363Y-88270960D01*
X165010153Y-88221165D01*
X164910404Y-88184080D01*
X164790662Y-88161305D01*
X164645254Y-88153265D01*
X164481277Y-88164886D01*
X164344429Y-88198542D01*
X164227843Y-88255725D01*
X164150125Y-88329195D01*
X164102058Y-88442449D01*
X162975945Y-88442449D01*
X162980875Y-88414122D01*
X163064538Y-88268546D01*
X163200155Y-88141062D01*
X163389846Y-88028702D01*
X163571050Y-87955045D01*
X163778225Y-87896802D01*
X164015156Y-87853781D01*
X164286752Y-87826707D01*
X164598848Y-87817187D01*
X165013785Y-87829339D01*
G37*
G36*
X166833914Y-87848450D02*
G01*
X167890509Y-87848450D01*
X167890509Y-88073032D01*
X167991922Y-87983349D01*
X168091198Y-87919230D01*
X168188485Y-87875561D01*
X168301639Y-87843800D01*
X168433294Y-87824107D01*
X168587822Y-87817187D01*
X168749919Y-87824898D01*
X168931261Y-87849562D01*
X169136147Y-87894246D01*
X168785903Y-88297247D01*
X168592317Y-88263699D01*
X168470341Y-88254870D01*
X168336847Y-88264944D01*
X168228219Y-88294007D01*
X168138171Y-88343653D01*
X168054451Y-88433951D01*
X167992315Y-88583911D01*
X167967201Y-88818217D01*
X167967201Y-89310000D01*
X166833914Y-89310000D01*
X166833914Y-87848450D01*
G37*
G36*
X173472209Y-87310799D02*
G01*
X173761850Y-87336561D01*
X173990963Y-87375474D01*
X174203867Y-87432524D01*
X174388215Y-87503183D01*
X174546859Y-87588087D01*
X174678716Y-87684369D01*
X174784876Y-87791273D01*
X174865352Y-87910122D01*
X174939079Y-88097270D01*
X174964270Y-88298834D01*
X174944799Y-88513881D01*
X174893060Y-88676791D01*
X174817480Y-88797822D01*
X174705094Y-88911367D01*
X174569269Y-89010064D01*
X174409595Y-89095432D01*
X174226936Y-89168055D01*
X174040709Y-89220717D01*
X173849057Y-89255289D01*
X173448363Y-89297173D01*
X173109246Y-89310000D01*
X171262526Y-89310000D01*
X171262526Y-88848869D01*
X172515980Y-88848869D01*
X172811514Y-88848869D01*
X173071430Y-88842793D01*
X173246671Y-88827449D01*
X173359351Y-88806371D01*
X173456200Y-88772480D01*
X173540753Y-88723900D01*
X173613363Y-88657627D01*
X173659208Y-88584383D01*
X173692404Y-88473221D01*
X173705443Y-88311779D01*
X173688371Y-88145884D01*
X173643629Y-88024701D01*
X173579116Y-87938394D01*
X173499790Y-87878736D01*
X173390173Y-87831162D01*
X173245968Y-87795017D01*
X173058582Y-87771241D01*
X172816887Y-87762477D01*
X172515980Y-87762477D01*
X172515980Y-88848869D01*
X171262526Y-88848869D01*
X171262526Y-87301346D01*
X173109246Y-87301346D01*
X173472209Y-87310799D01*
G37*
G36*
X177448677Y-87829339D02*
G01*
X177771957Y-87862175D01*
X178021214Y-87911465D01*
X178244761Y-87984049D01*
X178427555Y-88074494D01*
X178573447Y-88184528D01*
X178673817Y-88307505D01*
X178739210Y-88460359D01*
X178762979Y-88649567D01*
X178762979Y-88716001D01*
X176534263Y-88716001D01*
X176565792Y-88800910D01*
X176614103Y-88864449D01*
X176676168Y-88911151D01*
X176792993Y-88963408D01*
X176929201Y-88994445D01*
X177091137Y-89005184D01*
X177248475Y-88995123D01*
X177398883Y-88964640D01*
X177485456Y-88931691D01*
X177593300Y-88872194D01*
X178705094Y-88919699D01*
X178512827Y-89062793D01*
X178307945Y-89169169D01*
X178089602Y-89244542D01*
X177843037Y-89294548D01*
X177509749Y-89328496D01*
X177066713Y-89341263D01*
X176681943Y-89330661D01*
X176383917Y-89302124D01*
X176155931Y-89259563D01*
X175950301Y-89195701D01*
X175767201Y-89110125D01*
X175604919Y-89000055D01*
X175485619Y-88877238D01*
X175412115Y-88738959D01*
X175386566Y-88581912D01*
X175410837Y-88442449D01*
X176536950Y-88442449D01*
X177615526Y-88442449D01*
X177578474Y-88342466D01*
X177520255Y-88270960D01*
X177445045Y-88221165D01*
X177345296Y-88184080D01*
X177225553Y-88161305D01*
X177080146Y-88153265D01*
X176916169Y-88164886D01*
X176779321Y-88198542D01*
X176662735Y-88255725D01*
X176585017Y-88329195D01*
X176536950Y-88442449D01*
X175410837Y-88442449D01*
X175415767Y-88414122D01*
X175499430Y-88268546D01*
X175635047Y-88141062D01*
X175824738Y-88028702D01*
X176005942Y-87955045D01*
X176213117Y-87896802D01*
X176450047Y-87853781D01*
X176721644Y-87826707D01*
X177033740Y-87817187D01*
X177448677Y-87829339D01*
G37*
G36*
X181424494Y-88731266D02*
G01*
X182496964Y-88794769D01*
X182422929Y-88904648D01*
X182325932Y-89001168D01*
X182206315Y-89085907D01*
X182061926Y-89159947D01*
X181892121Y-89222613D01*
X181693893Y-89274218D01*
X181481784Y-89309686D01*
X181221063Y-89332858D01*
X180902302Y-89341263D01*
X180459485Y-89329414D01*
X180130739Y-89298154D01*
X179931611Y-89262763D01*
X179755340Y-89216117D01*
X179599267Y-89158203D01*
X179400391Y-89052725D01*
X179250244Y-88930935D01*
X179183928Y-88841636D01*
X179140075Y-88728212D01*
X179123970Y-88585331D01*
X179142883Y-88436990D01*
X179195633Y-88313558D01*
X179277843Y-88210907D01*
X179409991Y-88107494D01*
X179585589Y-88014047D01*
X179787511Y-87936731D01*
X179986880Y-87884354D01*
X180208790Y-87848943D01*
X180484070Y-87825666D01*
X180823168Y-87817187D01*
X181188210Y-87826799D01*
X181483740Y-87853181D01*
X181721352Y-87893359D01*
X181911025Y-87945415D01*
X182081503Y-88015535D01*
X182225961Y-88100776D01*
X182345646Y-88202937D01*
X182440055Y-88324602D01*
X181377355Y-88396043D01*
X181305064Y-88307376D01*
X181199546Y-88248642D01*
X181056354Y-88213233D01*
X180855896Y-88200160D01*
X180683350Y-88211417D01*
X180538570Y-88243877D01*
X180414794Y-88298346D01*
X180326654Y-88368764D01*
X180268184Y-88465377D01*
X180246266Y-88596322D01*
X180267455Y-88712224D01*
X180324870Y-88800079D01*
X180413328Y-88866332D01*
X180534976Y-88917399D01*
X180675055Y-88947794D01*
X180839532Y-88958290D01*
X180979845Y-88951809D01*
X181099483Y-88933339D01*
X181202477Y-88903457D01*
X181288642Y-88862246D01*
X181362901Y-88805967D01*
X181424494Y-88731266D01*
G37*
G36*
X182942951Y-87301346D02*
G01*
X184095289Y-87301346D01*
X184095289Y-88324602D01*
X184914480Y-87848450D01*
X186306175Y-87848450D01*
X185255931Y-88362093D01*
X186360886Y-89310000D01*
X185088136Y-89310000D01*
X184503419Y-88730167D01*
X184095289Y-88929836D01*
X184095289Y-89310000D01*
X182942951Y-89310000D01*
X182942951Y-87301346D01*
G37*
G36*
X191185896Y-87311668D02*
G01*
X191426754Y-87340406D01*
X191625203Y-87385264D01*
X191788450Y-87445450D01*
X191926464Y-87522590D01*
X192022903Y-87606596D01*
X192081111Y-87699024D01*
X192101081Y-87802166D01*
X192075601Y-87916992D01*
X192001468Y-88017973D01*
X191877843Y-88108325D01*
X191769891Y-88159212D01*
X191634798Y-88202721D01*
X191468004Y-88238628D01*
X191728077Y-88282441D01*
X191928922Y-88341595D01*
X192081297Y-88415338D01*
X192193266Y-88505337D01*
X192262400Y-88610839D01*
X192286706Y-88735785D01*
X192269973Y-88838403D01*
X192221118Y-88931953D01*
X192140648Y-89018129D01*
X192031383Y-89095938D01*
X191899112Y-89161738D01*
X191741800Y-89216454D01*
X191562482Y-89253274D01*
X191268946Y-89282644D01*
X190713293Y-89310000D01*
X188568597Y-89310000D01*
X188568597Y-88872316D01*
X189833042Y-88872316D01*
X190456350Y-88872316D01*
X190666072Y-88864605D01*
X190808466Y-88844866D01*
X190901849Y-88816629D01*
X190972780Y-88775649D01*
X191015570Y-88726576D01*
X191030565Y-88666908D01*
X191015939Y-88611765D01*
X190973812Y-88565779D01*
X190903070Y-88526713D01*
X190810969Y-88500042D01*
X190667714Y-88481153D01*
X190453663Y-88473712D01*
X189833042Y-88473712D01*
X189833042Y-88872316D01*
X188568597Y-88872316D01*
X188568597Y-88082923D01*
X189833042Y-88082923D01*
X190363538Y-88082923D01*
X190553870Y-88076139D01*
X190680429Y-88058950D01*
X190761165Y-88034685D01*
X190821229Y-87999039D01*
X190858598Y-87953558D01*
X190872051Y-87895223D01*
X190858913Y-87841428D01*
X190821850Y-87798253D01*
X190761165Y-87763210D01*
X190680682Y-87739158D01*
X190556393Y-87722229D01*
X190371598Y-87715582D01*
X189833042Y-87715582D01*
X189833042Y-88082923D01*
X188568597Y-88082923D01*
X188568597Y-87301346D01*
X190893545Y-87301346D01*
X191185896Y-87311668D01*
G37*
G36*
X192519225Y-87848450D02*
G01*
X193711863Y-87848450D01*
X194304152Y-88806493D01*
X194853210Y-87848450D01*
X195965980Y-87848450D01*
X194811688Y-89409406D01*
X194661987Y-89586061D01*
X194527747Y-89701283D01*
X194407955Y-89771130D01*
X194256241Y-89825607D01*
X194064111Y-89867049D01*
X193822477Y-89894123D01*
X193520132Y-89903998D01*
X193245957Y-89897302D01*
X192769818Y-89871514D01*
X192680425Y-89478771D01*
X192938521Y-89510189D01*
X193225087Y-89521025D01*
X193405365Y-89508585D01*
X193538695Y-89474253D01*
X193642220Y-89414883D01*
X193741416Y-89307557D01*
X192519225Y-87848450D01*
G37*
G36*
X197986113Y-88636256D02*
G01*
X199179239Y-88598520D01*
X199217435Y-88695511D01*
X199270190Y-88768038D01*
X199334333Y-88821147D01*
X199437529Y-88873726D01*
X199559199Y-88911206D01*
X199703029Y-88934455D01*
X199874598Y-88942658D01*
X200045365Y-88935013D01*
X200176784Y-88914181D01*
X200277599Y-88881964D01*
X200358159Y-88837781D01*
X200403714Y-88791471D01*
X200418771Y-88741402D01*
X200404576Y-88693771D01*
X200361433Y-88649090D01*
X200284926Y-88605847D01*
X200183330Y-88573035D01*
X199988195Y-88534727D01*
X199654291Y-88491175D01*
X199233065Y-88435194D01*
X198909732Y-88375038D01*
X198667005Y-88312284D01*
X198489741Y-88247909D01*
X198334387Y-88165691D01*
X198225749Y-88074871D01*
X198159971Y-87973600D01*
X198137299Y-87859075D01*
X198157057Y-87758117D01*
X198216384Y-87660897D01*
X198317550Y-87565739D01*
X198453540Y-87482362D01*
X198631625Y-87410132D01*
X198858792Y-87348852D01*
X199105243Y-87307966D01*
X199428821Y-87280366D01*
X199847487Y-87270083D01*
X200240991Y-87280835D01*
X200560057Y-87310390D01*
X200817178Y-87355509D01*
X201023028Y-87414187D01*
X201199082Y-87493509D01*
X201338569Y-87594149D01*
X201442229Y-87720016D01*
X201506629Y-87876660D01*
X200324494Y-87911221D01*
X200278095Y-87823021D01*
X200212629Y-87758937D01*
X200130565Y-87713628D01*
X200026341Y-87681324D01*
X199893542Y-87660599D01*
X199724389Y-87653056D01*
X199528967Y-87665459D01*
X199404431Y-87697508D01*
X199323740Y-87747344D01*
X199297697Y-87805341D01*
X199318285Y-87847686D01*
X199385136Y-87888018D01*
X199503995Y-87920509D01*
X199797173Y-87960558D01*
X200342423Y-88026259D01*
X200717520Y-88085083D01*
X200962212Y-88137023D01*
X201184482Y-88204413D01*
X201352939Y-88278333D01*
X201475854Y-88358918D01*
X201564802Y-88450205D01*
X201618495Y-88548525D01*
X201636810Y-88655673D01*
X201612918Y-88780959D01*
X201541959Y-88898657D01*
X201422365Y-89010924D01*
X201262189Y-89109704D01*
X201064231Y-89191568D01*
X200823482Y-89257365D01*
X200561886Y-89301864D01*
X200242895Y-89330803D01*
X199855547Y-89341263D01*
X199419787Y-89330919D01*
X199074385Y-89302828D01*
X198803746Y-89260687D01*
X198594274Y-89207083D01*
X198434787Y-89143304D01*
X198260197Y-89038663D01*
X198127715Y-88920796D01*
X198035921Y-88787607D01*
X197986113Y-88636256D01*
G37*
G36*
X204104907Y-87825136D02*
G01*
X204433879Y-87845397D01*
X204630171Y-87871760D01*
X204798282Y-87911089D01*
X204942393Y-87963122D01*
X205067260Y-88035452D01*
X205168562Y-88138855D01*
X205231277Y-88251985D01*
X205251116Y-88355743D01*
X205251116Y-88997002D01*
X205258459Y-89093570D01*
X205276762Y-89156859D01*
X205314959Y-89218257D01*
X205395219Y-89310000D01*
X204334228Y-89310000D01*
X204249476Y-89220240D01*
X204213328Y-89133046D01*
X203996662Y-89222566D01*
X203787124Y-89280324D01*
X203585919Y-89313291D01*
X203357726Y-89334003D01*
X203098360Y-89341263D01*
X202834869Y-89332439D01*
X202620293Y-89308031D01*
X202445947Y-89270269D01*
X202304815Y-89220118D01*
X202184385Y-89154880D01*
X202100697Y-89084254D01*
X202050417Y-89006954D01*
X202033217Y-88921043D01*
X202042437Y-88878056D01*
X203163572Y-88878056D01*
X203186150Y-88935542D01*
X203252721Y-88980882D01*
X203356713Y-89009811D01*
X203516503Y-89020816D01*
X203694277Y-89009805D01*
X203858199Y-88976974D01*
X203996607Y-88926701D01*
X204082170Y-88870118D01*
X204130069Y-88801297D01*
X204148115Y-88705743D01*
X204148115Y-88623799D01*
X203679658Y-88693408D01*
X203377208Y-88742957D01*
X203253942Y-88779870D01*
X203185391Y-88826943D01*
X203163572Y-88878056D01*
X202042437Y-88878056D01*
X202056221Y-88813787D01*
X202121843Y-88723586D01*
X202229099Y-88646758D01*
X202375246Y-88587674D01*
X202605526Y-88533656D01*
X202949371Y-88487390D01*
X203760258Y-88399462D01*
X204148115Y-88334249D01*
X204124318Y-88244090D01*
X204065561Y-88193810D01*
X203962964Y-88165104D01*
X203773447Y-88153265D01*
X203522361Y-88165613D01*
X203367759Y-88196374D01*
X203278532Y-88241138D01*
X203196789Y-88325457D01*
X202118946Y-88270013D01*
X202198950Y-88136038D01*
X202295533Y-88045676D01*
X202430656Y-87972474D01*
X202624773Y-87906214D01*
X202795367Y-87870372D01*
X203047557Y-87840390D01*
X203322068Y-87823193D01*
X203628611Y-87817187D01*
X204104907Y-87825136D01*
G37*
G36*
X208972400Y-89310000D02*
G01*
X207915561Y-89310000D01*
X207915561Y-89102271D01*
X207703868Y-89215653D01*
X207528192Y-89278248D01*
X207362612Y-89312928D01*
X207183767Y-89334037D01*
X206988904Y-89341263D01*
X206753694Y-89331536D01*
X206549744Y-89303719D01*
X206371472Y-89258813D01*
X206214735Y-89196384D01*
X206077145Y-89114605D01*
X205942389Y-88998204D01*
X205844401Y-88869138D01*
X205783655Y-88725313D01*
X205765583Y-88587285D01*
X206890230Y-88587285D01*
X206908015Y-88703685D01*
X206954665Y-88787015D01*
X207023342Y-88845450D01*
X207121128Y-88891496D01*
X207229334Y-88918057D01*
X207352337Y-88927027D01*
X207484526Y-88917849D01*
X207599462Y-88890897D01*
X207701849Y-88844717D01*
X207773656Y-88785364D01*
X207822873Y-88698605D01*
X207841800Y-88574951D01*
X207823197Y-88463754D01*
X207773609Y-88381853D01*
X207698918Y-88322281D01*
X207594596Y-88275851D01*
X207476171Y-88248576D01*
X207338660Y-88239239D01*
X207219224Y-88247975D01*
X207114155Y-88273853D01*
X207019190Y-88318740D01*
X206953726Y-88375920D01*
X206908022Y-88461962D01*
X206890230Y-88587285D01*
X205765583Y-88587285D01*
X205762561Y-88564204D01*
X205787641Y-88381968D01*
X205857300Y-88232449D01*
X205965638Y-88109883D01*
X206110362Y-88009651D01*
X206296951Y-87925118D01*
X206503383Y-87865722D01*
X206733848Y-87829641D01*
X206994521Y-87817187D01*
X207247277Y-87828517D01*
X207468841Y-87861151D01*
X207667744Y-87914505D01*
X207833740Y-87985593D01*
X207833740Y-87301346D01*
X208972400Y-87301346D01*
X208972400Y-89310000D01*
G37*
G36*
X209644801Y-87848450D02*
G01*
X210701395Y-87848450D01*
X210701395Y-88073032D01*
X210802808Y-87983349D01*
X210902084Y-87919230D01*
X210999371Y-87875561D01*
X211112525Y-87843800D01*
X211244181Y-87824107D01*
X211398709Y-87817187D01*
X211560805Y-87824898D01*
X211742147Y-87849562D01*
X211947034Y-87894246D01*
X211596789Y-88297247D01*
X211403203Y-88263699D01*
X211281228Y-88254870D01*
X211147734Y-88264944D01*
X211039105Y-88294007D01*
X210949057Y-88343653D01*
X210865337Y-88433951D01*
X210803202Y-88583911D01*
X210778087Y-88818217D01*
X210778087Y-89310000D01*
X209644801Y-89310000D01*
X209644801Y-87848450D01*
G37*
G36*
X212160258Y-87301346D02*
G01*
X213287927Y-87301346D01*
X213287927Y-87684319D01*
X212160258Y-87684319D01*
X212160258Y-87301346D01*
G37*
G36*
X212160258Y-87848450D02*
G01*
X213287927Y-87848450D01*
X213287927Y-89310000D01*
X212160258Y-89310000D01*
X212160258Y-87848450D01*
G37*
G36*
X215340544Y-87298904D02*
G01*
X215340544Y-87848450D01*
X215952616Y-87848450D01*
X215952616Y-88262686D01*
X215340544Y-88262686D01*
X215340544Y-88776329D01*
X215351536Y-88860474D01*
X215374982Y-88897962D01*
X215444133Y-88930718D01*
X215559385Y-88942658D01*
X215692806Y-88934972D01*
X215910607Y-88905655D01*
X215994382Y-89295589D01*
X215580280Y-89330375D01*
X215215247Y-89341263D01*
X214936173Y-89333874D01*
X214737106Y-89314716D01*
X214599267Y-89287407D01*
X214478815Y-89245560D01*
X214381373Y-89191610D01*
X214305198Y-89123886D01*
X214257798Y-89048345D01*
X214223591Y-88934515D01*
X214210188Y-88770101D01*
X214210188Y-88262686D01*
X213800348Y-88262686D01*
X213800348Y-87848450D01*
X214210188Y-87848450D01*
X214210188Y-87585889D01*
X215340544Y-87298904D01*
G37*
G36*
X218403860Y-87825136D02*
G01*
X218732833Y-87845397D01*
X218929124Y-87871760D01*
X219097236Y-87911089D01*
X219241346Y-87963122D01*
X219366213Y-88035452D01*
X219467515Y-88138855D01*
X219530231Y-88251985D01*
X219550069Y-88355743D01*
X219550069Y-88997002D01*
X219557413Y-89093570D01*
X219575715Y-89156859D01*
X219613912Y-89218257D01*
X219694173Y-89310000D01*
X218633182Y-89310000D01*
X218548429Y-89220240D01*
X218512281Y-89133046D01*
X218295615Y-89222566D01*
X218086078Y-89280324D01*
X217884872Y-89313291D01*
X217656679Y-89334003D01*
X217397313Y-89341263D01*
X217133822Y-89332439D01*
X216919247Y-89308031D01*
X216744900Y-89270269D01*
X216603768Y-89220118D01*
X216483339Y-89154880D01*
X216399651Y-89084254D01*
X216349370Y-89006954D01*
X216332170Y-88921043D01*
X216341390Y-88878056D01*
X217462526Y-88878056D01*
X217485103Y-88935542D01*
X217551674Y-88980882D01*
X217655667Y-89009811D01*
X217815457Y-89020816D01*
X217993230Y-89009805D01*
X218157152Y-88976974D01*
X218295560Y-88926701D01*
X218381123Y-88870118D01*
X218429022Y-88801297D01*
X218447069Y-88705743D01*
X218447069Y-88623799D01*
X217978611Y-88693408D01*
X217676161Y-88742957D01*
X217552896Y-88779870D01*
X217484344Y-88826943D01*
X217462526Y-88878056D01*
X216341390Y-88878056D01*
X216355175Y-88813787D01*
X216420796Y-88723586D01*
X216528053Y-88646758D01*
X216674199Y-88587674D01*
X216904479Y-88533656D01*
X217248325Y-88487390D01*
X218059211Y-88399462D01*
X218447069Y-88334249D01*
X218423271Y-88244090D01*
X218364515Y-88193810D01*
X218261917Y-88165104D01*
X218072400Y-88153265D01*
X217821314Y-88165613D01*
X217666713Y-88196374D01*
X217577485Y-88241138D01*
X217495743Y-88325457D01*
X216417899Y-88270013D01*
X216497903Y-88136038D01*
X216594487Y-88045676D01*
X216729609Y-87972474D01*
X216923726Y-87906214D01*
X217094320Y-87870372D01*
X217346510Y-87840390D01*
X217621021Y-87823193D01*
X217927564Y-87817187D01*
X218403860Y-87825136D01*
G37*
G36*
X140793946Y-106614737D02*
G01*
X142110150Y-106684233D01*
X143243753Y-106793983D01*
X144221284Y-106941679D01*
X145063250Y-107127501D01*
X145773359Y-107350591D01*
X146334177Y-107606881D01*
X146748381Y-107901256D01*
X147009279Y-108240158D01*
X147101151Y-108631304D01*
X147037871Y-108987551D01*
X146859602Y-109293937D01*
X146580651Y-109557031D01*
X146210886Y-109782665D01*
X145714975Y-109995517D01*
X145124843Y-110181810D01*
X144435530Y-110343724D01*
X143638093Y-110482421D01*
X142788834Y-110587469D01*
X141819769Y-110665705D01*
X140712924Y-110715136D01*
X139447801Y-110732526D01*
X137762209Y-110705747D01*
X136371942Y-110631466D01*
X135228201Y-110516615D01*
X134440603Y-110394604D01*
X133729644Y-110241747D01*
X133089033Y-110055789D01*
X132516189Y-109833224D01*
X132079134Y-109596446D01*
X131754461Y-109326233D01*
X131549595Y-109017416D01*
X131479141Y-108671849D01*
X136178000Y-108671849D01*
X136243633Y-108981467D01*
X136419802Y-109219232D01*
X136681845Y-109399311D01*
X137015143Y-109533538D01*
X137466918Y-109646779D01*
X137987321Y-109727420D01*
X138589980Y-109777193D01*
X139294844Y-109794633D01*
X140023108Y-109777195D01*
X140634133Y-109727880D01*
X141150596Y-109648828D01*
X141588285Y-109538911D01*
X141903335Y-109408239D01*
X142158240Y-109222503D01*
X142333985Y-108965419D01*
X142400697Y-108617627D01*
X142335834Y-108331022D01*
X142160095Y-108106988D01*
X141895322Y-107933566D01*
X141553480Y-107800879D01*
X141098339Y-107689581D01*
X140573529Y-107610092D01*
X139965250Y-107560932D01*
X139253628Y-107543691D01*
X138576399Y-107560886D01*
X137989515Y-107610285D01*
X137474968Y-107690939D01*
X137020638Y-107805031D01*
X136685585Y-107939207D01*
X136421820Y-108119913D01*
X136244240Y-108359281D01*
X136178000Y-108671849D01*
X131479141Y-108671849D01*
X131477547Y-108664033D01*
X131570314Y-108267293D01*
X131833807Y-107923319D01*
X132252173Y-107624352D01*
X132818586Y-107363899D01*
X133535598Y-107137027D01*
X134389300Y-106946449D01*
X135367908Y-106795916D01*
X136489717Y-106684764D01*
X137778751Y-106614790D01*
X139263703Y-106590167D01*
X140793946Y-106614737D01*
G37*
G36*
X158547690Y-106676263D02*
G01*
X159577497Y-106741211D01*
X160404798Y-106841394D01*
X161066041Y-106974361D01*
X161601504Y-107144920D01*
X161993624Y-107349235D01*
X162241604Y-107594151D01*
X162329998Y-107888806D01*
X162235453Y-108189939D01*
X161968260Y-108443674D01*
X161541734Y-108658760D01*
X160953384Y-108841598D01*
X160235500Y-108982684D01*
X159327206Y-109089731D01*
X158185653Y-109159552D01*
X156757597Y-109185003D01*
X154245254Y-109185003D01*
X154245254Y-110670000D01*
X149524651Y-110670000D01*
X149524651Y-108356531D01*
X154245254Y-108356531D01*
X155353506Y-108356531D01*
X156235718Y-108339562D01*
X156831074Y-108296271D01*
X157218300Y-108234654D01*
X157516103Y-108145391D01*
X157691851Y-108042996D01*
X157752276Y-107923000D01*
X157699571Y-107804715D01*
X157546137Y-107701476D01*
X157288825Y-107609637D01*
X156942824Y-107544864D01*
X156388092Y-107499239D01*
X155537604Y-107481165D01*
X154245254Y-107481165D01*
X154245254Y-108356531D01*
X149524651Y-108356531D01*
X149524651Y-106652693D01*
X157269591Y-106652693D01*
X158547690Y-106676263D01*
G37*
G36*
X164687552Y-106652693D02*
G01*
X177186069Y-106652693D01*
X177186069Y-107528060D01*
X169398080Y-107528060D01*
X169398080Y-108153321D01*
X176621868Y-108153321D01*
X176621868Y-108981793D01*
X169398080Y-108981793D01*
X169398080Y-109747739D01*
X177411383Y-109747739D01*
X177411383Y-110670000D01*
X164687552Y-110670000D01*
X164687552Y-106652693D01*
G37*
G36*
X179881594Y-106652693D02*
G01*
X184260563Y-106652693D01*
X189872348Y-108848436D01*
X189872348Y-106652693D01*
X194306271Y-106652693D01*
X194306271Y-110670000D01*
X189886086Y-110670000D01*
X184305443Y-108486713D01*
X184305443Y-110670000D01*
X179881594Y-110670000D01*
X179881594Y-106652693D01*
G37*
G36*
X212671265Y-106671598D02*
G01*
X213757418Y-106723123D01*
X214616591Y-106800949D01*
X215414983Y-106915048D01*
X216106289Y-107056366D01*
X216701203Y-107226175D01*
X217195665Y-107418738D01*
X217593766Y-107632546D01*
X217895551Y-107870244D01*
X218172028Y-108244540D01*
X218266495Y-108647669D01*
X218193478Y-109077762D01*
X217999455Y-109403583D01*
X217716032Y-109645645D01*
X217294585Y-109872735D01*
X216785239Y-110070128D01*
X216186461Y-110240865D01*
X215501492Y-110386111D01*
X214803139Y-110491434D01*
X214084446Y-110560579D01*
X212581841Y-110644347D01*
X211310153Y-110670000D01*
X204384952Y-110670000D01*
X204384952Y-109747739D01*
X209085406Y-109747739D01*
X210193658Y-109747739D01*
X211168344Y-109735587D01*
X211825497Y-109704898D01*
X212248046Y-109662742D01*
X212611230Y-109594960D01*
X212928303Y-109497800D01*
X213200593Y-109365254D01*
X213372512Y-109218767D01*
X213496995Y-108996443D01*
X213545891Y-108673558D01*
X213481873Y-108341768D01*
X213314089Y-108099403D01*
X213072166Y-107926789D01*
X212774694Y-107807473D01*
X212363629Y-107712324D01*
X211822861Y-107640034D01*
X211120164Y-107592483D01*
X210213808Y-107574954D01*
X209085406Y-107574954D01*
X209085406Y-109747739D01*
X204384952Y-109747739D01*
X204384952Y-106652693D01*
X211310153Y-106652693D01*
X212671265Y-106671598D01*
G37*
G36*
X220638703Y-106652693D02*
G01*
X233137220Y-106652693D01*
X233137220Y-107528060D01*
X225349232Y-107528060D01*
X225349232Y-108153321D01*
X232573019Y-108153321D01*
X232573019Y-108981793D01*
X225349232Y-108981793D01*
X225349232Y-109747739D01*
X233362534Y-109747739D01*
X233362534Y-110670000D01*
X220638703Y-110670000D01*
X220638703Y-106652693D01*
G37*
G36*
X245809760Y-109010858D02*
G01*
X249935022Y-109344494D01*
X249590451Y-109646008D01*
X249153849Y-109900535D01*
X248631681Y-110114347D01*
X247991263Y-110302476D01*
X247261612Y-110455866D01*
X246433496Y-110576699D01*
X245538987Y-110659194D01*
X244439858Y-110713014D01*
X243095917Y-110732526D01*
X241465984Y-110708629D01*
X240144955Y-110642971D01*
X239080565Y-110542749D01*
X238353255Y-110434306D01*
X237664798Y-110289704D01*
X237010681Y-110104975D01*
X236389619Y-109874745D01*
X235915198Y-109632061D01*
X235561676Y-109351629D01*
X235337631Y-109027277D01*
X235258469Y-108651821D01*
X235349695Y-108247624D01*
X235607541Y-107900503D01*
X236014427Y-107602044D01*
X236561612Y-107345147D01*
X237249659Y-107124326D01*
X238075540Y-106938862D01*
X239029619Y-106791957D01*
X240131018Y-106683140D01*
X241404759Y-106614417D01*
X242880678Y-106590167D01*
X244324050Y-106612325D01*
X245527596Y-106674069D01*
X246529035Y-106769904D01*
X247360397Y-106896692D01*
X248096291Y-107063251D01*
X248747295Y-107272656D01*
X249315153Y-107530889D01*
X249794888Y-107845819D01*
X245637569Y-108092260D01*
X245394125Y-107918678D01*
X245183278Y-107819930D01*
X244752840Y-107694981D01*
X244240806Y-107603775D01*
X243657499Y-107547444D01*
X242993335Y-107528060D01*
X242241696Y-107549946D01*
X241607578Y-107612516D01*
X241065265Y-107715129D01*
X240600061Y-107862428D01*
X240277937Y-108037397D01*
X240054793Y-108289924D01*
X239968998Y-108644982D01*
X240031729Y-108992854D01*
X240195873Y-109246614D01*
X240431575Y-109426827D01*
X240719129Y-109550879D01*
X241125974Y-109656162D01*
X241602884Y-109731435D01*
X242163832Y-109778162D01*
X242829387Y-109794633D01*
X243677162Y-109770144D01*
X244325812Y-109702909D01*
X244822409Y-109596552D01*
X245207626Y-109454817D01*
X245540416Y-109263543D01*
X245809760Y-109010858D01*
G37*
G36*
X252147862Y-106652693D02*
G01*
X256847400Y-106652693D01*
X256847400Y-108151612D01*
X261672418Y-106652693D01*
X267923508Y-106652693D01*
X262418885Y-108166266D01*
X268152486Y-110670000D01*
X262364846Y-110670000D01*
X259208618Y-109047250D01*
X256847400Y-109707683D01*
X256847400Y-110670000D01*
X252147862Y-110670000D01*
X252147862Y-106652693D01*
G37*
G36*
X165131167Y-163427613D02*
G01*
X166033339Y-163478415D01*
X166959324Y-163548269D01*
X166959324Y-165684417D01*
X166552660Y-165664877D01*
X166177137Y-165647292D01*
X165740247Y-165638011D01*
X165429754Y-165638011D01*
X165081707Y-165659993D01*
X164802355Y-165734242D01*
X164715525Y-165795539D01*
X164685118Y-165880300D01*
X164738876Y-165962524D01*
X164962639Y-166094745D01*
X165649572Y-166405422D01*
X166551744Y-166820146D01*
X167022017Y-167070512D01*
X167456664Y-167359434D01*
X167831580Y-167678951D01*
X168151840Y-168045757D01*
X168363003Y-168443478D01*
X168436688Y-168901095D01*
X168361680Y-169385037D01*
X168141765Y-169830195D01*
X167765152Y-170235836D01*
X167224938Y-170585394D01*
X166533543Y-170867281D01*
X165634918Y-171091953D01*
X164615101Y-171228107D01*
X163343309Y-171277578D01*
X161864113Y-171238011D01*
X160659691Y-171141779D01*
X159526709Y-171002072D01*
X159526709Y-169826775D01*
X161343876Y-169826775D01*
X161343876Y-170077857D01*
X161943797Y-170129148D01*
X162557458Y-170167250D01*
X163211418Y-170183370D01*
X163785036Y-170165299D01*
X164338904Y-170111563D01*
X164861278Y-170015580D01*
X165318928Y-169874647D01*
X165706971Y-169686596D01*
X166009525Y-169450642D01*
X166199145Y-169172664D01*
X166267812Y-168817076D01*
X166193215Y-168506328D01*
X165967393Y-168209888D01*
X165629824Y-167931499D01*
X165198028Y-167656434D01*
X164196022Y-167144501D01*
X163190352Y-166647711D01*
X162751643Y-166390299D01*
X162411828Y-166142616D01*
X162180447Y-165881087D01*
X162105914Y-165617006D01*
X162164882Y-165356574D01*
X162330061Y-165150818D01*
X162598674Y-164986859D01*
X162953080Y-164872429D01*
X163460839Y-164794736D01*
X164173124Y-164765087D01*
X164520254Y-164765087D01*
X164870132Y-164776322D01*
X165173299Y-164787557D01*
X165173299Y-164527194D01*
X164883871Y-164527194D01*
X164560554Y-164501793D01*
X164197854Y-164493489D01*
X163467566Y-164526258D01*
X162862123Y-164618231D01*
X162357789Y-164764110D01*
X161966014Y-164971583D01*
X161724368Y-165245757D01*
X161636967Y-165608702D01*
X161711655Y-165907459D01*
X161937386Y-166189511D01*
X162273007Y-166454124D01*
X162705835Y-166723426D01*
X163708757Y-167231451D01*
X164714427Y-167730195D01*
X165150372Y-167991351D01*
X165492035Y-168254340D01*
X165723465Y-168533980D01*
X165798866Y-168820983D01*
X165716567Y-169166430D01*
X165486076Y-169436716D01*
X165109185Y-169649944D01*
X164622540Y-169800720D01*
X164003725Y-169897873D01*
X163217829Y-169933265D01*
X162520529Y-169918814D01*
X161916320Y-169878066D01*
X161343876Y-169826775D01*
X159526709Y-169826775D01*
X159526709Y-168742826D01*
X160517725Y-168872274D01*
X161460197Y-168961667D01*
X162527233Y-168995373D01*
X163078981Y-168946817D01*
X163358612Y-168826250D01*
X163454134Y-168628520D01*
X163390326Y-168495553D01*
X163166538Y-168340802D01*
X162431062Y-168006189D01*
X161470272Y-167595373D01*
X160977531Y-167355311D01*
X160506734Y-167076601D01*
X160097571Y-166766629D01*
X159762098Y-166415680D01*
X159544808Y-166030092D01*
X159468091Y-165572554D01*
X159561362Y-165062280D01*
X159826212Y-164633196D01*
X160256094Y-164257753D01*
X160818143Y-163953712D01*
X161498101Y-163716683D01*
X162303750Y-163540453D01*
X163176342Y-163435273D01*
X164124581Y-163399281D01*
X165131167Y-163427613D01*
G37*
G36*
X178532772Y-169370530D02*
G01*
X171896999Y-169370530D01*
X172343415Y-168745268D01*
X174313171Y-168745268D01*
X176116599Y-168745268D01*
X175214427Y-167495233D01*
X174313171Y-168745268D01*
X172343415Y-168745268D01*
X175214427Y-164724054D01*
X178532772Y-169370530D01*
G37*
G36*
X182249537Y-171121263D02*
G01*
X177777145Y-171121263D01*
X177314610Y-170433475D01*
X173115160Y-170433475D01*
X172652625Y-171121263D01*
X168179317Y-171121263D01*
X168843448Y-170183370D01*
X170805233Y-170183370D01*
X171330966Y-170183370D01*
X171729387Y-169620635D01*
X178700383Y-169620635D01*
X179098804Y-170183370D01*
X179624537Y-170183370D01*
X175593614Y-164524752D01*
X174836156Y-164524752D01*
X170805233Y-170183370D01*
X168843448Y-170183370D01*
X173514497Y-163586859D01*
X176915273Y-163586859D01*
X182249537Y-171121263D01*
G37*
G36*
X187772386Y-164821326D02*
G01*
X188891001Y-164950842D01*
X189818437Y-165152587D01*
X190586156Y-165421612D01*
X191219546Y-165771701D01*
X191679866Y-166197880D01*
X191970559Y-166716024D01*
X192074511Y-167348688D01*
X191970752Y-167980991D01*
X191680302Y-168500132D01*
X191219943Y-168928299D01*
X190586156Y-169281137D01*
X189817782Y-169552581D01*
X188890100Y-169755967D01*
X187771710Y-169886460D01*
X186424258Y-169933265D01*
X185157554Y-169933265D01*
X185157554Y-168932847D01*
X187033339Y-168932847D01*
X188027064Y-168884230D01*
X188803212Y-168750773D01*
X189409211Y-168542547D01*
X189765285Y-168333049D01*
X190028226Y-168072354D01*
X190196570Y-167749281D01*
X190257344Y-167348688D01*
X190196374Y-166947691D01*
X190027778Y-166625634D01*
X189764874Y-166366958D01*
X189409211Y-166160202D01*
X188804001Y-165955037D01*
X188027870Y-165823307D01*
X187033339Y-165775275D01*
X187033339Y-168932847D01*
X185157554Y-168932847D01*
X185157554Y-164774856D01*
X186424258Y-164774856D01*
X187772386Y-164821326D01*
G37*
G36*
X187753670Y-163615160D02*
G01*
X188925125Y-163696015D01*
X189967916Y-163824263D01*
X190972246Y-164014222D01*
X191839009Y-164251999D01*
X192584673Y-164535987D01*
X193237449Y-164876683D01*
X193778098Y-165268501D01*
X194211331Y-165717145D01*
X194514755Y-166196830D01*
X194704614Y-166737335D01*
X194770952Y-167348199D01*
X194704590Y-167959726D01*
X194514708Y-168500539D01*
X194211331Y-168980230D01*
X193778181Y-169428584D01*
X193237544Y-169820417D01*
X192584673Y-170161388D01*
X191839315Y-170445898D01*
X190972504Y-170685630D01*
X189967916Y-170878974D01*
X188925325Y-171009880D01*
X187753939Y-171092386D01*
X186437997Y-171121263D01*
X182519731Y-171121263D01*
X182519731Y-170183370D01*
X184688607Y-170183370D01*
X186442576Y-170183370D01*
X187986900Y-170128923D01*
X189235583Y-169978834D01*
X190241816Y-169747619D01*
X191048691Y-169441849D01*
X191712569Y-169044735D01*
X192193535Y-168574204D01*
X192495137Y-168015513D01*
X192602076Y-167348199D01*
X192494980Y-166681053D01*
X192193182Y-166123650D01*
X191712252Y-165655240D01*
X191048691Y-165260900D01*
X190242503Y-164957549D01*
X189236552Y-164727971D01*
X187987644Y-164578861D01*
X186442576Y-164524752D01*
X184688607Y-164524752D01*
X184688607Y-170183370D01*
X182519731Y-170183370D01*
X182519731Y-163586859D01*
X186437997Y-163586859D01*
X187753670Y-163615160D01*
G37*
G36*
X201202693Y-164807296D02*
G01*
X202011898Y-164897857D01*
X202686328Y-165039041D01*
X203247705Y-165227194D01*
X203721010Y-165473984D01*
X204057988Y-165764392D01*
X204266774Y-166107104D01*
X204340387Y-166515331D01*
X204266601Y-166923866D01*
X204057600Y-167265698D01*
X203720661Y-167554322D01*
X203247705Y-167798583D01*
X202687032Y-167984111D01*
X202012860Y-168123502D01*
X201203412Y-168212989D01*
X200232527Y-168245059D01*
X198478558Y-168245059D01*
X198478558Y-167275903D01*
X200354344Y-167275903D01*
X200558592Y-167275903D01*
X201314348Y-167226830D01*
X201911392Y-167089302D01*
X202210884Y-166942263D01*
X202396654Y-166739916D01*
X202464602Y-166463063D01*
X202396631Y-166186230D01*
X202210853Y-165984065D01*
X201911392Y-165837313D01*
X201314283Y-165699416D01*
X200558592Y-165650223D01*
X200354344Y-165650223D01*
X200354344Y-167275903D01*
X198478558Y-167275903D01*
X198478558Y-164774856D01*
X200232527Y-164774856D01*
X201202693Y-164807296D01*
G37*
G36*
X202011003Y-163636310D02*
G01*
X203191835Y-163779323D01*
X204275641Y-164019935D01*
X205184856Y-164344989D01*
X205705002Y-164612301D01*
X206143504Y-164918411D01*
X206503768Y-165267250D01*
X206761909Y-165640854D01*
X206922377Y-166058648D01*
X206978210Y-166528032D01*
X206898287Y-167068868D01*
X206680539Y-167490348D01*
X206355791Y-167864439D01*
X206022915Y-168146873D01*
X205570083Y-168419827D01*
X205087770Y-168636824D01*
X207734752Y-171121263D01*
X202435293Y-171121263D01*
X200354344Y-169259644D01*
X200354344Y-171121263D01*
X195840736Y-171121263D01*
X195840736Y-170183370D01*
X198009612Y-170183370D01*
X198478558Y-170183370D01*
X198478558Y-168482463D01*
X200235275Y-168482463D01*
X201048132Y-168459601D01*
X201849110Y-168391116D01*
X203846711Y-170183370D01*
X204421903Y-170183370D01*
X202344617Y-168310516D01*
X203072370Y-168134854D01*
X203668135Y-167915437D01*
X204149877Y-167652037D01*
X204506337Y-167341177D01*
X204729759Y-166965625D01*
X204809333Y-166508981D01*
X204717324Y-166040059D01*
X204456707Y-165651200D01*
X204038866Y-165312560D01*
X203491338Y-165032777D01*
X202834735Y-164815034D01*
X202047862Y-164653224D01*
X201193371Y-164557841D01*
X200238939Y-164524752D01*
X198009612Y-164524752D01*
X198009612Y-170183370D01*
X195840736Y-170183370D01*
X195840736Y-163586859D01*
X200696894Y-163586859D01*
X202011003Y-163636310D01*
G37*
G36*
X212884002Y-171121263D02*
G01*
X208077302Y-171121263D01*
X208077302Y-170183370D01*
X210246179Y-170183370D01*
X210715125Y-170183370D01*
X210715125Y-164524752D01*
X210246179Y-164524752D01*
X210246179Y-170183370D01*
X208077302Y-170183370D01*
X208077302Y-163586859D01*
X212884002Y-163586859D01*
X212884002Y-171121263D01*
G37*
G36*
X223376674Y-165587697D02*
G01*
X220797470Y-165587697D01*
X220797470Y-171121263D01*
X216108007Y-171121263D01*
X216108007Y-165587697D01*
X213528803Y-165587697D01*
X213528803Y-164774856D01*
X215228733Y-164774856D01*
X218218265Y-164774856D01*
X218218265Y-170183370D01*
X218687212Y-170183370D01*
X218687212Y-164774856D01*
X221676744Y-164774856D01*
X221676744Y-164524752D01*
X215228733Y-164524752D01*
X215228733Y-164774856D01*
X213528803Y-164774856D01*
X213528803Y-163586859D01*
X223376674Y-163586859D01*
X223376674Y-165587697D01*
G37*
G36*
X232446938Y-169370530D02*
G01*
X225811165Y-169370530D01*
X226257581Y-168745268D01*
X228227337Y-168745268D01*
X230030765Y-168745268D01*
X229128593Y-167495233D01*
X228227337Y-168745268D01*
X226257581Y-168745268D01*
X229128593Y-164724054D01*
X232446938Y-169370530D01*
G37*
G36*
X236163703Y-171121263D02*
G01*
X231691311Y-171121263D01*
X231228777Y-170433475D01*
X227029326Y-170433475D01*
X226566791Y-171121263D01*
X222093483Y-171121263D01*
X222757614Y-170183370D01*
X224719399Y-170183370D01*
X225245132Y-170183370D01*
X225643553Y-169620635D01*
X232614549Y-169620635D01*
X233012971Y-170183370D01*
X233538703Y-170183370D01*
X229507780Y-164524752D01*
X228750322Y-164524752D01*
X224719399Y-170183370D01*
X222757614Y-170183370D01*
X227428663Y-163586859D01*
X230829439Y-163586859D01*
X236163703Y-171121263D01*
G37*
%TO.C,SW8*%
D11*
X197993750Y-90125000D02*
X197993750Y-89125000D01*
X197993750Y-104125000D02*
X197993750Y-103125000D01*
X197993750Y-104125000D02*
X198993750Y-104125000D01*
X198993750Y-89125000D02*
X197993750Y-89125000D01*
X211993750Y-104125000D02*
X212993750Y-104125000D01*
X212993750Y-89125000D02*
X211993750Y-89125000D01*
X212993750Y-89125000D02*
X212993750Y-90125000D01*
X212993750Y-103125000D02*
X212993750Y-104125000D01*
%TO.C,SW53*%
X293243750Y-147275000D02*
X293243750Y-146275000D01*
X293243750Y-161275000D02*
X293243750Y-160275000D01*
X293243750Y-161275000D02*
X294243750Y-161275000D01*
X294243750Y-146275000D02*
X293243750Y-146275000D01*
X307243750Y-161275000D02*
X308243750Y-161275000D01*
X308243750Y-146275000D02*
X307243750Y-146275000D01*
X308243750Y-146275000D02*
X308243750Y-147275000D01*
X308243750Y-160275000D02*
X308243750Y-161275000D01*
%TO.C,SW1*%
X64643750Y-90125000D02*
X64643750Y-89125000D01*
X64643750Y-104125000D02*
X64643750Y-103125000D01*
X64643750Y-104125000D02*
X65643750Y-104125000D01*
X65643750Y-89125000D02*
X64643750Y-89125000D01*
X78643750Y-104125000D02*
X79643750Y-104125000D01*
X79643750Y-89125000D02*
X78643750Y-89125000D01*
X79643750Y-89125000D02*
X79643750Y-90125000D01*
X79643750Y-103125000D02*
X79643750Y-104125000D01*
%TO.C,SW6*%
X159893750Y-90125000D02*
X159893750Y-89125000D01*
X159893750Y-104125000D02*
X159893750Y-103125000D01*
X159893750Y-104125000D02*
X160893750Y-104125000D01*
X160893750Y-89125000D02*
X159893750Y-89125000D01*
X173893750Y-104125000D02*
X174893750Y-104125000D01*
X174893750Y-89125000D02*
X173893750Y-89125000D01*
X174893750Y-89125000D02*
X174893750Y-90125000D01*
X174893750Y-103125000D02*
X174893750Y-104125000D01*
%TO.C,SW52*%
X274193750Y-147275000D02*
X274193750Y-146275000D01*
X274193750Y-161275000D02*
X274193750Y-160275000D01*
X274193750Y-161275000D02*
X275193750Y-161275000D01*
X275193750Y-146275000D02*
X274193750Y-146275000D01*
X288193750Y-161275000D02*
X289193750Y-161275000D01*
X289193750Y-146275000D02*
X288193750Y-146275000D01*
X289193750Y-146275000D02*
X289193750Y-147275000D01*
X289193750Y-160275000D02*
X289193750Y-161275000D01*
%TO.C,SW51*%
X255143750Y-147275000D02*
X255143750Y-146275000D01*
X255143750Y-161275000D02*
X255143750Y-160275000D01*
X255143750Y-161275000D02*
X256143750Y-161275000D01*
X256143750Y-146275000D02*
X255143750Y-146275000D01*
X269143750Y-161275000D02*
X270143750Y-161275000D01*
X270143750Y-146275000D02*
X269143750Y-146275000D01*
X270143750Y-146275000D02*
X270143750Y-147275000D01*
X270143750Y-160275000D02*
X270143750Y-161275000D01*
%TO.C,SW3*%
X102743750Y-90125000D02*
X102743750Y-89125000D01*
X102743750Y-104125000D02*
X102743750Y-103125000D01*
X102743750Y-104125000D02*
X103743750Y-104125000D01*
X103743750Y-89125000D02*
X102743750Y-89125000D01*
X116743750Y-104125000D02*
X117743750Y-104125000D01*
X117743750Y-89125000D02*
X116743750Y-89125000D01*
X117743750Y-89125000D02*
X117743750Y-90125000D01*
X117743750Y-103125000D02*
X117743750Y-104125000D01*
%TO.C,SW32*%
X136081250Y-128225000D02*
X136081250Y-127225000D01*
X136081250Y-142225000D02*
X136081250Y-141225000D01*
X136081250Y-142225000D02*
X137081250Y-142225000D01*
X137081250Y-127225000D02*
X136081250Y-127225000D01*
X150081250Y-142225000D02*
X151081250Y-142225000D01*
X151081250Y-127225000D02*
X150081250Y-127225000D01*
X151081250Y-127225000D02*
X151081250Y-128225000D01*
X151081250Y-141225000D02*
X151081250Y-142225000D01*
%TO.C,SW54*%
X312293750Y-147275000D02*
X312293750Y-146275000D01*
X312293750Y-161275000D02*
X312293750Y-160275000D01*
X312293750Y-161275000D02*
X313293750Y-161275000D01*
X313293750Y-146275000D02*
X312293750Y-146275000D01*
X326293750Y-161275000D02*
X327293750Y-161275000D01*
X327293750Y-146275000D02*
X326293750Y-146275000D01*
X327293750Y-146275000D02*
X327293750Y-147275000D01*
X327293750Y-160275000D02*
X327293750Y-161275000D01*
%TO.C,SW63*%
X312293750Y-166325000D02*
X312293750Y-165325000D01*
X312293750Y-180325000D02*
X312293750Y-179325000D01*
X312293750Y-180325000D02*
X313293750Y-180325000D01*
X313293750Y-165325000D02*
X312293750Y-165325000D01*
X326293750Y-180325000D02*
X327293750Y-180325000D01*
X327293750Y-165325000D02*
X326293750Y-165325000D01*
X327293750Y-165325000D02*
X327293750Y-166325000D01*
X327293750Y-179325000D02*
X327293750Y-180325000D01*
%TO.C,SW40*%
X288481250Y-128225000D02*
X288481250Y-127225000D01*
X288481250Y-142225000D02*
X288481250Y-141225000D01*
X288481250Y-142225000D02*
X289481250Y-142225000D01*
X289481250Y-127225000D02*
X288481250Y-127225000D01*
X302481250Y-142225000D02*
X303481250Y-142225000D01*
X303481250Y-127225000D02*
X302481250Y-127225000D01*
X303481250Y-127225000D02*
X303481250Y-128225000D01*
X303481250Y-141225000D02*
X303481250Y-142225000D01*
%TO.C,SW49*%
X217043750Y-147275000D02*
X217043750Y-146275000D01*
X217043750Y-161275000D02*
X217043750Y-160275000D01*
X217043750Y-161275000D02*
X218043750Y-161275000D01*
X218043750Y-146275000D02*
X217043750Y-146275000D01*
X231043750Y-161275000D02*
X232043750Y-161275000D01*
X232043750Y-146275000D02*
X231043750Y-146275000D01*
X232043750Y-146275000D02*
X232043750Y-147275000D01*
X232043750Y-160275000D02*
X232043750Y-161275000D01*
%TO.C,SW55*%
X331343750Y-147275000D02*
X331343750Y-146275000D01*
X331343750Y-161275000D02*
X331343750Y-160275000D01*
X331343750Y-161275000D02*
X332343750Y-161275000D01*
X332343750Y-146275000D02*
X331343750Y-146275000D01*
X345343750Y-161275000D02*
X346343750Y-161275000D01*
X346343750Y-146275000D02*
X345343750Y-146275000D01*
X346343750Y-146275000D02*
X346343750Y-147275000D01*
X346343750Y-160275000D02*
X346343750Y-161275000D01*
%TO.C,SW16*%
X93218750Y-109175000D02*
X93218750Y-108175000D01*
X93218750Y-123175000D02*
X93218750Y-122175000D01*
X93218750Y-123175000D02*
X94218750Y-123175000D01*
X94218750Y-108175000D02*
X93218750Y-108175000D01*
X107218750Y-123175000D02*
X108218750Y-123175000D01*
X108218750Y-108175000D02*
X107218750Y-108175000D01*
X108218750Y-108175000D02*
X108218750Y-109175000D01*
X108218750Y-122175000D02*
X108218750Y-123175000D01*
%TO.C,SW14*%
X321818750Y-90125000D02*
X321818750Y-89125000D01*
X321818750Y-104125000D02*
X321818750Y-103125000D01*
X321818750Y-104125000D02*
X322818750Y-104125000D01*
X322818750Y-89125000D02*
X321818750Y-89125000D01*
X335818750Y-104125000D02*
X336818750Y-104125000D01*
X336818750Y-89125000D02*
X335818750Y-89125000D01*
X336818750Y-89125000D02*
X336818750Y-90125000D01*
X336818750Y-103125000D02*
X336818750Y-104125000D01*
%TO.C,SW64*%
X331343750Y-166325000D02*
X331343750Y-165325000D01*
X331343750Y-180325000D02*
X331343750Y-179325000D01*
X331343750Y-180325000D02*
X332343750Y-180325000D01*
X332343750Y-165325000D02*
X331343750Y-165325000D01*
X345343750Y-180325000D02*
X346343750Y-180325000D01*
X346343750Y-165325000D02*
X345343750Y-165325000D01*
X346343750Y-165325000D02*
X346343750Y-166325000D01*
X346343750Y-179325000D02*
X346343750Y-180325000D01*
%TO.C,SW11*%
X255143750Y-90125000D02*
X255143750Y-89125000D01*
X255143750Y-104125000D02*
X255143750Y-103125000D01*
X255143750Y-104125000D02*
X256143750Y-104125000D01*
X256143750Y-89125000D02*
X255143750Y-89125000D01*
X269143750Y-104125000D02*
X270143750Y-104125000D01*
X270143750Y-89125000D02*
X269143750Y-89125000D01*
X270143750Y-89125000D02*
X270143750Y-90125000D01*
X270143750Y-103125000D02*
X270143750Y-104125000D01*
%TO.C,SW15*%
X69406250Y-109175000D02*
X69406250Y-108175000D01*
X69406250Y-123175000D02*
X69406250Y-122175000D01*
X69406250Y-123175000D02*
X70406250Y-123175000D01*
X70406250Y-108175000D02*
X69406250Y-108175000D01*
X83406250Y-123175000D02*
X84406250Y-123175000D01*
X84406250Y-108175000D02*
X83406250Y-108175000D01*
X84406250Y-108175000D02*
X84406250Y-109175000D01*
X84406250Y-122175000D02*
X84406250Y-123175000D01*
%TO.C,SW10*%
X236093750Y-90125000D02*
X236093750Y-89125000D01*
X236093750Y-104125000D02*
X236093750Y-103125000D01*
X236093750Y-104125000D02*
X237093750Y-104125000D01*
X237093750Y-89125000D02*
X236093750Y-89125000D01*
X250093750Y-104125000D02*
X251093750Y-104125000D01*
X251093750Y-89125000D02*
X250093750Y-89125000D01*
X251093750Y-89125000D02*
X251093750Y-90125000D01*
X251093750Y-103125000D02*
X251093750Y-104125000D01*
%TO.C,SW59*%
X186087500Y-166325000D02*
X186087500Y-165325000D01*
X186087500Y-180325000D02*
X186087500Y-179325000D01*
X186087500Y-180325000D02*
X187087500Y-180325000D01*
X187087500Y-165325000D02*
X186087500Y-165325000D01*
X200087500Y-180325000D02*
X201087500Y-180325000D01*
X201087500Y-165325000D02*
X200087500Y-165325000D01*
X201087500Y-165325000D02*
X201087500Y-166325000D01*
X201087500Y-179325000D02*
X201087500Y-180325000D01*
%TO.C,SW27*%
X302768750Y-109175000D02*
X302768750Y-108175000D01*
X302768750Y-123175000D02*
X302768750Y-122175000D01*
X302768750Y-123175000D02*
X303768750Y-123175000D01*
X303768750Y-108175000D02*
X302768750Y-108175000D01*
X316768750Y-123175000D02*
X317768750Y-123175000D01*
X317768750Y-108175000D02*
X316768750Y-108175000D01*
X317768750Y-108175000D02*
X317768750Y-109175000D01*
X317768750Y-122175000D02*
X317768750Y-123175000D01*
%TO.C,SW46*%
X159893750Y-147275000D02*
X159893750Y-146275000D01*
X159893750Y-161275000D02*
X159893750Y-160275000D01*
X159893750Y-161275000D02*
X160893750Y-161275000D01*
X160893750Y-146275000D02*
X159893750Y-146275000D01*
X173893750Y-161275000D02*
X174893750Y-161275000D01*
X174893750Y-146275000D02*
X173893750Y-146275000D01*
X174893750Y-146275000D02*
X174893750Y-147275000D01*
X174893750Y-160275000D02*
X174893750Y-161275000D01*
%TO.C,SW5*%
X140843750Y-90125000D02*
X140843750Y-89125000D01*
X140843750Y-104125000D02*
X140843750Y-103125000D01*
X140843750Y-104125000D02*
X141843750Y-104125000D01*
X141843750Y-89125000D02*
X140843750Y-89125000D01*
X154843750Y-104125000D02*
X155843750Y-104125000D01*
X155843750Y-89125000D02*
X154843750Y-89125000D01*
X155843750Y-89125000D02*
X155843750Y-90125000D01*
X155843750Y-103125000D02*
X155843750Y-104125000D01*
%TO.C,SW34*%
X174181250Y-128225000D02*
X174181250Y-127225000D01*
X174181250Y-142225000D02*
X174181250Y-141225000D01*
X174181250Y-142225000D02*
X175181250Y-142225000D01*
X175181250Y-127225000D02*
X174181250Y-127225000D01*
X188181250Y-142225000D02*
X189181250Y-142225000D01*
X189181250Y-127225000D02*
X188181250Y-127225000D01*
X189181250Y-127225000D02*
X189181250Y-128225000D01*
X189181250Y-141225000D02*
X189181250Y-142225000D01*
%TO.C,SW31*%
X117031250Y-128225000D02*
X117031250Y-127225000D01*
X117031250Y-142225000D02*
X117031250Y-141225000D01*
X117031250Y-142225000D02*
X118031250Y-142225000D01*
X118031250Y-127225000D02*
X117031250Y-127225000D01*
X131031250Y-142225000D02*
X132031250Y-142225000D01*
X132031250Y-127225000D02*
X131031250Y-127225000D01*
X132031250Y-127225000D02*
X132031250Y-128225000D01*
X132031250Y-141225000D02*
X132031250Y-142225000D01*
%TO.C,SW4*%
X121793750Y-90125000D02*
X121793750Y-89125000D01*
X121793750Y-104125000D02*
X121793750Y-103125000D01*
X121793750Y-104125000D02*
X122793750Y-104125000D01*
X122793750Y-89125000D02*
X121793750Y-89125000D01*
X135793750Y-104125000D02*
X136793750Y-104125000D01*
X136793750Y-89125000D02*
X135793750Y-89125000D01*
X136793750Y-89125000D02*
X136793750Y-90125000D01*
X136793750Y-103125000D02*
X136793750Y-104125000D01*
%TO.C,SW37*%
X231331250Y-128225000D02*
X231331250Y-127225000D01*
X231331250Y-142225000D02*
X231331250Y-141225000D01*
X231331250Y-142225000D02*
X232331250Y-142225000D01*
X232331250Y-127225000D02*
X231331250Y-127225000D01*
X245331250Y-142225000D02*
X246331250Y-142225000D01*
X246331250Y-127225000D02*
X245331250Y-127225000D01*
X246331250Y-127225000D02*
X246331250Y-128225000D01*
X246331250Y-141225000D02*
X246331250Y-142225000D01*
%TO.C,SW9*%
X217043750Y-90125000D02*
X217043750Y-89125000D01*
X217043750Y-104125000D02*
X217043750Y-103125000D01*
X217043750Y-104125000D02*
X218043750Y-104125000D01*
X218043750Y-89125000D02*
X217043750Y-89125000D01*
X231043750Y-104125000D02*
X232043750Y-104125000D01*
X232043750Y-89125000D02*
X231043750Y-89125000D01*
X232043750Y-89125000D02*
X232043750Y-90125000D01*
X232043750Y-103125000D02*
X232043750Y-104125000D01*
%TO.C,SW24*%
X245618750Y-109175000D02*
X245618750Y-108175000D01*
X245618750Y-123175000D02*
X245618750Y-122175000D01*
X245618750Y-123175000D02*
X246618750Y-123175000D01*
X246618750Y-108175000D02*
X245618750Y-108175000D01*
X259618750Y-123175000D02*
X260618750Y-123175000D01*
X260618750Y-108175000D02*
X259618750Y-108175000D01*
X260618750Y-108175000D02*
X260618750Y-109175000D01*
X260618750Y-122175000D02*
X260618750Y-123175000D01*
%TO.C,SW26*%
X283718750Y-109175000D02*
X283718750Y-108175000D01*
X283718750Y-123175000D02*
X283718750Y-122175000D01*
X283718750Y-123175000D02*
X284718750Y-123175000D01*
X284718750Y-108175000D02*
X283718750Y-108175000D01*
X297718750Y-123175000D02*
X298718750Y-123175000D01*
X298718750Y-108175000D02*
X297718750Y-108175000D01*
X298718750Y-108175000D02*
X298718750Y-109175000D01*
X298718750Y-122175000D02*
X298718750Y-123175000D01*
%TO.C,SW17*%
X112268750Y-109175000D02*
X112268750Y-108175000D01*
X112268750Y-123175000D02*
X112268750Y-122175000D01*
X112268750Y-123175000D02*
X113268750Y-123175000D01*
X113268750Y-108175000D02*
X112268750Y-108175000D01*
X126268750Y-123175000D02*
X127268750Y-123175000D01*
X127268750Y-108175000D02*
X126268750Y-108175000D01*
X127268750Y-108175000D02*
X127268750Y-109175000D01*
X127268750Y-122175000D02*
X127268750Y-123175000D01*
%TO.C,SW36*%
X212281250Y-128225000D02*
X212281250Y-127225000D01*
X212281250Y-142225000D02*
X212281250Y-141225000D01*
X212281250Y-142225000D02*
X213281250Y-142225000D01*
X213281250Y-127225000D02*
X212281250Y-127225000D01*
X226281250Y-142225000D02*
X227281250Y-142225000D01*
X227281250Y-127225000D02*
X226281250Y-127225000D01*
X227281250Y-127225000D02*
X227281250Y-128225000D01*
X227281250Y-141225000D02*
X227281250Y-142225000D01*
%TO.C,SW28*%
X326581250Y-109175000D02*
X326581250Y-108175000D01*
X326581250Y-123175000D02*
X326581250Y-122175000D01*
X326581250Y-123175000D02*
X327581250Y-123175000D01*
X327581250Y-108175000D02*
X326581250Y-108175000D01*
X340581250Y-123175000D02*
X341581250Y-123175000D01*
X341581250Y-108175000D02*
X340581250Y-108175000D01*
X341581250Y-108175000D02*
X341581250Y-109175000D01*
X341581250Y-122175000D02*
X341581250Y-123175000D01*
%TO.C,SW56*%
X67025000Y-166325000D02*
X67025000Y-165325000D01*
X67025000Y-180325000D02*
X67025000Y-179325000D01*
X67025000Y-180325000D02*
X68025000Y-180325000D01*
X68025000Y-165325000D02*
X67025000Y-165325000D01*
X81025000Y-180325000D02*
X82025000Y-180325000D01*
X82025000Y-165325000D02*
X81025000Y-165325000D01*
X82025000Y-165325000D02*
X82025000Y-166325000D01*
X82025000Y-179325000D02*
X82025000Y-180325000D01*
%TO.C,SW50*%
X236093750Y-147275000D02*
X236093750Y-146275000D01*
X236093750Y-161275000D02*
X236093750Y-160275000D01*
X236093750Y-161275000D02*
X237093750Y-161275000D01*
X237093750Y-146275000D02*
X236093750Y-146275000D01*
X250093750Y-161275000D02*
X251093750Y-161275000D01*
X251093750Y-146275000D02*
X250093750Y-146275000D01*
X251093750Y-146275000D02*
X251093750Y-147275000D01*
X251093750Y-160275000D02*
X251093750Y-161275000D01*
%TO.C,SW21*%
X188468750Y-109175000D02*
X188468750Y-108175000D01*
X188468750Y-123175000D02*
X188468750Y-122175000D01*
X188468750Y-123175000D02*
X189468750Y-123175000D01*
X189468750Y-108175000D02*
X188468750Y-108175000D01*
X202468750Y-123175000D02*
X203468750Y-123175000D01*
X203468750Y-108175000D02*
X202468750Y-108175000D01*
X203468750Y-108175000D02*
X203468750Y-109175000D01*
X203468750Y-122175000D02*
X203468750Y-123175000D01*
%TO.C,SW2*%
X83693750Y-90125000D02*
X83693750Y-89125000D01*
X83693750Y-104125000D02*
X83693750Y-103125000D01*
X83693750Y-104125000D02*
X84693750Y-104125000D01*
X84693750Y-89125000D02*
X83693750Y-89125000D01*
X97693750Y-104125000D02*
X98693750Y-104125000D01*
X98693750Y-89125000D02*
X97693750Y-89125000D01*
X98693750Y-89125000D02*
X98693750Y-90125000D01*
X98693750Y-103125000D02*
X98693750Y-104125000D01*
%TO.C,SW30*%
X97981250Y-128225000D02*
X97981250Y-127225000D01*
X97981250Y-142225000D02*
X97981250Y-141225000D01*
X97981250Y-142225000D02*
X98981250Y-142225000D01*
X98981250Y-127225000D02*
X97981250Y-127225000D01*
X111981250Y-142225000D02*
X112981250Y-142225000D01*
X112981250Y-127225000D02*
X111981250Y-127225000D01*
X112981250Y-127225000D02*
X112981250Y-128225000D01*
X112981250Y-141225000D02*
X112981250Y-142225000D01*
%TO.C,SW7*%
X178943750Y-90125000D02*
X178943750Y-89125000D01*
X178943750Y-104125000D02*
X178943750Y-103125000D01*
X178943750Y-104125000D02*
X179943750Y-104125000D01*
X179943750Y-89125000D02*
X178943750Y-89125000D01*
X192943750Y-104125000D02*
X193943750Y-104125000D01*
X193943750Y-89125000D02*
X192943750Y-89125000D01*
X193943750Y-89125000D02*
X193943750Y-90125000D01*
X193943750Y-103125000D02*
X193943750Y-104125000D01*
%TO.C,SW22*%
X207518750Y-109175000D02*
X207518750Y-108175000D01*
X207518750Y-123175000D02*
X207518750Y-122175000D01*
X207518750Y-123175000D02*
X208518750Y-123175000D01*
X208518750Y-108175000D02*
X207518750Y-108175000D01*
X221518750Y-123175000D02*
X222518750Y-123175000D01*
X222518750Y-108175000D02*
X221518750Y-108175000D01*
X222518750Y-108175000D02*
X222518750Y-109175000D01*
X222518750Y-122175000D02*
X222518750Y-123175000D01*
%TO.C,SW39*%
X269431250Y-128225000D02*
X269431250Y-127225000D01*
X269431250Y-142225000D02*
X269431250Y-141225000D01*
X269431250Y-142225000D02*
X270431250Y-142225000D01*
X270431250Y-127225000D02*
X269431250Y-127225000D01*
X283431250Y-142225000D02*
X284431250Y-142225000D01*
X284431250Y-127225000D02*
X283431250Y-127225000D01*
X284431250Y-127225000D02*
X284431250Y-128225000D01*
X284431250Y-141225000D02*
X284431250Y-142225000D01*
%TO.C,SW61*%
X274193750Y-166325000D02*
X274193750Y-165325000D01*
X274193750Y-180325000D02*
X274193750Y-179325000D01*
X274193750Y-180325000D02*
X275193750Y-180325000D01*
X275193750Y-165325000D02*
X274193750Y-165325000D01*
X288193750Y-180325000D02*
X289193750Y-180325000D01*
X289193750Y-165325000D02*
X288193750Y-165325000D01*
X289193750Y-165325000D02*
X289193750Y-166325000D01*
X289193750Y-179325000D02*
X289193750Y-180325000D01*
%TO.C,SW58*%
X114650000Y-166325000D02*
X114650000Y-165325000D01*
X114650000Y-180325000D02*
X114650000Y-179325000D01*
X114650000Y-180325000D02*
X115650000Y-180325000D01*
X115650000Y-165325000D02*
X114650000Y-165325000D01*
X128650000Y-180325000D02*
X129650000Y-180325000D01*
X129650000Y-165325000D02*
X128650000Y-165325000D01*
X129650000Y-165325000D02*
X129650000Y-166325000D01*
X129650000Y-179325000D02*
X129650000Y-180325000D01*
%TO.C,SW23*%
X226568750Y-109175000D02*
X226568750Y-108175000D01*
X226568750Y-123175000D02*
X226568750Y-122175000D01*
X226568750Y-123175000D02*
X227568750Y-123175000D01*
X227568750Y-108175000D02*
X226568750Y-108175000D01*
X240568750Y-123175000D02*
X241568750Y-123175000D01*
X241568750Y-108175000D02*
X240568750Y-108175000D01*
X241568750Y-108175000D02*
X241568750Y-109175000D01*
X241568750Y-122175000D02*
X241568750Y-123175000D01*
%TO.C,SW19*%
X150368750Y-109175000D02*
X150368750Y-108175000D01*
X150368750Y-123175000D02*
X150368750Y-122175000D01*
X150368750Y-123175000D02*
X151368750Y-123175000D01*
X151368750Y-108175000D02*
X150368750Y-108175000D01*
X164368750Y-123175000D02*
X165368750Y-123175000D01*
X165368750Y-108175000D02*
X164368750Y-108175000D01*
X165368750Y-108175000D02*
X165368750Y-109175000D01*
X165368750Y-122175000D02*
X165368750Y-123175000D01*
%TO.C,SW42*%
X74168750Y-147275000D02*
X74168750Y-146275000D01*
X74168750Y-161275000D02*
X74168750Y-160275000D01*
X74168750Y-161275000D02*
X75168750Y-161275000D01*
X75168750Y-146275000D02*
X74168750Y-146275000D01*
X88168750Y-161275000D02*
X89168750Y-161275000D01*
X89168750Y-146275000D02*
X88168750Y-146275000D01*
X89168750Y-146275000D02*
X89168750Y-147275000D01*
X89168750Y-160275000D02*
X89168750Y-161275000D01*
%TO.C,SW38*%
X250381250Y-128225000D02*
X250381250Y-127225000D01*
X250381250Y-142225000D02*
X250381250Y-141225000D01*
X250381250Y-142225000D02*
X251381250Y-142225000D01*
X251381250Y-127225000D02*
X250381250Y-127225000D01*
X264381250Y-142225000D02*
X265381250Y-142225000D01*
X265381250Y-127225000D02*
X264381250Y-127225000D01*
X265381250Y-127225000D02*
X265381250Y-128225000D01*
X265381250Y-141225000D02*
X265381250Y-142225000D01*
%TO.C,SW43*%
X102743750Y-147275000D02*
X102743750Y-146275000D01*
X102743750Y-161275000D02*
X102743750Y-160275000D01*
X102743750Y-161275000D02*
X103743750Y-161275000D01*
X103743750Y-146275000D02*
X102743750Y-146275000D01*
X116743750Y-161275000D02*
X117743750Y-161275000D01*
X117743750Y-146275000D02*
X116743750Y-146275000D01*
X117743750Y-146275000D02*
X117743750Y-147275000D01*
X117743750Y-160275000D02*
X117743750Y-161275000D01*
%TO.C,SW57*%
X90837500Y-166325000D02*
X90837500Y-165325000D01*
X90837500Y-180325000D02*
X90837500Y-179325000D01*
X90837500Y-180325000D02*
X91837500Y-180325000D01*
X91837500Y-165325000D02*
X90837500Y-165325000D01*
X104837500Y-180325000D02*
X105837500Y-180325000D01*
X105837500Y-165325000D02*
X104837500Y-165325000D01*
X105837500Y-165325000D02*
X105837500Y-166325000D01*
X105837500Y-179325000D02*
X105837500Y-180325000D01*
%TO.C,SW44*%
X121793750Y-147275000D02*
X121793750Y-146275000D01*
X121793750Y-161275000D02*
X121793750Y-160275000D01*
X121793750Y-161275000D02*
X122793750Y-161275000D01*
X122793750Y-146275000D02*
X121793750Y-146275000D01*
X135793750Y-161275000D02*
X136793750Y-161275000D01*
X136793750Y-146275000D02*
X135793750Y-146275000D01*
X136793750Y-146275000D02*
X136793750Y-147275000D01*
X136793750Y-160275000D02*
X136793750Y-161275000D01*
%TO.C,SW20*%
X169418750Y-109175000D02*
X169418750Y-108175000D01*
X169418750Y-123175000D02*
X169418750Y-122175000D01*
X169418750Y-123175000D02*
X170418750Y-123175000D01*
X170418750Y-108175000D02*
X169418750Y-108175000D01*
X183418750Y-123175000D02*
X184418750Y-123175000D01*
X184418750Y-108175000D02*
X183418750Y-108175000D01*
X184418750Y-108175000D02*
X184418750Y-109175000D01*
X184418750Y-122175000D02*
X184418750Y-123175000D01*
%TO.C,SW12*%
X274193750Y-90125000D02*
X274193750Y-89125000D01*
X274193750Y-104125000D02*
X274193750Y-103125000D01*
X274193750Y-104125000D02*
X275193750Y-104125000D01*
X275193750Y-89125000D02*
X274193750Y-89125000D01*
X288193750Y-104125000D02*
X289193750Y-104125000D01*
X289193750Y-89125000D02*
X288193750Y-89125000D01*
X289193750Y-89125000D02*
X289193750Y-90125000D01*
X289193750Y-103125000D02*
X289193750Y-104125000D01*
%TO.C,SW35*%
X193231250Y-128225000D02*
X193231250Y-127225000D01*
X193231250Y-142225000D02*
X193231250Y-141225000D01*
X193231250Y-142225000D02*
X194231250Y-142225000D01*
X194231250Y-127225000D02*
X193231250Y-127225000D01*
X207231250Y-142225000D02*
X208231250Y-142225000D01*
X208231250Y-127225000D02*
X207231250Y-127225000D01*
X208231250Y-127225000D02*
X208231250Y-128225000D01*
X208231250Y-141225000D02*
X208231250Y-142225000D01*
%TO.C,SW45*%
X140843750Y-147275000D02*
X140843750Y-146275000D01*
X140843750Y-161275000D02*
X140843750Y-160275000D01*
X140843750Y-161275000D02*
X141843750Y-161275000D01*
X141843750Y-146275000D02*
X140843750Y-146275000D01*
X154843750Y-161275000D02*
X155843750Y-161275000D01*
X155843750Y-146275000D02*
X154843750Y-146275000D01*
X155843750Y-146275000D02*
X155843750Y-147275000D01*
X155843750Y-160275000D02*
X155843750Y-161275000D01*
%TO.C,SW18*%
X131318750Y-109175000D02*
X131318750Y-108175000D01*
X131318750Y-123175000D02*
X131318750Y-122175000D01*
X131318750Y-123175000D02*
X132318750Y-123175000D01*
X132318750Y-108175000D02*
X131318750Y-108175000D01*
X145318750Y-123175000D02*
X146318750Y-123175000D01*
X146318750Y-108175000D02*
X145318750Y-108175000D01*
X146318750Y-108175000D02*
X146318750Y-109175000D01*
X146318750Y-122175000D02*
X146318750Y-123175000D01*
%TO.C,SW62*%
X293243750Y-166325000D02*
X293243750Y-165325000D01*
X293243750Y-180325000D02*
X293243750Y-179325000D01*
X293243750Y-180325000D02*
X294243750Y-180325000D01*
X294243750Y-165325000D02*
X293243750Y-165325000D01*
X307243750Y-180325000D02*
X308243750Y-180325000D01*
X308243750Y-165325000D02*
X307243750Y-165325000D01*
X308243750Y-165325000D02*
X308243750Y-166325000D01*
X308243750Y-179325000D02*
X308243750Y-180325000D01*
%TO.C,SW33*%
X155131250Y-128225000D02*
X155131250Y-127225000D01*
X155131250Y-142225000D02*
X155131250Y-141225000D01*
X155131250Y-142225000D02*
X156131250Y-142225000D01*
X156131250Y-127225000D02*
X155131250Y-127225000D01*
X169131250Y-142225000D02*
X170131250Y-142225000D01*
X170131250Y-127225000D02*
X169131250Y-127225000D01*
X170131250Y-127225000D02*
X170131250Y-128225000D01*
X170131250Y-141225000D02*
X170131250Y-142225000D01*
%TO.C,SW29*%
X71787500Y-128225000D02*
X71787500Y-127225000D01*
X71787500Y-142225000D02*
X71787500Y-141225000D01*
X71787500Y-142225000D02*
X72787500Y-142225000D01*
X72787500Y-127225000D02*
X71787500Y-127225000D01*
X85787500Y-142225000D02*
X86787500Y-142225000D01*
X86787500Y-127225000D02*
X85787500Y-127225000D01*
X86787500Y-127225000D02*
X86787500Y-128225000D01*
X86787500Y-141225000D02*
X86787500Y-142225000D01*
%TO.C,SW13*%
X293243750Y-90125000D02*
X293243750Y-89125000D01*
X293243750Y-104125000D02*
X293243750Y-103125000D01*
X293243750Y-104125000D02*
X294243750Y-104125000D01*
X294243750Y-89125000D02*
X293243750Y-89125000D01*
X307243750Y-104125000D02*
X308243750Y-104125000D01*
X308243750Y-89125000D02*
X307243750Y-89125000D01*
X308243750Y-89125000D02*
X308243750Y-90125000D01*
X308243750Y-103125000D02*
X308243750Y-104125000D01*
%TO.C,SW47*%
X178943750Y-147275000D02*
X178943750Y-146275000D01*
X178943750Y-161275000D02*
X178943750Y-160275000D01*
X178943750Y-161275000D02*
X179943750Y-161275000D01*
X179943750Y-146275000D02*
X178943750Y-146275000D01*
X192943750Y-161275000D02*
X193943750Y-161275000D01*
X193943750Y-146275000D02*
X192943750Y-146275000D01*
X193943750Y-146275000D02*
X193943750Y-147275000D01*
X193943750Y-160275000D02*
X193943750Y-161275000D01*
%TO.C,SW60*%
X255143750Y-166325000D02*
X255143750Y-165325000D01*
X255143750Y-180325000D02*
X255143750Y-179325000D01*
X255143750Y-180325000D02*
X256143750Y-180325000D01*
X256143750Y-165325000D02*
X255143750Y-165325000D01*
X269143750Y-180325000D02*
X270143750Y-180325000D01*
X270143750Y-165325000D02*
X269143750Y-165325000D01*
X270143750Y-165325000D02*
X270143750Y-166325000D01*
X270143750Y-179325000D02*
X270143750Y-180325000D01*
%TO.C,SW41*%
X319437500Y-128225000D02*
X319437500Y-127225000D01*
X319437500Y-142225000D02*
X319437500Y-141225000D01*
X319437500Y-142225000D02*
X320437500Y-142225000D01*
X320437500Y-127225000D02*
X319437500Y-127225000D01*
X333437500Y-142225000D02*
X334437500Y-142225000D01*
X334437500Y-127225000D02*
X333437500Y-127225000D01*
X334437500Y-127225000D02*
X334437500Y-128225000D01*
X334437500Y-141225000D02*
X334437500Y-142225000D01*
%TO.C,SW25*%
X264668750Y-109175000D02*
X264668750Y-108175000D01*
X264668750Y-123175000D02*
X264668750Y-122175000D01*
X264668750Y-123175000D02*
X265668750Y-123175000D01*
X265668750Y-108175000D02*
X264668750Y-108175000D01*
X278668750Y-123175000D02*
X279668750Y-123175000D01*
X279668750Y-108175000D02*
X278668750Y-108175000D01*
X279668750Y-108175000D02*
X279668750Y-109175000D01*
X279668750Y-122175000D02*
X279668750Y-123175000D01*
%TO.C,SW48*%
X197993750Y-147275000D02*
X197993750Y-146275000D01*
X197993750Y-161275000D02*
X197993750Y-160275000D01*
X197993750Y-161275000D02*
X198993750Y-161275000D01*
X198993750Y-146275000D02*
X197993750Y-146275000D01*
X211993750Y-161275000D02*
X212993750Y-161275000D01*
X212993750Y-146275000D02*
X211993750Y-146275000D01*
X212993750Y-146275000D02*
X212993750Y-147275000D01*
X212993750Y-160275000D02*
X212993750Y-161275000D01*
%TD*%
M02*
