%TF.GenerationSoftware,KiCad,Pcbnew,10.0.0*%
%TF.CreationDate,2026-07-09T05:21:45+05:30*%
%TF.ProjectId,Open Deck,4f70656e-2044-4656-936b-2e6b69636164,V1*%
%TF.SameCoordinates,Original*%
%TF.FileFunction,Copper,L2,Bot*%
%TF.FilePolarity,Positive*%
%FSLAX46Y46*%
G04 Gerber Fmt 4.6, Leading zero omitted, Abs format (unit mm)*
G04 Created by KiCad (PCBNEW 10.0.0) date 2026-07-09 05:21:45*
%MOMM*%
%LPD*%
G01*
G04 APERTURE LIST*
G04 Aperture macros list*
%AMRoundRect*
0 Rectangle with rounded corners*
0 $1 Rounding radius*
0 $2 $3 $4 $5 $6 $7 $8 $9 X,Y pos of 4 corners*
0 Add a 4 corners polygon primitive as box body*
4,1,4,$2,$3,$4,$5,$6,$7,$8,$9,$2,$3,0*
0 Add four circle primitives for the rounded corners*
1,1,$1+$1,$2,$3*
1,1,$1+$1,$4,$5*
1,1,$1+$1,$6,$7*
1,1,$1+$1,$8,$9*
0 Add four rect primitives between the rounded corners*
20,1,$1+$1,$2,$3,$4,$5,0*
20,1,$1+$1,$4,$5,$6,$7,0*
20,1,$1+$1,$6,$7,$8,$9,0*
20,1,$1+$1,$8,$9,$2,$3,0*%
G04 Aperture macros list end*
%TA.AperFunction,SMDPad,CuDef*%
%ADD10R,2.550000X2.550000*%
%TD*%
%TA.AperFunction,SMDPad,CuDef*%
%ADD11R,2.271000X2.550000*%
%TD*%
%TA.AperFunction,SMDPad,CuDef*%
%ADD12R,1.550000X2.550000*%
%TD*%
%TA.AperFunction,SMDPad,CuDef*%
%ADD13RoundRect,0.225000X-0.375000X0.225000X-0.375000X-0.225000X0.375000X-0.225000X0.375000X0.225000X0*%
%TD*%
%TA.AperFunction,SMDPad,CuDef*%
%ADD14RoundRect,0.250000X-1.500000X0.250000X-1.500000X-0.250000X1.500000X-0.250000X1.500000X0.250000X0*%
%TD*%
%TA.AperFunction,SMDPad,CuDef*%
%ADD15RoundRect,0.250001X-1.449999X0.499999X-1.449999X-0.499999X1.449999X-0.499999X1.449999X0.499999X0*%
%TD*%
%TA.AperFunction,SMDPad,CuDef*%
%ADD16R,1.500000X0.700000*%
%TD*%
%TA.AperFunction,SMDPad,CuDef*%
%ADD17R,0.800000X1.000000*%
%TD*%
%TA.AperFunction,SMDPad,CuDef*%
%ADD18RoundRect,0.225000X0.225000X0.375000X-0.225000X0.375000X-0.225000X-0.375000X0.225000X-0.375000X0*%
%TD*%
%TA.AperFunction,ComponentPad*%
%ADD19C,1.800000*%
%TD*%
%TA.AperFunction,SMDPad,CuDef*%
%ADD20R,1.000000X1.900000*%
%TD*%
%TA.AperFunction,ComponentPad*%
%ADD21RoundRect,0.450000X-0.450000X0.450000X-0.450000X-0.450000X0.450000X-0.450000X0.450000X0.450000X0*%
%TD*%
%TA.AperFunction,ViaPad*%
%ADD22C,0.600000*%
%TD*%
%TA.AperFunction,Conductor*%
%ADD23C,0.127000*%
%TD*%
%TA.AperFunction,Conductor*%
%ADD24C,0.254000*%
%TD*%
%TA.AperFunction,Conductor*%
%ADD25C,0.200000*%
%TD*%
G04 APERTURE END LIST*
D10*
%TO.P,SW8,1,Pin_1*%
%TO.N,/ROW1B*%
X197218750Y-101325000D03*
%TO.P,SW8,2,Pin_2*%
%TO.N,Net-(D8-A)*%
X211968750Y-102375000D03*
%TD*%
%TO.P,SW53,1,Pin_1*%
%TO.N,/ROW4B*%
X292468750Y-158475000D03*
%TO.P,SW53,2,Pin_2*%
%TO.N,Net-(D53-A)*%
X307218750Y-159525000D03*
%TD*%
D11*
%TO.P,SW1,1,Pin_1*%
%TO.N,/ROW1A*%
X64008250Y-101325000D03*
D10*
%TO.P,SW1,2,Pin_2*%
%TO.N,Net-(D1-A)*%
X78618750Y-102375000D03*
%TD*%
%TO.P,SW6,1,Pin_1*%
%TO.N,/ROW1A*%
X159118750Y-101325000D03*
%TO.P,SW6,2,Pin_2*%
%TO.N,Net-(D6-A)*%
X173868750Y-102375000D03*
%TD*%
%TO.P,SW52,1,Pin_1*%
%TO.N,/ROW4B*%
X273418750Y-158475000D03*
%TO.P,SW52,2,Pin_2*%
%TO.N,Net-(D52-A)*%
X288168750Y-159525000D03*
%TD*%
%TO.P,SW51,1,Pin_1*%
%TO.N,/ROW4B*%
X254368750Y-158475000D03*
%TO.P,SW51,2,Pin_2*%
%TO.N,Net-(D51-A)*%
X269118750Y-159525000D03*
%TD*%
%TO.P,SW3,1,Pin_1*%
%TO.N,/ROW1A*%
X101968750Y-101325000D03*
%TO.P,SW3,2,Pin_2*%
%TO.N,Net-(D3-A)*%
X116718750Y-102375000D03*
%TD*%
%TO.P,SW32,1,Pin_1*%
%TO.N,/ROW3A*%
X135306250Y-139425000D03*
%TO.P,SW32,2,Pin_2*%
%TO.N,Net-(D32-A)*%
X150056250Y-140475000D03*
%TD*%
%TO.P,SW54,1,Pin_1*%
%TO.N,/ROW4B*%
X311518750Y-158475000D03*
%TO.P,SW54,2,Pin_2*%
%TO.N,Net-(D54-A)*%
X326268750Y-159525000D03*
%TD*%
%TO.P,SW63,1,Pin_1*%
%TO.N,/ROW5B*%
X311518750Y-177525000D03*
%TO.P,SW63,2,Pin_2*%
%TO.N,Net-(D63-A)*%
X326268750Y-178575000D03*
%TD*%
%TO.P,SW40,1,Pin_1*%
%TO.N,/ROW3B*%
X287706250Y-139425000D03*
%TO.P,SW40,2,Pin_2*%
%TO.N,Net-(D40-A)*%
X302456250Y-140475000D03*
%TD*%
%TO.P,SW49,1,Pin_1*%
%TO.N,/ROW4B*%
X216268750Y-158475000D03*
%TO.P,SW49,2,Pin_2*%
%TO.N,Net-(D49-A)*%
X231018750Y-159525000D03*
%TD*%
%TO.P,SW55,1,Pin_1*%
%TO.N,/ROW4B*%
X330568750Y-158475000D03*
%TO.P,SW55,2,Pin_2*%
%TO.N,Net-(D55-A)*%
X345318750Y-159525000D03*
%TD*%
%TO.P,SW16,1,Pin_1*%
%TO.N,/ROW2A*%
X92443750Y-120375000D03*
%TO.P,SW16,2,Pin_2*%
%TO.N,Net-(D16-A)*%
X107193750Y-121425000D03*
%TD*%
D12*
%TO.P,SW14,1,Pin_1*%
%TO.N,/ROW1B*%
X321543750Y-101325000D03*
D10*
%TO.P,SW14,2,Pin_2*%
%TO.N,Net-(D14-A)*%
X335793750Y-102375000D03*
%TD*%
%TO.P,SW64,1,Pin_1*%
%TO.N,/ROW5B*%
X330568750Y-177525000D03*
%TO.P,SW64,2,Pin_2*%
%TO.N,Net-(D64-A)*%
X345318750Y-178575000D03*
%TD*%
%TO.P,SW11,1,Pin_1*%
%TO.N,/ROW1B*%
X254368750Y-101325000D03*
%TO.P,SW11,2,Pin_2*%
%TO.N,Net-(D11-A)*%
X269118750Y-102375000D03*
%TD*%
%TO.P,SW15,1,Pin_1*%
%TO.N,/ROW2A*%
X68631250Y-120375000D03*
%TO.P,SW15,2,Pin_2*%
%TO.N,Net-(D15-A)*%
X83381250Y-121425000D03*
%TD*%
%TO.P,SW10,1,Pin_1*%
%TO.N,/ROW1B*%
X235318750Y-101325000D03*
%TO.P,SW10,2,Pin_2*%
%TO.N,Net-(D10-A)*%
X250068750Y-102375000D03*
%TD*%
%TO.P,SW59,1,Pin_1*%
%TO.N,/ROW5A*%
X185312500Y-177525000D03*
%TO.P,SW59,2,Pin_2*%
%TO.N,Net-(D59-A)*%
X200062500Y-178575000D03*
%TD*%
%TO.P,SW27,1,Pin_1*%
%TO.N,/ROW2B*%
X301993750Y-120375000D03*
%TO.P,SW27,2,Pin_2*%
%TO.N,Net-(D27-A)*%
X316743750Y-121425000D03*
%TD*%
%TO.P,SW46,1,Pin_1*%
%TO.N,/ROW4A*%
X159118750Y-158475000D03*
%TO.P,SW46,2,Pin_2*%
%TO.N,Net-(D46-A)*%
X173868750Y-159525000D03*
%TD*%
%TO.P,SW5,1,Pin_1*%
%TO.N,/ROW1A*%
X140068750Y-101325000D03*
%TO.P,SW5,2,Pin_2*%
%TO.N,Net-(D5-A)*%
X154818750Y-102375000D03*
%TD*%
%TO.P,SW34,1,Pin_1*%
%TO.N,/ROW3A*%
X173406250Y-139425000D03*
%TO.P,SW34,2,Pin_2*%
%TO.N,Net-(D34-A)*%
X188156250Y-140475000D03*
%TD*%
%TO.P,SW31,1,Pin_1*%
%TO.N,/ROW3A*%
X116256250Y-139425000D03*
%TO.P,SW31,2,Pin_2*%
%TO.N,Net-(D31-A)*%
X131006250Y-140475000D03*
%TD*%
%TO.P,SW4,1,Pin_1*%
%TO.N,/ROW1A*%
X121018750Y-101325000D03*
%TO.P,SW4,2,Pin_2*%
%TO.N,Net-(D4-A)*%
X135768750Y-102375000D03*
%TD*%
%TO.P,SW37,1,Pin_1*%
%TO.N,/ROW3B*%
X230556250Y-139425000D03*
%TO.P,SW37,2,Pin_2*%
%TO.N,Net-(D37-A)*%
X245306250Y-140475000D03*
%TD*%
%TO.P,SW9,1,Pin_1*%
%TO.N,/ROW1B*%
X216268750Y-101325000D03*
%TO.P,SW9,2,Pin_2*%
%TO.N,Net-(D9-A)*%
X231018750Y-102375000D03*
%TD*%
%TO.P,SW24,1,Pin_1*%
%TO.N,/ROW2B*%
X244843750Y-120375000D03*
%TO.P,SW24,2,Pin_2*%
%TO.N,Net-(D24-A)*%
X259593750Y-121425000D03*
%TD*%
%TO.P,SW26,1,Pin_1*%
%TO.N,/ROW2B*%
X282943750Y-120375000D03*
%TO.P,SW26,2,Pin_2*%
%TO.N,Net-(D26-A)*%
X297693750Y-121425000D03*
%TD*%
%TO.P,SW17,1,Pin_1*%
%TO.N,/ROW2A*%
X111493750Y-120375000D03*
%TO.P,SW17,2,Pin_2*%
%TO.N,Net-(D17-A)*%
X126243750Y-121425000D03*
%TD*%
%TO.P,SW36,1,Pin_1*%
%TO.N,/ROW3B*%
X211506250Y-139425000D03*
%TO.P,SW36,2,Pin_2*%
%TO.N,Net-(D36-A)*%
X226256250Y-140475000D03*
%TD*%
%TO.P,SW28,1,Pin_1*%
%TO.N,/ROW2B*%
X325806250Y-120375000D03*
%TO.P,SW28,2,Pin_2*%
%TO.N,Net-(D28-A)*%
X340556250Y-121425000D03*
%TD*%
%TO.P,SW56,1,Pin_1*%
%TO.N,/ROW5A*%
X66250000Y-177525000D03*
%TO.P,SW56,2,Pin_2*%
%TO.N,Net-(D56-A)*%
X81000000Y-178575000D03*
%TD*%
%TO.P,SW50,1,Pin_1*%
%TO.N,/ROW4B*%
X235318750Y-158475000D03*
%TO.P,SW50,2,Pin_2*%
%TO.N,Net-(D50-A)*%
X250068750Y-159525000D03*
%TD*%
%TO.P,SW21,1,Pin_1*%
%TO.N,/ROW2A*%
X187693750Y-120375000D03*
%TO.P,SW21,2,Pin_2*%
%TO.N,Net-(D21-A)*%
X202443750Y-121425000D03*
%TD*%
%TO.P,SW2,1,Pin_1*%
%TO.N,/ROW1A*%
X82918750Y-101325000D03*
%TO.P,SW2,2,Pin_2*%
%TO.N,Net-(D2-A)*%
X97668750Y-102375000D03*
%TD*%
%TO.P,SW30,1,Pin_1*%
%TO.N,/ROW3A*%
X97206250Y-139425000D03*
%TO.P,SW30,2,Pin_2*%
%TO.N,Net-(D30-A)*%
X111956250Y-140475000D03*
%TD*%
%TO.P,SW7,1,Pin_1*%
%TO.N,/ROW1A*%
X178168750Y-101325000D03*
%TO.P,SW7,2,Pin_2*%
%TO.N,Net-(D7-A)*%
X192918750Y-102375000D03*
%TD*%
%TO.P,SW22,1,Pin_1*%
%TO.N,/ROW2B*%
X206743750Y-120375000D03*
%TO.P,SW22,2,Pin_2*%
%TO.N,Net-(D22-A)*%
X221493750Y-121425000D03*
%TD*%
%TO.P,SW39,1,Pin_1*%
%TO.N,/ROW3B*%
X268656250Y-139425000D03*
%TO.P,SW39,2,Pin_2*%
%TO.N,Net-(D39-A)*%
X283406250Y-140475000D03*
%TD*%
%TO.P,SW61,1,Pin_1*%
%TO.N,/ROW5B*%
X273418750Y-177525000D03*
%TO.P,SW61,2,Pin_2*%
%TO.N,Net-(D61-A)*%
X288168750Y-178575000D03*
%TD*%
%TO.P,SW58,1,Pin_1*%
%TO.N,/ROW5A*%
X113875000Y-177525000D03*
%TO.P,SW58,2,Pin_2*%
%TO.N,Net-(D58-A)*%
X128625000Y-178575000D03*
%TD*%
%TO.P,SW23,1,Pin_1*%
%TO.N,/ROW2B*%
X225793750Y-120375000D03*
%TO.P,SW23,2,Pin_2*%
%TO.N,Net-(D23-A)*%
X240543750Y-121425000D03*
%TD*%
%TO.P,SW19,1,Pin_1*%
%TO.N,/ROW2A*%
X149593750Y-120375000D03*
%TO.P,SW19,2,Pin_2*%
%TO.N,Net-(D19-A)*%
X164343750Y-121425000D03*
%TD*%
D12*
%TO.P,SW42,1,Pin_1*%
%TO.N,/ROW4A*%
X73893750Y-158475000D03*
D10*
%TO.P,SW42,2,Pin_2*%
%TO.N,Net-(D42-A)*%
X88143750Y-159525000D03*
%TD*%
%TO.P,SW38,1,Pin_1*%
%TO.N,/ROW3B*%
X249606250Y-139425000D03*
%TO.P,SW38,2,Pin_2*%
%TO.N,Net-(D38-A)*%
X264356250Y-140475000D03*
%TD*%
%TO.P,SW43,1,Pin_1*%
%TO.N,/ROW4A*%
X101968750Y-158475000D03*
%TO.P,SW43,2,Pin_2*%
%TO.N,Net-(D43-A)*%
X116718750Y-159525000D03*
%TD*%
%TO.P,SW57,1,Pin_1*%
%TO.N,/ROW5A*%
X90062500Y-177525000D03*
%TO.P,SW57,2,Pin_2*%
%TO.N,Net-(D57-A)*%
X104812500Y-178575000D03*
%TD*%
%TO.P,SW44,1,Pin_1*%
%TO.N,/ROW4A*%
X121018750Y-158475000D03*
%TO.P,SW44,2,Pin_2*%
%TO.N,Net-(D44-A)*%
X135768750Y-159525000D03*
%TD*%
%TO.P,SW20,1,Pin_1*%
%TO.N,/ROW2A*%
X168643750Y-120375000D03*
%TO.P,SW20,2,Pin_2*%
%TO.N,Net-(D20-A)*%
X183393750Y-121425000D03*
%TD*%
%TO.P,SW12,1,Pin_1*%
%TO.N,/ROW1B*%
X273418750Y-101325000D03*
%TO.P,SW12,2,Pin_2*%
%TO.N,Net-(D12-A)*%
X288168750Y-102375000D03*
%TD*%
%TO.P,SW35,1,Pin_1*%
%TO.N,/ROW3A*%
X192456250Y-139425000D03*
%TO.P,SW35,2,Pin_2*%
%TO.N,Net-(D35-A)*%
X207206250Y-140475000D03*
%TD*%
%TO.P,SW45,1,Pin_1*%
%TO.N,/ROW4A*%
X140068750Y-158475000D03*
%TO.P,SW45,2,Pin_2*%
%TO.N,Net-(D45-A)*%
X154818750Y-159525000D03*
%TD*%
%TO.P,SW18,1,Pin_1*%
%TO.N,/ROW2A*%
X130543750Y-120375000D03*
%TO.P,SW18,2,Pin_2*%
%TO.N,Net-(D18-A)*%
X145293750Y-121425000D03*
%TD*%
%TO.P,SW62,1,Pin_1*%
%TO.N,/ROW5B*%
X292468750Y-177525000D03*
%TO.P,SW62,2,Pin_2*%
%TO.N,Net-(D62-A)*%
X307218750Y-178575000D03*
%TD*%
%TO.P,SW33,1,Pin_1*%
%TO.N,/ROW3A*%
X154356250Y-139425000D03*
%TO.P,SW33,2,Pin_2*%
%TO.N,Net-(D33-A)*%
X169106250Y-140475000D03*
%TD*%
%TO.P,SW29,1,Pin_1*%
%TO.N,/ROW3A*%
X71012500Y-139425000D03*
%TO.P,SW29,2,Pin_2*%
%TO.N,Net-(D29-A)*%
X85762500Y-140475000D03*
%TD*%
%TO.P,SW13,1,Pin_1*%
%TO.N,/ROW1B*%
X292468750Y-101325000D03*
%TO.P,SW13,2,Pin_2*%
%TO.N,Net-(D13-A)*%
X307218750Y-102375000D03*
%TD*%
%TO.P,SW47,1,Pin_1*%
%TO.N,/ROW4A*%
X178168750Y-158475000D03*
%TO.P,SW47,2,Pin_2*%
%TO.N,Net-(D47-A)*%
X192918750Y-159525000D03*
%TD*%
%TO.P,SW60,1,Pin_1*%
%TO.N,/ROW5B*%
X254368750Y-177525000D03*
%TO.P,SW60,2,Pin_2*%
%TO.N,Net-(D60-A)*%
X269118750Y-178575000D03*
%TD*%
D12*
%TO.P,SW41,1,Pin_1*%
%TO.N,/ROW3B*%
X319162500Y-139425000D03*
D10*
%TO.P,SW41,2,Pin_2*%
%TO.N,Net-(D41-A)*%
X333412500Y-140475000D03*
%TD*%
%TO.P,SW25,1,Pin_1*%
%TO.N,/ROW2B*%
X263893750Y-120375000D03*
%TO.P,SW25,2,Pin_2*%
%TO.N,Net-(D25-A)*%
X278643750Y-121425000D03*
%TD*%
%TO.P,SW48,1,Pin_1*%
%TO.N,/ROW4A*%
X197218750Y-158475000D03*
%TO.P,SW48,2,Pin_2*%
%TO.N,Net-(D48-A)*%
X211968750Y-159525000D03*
%TD*%
D13*
%TO.P,D46,1,K*%
%TO.N,/COL5*%
X174537500Y-152125000D03*
%TO.P,D46,2,A*%
%TO.N,Net-(D46-A)*%
X174537500Y-155425000D03*
%TD*%
%TO.P,D17,1,K*%
%TO.N,/COL3*%
X126768750Y-114025000D03*
%TO.P,D17,2,A*%
%TO.N,Net-(D17-A)*%
X126768750Y-117325000D03*
%TD*%
%TO.P,D43,1,K*%
%TO.N,/COL2*%
X117387500Y-152125000D03*
%TO.P,D43,2,A*%
%TO.N,Net-(D43-A)*%
X117387500Y-155425000D03*
%TD*%
%TO.P,D49,1,K*%
%TO.N,/COL7*%
X231687500Y-152125000D03*
%TO.P,D49,2,A*%
%TO.N,Net-(D49-A)*%
X231687500Y-155425000D03*
%TD*%
%TO.P,D62,1,K*%
%TO.N,/COL3*%
X307887500Y-171175000D03*
%TO.P,D62,2,A*%
%TO.N,Net-(D62-A)*%
X307887500Y-174475000D03*
%TD*%
%TO.P,D22,1,K*%
%TO.N,/COL7*%
X222162500Y-114025000D03*
%TO.P,D22,2,A*%
%TO.N,Net-(D22-A)*%
X222162500Y-117325000D03*
%TD*%
%TO.P,D57,1,K*%
%TO.N,/COL2*%
X105481250Y-171175000D03*
%TO.P,D57,2,A*%
%TO.N,Net-(D57-A)*%
X105481250Y-174475000D03*
%TD*%
%TO.P,D11,1,K*%
%TO.N,/COL4*%
X269787500Y-94975000D03*
%TO.P,D11,2,A*%
%TO.N,Net-(D11-A)*%
X269787500Y-98275000D03*
%TD*%
%TO.P,D5,1,K*%
%TO.N,/COL5*%
X155487500Y-94975000D03*
%TO.P,D5,2,A*%
%TO.N,Net-(D5-A)*%
X155487500Y-98275000D03*
%TD*%
%TO.P,D38,1,K*%
%TO.N,/COL5*%
X265025000Y-133075000D03*
%TO.P,D38,2,A*%
%TO.N,Net-(D38-A)*%
X265025000Y-136375000D03*
%TD*%
%TO.P,D45,1,K*%
%TO.N,/COL4*%
X155487500Y-152125000D03*
%TO.P,D45,2,A*%
%TO.N,Net-(D45-A)*%
X155487500Y-155425000D03*
%TD*%
%TO.P,D16,1,K*%
%TO.N,/COL2*%
X107862500Y-114025000D03*
%TO.P,D16,2,A*%
%TO.N,Net-(D16-A)*%
X107862500Y-117325000D03*
%TD*%
%TO.P,D6,1,K*%
%TO.N,/COL6*%
X174537500Y-94975000D03*
%TO.P,D6,2,A*%
%TO.N,Net-(D6-A)*%
X174537500Y-98275000D03*
%TD*%
%TO.P,D36,1,K*%
%TO.N,/COL7*%
X226925000Y-133075000D03*
%TO.P,D36,2,A*%
%TO.N,Net-(D36-A)*%
X226925000Y-136375000D03*
%TD*%
%TO.P,D44,1,K*%
%TO.N,/COL3*%
X136437500Y-152125000D03*
%TO.P,D44,2,A*%
%TO.N,Net-(D44-A)*%
X136437500Y-155425000D03*
%TD*%
%TO.P,D61,1,K*%
%TO.N,/COL4*%
X288837500Y-171175000D03*
%TO.P,D61,2,A*%
%TO.N,Net-(D61-A)*%
X288837500Y-174475000D03*
%TD*%
%TO.P,D53,1,K*%
%TO.N,/COL3*%
X307887500Y-152125000D03*
%TO.P,D53,2,A*%
%TO.N,Net-(D53-A)*%
X307887500Y-155425000D03*
%TD*%
%TO.P,D42,1,K*%
%TO.N,/COL1*%
X88812500Y-152125000D03*
%TO.P,D42,2,A*%
%TO.N,Net-(D42-A)*%
X88812500Y-155425000D03*
%TD*%
%TO.P,D34,1,K*%
%TO.N,/COL6*%
X188825000Y-133075000D03*
%TO.P,D34,2,A*%
%TO.N,Net-(D34-A)*%
X188825000Y-136375000D03*
%TD*%
%TO.P,D30,1,K*%
%TO.N,/COL2*%
X112625000Y-133075000D03*
%TO.P,D30,2,A*%
%TO.N,Net-(D30-A)*%
X112625000Y-136375000D03*
%TD*%
%TO.P,D25,1,K*%
%TO.N,/COL4*%
X279312500Y-114025000D03*
%TO.P,D25,2,A*%
%TO.N,Net-(D25-A)*%
X279312500Y-117325000D03*
%TD*%
%TO.P,D37,1,K*%
%TO.N,/COL6*%
X245975000Y-133075000D03*
%TO.P,D37,2,A*%
%TO.N,Net-(D37-A)*%
X245975000Y-136375000D03*
%TD*%
%TO.P,D33,1,K*%
%TO.N,/COL5*%
X169775000Y-133075000D03*
%TO.P,D33,2,A*%
%TO.N,Net-(D33-A)*%
X169775000Y-136375000D03*
%TD*%
%TO.P,D9,1,K*%
%TO.N,/COL6*%
X231687500Y-94975000D03*
%TO.P,D9,2,A*%
%TO.N,Net-(D9-A)*%
X231687500Y-98275000D03*
%TD*%
%TO.P,D52,1,K*%
%TO.N,/COL4*%
X288837500Y-152125000D03*
%TO.P,D52,2,A*%
%TO.N,Net-(D52-A)*%
X288837500Y-155425000D03*
%TD*%
D14*
%TO.P,J1,1,Pin_1*%
%TO.N,Net-(J1-Pin_1)*%
X117514500Y-107388750D03*
%TO.P,J1,2,Pin_2*%
%TO.N,Net-(J1-Pin_2)*%
X117514500Y-109388750D03*
D15*
%TO.P,J1,MP*%
%TO.N,N/C*%
X123264500Y-105038750D03*
X123264500Y-111738750D03*
%TD*%
D13*
%TO.P,D8,1,K*%
%TO.N,/COL7*%
X212637500Y-94975000D03*
%TO.P,D8,2,A*%
%TO.N,Net-(D8-A)*%
X212637500Y-98275000D03*
%TD*%
%TO.P,D55,1,K*%
%TO.N,/COL1*%
X345987500Y-152125000D03*
%TO.P,D55,2,A*%
%TO.N,Net-(D55-A)*%
X345987500Y-155425000D03*
%TD*%
%TO.P,D54,1,K*%
%TO.N,/COL2*%
X326937500Y-152125000D03*
%TO.P,D54,2,A*%
%TO.N,Net-(D54-A)*%
X326937500Y-155425000D03*
%TD*%
%TO.P,D7,1,K*%
%TO.N,/COL7*%
X193587500Y-94975000D03*
%TO.P,D7,2,A*%
%TO.N,Net-(D7-A)*%
X193587500Y-98275000D03*
%TD*%
%TO.P,D31,1,K*%
%TO.N,/COL3*%
X131675000Y-133075000D03*
%TO.P,D31,2,A*%
%TO.N,Net-(D31-A)*%
X131675000Y-136375000D03*
%TD*%
D16*
%TO.P,SW0,1,A*%
%TO.N,Net-(J1-Pin_1)*%
X66178500Y-117321750D03*
%TO.P,SW0,2,B*%
%TO.N,GND*%
X66178500Y-114321750D03*
%TO.P,SW0,3,C*%
%TO.N,unconnected-(SW0-C-Pad3)*%
X66178500Y-112821750D03*
D17*
%TO.P,SW0,SH1*%
%TO.N,N/C*%
X65528500Y-118721750D03*
%TO.P,SW0,SH2*%
X65528500Y-111421750D03*
%TO.P,SW0,SH3*%
X63328500Y-118721750D03*
%TO.P,SW0,SH4*%
X63328500Y-111421750D03*
%TD*%
D18*
%TO.P,D1,1,K*%
%TO.N,/COL1*%
X78556250Y-99006250D03*
%TO.P,D1,2,A*%
%TO.N,Net-(D1-A)*%
X75256250Y-99006250D03*
%TD*%
D13*
%TO.P,D18,1,K*%
%TO.N,/COL4*%
X145818750Y-114025000D03*
%TO.P,D18,2,A*%
%TO.N,Net-(D18-A)*%
X145818750Y-117325000D03*
%TD*%
%TO.P,D20,1,K*%
%TO.N,/COL6*%
X183918750Y-114025000D03*
%TO.P,D20,2,A*%
%TO.N,Net-(D20-A)*%
X183918750Y-117325000D03*
%TD*%
%TO.P,D40,1,K*%
%TO.N,/COL3*%
X303125000Y-133075000D03*
%TO.P,D40,2,A*%
%TO.N,Net-(D40-A)*%
X303125000Y-136375000D03*
%TD*%
%TO.P,D29,1,K*%
%TO.N,/COL1*%
X86431250Y-133075000D03*
%TO.P,D29,2,A*%
%TO.N,Net-(D29-A)*%
X86431250Y-136375000D03*
%TD*%
%TO.P,D58,1,K*%
%TO.N,/COL3*%
X129293750Y-171175000D03*
%TO.P,D58,2,A*%
%TO.N,Net-(D58-A)*%
X129293750Y-174475000D03*
%TD*%
%TO.P,D48,1,K*%
%TO.N,/COL7*%
X212637500Y-152125000D03*
%TO.P,D48,2,A*%
%TO.N,Net-(D48-A)*%
X212637500Y-155425000D03*
%TD*%
%TO.P,D50,1,K*%
%TO.N,/COL6*%
X250737500Y-152125000D03*
%TO.P,D50,2,A*%
%TO.N,Net-(D50-A)*%
X250737500Y-155425000D03*
%TD*%
%TO.P,D10,1,K*%
%TO.N,/COL5*%
X250737500Y-94975000D03*
%TO.P,D10,2,A*%
%TO.N,Net-(D10-A)*%
X250737500Y-98275000D03*
%TD*%
%TO.P,D3,1,K*%
%TO.N,/COL3*%
X117387500Y-94975000D03*
%TO.P,D3,2,A*%
%TO.N,Net-(D3-A)*%
X117387500Y-98275000D03*
%TD*%
%TO.P,D4,1,K*%
%TO.N,/COL4*%
X136437500Y-94975000D03*
%TO.P,D4,2,A*%
%TO.N,Net-(D4-A)*%
X136437500Y-98275000D03*
%TD*%
%TO.P,D15,1,K*%
%TO.N,/COL1*%
X84050000Y-114025000D03*
%TO.P,D15,2,A*%
%TO.N,Net-(D15-A)*%
X84050000Y-117325000D03*
%TD*%
%TO.P,D39,1,K*%
%TO.N,/COL4*%
X284075000Y-133075000D03*
%TO.P,D39,2,A*%
%TO.N,Net-(D39-A)*%
X284075000Y-136375000D03*
%TD*%
%TO.P,D24,1,K*%
%TO.N,/COL5*%
X260262500Y-114025000D03*
%TO.P,D24,2,A*%
%TO.N,Net-(D24-A)*%
X260262500Y-117325000D03*
%TD*%
%TO.P,D12,1,K*%
%TO.N,/COL3*%
X288837500Y-94975000D03*
%TO.P,D12,2,A*%
%TO.N,Net-(D12-A)*%
X288837500Y-98275000D03*
%TD*%
%TO.P,D35,1,K*%
%TO.N,/COL7*%
X207875000Y-133075000D03*
%TO.P,D35,2,A*%
%TO.N,Net-(D35-A)*%
X207875000Y-136375000D03*
%TD*%
%TO.P,D64,1,K*%
%TO.N,/COL1*%
X345987500Y-171175000D03*
%TO.P,D64,2,A*%
%TO.N,Net-(D64-A)*%
X345987500Y-174475000D03*
%TD*%
%TO.P,D41,1,K*%
%TO.N,/COL2*%
X334081250Y-133075000D03*
%TO.P,D41,2,A*%
%TO.N,Net-(D41-A)*%
X334081250Y-136375000D03*
%TD*%
D19*
%TO.P,U1,1,P0.06*%
%TO.N,/ROW1A*%
X68238500Y-91957750D03*
D20*
X68238500Y-93606750D03*
%TO.P,U1,2,P0.08*%
%TO.N,/ROW1B*%
X70778500Y-90306750D03*
D19*
X70778500Y-91957750D03*
D21*
%TO.P,U1,3,GND*%
%TO.N,GND*%
X73318500Y-91957750D03*
D20*
%TO.P,U1,4,GND*%
X75858500Y-90306750D03*
D21*
X75858500Y-91957750D03*
D19*
%TO.P,U1,5,P0.17*%
%TO.N,/COL1*%
X78398500Y-91957750D03*
D20*
X78398500Y-93606750D03*
%TO.P,U1,6,P0.20*%
%TO.N,/COL2*%
X80938500Y-90306750D03*
D19*
X80938500Y-91957750D03*
%TO.P,U1,7,P0.22*%
%TO.N,/COL3*%
X83478500Y-91957750D03*
D20*
X83478500Y-93606750D03*
%TO.P,U1,8,P0.24*%
%TO.N,/COL4*%
X86018500Y-90306750D03*
D19*
X86018500Y-91957750D03*
%TO.P,U1,9,P1.00*%
%TO.N,/COL5*%
X88558500Y-91957750D03*
D20*
X88558500Y-93606750D03*
%TO.P,U1,10,P0.11*%
%TO.N,/COL6*%
X91098500Y-90306750D03*
D19*
X91098500Y-91957750D03*
%TO.P,U1,11,P1.04-LF*%
%TO.N,/COL7*%
X93638500Y-91957750D03*
D20*
X93638500Y-93606750D03*
%TO.P,U1,12,P1.06-LF*%
%TO.N,unconnected-(U1-P1.06-LF-Pad12)*%
X96178500Y-90306750D03*
D19*
X96178500Y-91957750D03*
D20*
%TO.P,U1,13,BAT+*%
%TO.N,Net-(J1-Pin_2)*%
X68238500Y-105548750D03*
D19*
X68238500Y-107197750D03*
D21*
%TO.P,U1,14,GND*%
%TO.N,GND*%
X70778500Y-107197750D03*
D20*
X70778500Y-108848750D03*
%TO.P,U1,15,RST*%
%TO.N,unconnected-(U1-RST-Pad15)*%
X73318500Y-105548750D03*
D19*
X73318500Y-107197750D03*
%TO.P,U1,16,3V3*%
%TO.N,unconnected-(U1-3V3-Pad16)*%
X75858500Y-107197750D03*
D20*
X75858500Y-108848750D03*
%TO.P,U1,17,P0.31-LF*%
%TO.N,/ROW5A*%
X78398500Y-105548750D03*
D19*
X78398500Y-107197750D03*
%TO.P,U1,18,P0.29-LF*%
%TO.N,/ROW4A*%
X80938500Y-107197750D03*
D20*
X80938500Y-108848750D03*
%TO.P,U1,19,P0.02-LF*%
%TO.N,/ROW3A*%
X83478500Y-105548750D03*
D19*
X83478500Y-107197750D03*
%TO.P,U1,20,P1.15-LF*%
%TO.N,/ROW2A*%
X86018500Y-107197750D03*
D20*
X86018500Y-108848750D03*
%TO.P,U1,21,P1.13-LF*%
%TO.N,/ROW5B*%
X88558500Y-105548750D03*
D19*
X88558500Y-107197750D03*
%TO.P,U1,22,P1.11-LF*%
%TO.N,/ROW4B*%
X91098500Y-107197750D03*
D20*
X91098500Y-108848750D03*
%TO.P,U1,23,P0.10-LF*%
%TO.N,/ROW3B*%
X93638500Y-105548750D03*
D19*
X93638500Y-107197750D03*
%TO.P,U1,24,P0.09-LF*%
%TO.N,/ROW2B*%
X96178500Y-107197750D03*
D20*
X96178500Y-108848750D03*
%TO.P,U1,28,GND*%
%TO.N,GND*%
X65698500Y-90306750D03*
D21*
X65698500Y-91957750D03*
D19*
%TO.P,U1,29,BAT+*%
%TO.N,Net-(J1-Pin_2)*%
X65698500Y-107197750D03*
D20*
X65698500Y-108848750D03*
%TD*%
D13*
%TO.P,D63,1,K*%
%TO.N,/COL2*%
X326937500Y-171460750D03*
%TO.P,D63,2,A*%
%TO.N,Net-(D63-A)*%
X326937500Y-174760750D03*
%TD*%
%TO.P,D21,1,K*%
%TO.N,/COL7*%
X203112500Y-114025000D03*
%TO.P,D21,2,A*%
%TO.N,Net-(D21-A)*%
X203112500Y-117325000D03*
%TD*%
%TO.P,D13,1,K*%
%TO.N,/COL2*%
X307887500Y-94975000D03*
%TO.P,D13,2,A*%
%TO.N,Net-(D13-A)*%
X307887500Y-98275000D03*
%TD*%
%TO.P,D56,1,K*%
%TO.N,/COL1*%
X81668750Y-171175000D03*
%TO.P,D56,2,A*%
%TO.N,Net-(D56-A)*%
X81668750Y-174475000D03*
%TD*%
%TO.P,D59,1,K*%
%TO.N,/COL6*%
X200731250Y-171175000D03*
%TO.P,D59,2,A*%
%TO.N,Net-(D59-A)*%
X200731250Y-174475000D03*
%TD*%
%TO.P,D14,1,K*%
%TO.N,/COL1*%
X336462500Y-94975000D03*
%TO.P,D14,2,A*%
%TO.N,Net-(D14-A)*%
X336462500Y-98275000D03*
%TD*%
D18*
%TO.P,D2,1,K*%
%TO.N,/COL2*%
X97606250Y-99006250D03*
%TO.P,D2,2,A*%
%TO.N,Net-(D2-A)*%
X94306250Y-99006250D03*
%TD*%
D13*
%TO.P,D26,1,K*%
%TO.N,/COL3*%
X298362500Y-114025000D03*
%TO.P,D26,2,A*%
%TO.N,Net-(D26-A)*%
X298362500Y-117325000D03*
%TD*%
%TO.P,D19,1,K*%
%TO.N,/COL5*%
X164868750Y-114025000D03*
%TO.P,D19,2,A*%
%TO.N,Net-(D19-A)*%
X164868750Y-117325000D03*
%TD*%
%TO.P,D23,1,K*%
%TO.N,/COL6*%
X241212500Y-114025000D03*
%TO.P,D23,2,A*%
%TO.N,Net-(D23-A)*%
X241212500Y-117325000D03*
%TD*%
%TO.P,D28,1,K*%
%TO.N,/COL1*%
X341225000Y-114025000D03*
%TO.P,D28,2,A*%
%TO.N,Net-(D28-A)*%
X341225000Y-117325000D03*
%TD*%
%TO.P,D51,1,K*%
%TO.N,/COL5*%
X269787500Y-152125000D03*
%TO.P,D51,2,A*%
%TO.N,Net-(D51-A)*%
X269787500Y-155425000D03*
%TD*%
%TO.P,D32,1,K*%
%TO.N,/COL4*%
X150725000Y-133075000D03*
%TO.P,D32,2,A*%
%TO.N,Net-(D32-A)*%
X150725000Y-136375000D03*
%TD*%
%TO.P,D27,1,K*%
%TO.N,/COL2*%
X317412500Y-114025000D03*
%TO.P,D27,2,A*%
%TO.N,Net-(D27-A)*%
X317412500Y-117325000D03*
%TD*%
%TO.P,D60,1,K*%
%TO.N,/COL5*%
X269787500Y-171175000D03*
%TO.P,D60,2,A*%
%TO.N,Net-(D60-A)*%
X269787500Y-174475000D03*
%TD*%
%TO.P,D47,1,K*%
%TO.N,/COL6*%
X193587500Y-152125000D03*
%TO.P,D47,2,A*%
%TO.N,Net-(D47-A)*%
X193587500Y-155425000D03*
%TD*%
D22*
%TO.N,/ROW1B*%
X273470500Y-104657750D03*
X235370500Y-104657750D03*
X254420500Y-104657750D03*
X321095500Y-104657750D03*
X292520500Y-104657750D03*
X216320500Y-104657750D03*
X197270500Y-104657750D03*
%TO.N,/ROW4B*%
X273470500Y-161807750D03*
X311570500Y-161807750D03*
X292520500Y-161807750D03*
X235370500Y-161045750D03*
X216320500Y-160537750D03*
X254420500Y-161807750D03*
X330620500Y-161807750D03*
%TO.N,/ROW3A*%
X173394500Y-142757750D03*
X192444500Y-142757750D03*
X154344500Y-142757750D03*
X116244500Y-142757750D03*
X135294500Y-142757750D03*
X97194500Y-142757750D03*
X71032500Y-142757750D03*
%TO.N,/ROW5B*%
X311570500Y-180857750D03*
X273470500Y-180095750D03*
X254420500Y-179587750D03*
X330620500Y-180857750D03*
X292520500Y-180349750D03*
%TO.N,/ROW3B*%
X249594500Y-142757750D03*
X211494500Y-142757750D03*
X268644500Y-142757750D03*
X287694500Y-142757750D03*
X230544500Y-142757750D03*
X318682500Y-142757750D03*
%TO.N,/ROW2A*%
X111545500Y-123834750D03*
X149645500Y-123834750D03*
X187745500Y-123834750D03*
X168695500Y-123834750D03*
X68746500Y-123707750D03*
X92495500Y-123834750D03*
X130595500Y-123834750D03*
%TO.N,/ROW5A*%
X66206500Y-180857750D03*
X90082500Y-180857750D03*
X113831500Y-180857750D03*
X180760500Y-177555750D03*
%TO.N,/ROW2B*%
X244895500Y-123707750D03*
X325794500Y-123707750D03*
X282995500Y-123707750D03*
X263945500Y-123707750D03*
X225845500Y-123707750D03*
X206795500Y-123707750D03*
X302045500Y-123707750D03*
%TO.N,/ROW4A*%
X140120500Y-161807750D03*
X102020500Y-161807750D03*
X159170500Y-161807750D03*
X197270500Y-161807750D03*
X121070500Y-161807750D03*
X178220500Y-161807750D03*
X73572500Y-161807750D03*
%TO.N,Net-(J1-Pin_1)*%
X70016500Y-115071750D03*
X114720500Y-106651747D03*
%TO.N,Net-(J1-Pin_2)*%
X114720500Y-107451750D03*
%TD*%
%TO.N,/ROW1B*%
D23*
X98141857Y-93747000D02*
X92385857Y-99503000D01*
X90001643Y-99503000D02*
X85383393Y-94884750D01*
X197218750Y-101325000D02*
X197218750Y-100288000D01*
D24*
X273418750Y-104606000D02*
X273418750Y-101325000D01*
D23*
X190677750Y-93747000D02*
X98141857Y-93747000D01*
D24*
X292468750Y-104606000D02*
X292468750Y-101325000D01*
X254368750Y-104606000D02*
X254368750Y-101325000D01*
D23*
X92385857Y-99503000D02*
X90001643Y-99503000D01*
D24*
X292520500Y-104657750D02*
X292468750Y-104606000D01*
X254420500Y-104657750D02*
X254368750Y-104606000D01*
D23*
X197218750Y-104606000D02*
X197218750Y-101325000D01*
X72774607Y-93185750D02*
X72006500Y-93185750D01*
X321095500Y-104657750D02*
X321196750Y-104556500D01*
D24*
X235370500Y-104657750D02*
X235318750Y-104606000D01*
X216268750Y-104606000D02*
X216268750Y-101325000D01*
D23*
X85383393Y-94884750D02*
X74473607Y-94884750D01*
D24*
X216320500Y-104657750D02*
X216268750Y-104606000D01*
D23*
X197270500Y-104657750D02*
X197218750Y-104606000D01*
D24*
X235318750Y-104606000D02*
X235318750Y-101325000D01*
D23*
X72006500Y-93185750D02*
X70778500Y-91957750D01*
D24*
X273470500Y-104657750D02*
X273418750Y-104606000D01*
D23*
X74473607Y-94884750D02*
X72774607Y-93185750D01*
X197218750Y-100288000D02*
X190677750Y-93747000D01*
X321196750Y-104556500D02*
X321196750Y-101325000D01*
%TO.N,Net-(D8-A)*%
D25*
X212637500Y-101706250D02*
X211968750Y-102375000D01*
X212637500Y-98275000D02*
X212637500Y-101706250D01*
%TO.N,/ROW4B*%
D24*
X273418750Y-161502000D02*
X273418750Y-158475000D01*
X273470500Y-161807750D02*
X273470500Y-161553750D01*
X254368750Y-161756000D02*
X254368750Y-158475000D01*
X216320500Y-158526750D02*
X216268750Y-158475000D01*
X216320500Y-160537750D02*
X216320500Y-158526750D01*
X330568750Y-161756000D02*
X330568750Y-158475000D01*
X311570500Y-161807750D02*
X311518750Y-161756000D01*
X330620500Y-161807750D02*
X330568750Y-161756000D01*
X273470500Y-161553750D02*
X273418750Y-161502000D01*
X254420500Y-161807750D02*
X254368750Y-161756000D01*
X235370500Y-161045750D02*
X235318750Y-160994000D01*
X292520500Y-161807750D02*
X292468750Y-161756000D01*
X311518750Y-161756000D02*
X311518750Y-158475000D01*
X235318750Y-160994000D02*
X235318750Y-158475000D01*
X292468750Y-161756000D02*
X292468750Y-158475000D01*
%TO.N,Net-(D53-A)*%
D25*
X307887500Y-155425000D02*
X307887500Y-158856250D01*
X307887500Y-158856250D02*
X307218750Y-159525000D01*
%TO.N,/ROW1A*%
D23*
X168438554Y-99560500D02*
X160883250Y-99560500D01*
X154874054Y-94075000D02*
X149388554Y-99560500D01*
X137021492Y-94260500D02*
X135853508Y-94260500D01*
X117971492Y-94260500D02*
X116803508Y-94260500D01*
X121018750Y-101325000D02*
X121018750Y-97307758D01*
X105067388Y-99560500D02*
X103648638Y-98141750D01*
X65772750Y-99560500D02*
X64008250Y-101325000D01*
X121018750Y-97307758D02*
X117971492Y-94260500D01*
X141833250Y-99560500D02*
X140068750Y-101325000D01*
X130553508Y-99560500D02*
X122783250Y-99560500D01*
X97172258Y-98141750D02*
X96891750Y-98422258D01*
X160883250Y-99560500D02*
X159118750Y-101325000D01*
X178168750Y-97307758D02*
X174935992Y-94075000D01*
X73403508Y-99560500D02*
X65772750Y-99560500D01*
X111503508Y-99560500D02*
X105067388Y-99560500D01*
X99154250Y-104139500D02*
X85733250Y-104139500D01*
X140068750Y-97307758D02*
X137021492Y-94260500D01*
X63868750Y-101325000D02*
X63868750Y-96327500D01*
X159118750Y-101325000D02*
X159118750Y-97307758D01*
X174935992Y-94075000D02*
X173924054Y-94075000D01*
X85733250Y-104139500D02*
X82918750Y-101325000D01*
X97768258Y-100466750D02*
X101110500Y-100466750D01*
X74822258Y-98141750D02*
X73403508Y-99560500D01*
X159118750Y-97307758D02*
X155885992Y-94075000D01*
X149388554Y-99560500D02*
X141833250Y-99560500D01*
X135853508Y-94260500D02*
X130553508Y-99560500D01*
D25*
X68682236Y-91830750D02*
X68111500Y-91830750D01*
D23*
X79735500Y-98141750D02*
X74822258Y-98141750D01*
X101968750Y-101325000D02*
X99154250Y-104139500D01*
X116803508Y-94260500D02*
X111503508Y-99560500D01*
X96891750Y-98422258D02*
X96891750Y-99590242D01*
X155885992Y-94075000D02*
X154874054Y-94075000D01*
X96891750Y-99590242D02*
X97768258Y-100466750D01*
X63868750Y-96327500D02*
X68238500Y-91957750D01*
X173924054Y-94075000D02*
X168438554Y-99560500D01*
X178168750Y-101325000D02*
X178168750Y-97307758D01*
X122783250Y-99560500D02*
X121018750Y-101325000D01*
X64365000Y-100828750D02*
X63868750Y-101325000D01*
X140068750Y-101325000D02*
X140068750Y-97307758D01*
X82918750Y-101325000D02*
X79735500Y-98141750D01*
X103648638Y-98141750D02*
X97172258Y-98141750D01*
X101110500Y-100466750D02*
X101968750Y-101325000D01*
%TO.N,Net-(D1-A)*%
X78618750Y-102368750D02*
X78618750Y-102375000D01*
X75256250Y-99006250D02*
X78618750Y-102368750D01*
%TO.N,Net-(D6-A)*%
X174537500Y-101706250D02*
X173868750Y-102375000D01*
X174537500Y-98275000D02*
X174537500Y-101706250D01*
%TO.N,Net-(D52-A)*%
D25*
X288837500Y-158856250D02*
X288168750Y-159525000D01*
X288837500Y-155425000D02*
X288837500Y-158856250D01*
%TO.N,Net-(D51-A)*%
X269787500Y-158856250D02*
X269118750Y-159525000D01*
X269787500Y-155425000D02*
X269787500Y-158856250D01*
%TO.N,Net-(D3-A)*%
D23*
X117387500Y-98275000D02*
X117387500Y-101706250D01*
X117387500Y-101706250D02*
X116718750Y-102375000D01*
%TO.N,/ROW3A*%
D24*
X71032500Y-142503750D02*
X71012500Y-142483750D01*
X135294500Y-142757750D02*
X135306250Y-142746000D01*
X154344500Y-142757750D02*
X154356250Y-142746000D01*
X192444500Y-142757750D02*
X192456250Y-142746000D01*
X116244500Y-142503750D02*
X116256250Y-142492000D01*
X173406250Y-142746000D02*
X173406250Y-139425000D01*
X116256250Y-142492000D02*
X116256250Y-139425000D01*
X135306250Y-142746000D02*
X135306250Y-139425000D01*
X97206250Y-142746000D02*
X97206250Y-139425000D01*
X116244500Y-142757750D02*
X116244500Y-142503750D01*
X154356250Y-142746000D02*
X154356250Y-139425000D01*
X71012500Y-142483750D02*
X71012500Y-139425000D01*
X97194500Y-142757750D02*
X97206250Y-142746000D01*
X192456250Y-142746000D02*
X192456250Y-139425000D01*
X173394500Y-142757750D02*
X173406250Y-142746000D01*
X71032500Y-142757750D02*
X71032500Y-142503750D01*
%TO.N,Net-(D32-A)*%
D23*
X150725000Y-139806250D02*
X150056250Y-140475000D01*
X150725000Y-136375000D02*
X150725000Y-139806250D01*
%TO.N,Net-(D54-A)*%
D25*
X326937500Y-160193750D02*
X326268750Y-159525000D01*
X326937500Y-158856250D02*
X326268750Y-159525000D01*
X326937500Y-155425000D02*
X326937500Y-158856250D01*
%TO.N,/ROW5B*%
D24*
X254420500Y-177576750D02*
X254368750Y-177525000D01*
X330568750Y-180806000D02*
X330568750Y-177525000D01*
X311518750Y-180806000D02*
X311518750Y-177525000D01*
X273418750Y-180044000D02*
X273418750Y-177525000D01*
X330620500Y-180857750D02*
X330568750Y-180806000D01*
X273470500Y-180095750D02*
X273418750Y-180044000D01*
X292468750Y-180298000D02*
X292468750Y-177525000D01*
X254420500Y-179587750D02*
X254420500Y-177576750D01*
X311570500Y-180857750D02*
X311518750Y-180806000D01*
X292520500Y-180349750D02*
X292468750Y-180298000D01*
%TO.N,Net-(D63-A)*%
D25*
X326937500Y-177906250D02*
X326268750Y-178575000D01*
X326937500Y-174475000D02*
X326937500Y-177906250D01*
%TO.N,/ROW3B*%
D24*
X230544500Y-142757750D02*
X230556250Y-142746000D01*
X287706250Y-142746000D02*
X287706250Y-139425000D01*
X211506250Y-142746000D02*
X211506250Y-139425000D01*
X287694500Y-142757750D02*
X287706250Y-142746000D01*
X268644500Y-142757750D02*
X268656250Y-142746000D01*
X318815500Y-142624750D02*
X318815500Y-139425000D01*
X211494500Y-142757750D02*
X211506250Y-142746000D01*
X249606250Y-142746000D02*
X249606250Y-139425000D01*
X268656250Y-142746000D02*
X268656250Y-139425000D01*
X318682500Y-142757750D02*
X318815500Y-142624750D01*
X230556250Y-142746000D02*
X230556250Y-139425000D01*
X249594500Y-142757750D02*
X249606250Y-142746000D01*
%TO.N,Net-(D40-A)*%
D25*
X303125000Y-136375000D02*
X303125000Y-139806250D01*
X303125000Y-139806250D02*
X302456250Y-140475000D01*
%TO.N,Net-(D49-A)*%
D23*
X231687500Y-155425000D02*
X231687500Y-158856250D01*
X231687500Y-158856250D02*
X231018750Y-159525000D01*
D25*
X231687500Y-158856250D02*
X231276490Y-159267260D01*
%TO.N,Net-(D55-A)*%
X345987500Y-158856250D02*
X345318750Y-159525000D01*
X345987500Y-155425000D02*
X345987500Y-158856250D01*
%TO.N,/ROW2A*%
D24*
X130543750Y-123783000D02*
X130543750Y-120375000D01*
X149593750Y-123783000D02*
X149593750Y-120375000D01*
X111545500Y-123834750D02*
X111493750Y-123783000D01*
X68746500Y-123707750D02*
X68631250Y-123592500D01*
X111493750Y-123783000D02*
X111493750Y-120375000D01*
X168695500Y-123834750D02*
X168643750Y-123783000D01*
X187693750Y-123783000D02*
X187693750Y-120375000D01*
X92495500Y-123834750D02*
X92443750Y-123783000D01*
X130595500Y-123834750D02*
X130543750Y-123783000D01*
X92443750Y-123783000D02*
X92443750Y-120375000D01*
X149645500Y-123834750D02*
X149593750Y-123783000D01*
X187745500Y-123834750D02*
X187693750Y-123783000D01*
X68631250Y-123592500D02*
X68631250Y-120375000D01*
X168643750Y-123783000D02*
X168643750Y-120375000D01*
%TO.N,Net-(D16-A)*%
D23*
X107862500Y-120756250D02*
X107193750Y-121425000D01*
X107862500Y-117325000D02*
X107862500Y-120756250D01*
%TO.N,Net-(D14-A)*%
D25*
X336462500Y-101706250D02*
X335793750Y-102375000D01*
X336462500Y-98275000D02*
X336462500Y-101706250D01*
%TO.N,Net-(D64-A)*%
X345987500Y-177906250D02*
X345318750Y-178575000D01*
X345987500Y-174475000D02*
X345987500Y-177906250D01*
%TO.N,Net-(D11-A)*%
X269787500Y-101706250D02*
X269118750Y-102375000D01*
X269787500Y-98275000D02*
X269787500Y-101706250D01*
%TO.N,Net-(D15-A)*%
D23*
X84050000Y-117325000D02*
X84050000Y-120756250D01*
X84050000Y-120756250D02*
X83381250Y-121425000D01*
%TO.N,Net-(D10-A)*%
D25*
X250737500Y-101706250D02*
X250068750Y-102375000D01*
X250737500Y-98275000D02*
X250737500Y-101706250D01*
%TO.N,/ROW5A*%
D24*
X180887500Y-177555750D02*
X180918250Y-177525000D01*
X66250000Y-177525000D02*
X66250000Y-180814250D01*
X66250000Y-180814250D02*
X66206500Y-180857750D01*
X90082500Y-180857750D02*
X90062500Y-180837750D01*
X113875000Y-180687250D02*
X113875000Y-177525000D01*
X180760500Y-177555750D02*
X180887500Y-177555750D01*
X90062500Y-180837750D02*
X90062500Y-177525000D01*
X113831500Y-180730750D02*
X113875000Y-180687250D01*
X180918250Y-177525000D02*
X185312500Y-177525000D01*
X113831500Y-180857750D02*
X113831500Y-180730750D01*
%TO.N,Net-(D59-A)*%
D23*
X200731250Y-177906250D02*
X200062500Y-178575000D01*
X200731250Y-174475000D02*
X200731250Y-177906250D01*
%TO.N,/ROW2B*%
D24*
X302045500Y-123707750D02*
X301993750Y-123656000D01*
X325794500Y-123707750D02*
X325806250Y-123696000D01*
X206743750Y-123656000D02*
X206743750Y-120375000D01*
X263893750Y-123656000D02*
X263893750Y-120375000D01*
X301993750Y-123656000D02*
X301993750Y-120375000D01*
X225793750Y-123656000D02*
X225793750Y-120375000D01*
X206795500Y-123707750D02*
X206743750Y-123656000D01*
X325806250Y-123696000D02*
X325806250Y-120375000D01*
X225845500Y-123707750D02*
X225793750Y-123656000D01*
X282995500Y-123707750D02*
X282943750Y-123656000D01*
X244895500Y-123707750D02*
X244843750Y-123656000D01*
X244843750Y-123656000D02*
X244843750Y-120375000D01*
X282943750Y-123656000D02*
X282943750Y-120375000D01*
X263945500Y-123707750D02*
X263893750Y-123656000D01*
%TO.N,Net-(D27-A)*%
D25*
X317412500Y-120756250D02*
X316743750Y-121425000D01*
X317412500Y-117325000D02*
X317412500Y-120756250D01*
%TO.N,/ROW4A*%
D24*
X178168750Y-161756000D02*
X178168750Y-158475000D01*
X159118750Y-161756000D02*
X159118750Y-158475000D01*
X140120500Y-161807750D02*
X140068750Y-161756000D01*
X102020500Y-161553750D02*
X101968750Y-161502000D01*
X197270500Y-161807750D02*
X197218750Y-161756000D01*
X102020500Y-161807750D02*
X102020500Y-161553750D01*
X159170500Y-161807750D02*
X159118750Y-161756000D01*
X73572500Y-161807750D02*
X73546750Y-161782000D01*
X140068750Y-161756000D02*
X140068750Y-158475000D01*
X121018750Y-161756000D02*
X121018750Y-158475000D01*
X197218750Y-161756000D02*
X197218750Y-158475000D01*
X178220500Y-161807750D02*
X178168750Y-161756000D01*
X101968750Y-161502000D02*
X101968750Y-158475000D01*
X121070500Y-161807750D02*
X121018750Y-161756000D01*
X73546750Y-161782000D02*
X73546750Y-158475000D01*
%TO.N,Net-(D46-A)*%
D25*
X174537500Y-160193750D02*
X173868750Y-159525000D01*
D23*
X174537500Y-155425000D02*
X174537500Y-158856250D01*
X174537500Y-158856250D02*
X173868750Y-159525000D01*
%TO.N,Net-(D5-A)*%
X155487500Y-101706250D02*
X154818750Y-102375000D01*
X155487500Y-98275000D02*
X155487500Y-101706250D01*
%TO.N,Net-(D34-A)*%
X188825000Y-139806250D02*
X188156250Y-140475000D01*
X188825000Y-135643750D02*
X188825000Y-139806250D01*
%TO.N,Net-(D31-A)*%
X131675000Y-139806250D02*
X131006250Y-140475000D01*
X131675000Y-135643750D02*
X131675000Y-139806250D01*
%TO.N,Net-(D4-A)*%
X136437500Y-101706250D02*
X135768750Y-102375000D01*
X136437500Y-98275000D02*
X136437500Y-101706250D01*
%TO.N,Net-(D37-A)*%
D25*
X245975000Y-136375000D02*
X245975000Y-139806250D01*
X245975000Y-139806250D02*
X245306250Y-140475000D01*
%TO.N,Net-(D9-A)*%
X231687500Y-98275000D02*
X231687500Y-101706250D01*
X231687500Y-101706250D02*
X231018750Y-102375000D01*
%TO.N,Net-(D24-A)*%
X260262500Y-117325000D02*
X260262500Y-120756250D01*
X260262500Y-120756250D02*
X259593750Y-121425000D01*
%TO.N,Net-(D26-A)*%
X298362500Y-120756250D02*
X297693750Y-121425000D01*
X298362500Y-117325000D02*
X298362500Y-120756250D01*
%TO.N,Net-(D17-A)*%
D23*
X126768750Y-117325000D02*
X126768750Y-120900000D01*
X126768750Y-120900000D02*
X126243750Y-121425000D01*
D25*
X126912500Y-120756250D02*
X126243750Y-121425000D01*
%TO.N,Net-(D36-A)*%
D23*
X226925000Y-136375000D02*
X226925000Y-139806250D01*
X226925000Y-139806250D02*
X226256250Y-140475000D01*
%TO.N,Net-(D28-A)*%
D25*
X341225000Y-120756250D02*
X340556250Y-121425000D01*
X341225000Y-117325000D02*
X341225000Y-120756250D01*
%TO.N,Net-(D56-A)*%
D23*
X81668750Y-174475000D02*
X81668750Y-177906250D01*
X81668750Y-177906250D02*
X81000000Y-178575000D01*
%TO.N,Net-(D50-A)*%
D25*
X250737500Y-155425000D02*
X250737500Y-158856250D01*
X250737500Y-158856250D02*
X250068750Y-159525000D01*
%TO.N,Net-(D21-A)*%
D23*
X203112500Y-117325000D02*
X203112500Y-120756250D01*
X203112500Y-120756250D02*
X202443750Y-121425000D01*
%TO.N,Net-(D2-A)*%
X94306250Y-99012500D02*
X94306250Y-99006250D01*
X97668750Y-102375000D02*
X94306250Y-99012500D01*
%TO.N,Net-(D30-A)*%
X112625000Y-136375000D02*
X112625000Y-139806250D01*
X112625000Y-139806250D02*
X111956250Y-140475000D01*
%TO.N,Net-(D7-A)*%
X193587500Y-98275000D02*
X193587500Y-101706250D01*
X193587500Y-101706250D02*
X192918750Y-102375000D01*
%TO.N,Net-(D22-A)*%
D25*
X222162500Y-120756250D02*
X221493750Y-121425000D01*
X222162500Y-117325000D02*
X222162500Y-120756250D01*
%TO.N,Net-(D39-A)*%
X284075000Y-139806250D02*
X283406250Y-140475000D01*
X284075000Y-136375000D02*
X284075000Y-139806250D01*
%TO.N,Net-(D61-A)*%
X288837500Y-177906250D02*
X288168750Y-178575000D01*
X288837500Y-174475000D02*
X288837500Y-177906250D01*
%TO.N,Net-(D58-A)*%
D23*
X129293750Y-177906250D02*
X128625000Y-178575000D01*
X129293750Y-174475000D02*
X129293750Y-177906250D01*
%TO.N,Net-(D23-A)*%
D25*
X241212500Y-117325000D02*
X241212500Y-120756250D01*
X241212500Y-120756250D02*
X240543750Y-121425000D01*
%TO.N,Net-(D19-A)*%
D23*
X164868750Y-117325000D02*
X164868750Y-120900000D01*
X164868750Y-120900000D02*
X164343750Y-121425000D01*
D25*
X165012500Y-120756250D02*
X164343750Y-121425000D01*
%TO.N,Net-(D42-A)*%
D23*
X88812500Y-158856250D02*
X88143750Y-159525000D01*
X88812500Y-155425000D02*
X88812500Y-158856250D01*
%TO.N,Net-(D38-A)*%
D25*
X265025000Y-136375000D02*
X265025000Y-139806250D01*
X265025000Y-139806250D02*
X264356250Y-140475000D01*
%TO.N,Net-(D43-A)*%
D23*
X117387500Y-155425000D02*
X117387500Y-158856250D01*
X117387500Y-158856250D02*
X116718750Y-159525000D01*
%TO.N,Net-(D57-A)*%
X105481250Y-174475000D02*
X105481250Y-177906250D01*
X105481250Y-177906250D02*
X104812500Y-178575000D01*
%TO.N,Net-(D44-A)*%
X136437500Y-158856250D02*
X135768750Y-159525000D01*
X136437500Y-155425000D02*
X136437500Y-158856250D01*
%TO.N,Net-(D20-A)*%
X183918750Y-120900000D02*
X183393750Y-121425000D01*
D25*
X184062500Y-120756250D02*
X183393750Y-121425000D01*
D23*
X183918750Y-117325000D02*
X183918750Y-120900000D01*
%TO.N,Net-(D12-A)*%
D25*
X288837500Y-98275000D02*
X288837500Y-101706250D01*
X288837500Y-101706250D02*
X288168750Y-102375000D01*
%TO.N,Net-(D35-A)*%
D23*
X207875000Y-135643750D02*
X207875000Y-139806250D01*
D25*
X208018750Y-139662500D02*
X207206250Y-140475000D01*
D23*
X207875000Y-139806250D02*
X207206250Y-140475000D01*
%TO.N,Net-(D45-A)*%
X155487500Y-158856250D02*
X154818750Y-159525000D01*
D25*
X155487500Y-160193750D02*
X154818750Y-159525000D01*
D23*
X155487500Y-155425000D02*
X155487500Y-158856250D01*
%TO.N,Net-(D18-A)*%
X145818750Y-117325000D02*
X145818750Y-120900000D01*
D25*
X145962500Y-120756250D02*
X145293750Y-121425000D01*
D23*
X145818750Y-120900000D02*
X145293750Y-121425000D01*
%TO.N,Net-(D62-A)*%
D25*
X307887500Y-174475000D02*
X307887500Y-177906250D01*
X307887500Y-177906250D02*
X307218750Y-178575000D01*
%TO.N,Net-(D33-A)*%
D23*
X169775000Y-139806250D02*
X169106250Y-140475000D01*
X169775000Y-135643750D02*
X169775000Y-139806250D01*
%TO.N,Net-(D29-A)*%
X86431250Y-136375000D02*
X86431250Y-139806250D01*
X86431250Y-139806250D02*
X85762500Y-140475000D01*
%TO.N,Net-(D13-A)*%
D25*
X307887500Y-101706250D02*
X307218750Y-102375000D01*
X307887500Y-98275000D02*
X307887500Y-101706250D01*
%TO.N,Net-(D47-A)*%
D23*
X193587500Y-155425000D02*
X193587500Y-158856250D01*
X193587500Y-158856250D02*
X192918750Y-159525000D01*
%TO.N,Net-(D60-A)*%
D25*
X269787500Y-177906250D02*
X269118750Y-178575000D01*
X269787500Y-174475000D02*
X269787500Y-177906250D01*
%TO.N,Net-(D41-A)*%
X334081250Y-139806250D02*
X333412500Y-140475000D01*
X334081250Y-136375000D02*
X334081250Y-139806250D01*
%TO.N,Net-(D25-A)*%
X279312500Y-120756250D02*
X278643750Y-121425000D01*
X279312500Y-117325000D02*
X279312500Y-120756250D01*
%TO.N,Net-(D48-A)*%
D23*
X212637500Y-155425000D02*
X212637500Y-158856250D01*
D25*
X212637500Y-158856250D02*
X212226490Y-159267260D01*
D23*
X212637500Y-158856250D02*
X211968750Y-159525000D01*
%TO.N,/COL5*%
X170645750Y-148233250D02*
X174537500Y-152125000D01*
X164868750Y-114025000D02*
X165883250Y-115039500D01*
X155487500Y-94975000D02*
X157579250Y-97066750D01*
X251608250Y-105370750D02*
X260262500Y-114025000D01*
X265025000Y-133075000D02*
X265895750Y-133945750D01*
X174537500Y-152125000D02*
X175408250Y-152995750D01*
X157579250Y-106735500D02*
X164868750Y-114025000D01*
X165883250Y-115039500D02*
X165883250Y-129183250D01*
X270676500Y-170286000D02*
X269787500Y-171175000D01*
X175408250Y-175632500D02*
X180249250Y-180473500D01*
X260489000Y-180473500D02*
X269787500Y-171175000D01*
X88558500Y-90684958D02*
X90151208Y-89092250D01*
X169775000Y-133075000D02*
X170645750Y-133945750D01*
X270676500Y-153014000D02*
X270676500Y-170286000D01*
X244854750Y-89092250D02*
X250737500Y-94975000D01*
X265895750Y-133945750D02*
X265895750Y-148233250D01*
X170645750Y-133945750D02*
X170645750Y-148233250D01*
X269787500Y-152125000D02*
X270676500Y-153014000D01*
X261133250Y-129183250D02*
X265025000Y-133075000D01*
X180249250Y-180473500D02*
X260489000Y-180473500D01*
X265895750Y-148233250D02*
X269787500Y-152125000D01*
X157579250Y-97066750D02*
X157579250Y-106735500D01*
X251608250Y-95845750D02*
X251608250Y-105370750D01*
X165883250Y-129183250D02*
X169775000Y-133075000D01*
X261133250Y-114895750D02*
X261133250Y-129183250D01*
X88558500Y-91957750D02*
X88558500Y-90684958D01*
X260262500Y-114025000D02*
X261133250Y-114895750D01*
X175408250Y-152995750D02*
X175408250Y-175632500D01*
X90151208Y-89092250D02*
X244854750Y-89092250D01*
X250737500Y-94975000D02*
X251608250Y-95845750D01*
%TO.N,/COL3*%
X83478500Y-91957750D02*
X83478500Y-90684958D01*
X119234540Y-96822040D02*
X119234540Y-105024250D01*
X119234540Y-105024250D02*
X126768750Y-112558460D01*
X308776500Y-153014000D02*
X308776500Y-170286000D01*
X139248250Y-181129500D02*
X297933000Y-181129500D01*
X129293750Y-159268750D02*
X129293750Y-171175000D01*
X136437500Y-152125000D02*
X129293750Y-159268750D01*
X307887500Y-137837500D02*
X307887500Y-152125000D01*
X117387500Y-94975000D02*
X119234540Y-96822040D01*
X127783250Y-115039500D02*
X127783250Y-129183250D01*
X131675000Y-133075000D02*
X132545750Y-133945750D01*
X132545750Y-148233250D02*
X136437500Y-152125000D01*
X297933000Y-181129500D02*
X307887500Y-171175000D01*
X299233250Y-114895750D02*
X299233250Y-129183250D01*
X83478500Y-90684958D02*
X85727208Y-88436250D01*
X289708250Y-95845750D02*
X289708250Y-105370750D01*
X132545750Y-133945750D02*
X132545750Y-148233250D01*
X85727208Y-88436250D02*
X282298750Y-88436250D01*
X299233250Y-129183250D02*
X303125000Y-133075000D01*
X289708250Y-105370750D02*
X298362500Y-114025000D01*
X298362500Y-114025000D02*
X299233250Y-114895750D01*
X288837500Y-94975000D02*
X289708250Y-95845750D01*
X303125000Y-133075000D02*
X307887500Y-137837500D01*
X308776500Y-170286000D02*
X307887500Y-171175000D01*
X126768750Y-112558460D02*
X126768750Y-114025000D01*
X127783250Y-129183250D02*
X131675000Y-133075000D01*
X126768750Y-114025000D02*
X127783250Y-115039500D01*
X129293750Y-171175000D02*
X139248250Y-181129500D01*
X282298750Y-88436250D02*
X288837500Y-94975000D01*
X307887500Y-152125000D02*
X308776500Y-153014000D01*
%TO.N,/COL2*%
X105481250Y-164031250D02*
X105481250Y-171175000D01*
X113704500Y-134154500D02*
X113704500Y-148442000D01*
X106352000Y-172045750D02*
X106352000Y-174176574D01*
X316940750Y-181457500D02*
X326937500Y-171460750D01*
X307887500Y-94975000D02*
X313083250Y-100170750D01*
X324729250Y-154333250D02*
X324729250Y-169252500D01*
X324729250Y-169252500D02*
X326937500Y-171460750D01*
X107862500Y-114025000D02*
X108733250Y-114895750D01*
X117387500Y-152125000D02*
X105481250Y-164031250D01*
X334081250Y-133075000D02*
X326937500Y-140218750D01*
X104079250Y-110241750D02*
X107862500Y-114025000D01*
X97606250Y-99006250D02*
X102729000Y-99006250D01*
X113632926Y-181457500D02*
X316940750Y-181457500D01*
X102729000Y-99006250D02*
X104079250Y-100356500D01*
X326937500Y-152125000D02*
X324729250Y-154333250D01*
X112625000Y-133075000D02*
X113704500Y-134154500D01*
X317412500Y-114025000D02*
X318283250Y-114895750D01*
X105481250Y-171175000D02*
X106352000Y-172045750D01*
X326937500Y-140218750D02*
X326937500Y-152125000D01*
X108733250Y-129183250D02*
X112625000Y-133075000D01*
X80938500Y-91957750D02*
X84788000Y-88108250D01*
X81440500Y-91703750D02*
X80811500Y-91703750D01*
X108733250Y-114895750D02*
X108733250Y-129183250D01*
X301020750Y-88108250D02*
X307887500Y-94975000D01*
X318283250Y-114895750D02*
X318283250Y-117277000D01*
X318283250Y-117277000D02*
X334081250Y-133075000D01*
X313083250Y-100170750D02*
X313083250Y-109695750D01*
X84788000Y-88108250D02*
X301020750Y-88108250D01*
X313083250Y-109695750D02*
X317412500Y-114025000D01*
X104079250Y-100356500D02*
X104079250Y-110241750D01*
X106352000Y-174176574D02*
X113632926Y-181457500D01*
X113704500Y-148442000D02*
X117387500Y-152125000D01*
%TO.N,/COL7*%
X222162500Y-114025000D02*
X223033250Y-114895750D01*
X208745750Y-133945750D02*
X208745750Y-148233250D01*
X101019384Y-89748250D02*
X207410750Y-89748250D01*
X227223000Y-156589500D02*
X231687500Y-152125000D01*
X207410750Y-89748250D02*
X212637500Y-94975000D01*
X204255500Y-115168000D02*
X204255500Y-129455500D01*
X227795750Y-148233250D02*
X231687500Y-152125000D01*
X208745750Y-148233250D02*
X212637500Y-152125000D01*
X97285884Y-93481750D02*
X101019384Y-89748250D01*
X217102000Y-156589500D02*
X227223000Y-156589500D01*
X199329250Y-100116750D02*
X199329250Y-110241750D01*
X203112500Y-114025000D02*
X204255500Y-115168000D01*
X95162500Y-93481750D02*
X97285884Y-93481750D01*
X212637500Y-94975000D02*
X213508250Y-95845750D01*
X199329250Y-110241750D02*
X203112500Y-114025000D01*
X194187500Y-94975000D02*
X199329250Y-100116750D01*
X207875000Y-133075000D02*
X208745750Y-133945750D01*
X227795750Y-133945750D02*
X227795750Y-148233250D01*
X204255500Y-129455500D02*
X207875000Y-133075000D01*
X213508250Y-105370750D02*
X222162500Y-114025000D01*
X223033250Y-129183250D02*
X226925000Y-133075000D01*
X93638500Y-91957750D02*
X95162500Y-93481750D01*
X193587500Y-94975000D02*
X194187500Y-94975000D01*
X226925000Y-133075000D02*
X227795750Y-133945750D01*
X223033250Y-114895750D02*
X223033250Y-129183250D01*
X212637500Y-152125000D02*
X217102000Y-156589500D01*
X213508250Y-95845750D02*
X213508250Y-105370750D01*
%TO.N,/COL4*%
X270676500Y-105389000D02*
X279312500Y-114025000D01*
X280183250Y-129183250D02*
X284075000Y-133075000D01*
X177365926Y-180801500D02*
X156358250Y-159793824D01*
X279312500Y-114025000D02*
X280183250Y-114895750D01*
X269787500Y-94975000D02*
X270676500Y-95864000D01*
X136437500Y-94975000D02*
X137580500Y-96118000D01*
X150725000Y-133075000D02*
X150630750Y-133075000D01*
X150725000Y-133075000D02*
X151804500Y-134154500D01*
X89212000Y-88764250D02*
X263576750Y-88764250D01*
X279211000Y-180801500D02*
X177365926Y-180801500D01*
X280183250Y-114895750D02*
X280183250Y-129183250D01*
X137580500Y-96118000D02*
X137580500Y-105786750D01*
X151804500Y-148442000D02*
X155487500Y-152125000D01*
X288837500Y-152125000D02*
X289708250Y-152995750D01*
X288837500Y-171175000D02*
X279211000Y-180801500D01*
X156358250Y-152995750D02*
X155487500Y-152125000D01*
X86018500Y-91957750D02*
X89212000Y-88764250D01*
X284945750Y-133945750D02*
X284945750Y-148233250D01*
X156358250Y-159793824D02*
X156358250Y-152995750D01*
X284945750Y-148233250D02*
X288837500Y-152125000D01*
X289708250Y-152995750D02*
X289708250Y-170304250D01*
X263576750Y-88764250D02*
X269787500Y-94975000D01*
X137580500Y-105786750D02*
X145818750Y-114025000D01*
X146833250Y-115039500D02*
X145818750Y-114025000D01*
X270676500Y-95864000D02*
X270676500Y-105389000D01*
X150630750Y-133075000D02*
X146833250Y-129277500D01*
X284075000Y-133075000D02*
X284945750Y-133945750D01*
X151804500Y-134154500D02*
X151804500Y-148442000D01*
X289708250Y-170304250D02*
X288837500Y-171175000D01*
X86697638Y-91703750D02*
X85891500Y-91703750D01*
X146833250Y-129277500D02*
X146833250Y-115039500D01*
%TO.N,/COL6*%
X232558250Y-105370750D02*
X241212500Y-114025000D01*
X175426500Y-95864000D02*
X175426500Y-105532750D01*
X189695750Y-148233250D02*
X193587500Y-152125000D01*
X95014000Y-92440102D02*
X95727648Y-93153750D01*
X246845750Y-133945750D02*
X246845750Y-148233250D01*
X249224054Y-152125000D02*
X250737500Y-152125000D01*
X230174054Y-171175000D02*
X249224054Y-152125000D01*
X189695750Y-133945750D02*
X189695750Y-148233250D01*
X231687500Y-94975000D02*
X232558250Y-95845750D01*
X193587500Y-152125000D02*
X194458250Y-152995750D01*
X246845750Y-148233250D02*
X250737500Y-152125000D01*
X95727648Y-93153750D02*
X97014500Y-93153750D01*
X91864648Y-91703750D02*
X90971500Y-91703750D01*
X95014000Y-91686398D02*
X95014000Y-92440102D01*
X183918750Y-114025000D02*
X186154250Y-116260500D01*
X200731250Y-171175000D02*
X230174054Y-171175000D01*
X175426500Y-105532750D02*
X183918750Y-114025000D01*
X97014500Y-93153750D02*
X100748000Y-89420250D01*
X245975000Y-133075000D02*
X246845750Y-133945750D01*
X186154250Y-130404250D02*
X188825000Y-133075000D01*
X242083250Y-114895750D02*
X242083250Y-129183250D01*
X232558250Y-95845750D02*
X232558250Y-105370750D01*
X186154250Y-116260500D02*
X186154250Y-130404250D01*
X241212500Y-114025000D02*
X242083250Y-114895750D01*
X92263000Y-90793250D02*
X94120852Y-90793250D01*
X91098500Y-91957750D02*
X92263000Y-90793250D01*
X174537500Y-94975000D02*
X175426500Y-95864000D01*
X242083250Y-129183250D02*
X245975000Y-133075000D01*
X100748000Y-89420250D02*
X226132750Y-89420250D01*
X194458250Y-164902000D02*
X200731250Y-171175000D01*
X226132750Y-89420250D02*
X231687500Y-94975000D01*
X94120852Y-90793250D02*
X95014000Y-91686398D01*
X188825000Y-133075000D02*
X189695750Y-133945750D01*
X194458250Y-152995750D02*
X194458250Y-164902000D01*
%TO.N,/COL1*%
X88812500Y-152125000D02*
X81668750Y-159268750D01*
X81668750Y-172774676D02*
X89518000Y-180623926D01*
X86431250Y-116406250D02*
X84050000Y-114025000D01*
X86431250Y-133075000D02*
X86431250Y-116406250D01*
X343779250Y-154333250D02*
X343779250Y-168966750D01*
X78398500Y-91957750D02*
X78398500Y-90684958D01*
X301991242Y-87780250D02*
X313504250Y-99293258D01*
X81379250Y-105991648D02*
X82103000Y-106715398D01*
X90211926Y-181785500D02*
X335377000Y-181785500D01*
X334254250Y-97183250D02*
X334254250Y-107054250D01*
X341225000Y-114025000D02*
X345987500Y-118787500D01*
X343779250Y-168966750D02*
X345987500Y-171175000D01*
X78398500Y-90684958D02*
X81303208Y-87780250D01*
X89518000Y-180623926D02*
X89518000Y-181091574D01*
X313504250Y-103058824D02*
X315667676Y-105222250D01*
X78556250Y-99006250D02*
X81379250Y-101829250D01*
X315667676Y-105222250D02*
X326215250Y-105222250D01*
X81668750Y-159268750D02*
X81668750Y-171175000D01*
X334254250Y-107054250D02*
X341225000Y-114025000D01*
X81668750Y-171175000D02*
X81668750Y-172774676D01*
X345987500Y-118787500D02*
X345987500Y-152125000D01*
X335377000Y-181785500D02*
X345987500Y-171175000D01*
X81379250Y-101829250D02*
X81379250Y-105991648D01*
X336462500Y-94975000D02*
X334254250Y-97183250D01*
X313504250Y-99293258D02*
X313504250Y-103058824D01*
X82103000Y-106715398D02*
X82103000Y-112078000D01*
X88812500Y-135456250D02*
X88812500Y-152125000D01*
X86431250Y-133075000D02*
X88812500Y-135456250D01*
X89518000Y-181091574D02*
X90211926Y-181785500D01*
X81303208Y-87780250D02*
X301991242Y-87780250D01*
X326215250Y-105222250D02*
X336462500Y-94975000D01*
X345987500Y-152125000D02*
X343779250Y-154333250D01*
X82103000Y-112078000D02*
X84050000Y-114025000D01*
%TO.N,Net-(J1-Pin_1)*%
X67766500Y-117321750D02*
X70016500Y-115071750D01*
X117514500Y-107388750D02*
X115457503Y-107388750D01*
X70016500Y-115071750D02*
X70016500Y-115241750D01*
X115457503Y-107388750D02*
X114720500Y-106651747D01*
X66178500Y-117321750D02*
X67766500Y-117321750D01*
%TO.N,Net-(J1-Pin_2)*%
X117514500Y-109388750D02*
X117514500Y-109610750D01*
X114720500Y-107451750D02*
X114720500Y-108594750D01*
X114720500Y-108594750D02*
X115514500Y-109388750D01*
X115514500Y-109388750D02*
X117514500Y-109388750D01*
D25*
X65698500Y-107197750D02*
X68238500Y-107197750D01*
%TO.N,GND*%
X68600500Y-89055750D02*
X71579500Y-89055750D01*
X73318500Y-90794750D02*
X73318500Y-91957750D01*
D23*
X68436500Y-114321750D02*
X70778500Y-111979750D01*
D25*
X65698500Y-91957750D02*
X68600500Y-89055750D01*
D23*
X66178500Y-114321750D02*
X68436500Y-114321750D01*
D25*
X73318500Y-91957750D02*
X75858500Y-91957750D01*
D23*
X75731500Y-91703750D02*
X76408638Y-91703750D01*
X66686500Y-114321750D02*
X66178500Y-114321750D01*
X70778500Y-111979750D02*
X70778500Y-108848750D01*
D25*
X71579500Y-89055750D02*
X73318500Y-90794750D01*
%TD*%
M02*
