M48
; DRILL file KiCad 10.0.0 date 2026-07-09T05:21:42
; FORMAT={-:-/ absolute / metric / decimal}
; #@! TF.CreationDate,2026-07-09T05:21:42+05:30
; #@! TF.GenerationSoftware,Kicad,Pcbnew,10.0.0
; #@! TF.FileFunction,Plated,1,2,PTH
FMAT,2
METRIC
; #@! TA.AperFunction,Plated,PTH,ViaDrill
T1C0.300
; #@! TA.AperFunction,Plated,PTH,ComponentDrill
T2C1.000
%
G90
G05
T1
X66.206Y-180.858
X68.746Y-123.708
X70.016Y-115.072
X71.032Y-142.758
X73.572Y-161.808
X90.082Y-180.858
X92.495Y-123.835
X97.194Y-142.758
X102.02Y-161.808
X111.545Y-123.835
X113.831Y-180.858
X114.721Y-106.652
X114.721Y-107.452
X116.244Y-142.758
X121.07Y-161.808
X130.595Y-123.835
X135.294Y-142.758
X140.12Y-161.808
X149.645Y-123.835
X154.344Y-142.758
X159.171Y-161.808
X168.695Y-123.835
X173.394Y-142.758
X178.22Y-161.808
X180.76Y-177.556
X187.745Y-123.835
X192.445Y-142.758
X197.27Y-104.658
X197.27Y-161.808
X206.796Y-123.708
X211.494Y-142.758
X216.32Y-104.658
X216.32Y-160.538
X225.845Y-123.708
X230.544Y-142.758
X235.37Y-104.658
X235.37Y-161.046
X244.895Y-123.708
X249.594Y-142.758
X254.42Y-104.658
X254.42Y-161.808
X254.42Y-179.588
X263.945Y-123.708
X268.644Y-142.758
X273.471Y-104.658
X273.471Y-161.808
X273.471Y-180.096
X282.995Y-123.708
X287.695Y-142.758
X292.52Y-104.658
X292.52Y-161.808
X292.52Y-180.35
X302.046Y-123.708
X311.57Y-161.808
X311.57Y-180.858
X318.683Y-142.758
X321.095Y-104.658
X325.794Y-123.708
X330.62Y-161.808
X330.62Y-180.858
T2
X65.698Y-91.958
X65.698Y-107.198
X68.239Y-91.958
X68.239Y-107.198
X70.778Y-91.958
X70.778Y-107.198
X73.319Y-91.958
X73.319Y-107.198
X75.858Y-91.958
X75.858Y-107.198
X78.398Y-91.958
X78.398Y-107.198
X80.938Y-91.958
X80.938Y-107.198
X83.478Y-91.958
X83.478Y-107.198
X86.019Y-91.958
X86.019Y-107.198
X88.558Y-91.958
X88.558Y-107.198
X91.099Y-91.958
X91.099Y-107.198
X93.638Y-91.958
X93.638Y-107.198
X96.178Y-91.958
X96.178Y-107.198
M30
